<?xml version="1.0" encoding="UTF-8" standalone="no"?><svg xmlns="http://www.w3.org/2000/svg" xmlns:xlink="http://www.w3.org/1999/xlink" contentScriptType="application/ecmascript" contentStyleType="text/css" height="277px" preserveAspectRatio="none" style="width:420px;height:277px;" version="1.1" viewBox="0 0 420 277" width="420px" zoomAndPan="magnify"><defs><filter height="300%" id="f1uqo6bzymhg1s" width="300%" x="-1" y="-1"><feGaussianBlur result="blurOut" stdDeviation="2.0"/><feColorMatrix in="blurOut" result="blurOut2" type="matrix" values="0 0 0 0 0 0 0 0 0 0 0 0 0 0 0 0 0 0 .4 0"/><feOffset dx="4.0" dy="4.0" in="blurOut2" result="blurOut3"/><feBlend in="SourceGraphic" in2="blurOut3" mode="normal"/></filter></defs><g><!--MD5=[90d32ccc189f11441a6ce7cbb63ad387]
class Material--><rect fill="#FEFECE" filter="url(#f1uqo6bzymhg1s)" height="150.4375" id="Material" style="stroke: #A80036; stroke-width: 1.5;" width="392" x="17.5" y="8"/><ellipse cx="184.25" cy="24" fill="#ADD1B2" rx="11" ry="11" style="stroke: #A80036; stroke-width: 1.0;"/><path d="M187.2188,29.6406 Q186.6406,29.9375 186,30.0781 Q185.3594,30.2344 184.6563,30.2344 Q182.1563,30.2344 180.8281,28.5938 Q179.5156,26.9375 179.5156,23.8125 Q179.5156,20.6875 180.8281,19.0313 Q182.1563,17.375 184.6563,17.375 Q185.3594,17.375 186,17.5313 Q186.6563,17.6875 187.2188,17.9844 L187.2188,20.7031 Q186.5938,20.125 186,19.8594 Q185.4063,19.5781 184.7813,19.5781 Q183.4375,19.5781 182.75,20.6563 Q182.0625,21.7188 182.0625,23.8125 Q182.0625,25.9063 182.75,26.9844 Q183.4375,28.0469 184.7813,28.0469 Q185.4063,28.0469 186,27.7813 Q186.5938,27.5 187.2188,26.9219 L187.2188,29.6406 Z "/><text fill="#000000" font-family="sans-serif" font-size="12" lengthAdjust="spacingAndGlyphs" textLength="50" x="204.75" y="28.1543">Material</text><line style="stroke: #A80036; stroke-width: 1.5;" x1="18.5" x2="408.5" y1="40" y2="40"/><ellipse cx="28.5" cy="51" fill="none" rx="3" ry="3" style="stroke: #038048; stroke-width: 1.0;"/><text fill="#000000" font-family="sans-serif" font-size="11" lengthAdjust="spacingAndGlyphs" textLength="204" x="37.5" y="54.2104">AmbientStrength : float «get» «set»</text><ellipse cx="28.5" cy="63.8047" fill="none" rx="3" ry="3" style="stroke: #038048; stroke-width: 1.0;"/><text fill="#000000" font-family="sans-serif" font-size="11" lengthAdjust="spacingAndGlyphs" textLength="208" x="37.5" y="67.0151">SpecularStrength : float «get» «set»</text><ellipse cx="28.5" cy="76.6094" fill="none" rx="3" ry="3" style="stroke: #038048; stroke-width: 1.0;"/><text fill="#000000" font-family="sans-serif" font-size="11" lengthAdjust="spacingAndGlyphs" textLength="165" x="37.5" y="79.8198">Shininess : float «get» «set»</text><line style="stroke: #A80036; stroke-width: 1.5;" x1="18.5" x2="408.5" y1="86.4141" y2="86.4141"/><ellipse cx="28.5" cy="97.4141" fill="#84BE84" rx="3" ry="3" style="stroke: #038048; stroke-width: 1.0;"/><text fill="#000000" font-family="sans-serif" font-size="11" lengthAdjust="spacingAndGlyphs" textLength="53" x="37.5" y="100.6245">Material()</text><ellipse cx="28.5" cy="110.2188" fill="#84BE84" rx="3" ry="3" style="stroke: #038048; stroke-width: 1.0;"/><text fill="#000000" font-family="sans-serif" font-size="11" lengthAdjust="spacingAndGlyphs" textLength="366" x="37.5" y="113.4292">Material(_vertexShaderPath:string, _fragmentShaderPath:string)</text><ellipse cx="28.5" cy="123.0234" fill="#84BE84" rx="3" ry="3" style="stroke: #038048; stroke-width: 1.0;"/><text fill="#000000" font-family="sans-serif" font-size="11" lengthAdjust="spacingAndGlyphs" textLength="88" x="37.5" y="126.2339">Initialize() : void</text><ellipse cx="28.5" cy="135.8281" fill="#84BE84" rx="3" ry="3" style="stroke: #038048; stroke-width: 1.0;"/><text fill="#000000" font-family="sans-serif" font-size="11" lengthAdjust="spacingAndGlyphs" textLength="83" x="37.5" y="139.0386">Render() : void</text><ellipse cx="28.5" cy="148.6328" fill="#84BE84" rx="3" ry="3" style="stroke: #038048; stroke-width: 1.0;"/><text fill="#000000" font-family="sans-serif" font-size="11" lengthAdjust="spacingAndGlyphs" textLength="89" x="37.5" y="151.8433">Dispose() : void</text><!--MD5=[03b04ed89c1f7ac76f6e629bfb39a406]
class Shader--><rect fill="#FEFECE" filter="url(#f1uqo6bzymhg1s)" height="48" id="Shader" style="stroke: #A80036; stroke-width: 1.5;" width="77" x="6" y="218"/><ellipse cx="21" cy="234" fill="#ADD1B2" rx="11" ry="11" style="stroke: #A80036; stroke-width: 1.0;"/><path d="M23.9688,239.6406 Q23.3906,239.9375 22.75,240.0781 Q22.1094,240.2344 21.4063,240.2344 Q18.9063,240.2344 17.5781,238.5938 Q16.2656,236.9375 16.2656,233.8125 Q16.2656,230.6875 17.5781,229.0313 Q18.9063,227.375 21.4063,227.375 Q22.1094,227.375 22.75,227.5313 Q23.4063,227.6875 23.9688,227.9844 L23.9688,230.7031 Q23.3438,230.125 22.75,229.8594 Q22.1563,229.5781 21.5313,229.5781 Q20.1875,229.5781 19.5,230.6563 Q18.8125,231.7188 18.8125,233.8125 Q18.8125,235.9063 19.5,236.9844 Q20.1875,238.0469 21.5313,238.0469 Q22.1563,238.0469 22.75,237.7813 Q23.3438,237.5 23.9688,236.9219 L23.9688,239.6406 Z "/><text fill="#000000" font-family="sans-serif" font-size="12" lengthAdjust="spacingAndGlyphs" textLength="45" x="35" y="238.1543">Shader</text><line style="stroke: #A80036; stroke-width: 1.5;" x1="7" x2="82" y1="250" y2="250"/><line style="stroke: #A80036; stroke-width: 1.5;" x1="7" x2="82" y1="258" y2="258"/><!--MD5=[4d4eb26d042d74c9fb837d4bd92f5625]
class Colour--><rect fill="#FEFECE" filter="url(#f1uqo6bzymhg1s)" height="48" id="Colour" style="stroke: #A80036; stroke-width: 1.5;" width="72" x="118.5" y="218"/><ellipse cx="133.5" cy="234" fill="#ADD1B2" rx="11" ry="11" style="stroke: #A80036; stroke-width: 1.0;"/><path d="M136.4688,239.6406 Q135.8906,239.9375 135.25,240.0781 Q134.6094,240.2344 133.9063,240.2344 Q131.4063,240.2344 130.0781,238.5938 Q128.7656,236.9375 128.7656,233.8125 Q128.7656,230.6875 130.0781,229.0313 Q131.4063,227.375 133.9063,227.375 Q134.6094,227.375 135.25,227.5313 Q135.9063,227.6875 136.4688,227.9844 L136.4688,230.7031 Q135.8438,230.125 135.25,229.8594 Q134.6563,229.5781 134.0313,229.5781 Q132.6875,229.5781 132,230.6563 Q131.3125,231.7188 131.3125,233.8125 Q131.3125,235.9063 132,236.9844 Q132.6875,238.0469 134.0313,238.0469 Q134.6563,238.0469 135.25,237.7813 Q135.8438,237.5 136.4688,236.9219 L136.4688,239.6406 Z "/><text fill="#000000" font-family="sans-serif" font-size="12" lengthAdjust="spacingAndGlyphs" textLength="40" x="147.5" y="238.1543">Colour</text><line style="stroke: #A80036; stroke-width: 1.5;" x1="119.5" x2="189.5" y1="250" y2="250"/><line style="stroke: #A80036; stroke-width: 1.5;" x1="119.5" x2="189.5" y1="258" y2="258"/><!--MD5=[6104b1394854ac3fa1f1868fad6021ae]
class Texture2D--><rect fill="#FEFECE" filter="url(#f1uqo6bzymhg1s)" height="48" id="Texture2D" style="stroke: #A80036; stroke-width: 1.5;" width="96" x="225.5" y="218"/><ellipse cx="240.5" cy="234" fill="#ADD1B2" rx="11" ry="11" style="stroke: #A80036; stroke-width: 1.0;"/><path d="M243.4688,239.6406 Q242.8906,239.9375 242.25,240.0781 Q241.6094,240.2344 240.9063,240.2344 Q238.4063,240.2344 237.0781,238.5938 Q235.7656,236.9375 235.7656,233.8125 Q235.7656,230.6875 237.0781,229.0313 Q238.4063,227.375 240.9063,227.375 Q241.6094,227.375 242.25,227.5313 Q242.9063,227.6875 243.4688,227.9844 L243.4688,230.7031 Q242.8438,230.125 242.25,229.8594 Q241.6563,229.5781 241.0313,229.5781 Q239.6875,229.5781 239,230.6563 Q238.3125,231.7188 238.3125,233.8125 Q238.3125,235.9063 239,236.9844 Q239.6875,238.0469 241.0313,238.0469 Q241.6563,238.0469 242.25,237.7813 Q242.8438,237.5 243.4688,236.9219 L243.4688,239.6406 Z "/><text fill="#000000" font-family="sans-serif" font-size="12" lengthAdjust="spacingAndGlyphs" textLength="64" x="254.5" y="238.1543">Texture2D</text><line style="stroke: #A80036; stroke-width: 1.5;" x1="226.5" x2="320.5" y1="250" y2="250"/><line style="stroke: #A80036; stroke-width: 1.5;" x1="226.5" x2="320.5" y1="258" y2="258"/><!--MD5=[b5e66490f284d681496e52038728cd20]
link Material to Shader--><path d="M133.45,158.36 C111.88,178.4 89.92,198.81 73.21,214.33 " fill="none" id="Material-&gt;Shader" style="stroke: #A80036; stroke-width: 1.0;"/><polygon fill="#A80036" points="69.52,217.76,78.8412,214.5796,73.1885,214.3627,73.4055,208.71,69.52,217.76" style="stroke: #A80036; stroke-width: 1.0;"/><text fill="#000000" font-family="sans-serif" font-size="13" lengthAdjust="spacingAndGlyphs" textLength="44" x="26.2561" y="207.1065">shader</text><!--MD5=[2b9eb00bb45b95c2a0bd3d44117b248d]
link Material to Colour--><path d="M185.56,158.36 C178.28,177.73 170.87,197.44 165.12,212.74 " fill="none" id="Material-&gt;Colour" style="stroke: #A80036; stroke-width: 1.0;"/><polygon fill="#A80036" points="163.23,217.76,170.1542,210.756,164.9981,213.0831,162.671,207.927,163.23,217.76" style="stroke: #A80036; stroke-width: 1.0;"/><text fill="#000000" font-family="sans-serif" font-size="13" lengthAdjust="spacingAndGlyphs" textLength="82" x="88.7489" y="206.8606">ObjectColour</text><!--MD5=[cc0d00565e46d68cb02b4945bd7342dd]
link Material to Texture2D--><path d="M229.18,158.36 C236.5,177.9 245.01,197.78 252.84,213.14 " fill="none" id="Material-&gt;Texture2D" style="stroke: #A80036; stroke-width: 1.0;"/><polygon fill="#A80036" points="255.25,217.76,254.6397,207.9301,252.9401,213.3256,247.5446,211.6259,255.25,217.76" style="stroke: #A80036; stroke-width: 1.0;"/><text fill="#000000" font-family="sans-serif" font-size="13" lengthAdjust="spacingAndGlyphs" textLength="71" x="197.5982" y="206.9936">DiffuseMap</text><!--MD5=[cc0d00565e46d68cb02b4945bd7342dd]
link Material to Texture2D--><path d="M255.4,158.36 C262.96,177.73 269.55,197.44 273.36,212.74 " fill="none" id="Material-&gt;Texture2D-1" style="stroke: #A80036; stroke-width: 1.0;"/><polygon fill="#A80036" points="274.54,217.76,276.3518,208.0792,273.3845,212.8954,268.5683,209.9281,274.54,217.76" style="stroke: #A80036; stroke-width: 1.0;"/><text fill="#000000" font-family="sans-serif" font-size="13" lengthAdjust="spacingAndGlyphs" textLength="83" x="284.9091" y="207.1065">SpecularMap</text><!--MD5=[f19a44e115c4a1fd40bff667a535f01c]
@startuml
class Material {
    + Material()
    + Material(_vertexShaderPath:string, _fragmentShaderPath:string)
    + Initialize() : void
    + Render() : void
    + Dispose() : void
    + AmbientStrength : float <<get>> <<set>>
    + SpecularStrength : float <<get>> <<set>>
    + Shininess : float <<get>> <<set>>
}
Material - -> "shader" Shader
Material - -> "ObjectColour" Colour
Material - -> "DiffuseMap" Texture2D
Material - -> "SpecularMap" Texture2D
@enduml

PlantUML version 1.2020.02(Sun Mar 01 10:22:07 GMT 2020)
(GPL source distribution)
Java Runtime: OpenJDK Runtime Environment
JVM: OpenJDK 64-Bit Server VM
Java Version: 11.0.9+11-Ubuntu-0ubuntu1
Operating System: Linux
Default Encoding: ANSI_X3.4-1968
Language: en
Country: US
--></g></svg>