<?xml version="1.0" encoding="UTF-8" standalone="no"?><svg xmlns="http://www.w3.org/2000/svg" xmlns:xlink="http://www.w3.org/1999/xlink" contentScriptType="application/ecmascript" contentStyleType="text/css" height="284px" preserveAspectRatio="none" style="width:541px;height:284px;" version="1.1" viewBox="0 0 541 284" width="541px" zoomAndPan="magnify"><defs><filter height="300%" id="f1l634sg9iiqvq" width="300%" x="-1" y="-1"><feGaussianBlur result="blurOut" stdDeviation="2.0"/><feColorMatrix in="blurOut" result="blurOut2" type="matrix" values="0 0 0 0 0 0 0 0 0 0 0 0 0 0 0 0 0 0 .4 0"/><feOffset dx="4.0" dy="4.0" in="blurOut2" result="blurOut3"/><feBlend in="SourceGraphic" in2="blurOut3" mode="normal"/></filter></defs><g><!--MD5=[90d32ccc189f11441a6ce7cbb63ad387]
class Material--><rect fill="#FEFECE" filter="url(#f1l634sg9iiqvq)" height="265.6797" id="Material" style="stroke: #A80036; stroke-width: 1.5;" width="382" x="6" y="8"/><ellipse cx="167.75" cy="24" fill="#ADD1B2" rx="11" ry="11" style="stroke: #A80036; stroke-width: 1.0;"/><path d="M170.7188,29.6406 Q170.1406,29.9375 169.5,30.0781 Q168.8594,30.2344 168.1563,30.2344 Q165.6563,30.2344 164.3281,28.5938 Q163.0156,26.9375 163.0156,23.8125 Q163.0156,20.6875 164.3281,19.0313 Q165.6563,17.375 168.1563,17.375 Q168.8594,17.375 169.5,17.5313 Q170.1563,17.6875 170.7188,17.9844 L170.7188,20.7031 Q170.0938,20.125 169.5,19.8594 Q168.9063,19.5781 168.2813,19.5781 Q166.9375,19.5781 166.25,20.6563 Q165.5625,21.7188 165.5625,23.8125 Q165.5625,25.9063 166.25,26.9844 Q166.9375,28.0469 168.2813,28.0469 Q168.9063,28.0469 169.5,27.7813 Q170.0938,27.5 170.7188,26.9219 L170.7188,29.6406 Z "/><text fill="#000000" font-family="sans-serif" font-size="12" lengthAdjust="spacingAndGlyphs" textLength="50" x="188.25" y="28.1543">Material</text><line style="stroke: #A80036; stroke-width: 1.5;" x1="7" x2="387" y1="40" y2="40"/><line style="stroke: #A80036; stroke-width: 1.5;" x1="7" x2="387" y1="48" y2="48"/><ellipse cx="17" cy="59" fill="#84BE84" rx="3" ry="3" style="stroke: #038048; stroke-width: 1.0;"/><text fill="#000000" font-family="sans-serif" font-size="11" lengthAdjust="spacingAndGlyphs" textLength="53" x="26" y="62.2104">Material()</text><ellipse cx="17" cy="71.8047" fill="#84BE84" rx="3" ry="3" style="stroke: #038048; stroke-width: 1.0;"/><text fill="#000000" font-family="sans-serif" font-size="11" lengthAdjust="spacingAndGlyphs" textLength="144" x="26" y="75.0151">Material(_shader:Shader)</text><ellipse cx="17" cy="84.6094" fill="#84BE84" rx="3" ry="3" style="stroke: #038048; stroke-width: 1.0;"/><text fill="#000000" font-family="sans-serif" font-size="11" lengthAdjust="spacingAndGlyphs" textLength="141" x="26" y="87.8198">«virtual» Initialize() : void</text><ellipse cx="17" cy="97.4141" fill="#84BE84" rx="3" ry="3" style="stroke: #038048; stroke-width: 1.0;"/><text fill="#000000" font-family="sans-serif" font-size="11" lengthAdjust="spacingAndGlyphs" textLength="136" x="26" y="100.6245">«virtual» Render() : void</text><ellipse cx="17" cy="110.2188" fill="#84BE84" rx="3" ry="3" style="stroke: #038048; stroke-width: 1.0;"/><text fill="#000000" font-family="sans-serif" font-size="11" lengthAdjust="spacingAndGlyphs" textLength="89" x="26" y="113.4292">Dispose() : void</text><ellipse cx="17" cy="123.0234" fill="#84BE84" rx="3" ry="3" style="stroke: #038048; stroke-width: 1.0;"/><text fill="#000000" font-family="sans-serif" font-size="11" lengthAdjust="spacingAndGlyphs" textLength="213" x="26" y="126.2339">SetInt(_name:string, _value:int) : void</text><ellipse cx="17" cy="135.8281" fill="#84BE84" rx="3" ry="3" style="stroke: #038048; stroke-width: 1.0;"/><text fill="#000000" font-family="sans-serif" font-size="11" lengthAdjust="spacingAndGlyphs" textLength="237" x="26" y="139.0386">SetFloat(_name:string, _value:float) : void</text><ellipse cx="17" cy="148.6328" fill="#84BE84" rx="3" ry="3" style="stroke: #038048; stroke-width: 1.0;"/><text fill="#000000" font-family="sans-serif" font-size="11" lengthAdjust="spacingAndGlyphs" textLength="234" x="26" y="151.8433">SetBool(_name:string, _value:bool) : void</text><ellipse cx="17" cy="161.4375" fill="#84BE84" rx="3" ry="3" style="stroke: #038048; stroke-width: 1.0;"/><text fill="#000000" font-family="sans-serif" font-size="11" lengthAdjust="spacingAndGlyphs" textLength="276" x="26" y="164.6479">SetVector2(_name:string, _vector:Vector2) : void</text><ellipse cx="17" cy="174.2422" fill="#84BE84" rx="3" ry="3" style="stroke: #038048; stroke-width: 1.0;"/><text fill="#000000" font-family="sans-serif" font-size="11" lengthAdjust="spacingAndGlyphs" textLength="276" x="26" y="177.4526">SetVector3(_name:string, _vector:Vector3) : void</text><ellipse cx="17" cy="187.0469" fill="#84BE84" rx="3" ry="3" style="stroke: #038048; stroke-width: 1.0;"/><text fill="#000000" font-family="sans-serif" font-size="11" lengthAdjust="spacingAndGlyphs" textLength="276" x="26" y="190.2573">SetVector4(_name:string, _vector:Vector4) : void</text><ellipse cx="17" cy="199.8516" fill="#84BE84" rx="3" ry="3" style="stroke: #038048; stroke-width: 1.0;"/><text fill="#000000" font-family="sans-serif" font-size="11" lengthAdjust="spacingAndGlyphs" textLength="304" x="26" y="203.062">SetVector2Int(_name:string, _vector:Vector2Int) : void</text><ellipse cx="17" cy="212.6563" fill="#84BE84" rx="3" ry="3" style="stroke: #038048; stroke-width: 1.0;"/><text fill="#000000" font-family="sans-serif" font-size="11" lengthAdjust="spacingAndGlyphs" textLength="304" x="26" y="215.8667">SetVector3Int(_name:string, _vector:Vector3Int) : void</text><ellipse cx="17" cy="225.4609" fill="#84BE84" rx="3" ry="3" style="stroke: #038048; stroke-width: 1.0;"/><text fill="#000000" font-family="sans-serif" font-size="11" lengthAdjust="spacingAndGlyphs" textLength="264" x="26" y="228.6714">SetColour(_name:string, _colour:Colour) : void</text><ellipse cx="17" cy="238.2656" fill="#84BE84" rx="3" ry="3" style="stroke: #038048; stroke-width: 1.0;"/><text fill="#000000" font-family="sans-serif" font-size="11" lengthAdjust="spacingAndGlyphs" textLength="342" x="26" y="241.4761">SetQuaternion(_name:string, _quaternion:Quaternion) : void</text><ellipse cx="17" cy="251.0703" fill="#84BE84" rx="3" ry="3" style="stroke: #038048; stroke-width: 1.0;"/><text fill="#000000" font-family="sans-serif" font-size="11" lengthAdjust="spacingAndGlyphs" textLength="356" x="26" y="254.2808">«unsafe» SetMatrix4x4(_name:string, _matrix:Matrix4x4) : void</text><ellipse cx="17" cy="263.875" fill="#84BE84" rx="3" ry="3" style="stroke: #038048; stroke-width: 1.0;"/><text fill="#000000" font-family="sans-serif" font-size="11" lengthAdjust="spacingAndGlyphs" textLength="311" x="26" y="267.0854">SetTexture2D(_name:string, _texture:Texture2D) : void</text><!--MD5=[cb2a130b24abc416b480ee9ce956d39d]
class RenderFace--><rect fill="#FEFECE" filter="url(#f1l634sg9iiqvq)" height="48" id="RenderFace" style="stroke: #A80036; stroke-width: 1.5;" width="107" x="423.5" y="117"/><ellipse cx="438.5" cy="133" fill="#ADD1B2" rx="11" ry="11" style="stroke: #A80036; stroke-width: 1.0;"/><path d="M441.4688,138.6406 Q440.8906,138.9375 440.25,139.0781 Q439.6094,139.2344 438.9063,139.2344 Q436.4063,139.2344 435.0781,137.5938 Q433.7656,135.9375 433.7656,132.8125 Q433.7656,129.6875 435.0781,128.0313 Q436.4063,126.375 438.9063,126.375 Q439.6094,126.375 440.25,126.5313 Q440.9063,126.6875 441.4688,126.9844 L441.4688,129.7031 Q440.8438,129.125 440.25,128.8594 Q439.6563,128.5781 439.0313,128.5781 Q437.6875,128.5781 437,129.6563 Q436.3125,130.7188 436.3125,132.8125 Q436.3125,134.9063 437,135.9844 Q437.6875,137.0469 439.0313,137.0469 Q439.6563,137.0469 440.25,136.7813 Q440.8438,136.5 441.4688,135.9219 L441.4688,138.6406 Z "/><text fill="#000000" font-family="sans-serif" font-size="12" lengthAdjust="spacingAndGlyphs" textLength="75" x="452.5" y="137.1543">RenderFace</text><line style="stroke: #A80036; stroke-width: 1.5;" x1="424.5" x2="529.5" y1="149" y2="149"/><line style="stroke: #A80036; stroke-width: 1.5;" x1="424.5" x2="529.5" y1="157" y2="157"/><!--MD5=[17cea70e73ea35ee85e3daa33b3ba0b4]
link Material to RenderFace--><path d="M400.13,141 C400.13,141 407.22,141 410.18,141 " fill="none" id="Material-RenderFace" style="stroke: #A80036; stroke-width: 1.0;"/><polygon fill="#A80036" points="423.19,141,414.19,137,418.19,141,414.19,145,423.19,141" style="stroke: #A80036; stroke-width: 1.0;"/><line style="stroke: #A80036; stroke-width: 1.0;" x1="418.19" x2="410.19" y1="141" y2="141"/><polygon fill="#FFFFFF" points="388.13,141,394.13,145,400.13,141,394.13,137,388.13,141" style="stroke: #A80036; stroke-width: 1.0;"/><text fill="#000000" font-family="sans-serif" font-size="13" lengthAdjust="spacingAndGlyphs" textLength="72" x="343.6143" y="126.1299">renderFace</text><!--MD5=[d8c1ea1c14117c980cc4107cb0c8220e]
@startuml
class Material {
    + Material()
    + Material(_shader:Shader)
    + <<virtual>> Initialize() : void
    + <<virtual>> Render() : void
    + Dispose() : void
    + SetInt(_name:string, _value:int) : void
    + SetFloat(_name:string, _value:float) : void
    + SetBool(_name:string, _value:bool) : void
    + SetVector2(_name:string, _vector:Vector2) : void
    + SetVector3(_name:string, _vector:Vector3) : void
    + SetVector4(_name:string, _vector:Vector4) : void
    + SetVector2Int(_name:string, _vector:Vector2Int) : void
    + SetVector3Int(_name:string, _vector:Vector3Int) : void
    + SetColour(_name:string, _colour:Colour) : void
    + SetQuaternion(_name:string, _quaternion:Quaternion) : void
    + <<unsafe>> SetMatrix4x4(_name:string, _matrix:Matrix4x4) : void
    + SetTexture2D(_name:string, _texture:Texture2D) : void
}
Material o-> "renderFace" RenderFace
@enduml

PlantUML version 1.2020.02(Sun Mar 01 10:22:07 GMT 2020)
(GPL source distribution)
Java Runtime: OpenJDK Runtime Environment
JVM: OpenJDK 64-Bit Server VM
Java Version: 11.0.9+11-Ubuntu-0ubuntu1
Operating System: Linux
Default Encoding: ANSI_X3.4-1968
Language: en
Country: US
--></g></svg>