<?xml version="1.0" encoding="UTF-8" standalone="no"?><svg xmlns="http://www.w3.org/2000/svg" xmlns:xlink="http://www.w3.org/1999/xlink" contentScriptType="application/ecmascript" contentStyleType="text/css" height="360px" preserveAspectRatio="none" style="width:499px;height:360px;" version="1.1" viewBox="0 0 499 360" width="499px" zoomAndPan="magnify"><defs><filter height="300%" id="fgfe8dlwd09mg" width="300%" x="-1" y="-1"><feGaussianBlur result="blurOut" stdDeviation="2.0"/><feColorMatrix in="blurOut" result="blurOut2" type="matrix" values="0 0 0 0 0 0 0 0 0 0 0 0 0 0 0 0 0 0 .4 0"/><feOffset dx="4.0" dy="4.0" in="blurOut2" result="blurOut3"/><feBlend in="SourceGraphic" in2="blurOut3" mode="normal"/></filter></defs><g><!--MD5=[17c0e1de84ba98e23d8fba3bc9315d65]
class MeshRenderer--><rect fill="#FEFECE" filter="url(#fgfe8dlwd09mg)" height="124.8281" id="MeshRenderer" style="stroke: #A80036; stroke-width: 1.5;" width="335" x="6" y="116"/><ellipse cx="123.75" cy="132" fill="#ADD1B2" rx="11" ry="11" style="stroke: #A80036; stroke-width: 1.0;"/><path d="M126.7188,137.6406 Q126.1406,137.9375 125.5,138.0781 Q124.8594,138.2344 124.1563,138.2344 Q121.6563,138.2344 120.3281,136.5938 Q119.0156,134.9375 119.0156,131.8125 Q119.0156,128.6875 120.3281,127.0313 Q121.6563,125.375 124.1563,125.375 Q124.8594,125.375 125.5,125.5313 Q126.1563,125.6875 126.7188,125.9844 L126.7188,128.7031 Q126.0938,128.125 125.5,127.8594 Q124.9063,127.5781 124.2813,127.5781 Q122.9375,127.5781 122.25,128.6563 Q121.5625,129.7188 121.5625,131.8125 Q121.5625,133.9063 122.25,134.9844 Q122.9375,136.0469 124.2813,136.0469 Q124.9063,136.0469 125.5,135.7813 Q126.0938,135.5 126.7188,134.9219 L126.7188,137.6406 Z "/><text fill="#000000" font-family="sans-serif" font-size="12" lengthAdjust="spacingAndGlyphs" textLength="91" x="144.25" y="136.1543">MeshRenderer</text><line style="stroke: #A80036; stroke-width: 1.5;" x1="7" x2="340" y1="148" y2="148"/><line style="stroke: #A80036; stroke-width: 1.5;" x1="7" x2="340" y1="156" y2="156"/><ellipse cx="17" cy="167" fill="#84BE84" rx="3" ry="3" style="stroke: #038048; stroke-width: 1.0;"/><text fill="#000000" font-family="sans-serif" font-size="11" lengthAdjust="spacingAndGlyphs" textLength="90" x="26" y="170.2104">MeshRenderer()</text><ellipse cx="17" cy="179.8047" fill="#84BE84" rx="3" ry="3" style="stroke: #038048; stroke-width: 1.0;"/><text fill="#000000" font-family="sans-serif" font-size="11" lengthAdjust="spacingAndGlyphs" textLength="162" x="26" y="183.0151">MeshRenderer(_mesh:Mesh)</text><ellipse cx="17" cy="192.6094" fill="#84BE84" rx="3" ry="3" style="stroke: #038048; stroke-width: 1.0;"/><text fill="#000000" font-family="sans-serif" font-size="11" lengthAdjust="spacingAndGlyphs" textLength="168" x="26" y="195.8198">MeshRenderer(_model:Model)</text><ellipse cx="17" cy="205.4141" fill="#84BE84" rx="3" ry="3" style="stroke: #038048; stroke-width: 1.0;"/><text fill="#000000" font-family="sans-serif" font-size="11" lengthAdjust="spacingAndGlyphs" textLength="309" x="26" y="208.6245">MeshRenderer(_meshes:Mesh[], _materials:Material[])</text><ellipse cx="17" cy="218.2188" fill="#84BE84" rx="3" ry="3" style="stroke: #038048; stroke-width: 1.0;"/><text fill="#000000" font-family="sans-serif" font-size="11" lengthAdjust="spacingAndGlyphs" textLength="193" x="26" y="221.4292">«override» «unsafe» Start() : void</text><ellipse cx="17" cy="231.0234" fill="#84BE84" rx="3" ry="3" style="stroke: #038048; stroke-width: 1.0;"/><text fill="#000000" font-family="sans-serif" font-size="11" lengthAdjust="spacingAndGlyphs" textLength="128" x="26" y="234.2339">«override» Exit() : void</text><!--MD5=[4e13963c9dc916a21a8436ef39422b32]
class Component--><rect fill="#FEFECE" filter="url(#fgfe8dlwd09mg)" height="48" id="Component" style="stroke: #A80036; stroke-width: 1.5;" width="104" x="121.5" y="8"/><ellipse cx="136.5" cy="24" fill="#ADD1B2" rx="11" ry="11" style="stroke: #A80036; stroke-width: 1.0;"/><path d="M139.4688,29.6406 Q138.8906,29.9375 138.25,30.0781 Q137.6094,30.2344 136.9063,30.2344 Q134.4063,30.2344 133.0781,28.5938 Q131.7656,26.9375 131.7656,23.8125 Q131.7656,20.6875 133.0781,19.0313 Q134.4063,17.375 136.9063,17.375 Q137.6094,17.375 138.25,17.5313 Q138.9063,17.6875 139.4688,17.9844 L139.4688,20.7031 Q138.8438,20.125 138.25,19.8594 Q137.6563,19.5781 137.0313,19.5781 Q135.6875,19.5781 135,20.6563 Q134.3125,21.7188 134.3125,23.8125 Q134.3125,25.9063 135,26.9844 Q135.6875,28.0469 137.0313,28.0469 Q137.6563,28.0469 138.25,27.7813 Q138.8438,27.5 139.4688,26.9219 L139.4688,29.6406 Z "/><text fill="#000000" font-family="sans-serif" font-size="12" lengthAdjust="spacingAndGlyphs" textLength="72" x="150.5" y="28.1543">Component</text><line style="stroke: #A80036; stroke-width: 1.5;" x1="122.5" x2="224.5" y1="40" y2="40"/><line style="stroke: #A80036; stroke-width: 1.5;" x1="122.5" x2="224.5" y1="48" y2="48"/><!--MD5=[90d32ccc189f11441a6ce7cbb63ad387]
class Material--><rect fill="#FEFECE" filter="url(#fgfe8dlwd09mg)" height="48" id="Material" style="stroke: #A80036; stroke-width: 1.5;" width="82" x="78.5" y="301"/><ellipse cx="93.5" cy="317" fill="#ADD1B2" rx="11" ry="11" style="stroke: #A80036; stroke-width: 1.0;"/><path d="M96.4688,322.6406 Q95.8906,322.9375 95.25,323.0781 Q94.6094,323.2344 93.9063,323.2344 Q91.4063,323.2344 90.0781,321.5938 Q88.7656,319.9375 88.7656,316.8125 Q88.7656,313.6875 90.0781,312.0313 Q91.4063,310.375 93.9063,310.375 Q94.6094,310.375 95.25,310.5313 Q95.9063,310.6875 96.4688,310.9844 L96.4688,313.7031 Q95.8438,313.125 95.25,312.8594 Q94.6563,312.5781 94.0313,312.5781 Q92.6875,312.5781 92,313.6563 Q91.3125,314.7188 91.3125,316.8125 Q91.3125,318.9063 92,319.9844 Q92.6875,321.0469 94.0313,321.0469 Q94.6563,321.0469 95.25,320.7813 Q95.8438,320.5 96.4688,319.9219 L96.4688,322.6406 Z "/><text fill="#000000" font-family="sans-serif" font-size="12" lengthAdjust="spacingAndGlyphs" textLength="50" x="107.5" y="321.1543">Material</text><line style="stroke: #A80036; stroke-width: 1.5;" x1="79.5" x2="159.5" y1="333" y2="333"/><line style="stroke: #A80036; stroke-width: 1.5;" x1="79.5" x2="159.5" y1="341" y2="341"/><!--MD5=[49b4333bed3a745cc53311fcf54bbfcc]
class Mesh--><rect fill="#FEFECE" filter="url(#fgfe8dlwd09mg)" height="48" id="Mesh" style="stroke: #A80036; stroke-width: 1.5;" width="65" x="196" y="301"/><ellipse cx="211" cy="317" fill="#ADD1B2" rx="11" ry="11" style="stroke: #A80036; stroke-width: 1.0;"/><path d="M213.9688,322.6406 Q213.3906,322.9375 212.75,323.0781 Q212.1094,323.2344 211.4063,323.2344 Q208.9063,323.2344 207.5781,321.5938 Q206.2656,319.9375 206.2656,316.8125 Q206.2656,313.6875 207.5781,312.0313 Q208.9063,310.375 211.4063,310.375 Q212.1094,310.375 212.75,310.5313 Q213.4063,310.6875 213.9688,310.9844 L213.9688,313.7031 Q213.3438,313.125 212.75,312.8594 Q212.1563,312.5781 211.5313,312.5781 Q210.1875,312.5781 209.5,313.6563 Q208.8125,314.7188 208.8125,316.8125 Q208.8125,318.9063 209.5,319.9844 Q210.1875,321.0469 211.5313,321.0469 Q212.1563,321.0469 212.75,320.7813 Q213.3438,320.5 213.9688,319.9219 L213.9688,322.6406 Z "/><text fill="#000000" font-family="sans-serif" font-size="12" lengthAdjust="spacingAndGlyphs" textLength="33" x="225" y="321.1543">Mesh</text><line style="stroke: #A80036; stroke-width: 1.5;" x1="197" x2="260" y1="333" y2="333"/><line style="stroke: #A80036; stroke-width: 1.5;" x1="197" x2="260" y1="341" y2="341"/><!--MD5=[9fe2f50fc0fb90afd955d2b2b6bed996]
class RenderOrder--><rect fill="#FEFECE" filter="url(#fgfe8dlwd09mg)" height="48" id="RenderOrder" style="stroke: #A80036; stroke-width: 1.5;" width="112" x="376.5" y="154.5"/><ellipse cx="391.5" cy="170.5" fill="#ADD1B2" rx="11" ry="11" style="stroke: #A80036; stroke-width: 1.0;"/><path d="M394.4688,176.1406 Q393.8906,176.4375 393.25,176.5781 Q392.6094,176.7344 391.9063,176.7344 Q389.4063,176.7344 388.0781,175.0938 Q386.7656,173.4375 386.7656,170.3125 Q386.7656,167.1875 388.0781,165.5313 Q389.4063,163.875 391.9063,163.875 Q392.6094,163.875 393.25,164.0313 Q393.9063,164.1875 394.4688,164.4844 L394.4688,167.2031 Q393.8438,166.625 393.25,166.3594 Q392.6563,166.0781 392.0313,166.0781 Q390.6875,166.0781 390,167.1563 Q389.3125,168.2188 389.3125,170.3125 Q389.3125,172.4063 390,173.4844 Q390.6875,174.5469 392.0313,174.5469 Q392.6563,174.5469 393.25,174.2813 Q393.8438,174 394.4688,173.4219 L394.4688,176.1406 Z "/><text fill="#000000" font-family="sans-serif" font-size="12" lengthAdjust="spacingAndGlyphs" textLength="80" x="405.5" y="174.6543">RenderOrder</text><line style="stroke: #A80036; stroke-width: 1.5;" x1="377.5" x2="487.5" y1="186.5" y2="186.5"/><line style="stroke: #A80036; stroke-width: 1.5;" x1="377.5" x2="487.5" y1="194.5" y2="194.5"/><!--MD5=[0b2b7d0809a6221724ebb512295d19bd]
reverse link Component to MeshRenderer--><path d="M173.5,76.67 C173.5,89.05 173.5,102.77 173.5,115.99 " fill="none" id="Component&lt;-MeshRenderer" style="stroke: #A80036; stroke-width: 1.0;"/><polygon fill="none" points="166.5,76.22,173.5,56.22,180.5,76.22,166.5,76.22" style="stroke: #A80036; stroke-width: 1.0;"/><!--MD5=[baeca463a374d9623145966dedd093e2]
link MeshRenderer to Material--><path d="M150.44,241.2 C143.27,260.39 135.72,280.59 129.88,296.23 " fill="none" id="MeshRenderer-&gt;Material" style="stroke: #A80036; stroke-width: 1.0;"/><polygon fill="#A80036" points="128.12,300.94,135.0254,293.9175,129.8756,296.2584,127.5348,291.1085,128.12,300.94" style="stroke: #A80036; stroke-width: 1.0;"/><text fill="#000000" font-family="sans-serif" font-size="13" lengthAdjust="spacingAndGlyphs" textLength="53" x="70.5383" y="289.9367">material</text><!--MD5=[ef867dd1f259c3c2209dc861837c00d1]
link MeshRenderer to Mesh--><path d="M196.98,241.2 C204.29,260.39 211.98,280.59 217.93,296.23 " fill="none" id="MeshRenderer-&gt;Mesh" style="stroke: #A80036; stroke-width: 1.0;"/><polygon fill="#A80036" points="219.72,300.94,220.2427,291.105,217.9347,296.2696,212.7701,293.9615,219.72,300.94" style="stroke: #A80036; stroke-width: 1.0;"/><text fill="#000000" font-family="sans-serif" font-size="13" lengthAdjust="spacingAndGlyphs" textLength="36" x="176.8576" y="289.9367">mesh</text><!--MD5=[995088ae2462e6232abdeafe3bf21694]
link MeshRenderer to RenderOrder--><path d="M353.19,178.5 C353.19,178.5 359.99,178.5 362.83,178.5 " fill="none" id="MeshRenderer-RenderOrder" style="stroke: #A80036; stroke-width: 1.0;"/><polygon fill="#A80036" points="376.15,178.5,367.15,174.5,371.15,178.5,367.15,182.5,376.15,178.5" style="stroke: #A80036; stroke-width: 1.0;"/><line style="stroke: #A80036; stroke-width: 1.0;" x1="371.15" x2="363.15" y1="178.5" y2="178.5"/><polygon fill="#FFFFFF" points="341.19,178.5,347.19,182.5,353.19,178.5,347.19,174.5,341.19,178.5" style="stroke: #A80036; stroke-width: 1.0;"/><text fill="#000000" font-family="sans-serif" font-size="13" lengthAdjust="spacingAndGlyphs" textLength="78" x="290.3372" y="203.6503">renderOrder</text><!--MD5=[e0e8d0c7129d0bc6bf86c651a95e0336]
@startuml
class MeshRenderer {
    + MeshRenderer()
    + MeshRenderer(_mesh:Mesh)
    + MeshRenderer(_model:Model)
    + MeshRenderer(_meshes:Mesh[], _materials:Material[])
    + <<override>> <<unsafe>> Start() : void
    + <<override>> Exit() : void
}
Component <|- - MeshRenderer
MeshRenderer - -> "material" Material
MeshRenderer - -> "mesh" Mesh
MeshRenderer o-> "renderOrder" RenderOrder
@enduml

PlantUML version 1.2020.02(Sun Mar 01 10:22:07 GMT 2020)
(GPL source distribution)
Java Runtime: OpenJDK Runtime Environment
JVM: OpenJDK 64-Bit Server VM
Java Version: 11.0.9+11-Ubuntu-0ubuntu1
Operating System: Linux
Default Encoding: ANSI_X3.4-1968
Language: en
Country: US
--></g></svg>