<?xml version="1.0" encoding="UTF-8" standalone="no"?><svg xmlns="http://www.w3.org/2000/svg" xmlns:xlink="http://www.w3.org/1999/xlink" contentScriptType="application/ecmascript" contentStyleType="text/css" height="360px" preserveAspectRatio="none" style="width:615px;height:360px;" version="1.1" viewBox="0 0 615 360" width="615px" zoomAndPan="magnify"><defs><filter height="300%" id="fseodynwbzk46" width="300%" x="-1" y="-1"><feGaussianBlur result="blurOut" stdDeviation="2.0"/><feColorMatrix in="blurOut" result="blurOut2" type="matrix" values="0 0 0 0 0 0 0 0 0 0 0 0 0 0 0 0 0 0 .4 0"/><feOffset dx="4.0" dy="4.0" in="blurOut2" result="blurOut3"/><feBlend in="SourceGraphic" in2="blurOut3" mode="normal"/></filter></defs><g><!--MD5=[17c0e1de84ba98e23d8fba3bc9315d65]
class MeshRenderer--><rect fill="#FEFECE" filter="url(#fseodynwbzk46)" height="124.8281" id="MeshRenderer" style="stroke: #A80036; stroke-width: 1.5;" width="298" x="6" y="116"/><ellipse cx="105.25" cy="132" fill="#ADD1B2" rx="11" ry="11" style="stroke: #A80036; stroke-width: 1.0;"/><path d="M108.2188,137.6406 Q107.6406,137.9375 107,138.0781 Q106.3594,138.2344 105.6563,138.2344 Q103.1563,138.2344 101.8281,136.5938 Q100.5156,134.9375 100.5156,131.8125 Q100.5156,128.6875 101.8281,127.0313 Q103.1563,125.375 105.6563,125.375 Q106.3594,125.375 107,125.5313 Q107.6563,125.6875 108.2188,125.9844 L108.2188,128.7031 Q107.5938,128.125 107,127.8594 Q106.4063,127.5781 105.7813,127.5781 Q104.4375,127.5781 103.75,128.6563 Q103.0625,129.7188 103.0625,131.8125 Q103.0625,133.9063 103.75,134.9844 Q104.4375,136.0469 105.7813,136.0469 Q106.4063,136.0469 107,135.7813 Q107.5938,135.5 108.2188,134.9219 L108.2188,137.6406 Z "/><text fill="#000000" font-family="sans-serif" font-size="12" lengthAdjust="spacingAndGlyphs" textLength="91" x="125.75" y="136.1543">MeshRenderer</text><line style="stroke: #A80036; stroke-width: 1.5;" x1="7" x2="303" y1="148" y2="148"/><line style="stroke: #A80036; stroke-width: 1.5;" x1="7" x2="303" y1="156" y2="156"/><ellipse cx="17" cy="167" fill="#84BE84" rx="3" ry="3" style="stroke: #038048; stroke-width: 1.0;"/><text fill="#000000" font-family="sans-serif" font-size="11" lengthAdjust="spacingAndGlyphs" textLength="90" x="26" y="170.2104">MeshRenderer()</text><ellipse cx="17" cy="179.8047" fill="#84BE84" rx="3" ry="3" style="stroke: #038048; stroke-width: 1.0;"/><text fill="#000000" font-family="sans-serif" font-size="11" lengthAdjust="spacingAndGlyphs" textLength="162" x="26" y="183.0151">MeshRenderer(_mesh:Mesh)</text><ellipse cx="17" cy="192.6094" fill="#84BE84" rx="3" ry="3" style="stroke: #038048; stroke-width: 1.0;"/><text fill="#000000" font-family="sans-serif" font-size="11" lengthAdjust="spacingAndGlyphs" textLength="226" x="26" y="195.8198">MeshRenderer(_model:(Mesh, Material))</text><ellipse cx="17" cy="205.4141" fill="#84BE84" rx="3" ry="3" style="stroke: #038048; stroke-width: 1.0;"/><text fill="#000000" font-family="sans-serif" font-size="11" lengthAdjust="spacingAndGlyphs" textLength="272" x="26" y="208.6245">MeshRenderer(_mesh:Mesh, _material:Material)</text><ellipse cx="17" cy="218.2188" fill="#84BE84" rx="3" ry="3" style="stroke: #038048; stroke-width: 1.0;"/><text fill="#000000" font-family="sans-serif" font-size="11" lengthAdjust="spacingAndGlyphs" textLength="193" x="26" y="221.4292">«override» «unsafe» Start() : void</text><ellipse cx="17" cy="231.0234" fill="#84BE84" rx="3" ry="3" style="stroke: #038048; stroke-width: 1.0;"/><text fill="#000000" font-family="sans-serif" font-size="11" lengthAdjust="spacingAndGlyphs" textLength="128" x="26" y="234.2339">«override» Exit() : void</text><!--MD5=[4e13963c9dc916a21a8436ef39422b32]
class Component--><rect fill="#FEFECE" filter="url(#fseodynwbzk46)" height="48" id="Component" style="stroke: #A80036; stroke-width: 1.5;" width="104" x="103" y="8"/><ellipse cx="118" cy="24" fill="#ADD1B2" rx="11" ry="11" style="stroke: #A80036; stroke-width: 1.0;"/><path d="M120.9688,29.6406 Q120.3906,29.9375 119.75,30.0781 Q119.1094,30.2344 118.4063,30.2344 Q115.9063,30.2344 114.5781,28.5938 Q113.2656,26.9375 113.2656,23.8125 Q113.2656,20.6875 114.5781,19.0313 Q115.9063,17.375 118.4063,17.375 Q119.1094,17.375 119.75,17.5313 Q120.4063,17.6875 120.9688,17.9844 L120.9688,20.7031 Q120.3438,20.125 119.75,19.8594 Q119.1563,19.5781 118.5313,19.5781 Q117.1875,19.5781 116.5,20.6563 Q115.8125,21.7188 115.8125,23.8125 Q115.8125,25.9063 116.5,26.9844 Q117.1875,28.0469 118.5313,28.0469 Q119.1563,28.0469 119.75,27.7813 Q120.3438,27.5 120.9688,26.9219 L120.9688,29.6406 Z "/><text fill="#000000" font-family="sans-serif" font-size="12" lengthAdjust="spacingAndGlyphs" textLength="72" x="132" y="28.1543">Component</text><line style="stroke: #A80036; stroke-width: 1.5;" x1="104" x2="206" y1="40" y2="40"/><line style="stroke: #A80036; stroke-width: 1.5;" x1="104" x2="206" y1="48" y2="48"/><!--MD5=[90d32ccc189f11441a6ce7cbb63ad387]
class Material--><rect fill="#FEFECE" filter="url(#fseodynwbzk46)" height="48" id="Material" style="stroke: #A80036; stroke-width: 1.5;" width="82" x="60" y="301"/><ellipse cx="75" cy="317" fill="#ADD1B2" rx="11" ry="11" style="stroke: #A80036; stroke-width: 1.0;"/><path d="M77.9688,322.6406 Q77.3906,322.9375 76.75,323.0781 Q76.1094,323.2344 75.4063,323.2344 Q72.9063,323.2344 71.5781,321.5938 Q70.2656,319.9375 70.2656,316.8125 Q70.2656,313.6875 71.5781,312.0313 Q72.9063,310.375 75.4063,310.375 Q76.1094,310.375 76.75,310.5313 Q77.4063,310.6875 77.9688,310.9844 L77.9688,313.7031 Q77.3438,313.125 76.75,312.8594 Q76.1563,312.5781 75.5313,312.5781 Q74.1875,312.5781 73.5,313.6563 Q72.8125,314.7188 72.8125,316.8125 Q72.8125,318.9063 73.5,319.9844 Q74.1875,321.0469 75.5313,321.0469 Q76.1563,321.0469 76.75,320.7813 Q77.3438,320.5 77.9688,319.9219 L77.9688,322.6406 Z "/><text fill="#000000" font-family="sans-serif" font-size="12" lengthAdjust="spacingAndGlyphs" textLength="50" x="89" y="321.1543">Material</text><line style="stroke: #A80036; stroke-width: 1.5;" x1="61" x2="141" y1="333" y2="333"/><line style="stroke: #A80036; stroke-width: 1.5;" x1="61" x2="141" y1="341" y2="341"/><!--MD5=[49b4333bed3a745cc53311fcf54bbfcc]
class Mesh--><rect fill="#FEFECE" filter="url(#fseodynwbzk46)" height="48" id="Mesh" style="stroke: #A80036; stroke-width: 1.5;" width="65" x="177.5" y="301"/><ellipse cx="192.5" cy="317" fill="#ADD1B2" rx="11" ry="11" style="stroke: #A80036; stroke-width: 1.0;"/><path d="M195.4688,322.6406 Q194.8906,322.9375 194.25,323.0781 Q193.6094,323.2344 192.9063,323.2344 Q190.4063,323.2344 189.0781,321.5938 Q187.7656,319.9375 187.7656,316.8125 Q187.7656,313.6875 189.0781,312.0313 Q190.4063,310.375 192.9063,310.375 Q193.6094,310.375 194.25,310.5313 Q194.9063,310.6875 195.4688,310.9844 L195.4688,313.7031 Q194.8438,313.125 194.25,312.8594 Q193.6563,312.5781 193.0313,312.5781 Q191.6875,312.5781 191,313.6563 Q190.3125,314.7188 190.3125,316.8125 Q190.3125,318.9063 191,319.9844 Q191.6875,321.0469 193.0313,321.0469 Q193.6563,321.0469 194.25,320.7813 Q194.8438,320.5 195.4688,319.9219 L195.4688,322.6406 Z "/><text fill="#000000" font-family="sans-serif" font-size="12" lengthAdjust="spacingAndGlyphs" textLength="33" x="206.5" y="321.1543">Mesh</text><line style="stroke: #A80036; stroke-width: 1.5;" x1="178.5" x2="241.5" y1="333" y2="333"/><line style="stroke: #A80036; stroke-width: 1.5;" x1="178.5" x2="241.5" y1="341" y2="341"/><!--MD5=[3e3e8e8986bbc8707fa65221889a4aca]
class CullFaceMode--><rect fill="#FEFECE" filter="url(#fseodynwbzk46)" height="48" id="CullFaceMode" style="stroke: #A80036; stroke-width: 1.5;" width="118" x="486" y="154.5"/><ellipse cx="501" cy="170.5" fill="#ADD1B2" rx="11" ry="11" style="stroke: #A80036; stroke-width: 1.0;"/><path d="M503.9688,176.1406 Q503.3906,176.4375 502.75,176.5781 Q502.1094,176.7344 501.4063,176.7344 Q498.9063,176.7344 497.5781,175.0938 Q496.2656,173.4375 496.2656,170.3125 Q496.2656,167.1875 497.5781,165.5313 Q498.9063,163.875 501.4063,163.875 Q502.1094,163.875 502.75,164.0313 Q503.4063,164.1875 503.9688,164.4844 L503.9688,167.2031 Q503.3438,166.625 502.75,166.3594 Q502.1563,166.0781 501.5313,166.0781 Q500.1875,166.0781 499.5,167.1563 Q498.8125,168.2188 498.8125,170.3125 Q498.8125,172.4063 499.5,173.4844 Q500.1875,174.5469 501.5313,174.5469 Q502.1563,174.5469 502.75,174.2813 Q503.3438,174 503.9688,173.4219 L503.9688,176.1406 Z "/><text fill="#000000" font-family="sans-serif" font-size="12" lengthAdjust="spacingAndGlyphs" textLength="86" x="515" y="174.6543">CullFaceMode</text><line style="stroke: #A80036; stroke-width: 1.5;" x1="487" x2="603" y1="186.5" y2="186.5"/><line style="stroke: #A80036; stroke-width: 1.5;" x1="487" x2="603" y1="194.5" y2="194.5"/><!--MD5=[9fe2f50fc0fb90afd955d2b2b6bed996]
class RenderOrder--><rect fill="#FEFECE" filter="url(#fseodynwbzk46)" height="48" id="RenderOrder" style="stroke: #A80036; stroke-width: 1.5;" width="112" x="339" y="154.5"/><ellipse cx="354" cy="170.5" fill="#ADD1B2" rx="11" ry="11" style="stroke: #A80036; stroke-width: 1.0;"/><path d="M356.9688,176.1406 Q356.3906,176.4375 355.75,176.5781 Q355.1094,176.7344 354.4063,176.7344 Q351.9063,176.7344 350.5781,175.0938 Q349.2656,173.4375 349.2656,170.3125 Q349.2656,167.1875 350.5781,165.5313 Q351.9063,163.875 354.4063,163.875 Q355.1094,163.875 355.75,164.0313 Q356.4063,164.1875 356.9688,164.4844 L356.9688,167.2031 Q356.3438,166.625 355.75,166.3594 Q355.1563,166.0781 354.5313,166.0781 Q353.1875,166.0781 352.5,167.1563 Q351.8125,168.2188 351.8125,170.3125 Q351.8125,172.4063 352.5,173.4844 Q353.1875,174.5469 354.5313,174.5469 Q355.1563,174.5469 355.75,174.2813 Q356.3438,174 356.9688,173.4219 L356.9688,176.1406 Z "/><text fill="#000000" font-family="sans-serif" font-size="12" lengthAdjust="spacingAndGlyphs" textLength="80" x="368" y="174.6543">RenderOrder</text><line style="stroke: #A80036; stroke-width: 1.5;" x1="340" x2="450" y1="186.5" y2="186.5"/><line style="stroke: #A80036; stroke-width: 1.5;" x1="340" x2="450" y1="194.5" y2="194.5"/><!--MD5=[0b2b7d0809a6221724ebb512295d19bd]
reverse link Component to MeshRenderer--><path d="M155,76.67 C155,89.05 155,102.77 155,115.99 " fill="none" id="Component&lt;-MeshRenderer" style="stroke: #A80036; stroke-width: 1.0;"/><polygon fill="none" points="148,76.22,155,56.22,162,76.22,148,76.22" style="stroke: #A80036; stroke-width: 1.0;"/><!--MD5=[baeca463a374d9623145966dedd093e2]
link MeshRenderer to Material--><path d="M131.94,241.2 C124.77,260.39 117.22,280.59 111.38,296.23 " fill="none" id="MeshRenderer-&gt;Material" style="stroke: #A80036; stroke-width: 1.0;"/><polygon fill="#A80036" points="109.62,300.94,116.5254,293.9175,111.3756,296.2584,109.0348,291.1085,109.62,300.94" style="stroke: #A80036; stroke-width: 1.0;"/><text fill="#000000" font-family="sans-serif" font-size="13" lengthAdjust="spacingAndGlyphs" textLength="53" x="52.0383" y="289.9367">material</text><!--MD5=[ef867dd1f259c3c2209dc861837c00d1]
link MeshRenderer to Mesh--><path d="M178.48,241.2 C185.79,260.39 193.48,280.59 199.43,296.23 " fill="none" id="MeshRenderer-&gt;Mesh" style="stroke: #A80036; stroke-width: 1.0;"/><polygon fill="#A80036" points="201.22,300.94,201.7427,291.105,199.4347,296.2696,194.2701,293.9615,201.22,300.94" style="stroke: #A80036; stroke-width: 1.0;"/><text fill="#000000" font-family="sans-serif" font-size="13" lengthAdjust="spacingAndGlyphs" textLength="36" x="158.3576" y="289.9367">mesh</text><!--MD5=[5d974d03ed93cedf84ade9a02991faf8]
link MeshRenderer to CullFaceMode--><path d="M269.9693,110.7536 C269.9693,110.7536 316.45,91.46 339.5,86 C387.94,74.54 405.46,67.07 451.5,86 C479.92,97.68 504.29,122.63 521.02,143.68 " fill="none" id="MeshRenderer-CullFaceMode" style="stroke: #A80036; stroke-width: 1.0;"/><polygon fill="#A80036" points="529.05,154.24,526.7825,144.6557,526.0219,150.2612,520.4164,149.5006,529.05,154.24" style="stroke: #A80036; stroke-width: 1.0;"/><line style="stroke: #A80036; stroke-width: 1.0;" x1="526.0219" x2="521.18" y1="150.2612" y2="143.895"/><polygon fill="#FFFFFF" points="259.11,115.86,266.2418,116.9266,269.9693,110.7536,262.8375,109.687,259.11,115.86" style="stroke: #A80036; stroke-width: 1.0;"/><text fill="#000000" font-family="sans-serif" font-size="13" lengthAdjust="spacingAndGlyphs" textLength="86" x="429.0404" y="143.3968">cullFaceMode</text><!--MD5=[995088ae2462e6232abdeafe3bf21694]
link MeshRenderer to RenderOrder--><path d="M316.06,178.5 C316.06,178.5 322.78,178.5 325.62,178.5 " fill="none" id="MeshRenderer-RenderOrder" style="stroke: #A80036; stroke-width: 1.0;"/><polygon fill="#A80036" points="338.87,178.5,329.87,174.5,333.87,178.5,329.87,182.5,338.87,178.5" style="stroke: #A80036; stroke-width: 1.0;"/><line style="stroke: #A80036; stroke-width: 1.0;" x1="333.87" x2="325.87" y1="178.5" y2="178.5"/><polygon fill="#FFFFFF" points="304.06,178.5,310.06,182.5,316.06,178.5,310.06,174.5,304.06,178.5" style="stroke: #A80036; stroke-width: 1.0;"/><text fill="#000000" font-family="sans-serif" font-size="13" lengthAdjust="spacingAndGlyphs" textLength="78" x="252.6399" y="159.1289">renderOrder</text><!--MD5=[9d128aa76031c74cfdf1502c7192603e]
@startuml
class MeshRenderer {
    + MeshRenderer()
    + MeshRenderer(_mesh:Mesh)
    + MeshRenderer(_model:(Mesh, Material))
    + MeshRenderer(_mesh:Mesh, _material:Material)
    + <<override>> <<unsafe>> Start() : void
    + <<override>> Exit() : void
}
Component <|- - MeshRenderer
MeshRenderer - -> "material" Material
MeshRenderer - -> "mesh" Mesh
MeshRenderer o-> "cullFaceMode" CullFaceMode
MeshRenderer o-> "renderOrder" RenderOrder
@enduml

PlantUML version 1.2020.02(Sun Mar 01 10:22:07 GMT 2020)
(GPL source distribution)
Java Runtime: OpenJDK Runtime Environment
JVM: OpenJDK 64-Bit Server VM
Java Version: 11.0.9+11-Ubuntu-0ubuntu1
Operating System: Linux
Default Encoding: ANSI_X3.4-1968
Language: en
Country: US
--></g></svg>