<?xml version="1.0" encoding="UTF-8" standalone="no"?><svg xmlns="http://www.w3.org/2000/svg" xmlns:xlink="http://www.w3.org/1999/xlink" contentScriptType="application/ecmascript" contentStyleType="text/css" height="117px" preserveAspectRatio="none" style="width:199px;height:117px;" version="1.1" viewBox="0 0 199 117" width="199px" zoomAndPan="magnify"><defs><filter height="300%" id="f1haryyzmu1dpr" width="300%" x="-1" y="-1"><feGaussianBlur result="blurOut" stdDeviation="2.0"/><feColorMatrix in="blurOut" result="blurOut2" type="matrix" values="0 0 0 0 0 0 0 0 0 0 0 0 0 0 0 0 0 0 .4 0"/><feOffset dx="4.0" dy="4.0" in="blurOut2" result="blurOut3"/><feBlend in="SourceGraphic" in2="blurOut3" mode="normal"/></filter></defs><g><!--MD5=[49b4333bed3a745cc53311fcf54bbfcc]
class Mesh--><rect fill="#FEFECE" filter="url(#f1haryyzmu1dpr)" height="99.2188" id="Mesh" style="stroke: #A80036; stroke-width: 1.5;" width="181" x="7" y="7"/><ellipse cx="76.75" cy="23" fill="#ADD1B2" rx="11" ry="11" style="stroke: #A80036; stroke-width: 1.0;"/><path d="M79.7188,28.6406 Q79.1406,28.9375 78.5,29.0781 Q77.8594,29.2344 77.1563,29.2344 Q74.6563,29.2344 73.3281,27.5938 Q72.0156,25.9375 72.0156,22.8125 Q72.0156,19.6875 73.3281,18.0313 Q74.6563,16.375 77.1563,16.375 Q77.8594,16.375 78.5,16.5313 Q79.1563,16.6875 79.7188,16.9844 L79.7188,19.7031 Q79.0938,19.125 78.5,18.8594 Q77.9063,18.5781 77.2813,18.5781 Q75.9375,18.5781 75.25,19.6563 Q74.5625,20.7188 74.5625,22.8125 Q74.5625,24.9063 75.25,25.9844 Q75.9375,27.0469 77.2813,27.0469 Q77.9063,27.0469 78.5,26.7813 Q79.0938,26.5 79.7188,25.9219 L79.7188,28.6406 Z "/><text fill="#000000" font-family="sans-serif" font-size="12" lengthAdjust="spacingAndGlyphs" textLength="33" x="97.25" y="27.1543">Mesh</text><line style="stroke: #A80036; stroke-width: 1.5;" x1="8" x2="187" y1="39" y2="39"/><line style="stroke: #A80036; stroke-width: 1.5;" x1="8" x2="187" y1="47" y2="47"/><ellipse cx="18" cy="58" fill="#84BE84" rx="3" ry="3" style="stroke: #038048; stroke-width: 1.0;"/><text fill="#000000" font-family="sans-serif" font-size="11" lengthAdjust="spacingAndGlyphs" textLength="38" x="27" y="61.2104">Mesh()</text><ellipse cx="18" cy="70.8047" fill="#84BE84" rx="3" ry="3" style="stroke: #038048; stroke-width: 1.0;"/><text fill="#000000" font-family="sans-serif" font-size="11" lengthAdjust="spacingAndGlyphs" textLength="145" x="27" y="74.0151">«unsafe» Initialize() : void</text><ellipse cx="18" cy="83.6094" fill="#84BE84" rx="3" ry="3" style="stroke: #038048; stroke-width: 1.0;"/><text fill="#000000" font-family="sans-serif" font-size="11" lengthAdjust="spacingAndGlyphs" textLength="83" x="27" y="86.8198">Render() : void</text><ellipse cx="18" cy="96.4141" fill="#84BE84" rx="3" ry="3" style="stroke: #038048; stroke-width: 1.0;"/><text fill="#000000" font-family="sans-serif" font-size="11" lengthAdjust="spacingAndGlyphs" textLength="155" x="27" y="99.6245">RecalculateNormals() : void</text><!--MD5=[f5a680ffb072987ed8624986c39c06d9]
@startuml
class Mesh {
    + Mesh()
    + <<unsafe>> Initialize() : void
    + Render() : void
    + RecalculateNormals() : void
}
@enduml

PlantUML version 1.2020.02(Sun Mar 01 10:22:07 GMT 2020)
(GPL source distribution)
Java Runtime: OpenJDK Runtime Environment
JVM: OpenJDK 64-Bit Server VM
Java Version: 11.0.9+11-Ubuntu-0ubuntu1
Operating System: Linux
Default Encoding: ANSI_X3.4-1968
Language: en
Country: US
--></g></svg>