<?xml version="1.0" encoding="UTF-8" standalone="no"?><svg xmlns="http://www.w3.org/2000/svg" xmlns:xlink="http://www.w3.org/1999/xlink" contentScriptType="application/ecmascript" contentStyleType="text/css" height="213px" preserveAspectRatio="none" style="width:303px;height:213px;" version="1.1" viewBox="0 0 303 213" width="303px" zoomAndPan="magnify"><defs><filter height="300%" id="f1r9n81d2o5wuu" width="300%" x="-1" y="-1"><feGaussianBlur result="blurOut" stdDeviation="2.0"/><feColorMatrix in="blurOut" result="blurOut2" type="matrix" values="0 0 0 0 0 0 0 0 0 0 0 0 0 0 0 0 0 0 .4 0"/><feOffset dx="4.0" dy="4.0" in="blurOut2" result="blurOut3"/><feBlend in="SourceGraphic" in2="blurOut3" mode="normal"/></filter></defs><g><!--MD5=[7e20e022571e30ec1001cf6eabd7f3e2]
class Model--><rect fill="#FEFECE" filter="url(#f1r9n81d2o5wuu)" height="86.4141" id="Model" style="stroke: #A80036; stroke-width: 1.5;" width="286" x="6" y="8"/><ellipse cx="126.25" cy="24" fill="#ADD1B2" rx="11" ry="11" style="stroke: #A80036; stroke-width: 1.0;"/><path d="M129.2188,29.6406 Q128.6406,29.9375 128,30.0781 Q127.3594,30.2344 126.6563,30.2344 Q124.1563,30.2344 122.8281,28.5938 Q121.5156,26.9375 121.5156,23.8125 Q121.5156,20.6875 122.8281,19.0313 Q124.1563,17.375 126.6563,17.375 Q127.3594,17.375 128,17.5313 Q128.6563,17.6875 129.2188,17.9844 L129.2188,20.7031 Q128.5938,20.125 128,19.8594 Q127.4063,19.5781 126.7813,19.5781 Q125.4375,19.5781 124.75,20.6563 Q124.0625,21.7188 124.0625,23.8125 Q124.0625,25.9063 124.75,26.9844 Q125.4375,28.0469 126.7813,28.0469 Q127.4063,28.0469 128,27.7813 Q128.5938,27.5 129.2188,26.9219 L129.2188,29.6406 Z "/><text fill="#000000" font-family="sans-serif" font-size="12" lengthAdjust="spacingAndGlyphs" textLength="37" x="146.75" y="28.1543">Model</text><line style="stroke: #A80036; stroke-width: 1.5;" x1="7" x2="291" y1="40" y2="40"/><line style="stroke: #A80036; stroke-width: 1.5;" x1="7" x2="291" y1="48" y2="48"/><ellipse cx="17" cy="59" fill="#84BE84" rx="3" ry="3" style="stroke: #038048; stroke-width: 1.0;"/><text fill="#000000" font-family="sans-serif" font-size="11" lengthAdjust="spacingAndGlyphs" textLength="41" x="26" y="62.2104">Model()</text><ellipse cx="17" cy="71.8047" fill="#84BE84" rx="3" ry="3" style="stroke: #038048; stroke-width: 1.0;"/><text fill="#000000" font-family="sans-serif" font-size="11" lengthAdjust="spacingAndGlyphs" textLength="260" x="26" y="75.0151">Model(_meshes:Mesh[], _materials:Material[])</text><ellipse cx="17" cy="84.6094" fill="#84BE84" rx="3" ry="3" style="stroke: #038048; stroke-width: 1.0;"/><text fill="#000000" font-family="sans-serif" font-size="11" lengthAdjust="spacingAndGlyphs" text-decoration="underline" textLength="250" x="26" y="87.8198">Load(_path:string, _saveModel:bool) : Model</text><!--MD5=[49b4333bed3a745cc53311fcf54bbfcc]
class Mesh--><rect fill="#FEFECE" filter="url(#f1r9n81d2o5wuu)" height="48" id="Mesh" style="stroke: #A80036; stroke-width: 1.5;" width="65" x="62.5" y="154"/><ellipse cx="77.5" cy="170" fill="#ADD1B2" rx="11" ry="11" style="stroke: #A80036; stroke-width: 1.0;"/><path d="M80.4688,175.6406 Q79.8906,175.9375 79.25,176.0781 Q78.6094,176.2344 77.9063,176.2344 Q75.4063,176.2344 74.0781,174.5938 Q72.7656,172.9375 72.7656,169.8125 Q72.7656,166.6875 74.0781,165.0313 Q75.4063,163.375 77.9063,163.375 Q78.6094,163.375 79.25,163.5313 Q79.9063,163.6875 80.4688,163.9844 L80.4688,166.7031 Q79.8438,166.125 79.25,165.8594 Q78.6563,165.5781 78.0313,165.5781 Q76.6875,165.5781 76,166.6563 Q75.3125,167.7188 75.3125,169.8125 Q75.3125,171.9063 76,172.9844 Q76.6875,174.0469 78.0313,174.0469 Q78.6563,174.0469 79.25,173.7813 Q79.8438,173.5 80.4688,172.9219 L80.4688,175.6406 Z "/><text fill="#000000" font-family="sans-serif" font-size="12" lengthAdjust="spacingAndGlyphs" textLength="33" x="91.5" y="174.1543">Mesh</text><line style="stroke: #A80036; stroke-width: 1.5;" x1="63.5" x2="126.5" y1="186" y2="186"/><line style="stroke: #A80036; stroke-width: 1.5;" x1="63.5" x2="126.5" y1="194" y2="194"/><!--MD5=[90d32ccc189f11441a6ce7cbb63ad387]
class Material--><rect fill="#FEFECE" filter="url(#f1r9n81d2o5wuu)" height="48" id="Material" style="stroke: #A80036; stroke-width: 1.5;" width="82" x="163" y="154"/><ellipse cx="178" cy="170" fill="#ADD1B2" rx="11" ry="11" style="stroke: #A80036; stroke-width: 1.0;"/><path d="M180.9688,175.6406 Q180.3906,175.9375 179.75,176.0781 Q179.1094,176.2344 178.4063,176.2344 Q175.9063,176.2344 174.5781,174.5938 Q173.2656,172.9375 173.2656,169.8125 Q173.2656,166.6875 174.5781,165.0313 Q175.9063,163.375 178.4063,163.375 Q179.1094,163.375 179.75,163.5313 Q180.4063,163.6875 180.9688,163.9844 L180.9688,166.7031 Q180.3438,166.125 179.75,165.8594 Q179.1563,165.5781 178.5313,165.5781 Q177.1875,165.5781 176.5,166.6563 Q175.8125,167.7188 175.8125,169.8125 Q175.8125,171.9063 176.5,172.9844 Q177.1875,174.0469 178.5313,174.0469 Q179.1563,174.0469 179.75,173.7813 Q180.3438,173.5 180.9688,172.9219 L180.9688,175.6406 Z "/><text fill="#000000" font-family="sans-serif" font-size="12" lengthAdjust="spacingAndGlyphs" textLength="50" x="192" y="174.1543">Material</text><line style="stroke: #A80036; stroke-width: 1.5;" x1="164" x2="244" y1="186" y2="186"/><line style="stroke: #A80036; stroke-width: 1.5;" x1="164" x2="244" y1="194" y2="194"/><!--MD5=[4d773c7eda0c2bc0c66ff97875a486bc]
link Model to Mesh--><path d="M130.72,94.32 C122.95,112.29 114.11,132.76 107.17,148.83 " fill="none" id="Model-&gt;Mesh" style="stroke: #A80036; stroke-width: 1.0;"/><polygon fill="#A80036" points="105.08,153.67,112.3194,146.9923,107.0616,149.0795,104.9745,143.8217,105.08,153.67" style="stroke: #A80036; stroke-width: 1.0;"/><text fill="#000000" font-family="sans-serif" font-size="13" lengthAdjust="spacingAndGlyphs" textLength="36" x="67.1495" y="142.9945">mesh</text><!--MD5=[9e9d8a97b88ccd93e9be853665fea691]
link Model to Material--><path d="M167.62,94.32 C175.53,112.29 184.53,132.76 191.61,148.83 " fill="none" id="Model-&gt;Material" style="stroke: #A80036; stroke-width: 1.0;"/><polygon fill="#A80036" points="193.74,153.67,193.7715,143.8212,191.7239,149.0945,186.4506,147.0469,193.74,153.67" style="stroke: #A80036; stroke-width: 1.0;"/><text fill="#000000" font-family="sans-serif" font-size="13" lengthAdjust="spacingAndGlyphs" textLength="53" x="131.7798" y="142.9945">material</text><!--MD5=[770cc5d68ec4a6d490b8a93d21002525]
@startuml
class Model {
    + Model()
    + Model(_meshes:Mesh[], _materials:Material[])
    + {static} Load(_path:string, _saveModel:bool) : Model
}
Model - -> "mesh" Mesh
Model - -> "material" Material
@enduml

PlantUML version 1.2020.02(Sun Mar 01 10:22:07 GMT 2020)
(GPL source distribution)
Java Runtime: OpenJDK Runtime Environment
JVM: OpenJDK 64-Bit Server VM
Java Version: 11.0.9+11-Ubuntu-0ubuntu1
Operating System: Linux
Default Encoding: ANSI_X3.4-1968
Language: en
Country: US
--></g></svg>