<?xml version="1.0" encoding="UTF-8" standalone="no"?><svg xmlns="http://www.w3.org/2000/svg" xmlns:xlink="http://www.w3.org/1999/xlink" contentScriptType="application/ecmascript" contentStyleType="text/css" height="194px" preserveAspectRatio="none" style="width:199px;height:194px;" version="1.1" viewBox="0 0 199 194" width="199px" zoomAndPan="magnify"><defs><filter height="300%" id="f15vz8wsdikjpm" width="300%" x="-1" y="-1"><feGaussianBlur result="blurOut" stdDeviation="2.0"/><feColorMatrix in="blurOut" result="blurOut2" type="matrix" values="0 0 0 0 0 0 0 0 0 0 0 0 0 0 0 0 0 0 .4 0"/><feOffset dx="4.0" dy="4.0" in="blurOut2" result="blurOut3"/><feBlend in="SourceGraphic" in2="blurOut3" mode="normal"/></filter></defs><g><!--MD5=[b95bace02b6cad134359ed97acbe2d13]
class Primitives--><rect fill="#FEFECE" filter="url(#f15vz8wsdikjpm)" height="66.7422" id="Primitives" style="stroke: #A80036; stroke-width: 1.5;" width="91" x="57.04" y="8"/><ellipse cx="72.04" cy="26.9688" fill="#ADD1B2" rx="11" ry="11" style="stroke: #A80036; stroke-width: 1.0;"/><path d="M75.0087,32.6094 Q74.4306,32.9063 73.79,33.0469 Q73.1494,33.2031 72.4462,33.2031 Q69.9462,33.2031 68.6181,31.5625 Q67.3056,29.9063 67.3056,26.7813 Q67.3056,23.6563 68.6181,22 Q69.9462,20.3438 72.4462,20.3438 Q73.1494,20.3438 73.79,20.5 Q74.4462,20.6563 75.0087,20.9531 L75.0087,23.6719 Q74.3837,23.0938 73.79,22.8281 Q73.1962,22.5469 72.5712,22.5469 Q71.2275,22.5469 70.54,23.625 Q69.8525,24.6875 69.8525,26.7813 Q69.8525,28.875 70.54,29.9531 Q71.2275,31.0156 72.5712,31.0156 Q73.1962,31.0156 73.79,30.75 Q74.3837,30.4688 75.0087,29.8906 L75.0087,32.6094 Z "/><text fill="#000000" font-family="sans-serif" font-size="12" font-style="italic" lengthAdjust="spacingAndGlyphs" textLength="48" x="91.54" y="24.1387">«static»</text><text fill="#000000" font-family="sans-serif" font-size="12" lengthAdjust="spacingAndGlyphs" textLength="59" x="86.04" y="38.1074">Primitives</text><line style="stroke: #A80036; stroke-width: 1.5;" x1="58.04" x2="147.04" y1="45.9375" y2="45.9375"/><line style="stroke: #A80036; stroke-width: 1.5;" x1="58.04" x2="147.04" y1="53.9375" y2="53.9375"/><text fill="#000000" font-family="sans-serif" font-size="11" lengthAdjust="spacingAndGlyphs" text-decoration="underline" textLength="64" x="63.04" y="68.1479">Primitives()</text><!--MD5=[49b4333bed3a745cc53311fcf54bbfcc]
class Mesh--><rect fill="#FEFECE" filter="url(#f15vz8wsdikjpm)" height="48" id="Mesh" style="stroke: #A80036; stroke-width: 1.5;" width="65" x="70.04" y="135"/><ellipse cx="85.04" cy="151" fill="#ADD1B2" rx="11" ry="11" style="stroke: #A80036; stroke-width: 1.0;"/><path d="M88.0087,156.6406 Q87.4306,156.9375 86.79,157.0781 Q86.1494,157.2344 85.4462,157.2344 Q82.9462,157.2344 81.6181,155.5938 Q80.3056,153.9375 80.3056,150.8125 Q80.3056,147.6875 81.6181,146.0313 Q82.9462,144.375 85.4462,144.375 Q86.1494,144.375 86.79,144.5313 Q87.4462,144.6875 88.0087,144.9844 L88.0087,147.7031 Q87.3837,147.125 86.79,146.8594 Q86.1962,146.5781 85.5712,146.5781 Q84.2275,146.5781 83.54,147.6563 Q82.8525,148.7188 82.8525,150.8125 Q82.8525,152.9063 83.54,153.9844 Q84.2275,155.0469 85.5712,155.0469 Q86.1962,155.0469 86.79,154.7813 Q87.3837,154.5 88.0087,153.9219 L88.0087,156.6406 Z "/><text fill="#000000" font-family="sans-serif" font-size="12" lengthAdjust="spacingAndGlyphs" textLength="33" x="99.04" y="155.1543">Mesh</text><line style="stroke: #A80036; stroke-width: 1.5;" x1="71.04" x2="134.04" y1="167" y2="167"/><line style="stroke: #A80036; stroke-width: 1.5;" x1="71.04" x2="134.04" y1="175" y2="175"/><!--MD5=[a0057b116d7545f66d900599dee17f93]
link Primitives to Mesh--><path d="M56.97,70.17 C45.29,93.19 48.38,125.07 66.23,143.41 " fill="none" id="Primitives-&gt;Mesh" style="stroke: #A80036; stroke-width: 1.0;"/><polygon fill="#A80036" points="70,146.89,66.1145,137.84,66.3315,143.4927,60.6788,143.7096,70,146.89" style="stroke: #A80036; stroke-width: 1.0;"/><text fill="#000000" font-family="sans-serif" font-size="13" lengthAdjust="spacingAndGlyphs" textLength="49" x="12.9788" y="141.2086">capsule</text><!--MD5=[a0057b116d7545f66d900599dee17f93]
link Primitives to Mesh--><path d="M78.6,75.29 C75.22,92.45 75.55,113.26 79.6,129.71 " fill="none" id="Primitives-&gt;Mesh-1" style="stroke: #A80036; stroke-width: 1.0;"/><polygon fill="#A80036" points="80.98,134.67,82.4148,124.9262,79.6366,129.8538,74.709,127.0756,80.98,134.67" style="stroke: #A80036; stroke-width: 1.0;"/><text fill="#000000" font-family="sans-serif" font-size="13" lengthAdjust="spacingAndGlyphs" textLength="31" x="79.5029" y="123.9945">cube</text><!--MD5=[a0057b116d7545f66d900599dee17f93]
link Primitives to Mesh--><path d="M102.54,75.29 C102.54,92.31 102.54,112.9 102.54,129.29 " fill="none" id="Primitives-&gt;Mesh-2" style="stroke: #A80036; stroke-width: 1.0;"/><polygon fill="#A80036" points="102.54,134.67,106.54,125.67,102.54,129.67,98.54,125.67,102.54,134.67" style="stroke: #A80036; stroke-width: 1.0;"/><text fill="#000000" font-family="sans-serif" font-size="13" lengthAdjust="spacingAndGlyphs" textLength="49" x="108.5119" y="123.9945">cylinder</text><!--MD5=[a0057b116d7545f66d900599dee17f93]
link Primitives to Mesh--><path d="M126.48,75.29 C129.86,92.45 129.53,113.26 125.48,129.71 " fill="none" id="Primitives-&gt;Mesh-3" style="stroke: #A80036; stroke-width: 1.0;"/><polygon fill="#A80036" points="124.11,134.67,130.381,127.0756,125.4534,129.8538,122.6752,124.9262,124.11,134.67" style="stroke: #A80036; stroke-width: 1.0;"/><text fill="#000000" font-family="sans-serif" font-size="13" lengthAdjust="spacingAndGlyphs" textLength="32" x="143.3646" y="138.1456">quad</text><!--MD5=[a0057b116d7545f66d900599dee17f93]
link Primitives to Mesh--><path d="M148.11,70.17 C159.79,93.19 156.71,125.07 138.85,143.41 " fill="none" id="Primitives-&gt;Mesh-4" style="stroke: #A80036; stroke-width: 1.0;"/><polygon fill="#A80036" points="135.08,146.89,144.4079,143.7292,138.7557,143.5004,138.9845,137.8482,135.08,146.89" style="stroke: #A80036; stroke-width: 1.0;"/><text fill="#000000" font-family="sans-serif" font-size="13" lengthAdjust="spacingAndGlyphs" textLength="44" x="143.0906" y="158.2896">sphere</text><!--MD5=[f08fcc9bfa715af41c2c75ff8ef6281e]
@startuml
class Primitives <<static>> {
    {static} Primitives()
}
Primitives - -> "capsule" Mesh
Primitives - -> "cube" Mesh
Primitives - -> "cylinder" Mesh
Primitives - -> "quad" Mesh
Primitives - -> "sphere" Mesh
@enduml

PlantUML version 1.2020.02(Sun Mar 01 10:22:07 GMT 2020)
(GPL source distribution)
Java Runtime: OpenJDK Runtime Environment
JVM: OpenJDK 64-Bit Server VM
Java Version: 11.0.9+11-Ubuntu-0ubuntu1
Operating System: Linux
Default Encoding: ANSI_X3.4-1968
Language: en
Country: US
--></g></svg>