<?xml version="1.0" encoding="UTF-8" standalone="no"?><svg xmlns="http://www.w3.org/2000/svg" xmlns:xlink="http://www.w3.org/1999/xlink" contentScriptType="application/ecmascript" contentStyleType="text/css" height="379px" preserveAspectRatio="none" style="width:399px;height:379px;" version="1.1" viewBox="0 0 399 379" width="399px" zoomAndPan="magnify"><defs><filter height="300%" id="fy8cs8nzgotqx" width="300%" x="-1" y="-1"><feGaussianBlur result="blurOut" stdDeviation="2.0"/><feColorMatrix in="blurOut" result="blurOut2" type="matrix" values="0 0 0 0 0 0 0 0 0 0 0 0 0 0 0 0 0 0 .4 0"/><feOffset dx="4.0" dy="4.0" in="blurOut2" result="blurOut3"/><feBlend in="SourceGraphic" in2="blurOut3" mode="normal"/></filter></defs><g><!--MD5=[03b04ed89c1f7ac76f6e629bfb39a406]
class Shader--><rect fill="#FEFECE" filter="url(#fy8cs8nzgotqx)" height="252.875" id="Shader" style="stroke: #A80036; stroke-width: 1.5;" width="382" x="6" y="116"/><ellipse cx="170.25" cy="132" fill="#ADD1B2" rx="11" ry="11" style="stroke: #A80036; stroke-width: 1.0;"/><path d="M173.2188,137.6406 Q172.6406,137.9375 172,138.0781 Q171.3594,138.2344 170.6563,138.2344 Q168.1563,138.2344 166.8281,136.5938 Q165.5156,134.9375 165.5156,131.8125 Q165.5156,128.6875 166.8281,127.0313 Q168.1563,125.375 170.6563,125.375 Q171.3594,125.375 172,125.5313 Q172.6563,125.6875 173.2188,125.9844 L173.2188,128.7031 Q172.5938,128.125 172,127.8594 Q171.4063,127.5781 170.7813,127.5781 Q169.4375,127.5781 168.75,128.6563 Q168.0625,129.7188 168.0625,131.8125 Q168.0625,133.9063 168.75,134.9844 Q169.4375,136.0469 170.7813,136.0469 Q171.4063,136.0469 172,135.7813 Q172.5938,135.5 173.2188,134.9219 L173.2188,137.6406 Z "/><text fill="#000000" font-family="sans-serif" font-size="12" lengthAdjust="spacingAndGlyphs" textLength="45" x="190.75" y="136.1543">Shader</text><line style="stroke: #A80036; stroke-width: 1.5;" x1="7" x2="387" y1="148" y2="148"/><ellipse cx="17" cy="159" fill="none" rx="3" ry="3" style="stroke: #038048; stroke-width: 1.0;"/><text fill="#000000" font-family="sans-serif" font-size="11" lengthAdjust="spacingAndGlyphs" textLength="64" x="26" y="162.2104">handle : int</text><line style="stroke: #A80036; stroke-width: 1.5;" x1="7" x2="387" y1="168.8047" y2="168.8047"/><ellipse cx="17" cy="179.8047" fill="#84BE84" rx="3" ry="3" style="stroke: #038048; stroke-width: 1.0;"/><text fill="#000000" font-family="sans-serif" font-size="11" lengthAdjust="spacingAndGlyphs" textLength="280" x="26" y="183.0151">Shader(_vertexPath:string, _fragmentPath:string)</text><ellipse cx="17" cy="192.6094" fill="#84BE84" rx="3" ry="3" style="stroke: #038048; stroke-width: 1.0;"/><text fill="#000000" font-family="sans-serif" font-size="11" lengthAdjust="spacingAndGlyphs" textLength="68" x="26" y="195.8198">Bind() : void</text><ellipse cx="17" cy="205.4141" fill="#84BE84" rx="3" ry="3" style="stroke: #038048; stroke-width: 1.0;"/><text fill="#000000" font-family="sans-serif" font-size="11" lengthAdjust="spacingAndGlyphs" textLength="65" x="26" y="208.6245">Use() : void</text><ellipse cx="17" cy="218.2188" fill="#84BE84" rx="3" ry="3" style="stroke: #038048; stroke-width: 1.0;"/><text fill="#000000" font-family="sans-serif" font-size="11" lengthAdjust="spacingAndGlyphs" textLength="89" x="26" y="221.4292">Dispose() : void</text><ellipse cx="17" cy="231.0234" fill="#84BE84" rx="3" ry="3" style="stroke: #038048; stroke-width: 1.0;"/><text fill="#000000" font-family="sans-serif" font-size="11" lengthAdjust="spacingAndGlyphs" textLength="213" x="26" y="234.2339">SetInt(_name:string, _value:int) : void</text><ellipse cx="17" cy="243.8281" fill="#84BE84" rx="3" ry="3" style="stroke: #038048; stroke-width: 1.0;"/><text fill="#000000" font-family="sans-serif" font-size="11" lengthAdjust="spacingAndGlyphs" textLength="237" x="26" y="247.0386">SetFloat(_name:string, _value:float) : void</text><ellipse cx="17" cy="256.6328" fill="#84BE84" rx="3" ry="3" style="stroke: #038048; stroke-width: 1.0;"/><text fill="#000000" font-family="sans-serif" font-size="11" lengthAdjust="spacingAndGlyphs" textLength="234" x="26" y="259.8433">SetBool(_name:string, _value:bool) : void</text><ellipse cx="17" cy="269.4375" fill="#84BE84" rx="3" ry="3" style="stroke: #038048; stroke-width: 1.0;"/><text fill="#000000" font-family="sans-serif" font-size="11" lengthAdjust="spacingAndGlyphs" textLength="276" x="26" y="272.6479">SetVector2(_name:string, _vector:Vector2) : void</text><ellipse cx="17" cy="282.2422" fill="#84BE84" rx="3" ry="3" style="stroke: #038048; stroke-width: 1.0;"/><text fill="#000000" font-family="sans-serif" font-size="11" lengthAdjust="spacingAndGlyphs" textLength="276" x="26" y="285.4526">SetVector3(_name:string, _vector:Vector3) : void</text><ellipse cx="17" cy="295.0469" fill="#84BE84" rx="3" ry="3" style="stroke: #038048; stroke-width: 1.0;"/><text fill="#000000" font-family="sans-serif" font-size="11" lengthAdjust="spacingAndGlyphs" textLength="276" x="26" y="298.2573">SetVector4(_name:string, _vector:Vector4) : void</text><ellipse cx="17" cy="307.8516" fill="#84BE84" rx="3" ry="3" style="stroke: #038048; stroke-width: 1.0;"/><text fill="#000000" font-family="sans-serif" font-size="11" lengthAdjust="spacingAndGlyphs" textLength="304" x="26" y="311.062">SetVector2Int(_name:string, _vector:Vector2Int) : void</text><ellipse cx="17" cy="320.6563" fill="#84BE84" rx="3" ry="3" style="stroke: #038048; stroke-width: 1.0;"/><text fill="#000000" font-family="sans-serif" font-size="11" lengthAdjust="spacingAndGlyphs" textLength="304" x="26" y="323.8667">SetVector3Int(_name:string, _vector:Vector3Int) : void</text><ellipse cx="17" cy="333.4609" fill="#84BE84" rx="3" ry="3" style="stroke: #038048; stroke-width: 1.0;"/><text fill="#000000" font-family="sans-serif" font-size="11" lengthAdjust="spacingAndGlyphs" textLength="264" x="26" y="336.6714">SetColour(_name:string, _colour:Colour) : void</text><ellipse cx="17" cy="346.2656" fill="#84BE84" rx="3" ry="3" style="stroke: #038048; stroke-width: 1.0;"/><text fill="#000000" font-family="sans-serif" font-size="11" lengthAdjust="spacingAndGlyphs" textLength="342" x="26" y="349.4761">SetQuaternion(_name:string, _quaternion:Quaternion) : void</text><ellipse cx="17" cy="359.0703" fill="#84BE84" rx="3" ry="3" style="stroke: #038048; stroke-width: 1.0;"/><text fill="#000000" font-family="sans-serif" font-size="11" lengthAdjust="spacingAndGlyphs" textLength="356" x="26" y="362.2808">«unsafe» SetMatrix4x4(_name:string, _matrix:Matrix4x4) : void</text><!--MD5=[fe50a4f6767356ff4dcdadb85ef8cbdd]
class IDisposable--><rect fill="#FEFECE" filter="url(#fy8cs8nzgotqx)" height="48" id="IDisposable" style="stroke: #A80036; stroke-width: 1.5;" width="104" x="145" y="8"/><ellipse cx="160" cy="24" fill="#ADD1B2" rx="11" ry="11" style="stroke: #A80036; stroke-width: 1.0;"/><path d="M162.9688,29.6406 Q162.3906,29.9375 161.75,30.0781 Q161.1094,30.2344 160.4063,30.2344 Q157.9063,30.2344 156.5781,28.5938 Q155.2656,26.9375 155.2656,23.8125 Q155.2656,20.6875 156.5781,19.0313 Q157.9063,17.375 160.4063,17.375 Q161.1094,17.375 161.75,17.5313 Q162.4063,17.6875 162.9688,17.9844 L162.9688,20.7031 Q162.3438,20.125 161.75,19.8594 Q161.1563,19.5781 160.5313,19.5781 Q159.1875,19.5781 158.5,20.6563 Q157.8125,21.7188 157.8125,23.8125 Q157.8125,25.9063 158.5,26.9844 Q159.1875,28.0469 160.5313,28.0469 Q161.1563,28.0469 161.75,27.7813 Q162.3438,27.5 162.9688,26.9219 L162.9688,29.6406 Z "/><text fill="#000000" font-family="sans-serif" font-size="12" lengthAdjust="spacingAndGlyphs" textLength="72" x="174" y="28.1543">IDisposable</text><line style="stroke: #A80036; stroke-width: 1.5;" x1="146" x2="248" y1="40" y2="40"/><line style="stroke: #A80036; stroke-width: 1.5;" x1="146" x2="248" y1="48" y2="48"/><!--MD5=[50a97fc82c7899ee4377db895be215a9]
reverse link IDisposable to Shader--><path d="M197,76.21 C197,88.18 197,101.81 197,115.99 " fill="none" id="IDisposable&lt;-Shader" style="stroke: #A80036; stroke-width: 1.0;"/><polygon fill="none" points="190,76.11,197,56.11,204,76.11,190,76.11" style="stroke: #A80036; stroke-width: 1.0;"/><!--MD5=[e29d7aa420383b7614a699513c96195d]
@startuml
class Shader {
    + handle : int
    + Shader(_vertexPath:string, _fragmentPath:string)
    + Bind() : void
    + Use() : void
    + Dispose() : void
    + SetInt(_name:string, _value:int) : void
    + SetFloat(_name:string, _value:float) : void
    + SetBool(_name:string, _value:bool) : void
    + SetVector2(_name:string, _vector:Vector2) : void
    + SetVector3(_name:string, _vector:Vector3) : void
    + SetVector4(_name:string, _vector:Vector4) : void
    + SetVector2Int(_name:string, _vector:Vector2Int) : void
    + SetVector3Int(_name:string, _vector:Vector3Int) : void
    + SetColour(_name:string, _colour:Colour) : void
    + SetQuaternion(_name:string, _quaternion:Quaternion) : void
    + <<unsafe>> SetMatrix4x4(_name:string, _matrix:Matrix4x4) : void
}
IDisposable <|- - Shader
@enduml

PlantUML version 1.2020.02(Sun Mar 01 10:22:07 GMT 2020)
(GPL source distribution)
Java Runtime: OpenJDK Runtime Environment
JVM: OpenJDK 64-Bit Server VM
Java Version: 11.0.9+11-Ubuntu-0ubuntu1
Operating System: Linux
Default Encoding: ANSI_X3.4-1968
Language: en
Country: US
--></g></svg>