<?xml version="1.0" encoding="UTF-8" standalone="no"?><svg xmlns="http://www.w3.org/2000/svg" xmlns:xlink="http://www.w3.org/1999/xlink" contentScriptType="application/ecmascript" contentStyleType="text/css" height="277px" preserveAspectRatio="none" style="width:394px;height:277px;" version="1.1" viewBox="0 0 394 277" width="394px" zoomAndPan="magnify"><defs><filter height="300%" id="f1xu8f627oikyo" width="300%" x="-1" y="-1"><feGaussianBlur result="blurOut" stdDeviation="2.0"/><feColorMatrix in="blurOut" result="blurOut2" type="matrix" values="0 0 0 0 0 0 0 0 0 0 0 0 0 0 0 0 0 0 .4 0"/><feOffset dx="4.0" dy="4.0" in="blurOut2" result="blurOut3"/><feBlend in="SourceGraphic" in2="blurOut3" mode="normal"/></filter></defs><g><!--MD5=[a188b41046d67aa7fbc3fd9674f92b2d]
class TextureFilter--><rect fill="#FEFECE" filter="url(#f1xu8f627oikyo)" height="73.6094" id="TextureFilter" style="stroke: #A80036; stroke-width: 1.5;" width="110" x="49.5" y="193"/><ellipse cx="64.5" cy="209" fill="#EB937F" rx="11" ry="11" style="stroke: #A80036; stroke-width: 1.0;"/><path d="M68.6094,215 L60.8906,215 L60.8906,202.6094 L68.6094,202.6094 L68.6094,204.7656 L63.3438,204.7656 L63.3438,207.4375 L68.1094,207.4375 L68.1094,209.5938 L63.3438,209.5938 L63.3438,212.8438 L68.6094,212.8438 L68.6094,215 Z "/><text fill="#000000" font-family="sans-serif" font-size="12" lengthAdjust="spacingAndGlyphs" textLength="78" x="78.5" y="213.1543">TextureFilter</text><line style="stroke: #A80036; stroke-width: 1.5;" x1="50.5" x2="158.5" y1="225" y2="225"/><text fill="#000000" font-family="sans-serif" font-size="11" lengthAdjust="spacingAndGlyphs" textLength="39" x="55.5" y="239.2104">Linear,</text><text fill="#000000" font-family="sans-serif" font-size="11" lengthAdjust="spacingAndGlyphs" textLength="32" x="55.5" y="252.0151">Point,</text><line style="stroke: #A80036; stroke-width: 1.5;" x1="50.5" x2="158.5" y1="258.6094" y2="258.6094"/><!--MD5=[6104b1394854ac3fa1f1868fad6021ae]
class Texture2D--><rect fill="#FEFECE" filter="url(#f1xu8f627oikyo)" height="124.8281" id="Texture2D" style="stroke: #A80036; stroke-width: 1.5;" width="197" x="6" y="8"/><ellipse cx="68.25" cy="24" fill="#ADD1B2" rx="11" ry="11" style="stroke: #A80036; stroke-width: 1.0;"/><path d="M71.2188,29.6406 Q70.6406,29.9375 70,30.0781 Q69.3594,30.2344 68.6563,30.2344 Q66.1563,30.2344 64.8281,28.5938 Q63.5156,26.9375 63.5156,23.8125 Q63.5156,20.6875 64.8281,19.0313 Q66.1563,17.375 68.6563,17.375 Q69.3594,17.375 70,17.5313 Q70.6563,17.6875 71.2188,17.9844 L71.2188,20.7031 Q70.5938,20.125 70,19.8594 Q69.4063,19.5781 68.7813,19.5781 Q67.4375,19.5781 66.75,20.6563 Q66.0625,21.7188 66.0625,23.8125 Q66.0625,25.9063 66.75,26.9844 Q67.4375,28.0469 68.7813,28.0469 Q69.4063,28.0469 70,27.7813 Q70.5938,27.5 71.2188,26.9219 L71.2188,29.6406 Z "/><text fill="#000000" font-family="sans-serif" font-size="12" lengthAdjust="spacingAndGlyphs" textLength="64" x="88.75" y="28.1543">Texture2D</text><line style="stroke: #A80036; stroke-width: 1.5;" x1="7" x2="202" y1="40" y2="40"/><ellipse cx="17" cy="51" fill="none" rx="3" ry="3" style="stroke: #038048; stroke-width: 1.0;"/><text fill="#000000" font-family="sans-serif" font-size="11" lengthAdjust="spacingAndGlyphs" textLength="171" x="26" y="54.2104">generateMipmap : bool = true</text><line style="stroke: #A80036; stroke-width: 1.5;" x1="7" x2="202" y1="60.8047" y2="60.8047"/><ellipse cx="17" cy="71.8047" fill="#84BE84" rx="3" ry="3" style="stroke: #038048; stroke-width: 1.0;"/><text fill="#000000" font-family="sans-serif" font-size="11" lengthAdjust="spacingAndGlyphs" textLength="134" x="26" y="75.0151">Texture2D(_path:string)</text><ellipse cx="17" cy="84.6094" fill="#84BE84" rx="3" ry="3" style="stroke: #038048; stroke-width: 1.0;"/><text fill="#000000" font-family="sans-serif" font-size="11" lengthAdjust="spacingAndGlyphs" textLength="66" x="26" y="87.8198">Texture2D()</text><ellipse cx="17" cy="97.4141" fill="#84BE84" rx="3" ry="3" style="stroke: #038048; stroke-width: 1.0;"/><text fill="#000000" font-family="sans-serif" font-size="11" lengthAdjust="spacingAndGlyphs" textLength="119" x="26" y="100.6245">Texture2D(_c:Colour)</text><ellipse cx="17" cy="110.2188" fill="#84BE84" rx="3" ry="3" style="stroke: #038048; stroke-width: 1.0;"/><text fill="#000000" font-family="sans-serif" font-size="11" lengthAdjust="spacingAndGlyphs" textLength="164" x="26" y="113.4292">Bind(_unit:TextureUnit) : void</text><ellipse cx="17" cy="123.0234" fill="#84BE84" rx="3" ry="3" style="stroke: #038048; stroke-width: 1.0;"/><text fill="#000000" font-family="sans-serif" font-size="11" lengthAdjust="spacingAndGlyphs" textLength="65" x="26" y="126.2339">Use() : void</text><!--MD5=[313662c9ae9609dd08ffc43d67d1d315]
class TextureWrapMode--><rect fill="#FEFECE" filter="url(#f1xu8f627oikyo)" height="48" id="TextureWrapMode" style="stroke: #A80036; stroke-width: 1.5;" width="145" x="238" y="46.5"/><ellipse cx="253" cy="62.5" fill="#ADD1B2" rx="11" ry="11" style="stroke: #A80036; stroke-width: 1.0;"/><path d="M255.9688,68.1406 Q255.3906,68.4375 254.75,68.5781 Q254.1094,68.7344 253.4063,68.7344 Q250.9063,68.7344 249.5781,67.0938 Q248.2656,65.4375 248.2656,62.3125 Q248.2656,59.1875 249.5781,57.5313 Q250.9063,55.875 253.4063,55.875 Q254.1094,55.875 254.75,56.0313 Q255.4063,56.1875 255.9688,56.4844 L255.9688,59.2031 Q255.3438,58.625 254.75,58.3594 Q254.1563,58.0781 253.5313,58.0781 Q252.1875,58.0781 251.5,59.1563 Q250.8125,60.2188 250.8125,62.3125 Q250.8125,64.4063 251.5,65.4844 Q252.1875,66.5469 253.5313,66.5469 Q254.1563,66.5469 254.75,66.2813 Q255.3438,66 255.9688,65.4219 L255.9688,68.1406 Z "/><text fill="#000000" font-family="sans-serif" font-size="12" lengthAdjust="spacingAndGlyphs" textLength="113" x="267" y="66.6543">TextureWrapMode</text><line style="stroke: #A80036; stroke-width: 1.5;" x1="239" x2="382" y1="78.5" y2="78.5"/><line style="stroke: #A80036; stroke-width: 1.5;" x1="239" x2="382" y1="86.5" y2="86.5"/><!--MD5=[66fbe48d75be5e96533e77924532b187]
link Texture2D to TextureFilter--><path d="M104.5,133.3 C104.5,151.57 104.5,171.13 104.5,187.77 " fill="none" id="Texture2D-&gt;TextureFilter" style="stroke: #A80036; stroke-width: 1.0;"/><polygon fill="#A80036" points="104.5,192.83,108.5,183.83,104.5,187.83,100.5,183.83,104.5,192.83" style="stroke: #A80036; stroke-width: 1.0;"/><text fill="#000000" font-family="sans-serif" font-size="13" lengthAdjust="spacingAndGlyphs" textLength="77" x="20.6422" y="181.9867">textureFilter</text><!--MD5=[aeeec7e5efdcd76fc1781c58726ddf99]
link Texture2D to TextureWrapMode--><path d="M215.07,70.5 C215.07,70.5 221.8,70.5 224.64,70.5 " fill="none" id="Texture2D-TextureWrapMode" style="stroke: #A80036; stroke-width: 1.0;"/><polygon fill="#A80036" points="237.9,70.5,228.9,66.5,232.9,70.5,228.9,74.5,237.9,70.5" style="stroke: #A80036; stroke-width: 1.0;"/><line style="stroke: #A80036; stroke-width: 1.0;" x1="232.9" x2="224.9" y1="70.5" y2="70.5"/><polygon fill="#FFFFFF" points="203.07,70.5,209.07,74.5,215.07,70.5,209.07,66.5,203.07,70.5" style="stroke: #A80036; stroke-width: 1.0;"/><text fill="#000000" font-family="sans-serif" font-size="13" lengthAdjust="spacingAndGlyphs" textLength="65" x="165.5587" y="57.7291">wrapMode</text><!--MD5=[626b4cecbb5d816c7b1aaaee2121797c]
@startuml
enum TextureFilter {
    Linear,
    Point,
}
class Texture2D {
    + generateMipmap : bool = true
    + Texture2D(_path:string)
    + Texture2D()
    + Texture2D(_c:Colour)
    + Bind(_unit:TextureUnit) : void
    + Use() : void
}
Texture2D - -> "textureFilter" TextureFilter
Texture2D o-> "wrapMode" TextureWrapMode
@enduml

PlantUML version 1.2020.02(Sun Mar 01 10:22:07 GMT 2020)
(GPL source distribution)
Java Runtime: OpenJDK Runtime Environment
JVM: OpenJDK 64-Bit Server VM
Java Version: 11.0.9+11-Ubuntu-0ubuntu1
Operating System: Linux
Default Encoding: ANSI_X3.4-1968
Language: en
Country: US
--></g></svg>