<?xml version="1.0" encoding="UTF-8" standalone="no"?><svg xmlns="http://www.w3.org/2000/svg" xmlns:xlink="http://www.w3.org/1999/xlink" contentScriptType="application/ecmascript" contentStyleType="text/css" height="290px" preserveAspectRatio="none" style="width:394px;height:290px;" version="1.1" viewBox="0 0 394 290" width="394px" zoomAndPan="magnify"><defs><filter height="300%" id="fh3ay6fjxgfsg" width="300%" x="-1" y="-1"><feGaussianBlur result="blurOut" stdDeviation="2.0"/><feColorMatrix in="blurOut" result="blurOut2" type="matrix" values="0 0 0 0 0 0 0 0 0 0 0 0 0 0 0 0 0 0 .4 0"/><feOffset dx="4.0" dy="4.0" in="blurOut2" result="blurOut3"/><feBlend in="SourceGraphic" in2="blurOut3" mode="normal"/></filter></defs><g><!--MD5=[a188b41046d67aa7fbc3fd9674f92b2d]
class TextureFilter--><rect fill="#FEFECE" filter="url(#fh3ay6fjxgfsg)" height="73.6094" id="TextureFilter" style="stroke: #A80036; stroke-width: 1.5;" width="110" x="49.5" y="206"/><ellipse cx="64.5" cy="222" fill="#EB937F" rx="11" ry="11" style="stroke: #A80036; stroke-width: 1.0;"/><path d="M68.6094,228 L60.8906,228 L60.8906,215.6094 L68.6094,215.6094 L68.6094,217.7656 L63.3438,217.7656 L63.3438,220.4375 L68.1094,220.4375 L68.1094,222.5938 L63.3438,222.5938 L63.3438,225.8438 L68.6094,225.8438 L68.6094,228 Z "/><text fill="#000000" font-family="sans-serif" font-size="12" lengthAdjust="spacingAndGlyphs" textLength="78" x="78.5" y="226.1543">TextureFilter</text><line style="stroke: #A80036; stroke-width: 1.5;" x1="50.5" x2="158.5" y1="238" y2="238"/><text fill="#000000" font-family="sans-serif" font-size="11" lengthAdjust="spacingAndGlyphs" textLength="39" x="55.5" y="252.2104">Linear,</text><text fill="#000000" font-family="sans-serif" font-size="11" lengthAdjust="spacingAndGlyphs" textLength="32" x="55.5" y="265.0151">Point,</text><line style="stroke: #A80036; stroke-width: 1.5;" x1="50.5" x2="158.5" y1="271.6094" y2="271.6094"/><!--MD5=[6104b1394854ac3fa1f1868fad6021ae]
class Texture2D--><rect fill="#FEFECE" filter="url(#fh3ay6fjxgfsg)" height="137.6328" id="Texture2D" style="stroke: #A80036; stroke-width: 1.5;" width="197" x="6" y="8"/><ellipse cx="68.25" cy="24" fill="#ADD1B2" rx="11" ry="11" style="stroke: #A80036; stroke-width: 1.0;"/><path d="M71.2188,29.6406 Q70.6406,29.9375 70,30.0781 Q69.3594,30.2344 68.6563,30.2344 Q66.1563,30.2344 64.8281,28.5938 Q63.5156,26.9375 63.5156,23.8125 Q63.5156,20.6875 64.8281,19.0313 Q66.1563,17.375 68.6563,17.375 Q69.3594,17.375 70,17.5313 Q70.6563,17.6875 71.2188,17.9844 L71.2188,20.7031 Q70.5938,20.125 70,19.8594 Q69.4063,19.5781 68.7813,19.5781 Q67.4375,19.5781 66.75,20.6563 Q66.0625,21.7188 66.0625,23.8125 Q66.0625,25.9063 66.75,26.9844 Q67.4375,28.0469 68.7813,28.0469 Q69.4063,28.0469 70,27.7813 Q70.5938,27.5 71.2188,26.9219 L71.2188,29.6406 Z "/><text fill="#000000" font-family="sans-serif" font-size="12" lengthAdjust="spacingAndGlyphs" textLength="64" x="88.75" y="28.1543">Texture2D</text><line style="stroke: #A80036; stroke-width: 1.5;" x1="7" x2="202" y1="40" y2="40"/><ellipse cx="17" cy="51" fill="none" rx="3" ry="3" style="stroke: #038048; stroke-width: 1.0;"/><text fill="#000000" font-family="sans-serif" font-size="11" lengthAdjust="spacingAndGlyphs" textLength="77" x="26" y="54.2104">name : string</text><ellipse cx="17" cy="63.8047" fill="none" rx="3" ry="3" style="stroke: #038048; stroke-width: 1.0;"/><text fill="#000000" font-family="sans-serif" font-size="11" lengthAdjust="spacingAndGlyphs" textLength="171" x="26" y="67.0151">generateMipmap : bool = true</text><line style="stroke: #A80036; stroke-width: 1.5;" x1="7" x2="202" y1="73.6094" y2="73.6094"/><ellipse cx="17" cy="84.6094" fill="#84BE84" rx="3" ry="3" style="stroke: #038048; stroke-width: 1.0;"/><text fill="#000000" font-family="sans-serif" font-size="11" lengthAdjust="spacingAndGlyphs" textLength="134" x="26" y="87.8198">Texture2D(_path:string)</text><ellipse cx="17" cy="97.4141" fill="#84BE84" rx="3" ry="3" style="stroke: #038048; stroke-width: 1.0;"/><text fill="#000000" font-family="sans-serif" font-size="11" lengthAdjust="spacingAndGlyphs" textLength="66" x="26" y="100.6245">Texture2D()</text><ellipse cx="17" cy="110.2188" fill="#84BE84" rx="3" ry="3" style="stroke: #038048; stroke-width: 1.0;"/><text fill="#000000" font-family="sans-serif" font-size="11" lengthAdjust="spacingAndGlyphs" textLength="119" x="26" y="113.4292">Texture2D(_c:Colour)</text><ellipse cx="17" cy="123.0234" fill="#84BE84" rx="3" ry="3" style="stroke: #038048; stroke-width: 1.0;"/><text fill="#000000" font-family="sans-serif" font-size="11" lengthAdjust="spacingAndGlyphs" textLength="113" x="26" y="126.2339">Bind(_unit:int) : void</text><ellipse cx="17" cy="135.8281" fill="#84BE84" rx="3" ry="3" style="stroke: #038048; stroke-width: 1.0;"/><text fill="#000000" font-family="sans-serif" font-size="11" lengthAdjust="spacingAndGlyphs" textLength="65" x="26" y="139.0386">Use() : void</text><!--MD5=[313662c9ae9609dd08ffc43d67d1d315]
class TextureWrapMode--><rect fill="#FEFECE" filter="url(#fh3ay6fjxgfsg)" height="48" id="TextureWrapMode" style="stroke: #A80036; stroke-width: 1.5;" width="145" x="238" y="53"/><ellipse cx="253" cy="69" fill="#ADD1B2" rx="11" ry="11" style="stroke: #A80036; stroke-width: 1.0;"/><path d="M255.9688,74.6406 Q255.3906,74.9375 254.75,75.0781 Q254.1094,75.2344 253.4063,75.2344 Q250.9063,75.2344 249.5781,73.5938 Q248.2656,71.9375 248.2656,68.8125 Q248.2656,65.6875 249.5781,64.0313 Q250.9063,62.375 253.4063,62.375 Q254.1094,62.375 254.75,62.5313 Q255.4063,62.6875 255.9688,62.9844 L255.9688,65.7031 Q255.3438,65.125 254.75,64.8594 Q254.1563,64.5781 253.5313,64.5781 Q252.1875,64.5781 251.5,65.6563 Q250.8125,66.7188 250.8125,68.8125 Q250.8125,70.9063 251.5,71.9844 Q252.1875,73.0469 253.5313,73.0469 Q254.1563,73.0469 254.75,72.7813 Q255.3438,72.5 255.9688,71.9219 L255.9688,74.6406 Z "/><text fill="#000000" font-family="sans-serif" font-size="12" lengthAdjust="spacingAndGlyphs" textLength="113" x="267" y="73.1543">TextureWrapMode</text><line style="stroke: #A80036; stroke-width: 1.5;" x1="239" x2="382" y1="85" y2="85"/><line style="stroke: #A80036; stroke-width: 1.5;" x1="239" x2="382" y1="93" y2="93"/><!--MD5=[66fbe48d75be5e96533e77924532b187]
link Texture2D to TextureFilter--><path d="M104.5,146.13 C104.5,164.63 104.5,184.1 104.5,200.63 " fill="none" id="Texture2D-&gt;TextureFilter" style="stroke: #A80036; stroke-width: 1.0;"/><polygon fill="#A80036" points="104.5,205.66,108.5,196.66,104.5,200.66,100.5,196.66,104.5,205.66" style="stroke: #A80036; stroke-width: 1.0;"/><text fill="#000000" font-family="sans-serif" font-size="13" lengthAdjust="spacingAndGlyphs" textLength="77" x="20.8828" y="195.065">textureFilter</text><!--MD5=[aeeec7e5efdcd76fc1781c58726ddf99]
link Texture2D to TextureWrapMode--><path d="M215.07,77 C215.07,77 221.8,77 224.64,77 " fill="none" id="Texture2D-TextureWrapMode" style="stroke: #A80036; stroke-width: 1.0;"/><polygon fill="#A80036" points="237.9,77,228.9,73,232.9,77,228.9,81,237.9,77" style="stroke: #A80036; stroke-width: 1.0;"/><line style="stroke: #A80036; stroke-width: 1.0;" x1="232.9" x2="224.9" y1="77" y2="77"/><polygon fill="#FFFFFF" points="203.07,77,209.07,81,215.07,77,209.07,73,203.07,77" style="stroke: #A80036; stroke-width: 1.0;"/><text fill="#000000" font-family="sans-serif" font-size="13" lengthAdjust="spacingAndGlyphs" textLength="65" x="165.5587" y="64.2919">wrapMode</text><!--MD5=[287f8b8cad7cfcb8a56ee5af79b6967d]
@startuml
enum TextureFilter {
    Linear,
    Point,
}
class Texture2D {
    + name : string
    + generateMipmap : bool = true
    + Texture2D(_path:string)
    + Texture2D()
    + Texture2D(_c:Colour)
    + Bind(_unit:int) : void
    + Use() : void
}
Texture2D - -> "textureFilter" TextureFilter
Texture2D o-> "wrapMode" TextureWrapMode
@enduml

PlantUML version 1.2020.02(Sun Mar 01 10:22:07 GMT 2020)
(GPL source distribution)
Java Runtime: OpenJDK Runtime Environment
JVM: OpenJDK 64-Bit Server VM
Java Version: 11.0.9+11-Ubuntu-0ubuntu1
Operating System: Linux
Default Encoding: ANSI_X3.4-1968
Language: en
Country: US
--></g></svg>