<?xml version="1.0" encoding="UTF-8" standalone="no"?><svg xmlns="http://www.w3.org/2000/svg" xmlns:xlink="http://www.w3.org/1999/xlink" contentScriptType="application/ecmascript" contentStyleType="text/css" height="219px" preserveAspectRatio="none" style="width:578px;height:219px;" version="1.1" viewBox="0 0 578 219" width="578px" zoomAndPan="magnify"><defs><filter height="300%" id="f1n2fqvynl6qz6" width="300%" x="-1" y="-1"><feGaussianBlur result="blurOut" stdDeviation="2.0"/><feColorMatrix in="blurOut" result="blurOut2" type="matrix" values="0 0 0 0 0 0 0 0 0 0 0 0 0 0 0 0 0 0 .4 0"/><feOffset dx="4.0" dy="4.0" in="blurOut2" result="blurOut3"/><feBlend in="SourceGraphic" in2="blurOut3" mode="normal"/></filter></defs><g><!--MD5=[c8b153f885034d44a79999642e3ba63d]
class Vertex--><rect fill="#FEFECE" filter="url(#f1n2fqvynl6qz6)" height="92.3516" id="Vertex" style="stroke: #A80036; stroke-width: 1.5;" width="561" x="6" y="8"/><ellipse cx="259.25" cy="26.9688" fill="#ADD1B2" rx="11" ry="11" style="stroke: #A80036; stroke-width: 1.0;"/><path d="M262.2188,32.6094 Q261.6406,32.9063 261,33.0469 Q260.3594,33.2031 259.6563,33.2031 Q257.1563,33.2031 255.8281,31.5625 Q254.5156,29.9063 254.5156,26.7813 Q254.5156,23.6563 255.8281,22 Q257.1563,20.3438 259.6563,20.3438 Q260.3594,20.3438 261,20.5 Q261.6563,20.6563 262.2188,20.9531 L262.2188,23.6719 Q261.5938,23.0938 261,22.8281 Q260.4063,22.5469 259.7813,22.5469 Q258.4375,22.5469 257.75,23.625 Q257.0625,24.6875 257.0625,26.7813 Q257.0625,28.875 257.75,29.9531 Q258.4375,31.0156 259.7813,31.0156 Q260.4063,31.0156 261,30.75 Q261.5938,30.4688 262.2188,29.8906 L262.2188,32.6094 Z "/><text fill="#000000" font-family="sans-serif" font-size="12" font-style="italic" lengthAdjust="spacingAndGlyphs" textLength="50" x="277.75" y="24.1387">«struct»</text><text fill="#000000" font-family="sans-serif" font-size="12" lengthAdjust="spacingAndGlyphs" textLength="40" x="282.75" y="38.1074">Vertex</text><line style="stroke: #A80036; stroke-width: 1.5;" x1="7" x2="566" y1="45.9375" y2="45.9375"/><line style="stroke: #A80036; stroke-width: 1.5;" x1="7" x2="566" y1="53.9375" y2="53.9375"/><ellipse cx="17" cy="64.9375" fill="#84BE84" rx="3" ry="3" style="stroke: #038048; stroke-width: 1.0;"/><text fill="#000000" font-family="sans-serif" font-size="11" lengthAdjust="spacingAndGlyphs" textLength="118" x="26" y="68.1479">Vertex(_pos:Vector3)</text><ellipse cx="17" cy="77.7422" fill="#84BE84" rx="3" ry="3" style="stroke: #038048; stroke-width: 1.0;"/><text fill="#000000" font-family="sans-serif" font-size="11" lengthAdjust="spacingAndGlyphs" textLength="189" x="26" y="80.9526">Vertex(_pos:Vector3, _col:Colour)</text><ellipse cx="17" cy="90.5469" fill="#84BE84" rx="3" ry="3" style="stroke: #038048; stroke-width: 1.0;"/><text fill="#000000" font-family="sans-serif" font-size="11" lengthAdjust="spacingAndGlyphs" textLength="535" x="26" y="93.7573">Vertex(_pos:Vector3, _col:Colour, _uv:Vector2, _normal:Vector3, _tan:Vector3, _biTan:Vector3)</text><!--MD5=[65d619c042c23702cef2ca07d67b1cf6]
class Vector3--><rect fill="#FEFECE" filter="url(#f1n2fqvynl6qz6)" height="48" id="Vector3" style="stroke: #A80036; stroke-width: 1.5;" width="81" x="246" y="160"/><ellipse cx="261" cy="176" fill="#ADD1B2" rx="11" ry="11" style="stroke: #A80036; stroke-width: 1.0;"/><path d="M263.9688,181.6406 Q263.3906,181.9375 262.75,182.0781 Q262.1094,182.2344 261.4063,182.2344 Q258.9063,182.2344 257.5781,180.5938 Q256.2656,178.9375 256.2656,175.8125 Q256.2656,172.6875 257.5781,171.0313 Q258.9063,169.375 261.4063,169.375 Q262.1094,169.375 262.75,169.5313 Q263.4063,169.6875 263.9688,169.9844 L263.9688,172.7031 Q263.3438,172.125 262.75,171.8594 Q262.1563,171.5781 261.5313,171.5781 Q260.1875,171.5781 259.5,172.6563 Q258.8125,173.7188 258.8125,175.8125 Q258.8125,177.9063 259.5,178.9844 Q260.1875,180.0469 261.5313,180.0469 Q262.1563,180.0469 262.75,179.7813 Q263.3438,179.5 263.9688,178.9219 L263.9688,181.6406 Z "/><text fill="#000000" font-family="sans-serif" font-size="12" lengthAdjust="spacingAndGlyphs" textLength="49" x="275" y="180.1543">Vector3</text><line style="stroke: #A80036; stroke-width: 1.5;" x1="247" x2="326" y1="192" y2="192"/><line style="stroke: #A80036; stroke-width: 1.5;" x1="247" x2="326" y1="200" y2="200"/><!--MD5=[4d4eb26d042d74c9fb837d4bd92f5625]
class Colour--><rect fill="#FEFECE" filter="url(#f1n2fqvynl6qz6)" height="48" id="Colour" style="stroke: #A80036; stroke-width: 1.5;" width="72" x="362.5" y="160"/><ellipse cx="377.5" cy="176" fill="#ADD1B2" rx="11" ry="11" style="stroke: #A80036; stroke-width: 1.0;"/><path d="M380.4688,181.6406 Q379.8906,181.9375 379.25,182.0781 Q378.6094,182.2344 377.9063,182.2344 Q375.4063,182.2344 374.0781,180.5938 Q372.7656,178.9375 372.7656,175.8125 Q372.7656,172.6875 374.0781,171.0313 Q375.4063,169.375 377.9063,169.375 Q378.6094,169.375 379.25,169.5313 Q379.9063,169.6875 380.4688,169.9844 L380.4688,172.7031 Q379.8438,172.125 379.25,171.8594 Q378.6563,171.5781 378.0313,171.5781 Q376.6875,171.5781 376,172.6563 Q375.3125,173.7188 375.3125,175.8125 Q375.3125,177.9063 376,178.9844 Q376.6875,180.0469 378.0313,180.0469 Q378.6563,180.0469 379.25,179.7813 Q379.8438,179.5 380.4688,178.9219 L380.4688,181.6406 Z "/><text fill="#000000" font-family="sans-serif" font-size="12" lengthAdjust="spacingAndGlyphs" textLength="40" x="391.5" y="180.1543">Colour</text><line style="stroke: #A80036; stroke-width: 1.5;" x1="363.5" x2="433.5" y1="192" y2="192"/><line style="stroke: #A80036; stroke-width: 1.5;" x1="363.5" x2="433.5" y1="200" y2="200"/><!--MD5=[3f551f1273bbfa514d2f681c1c48b5c1]
class Vector2--><rect fill="#FEFECE" filter="url(#f1n2fqvynl6qz6)" height="48" id="Vector2" style="stroke: #A80036; stroke-width: 1.5;" width="81" x="470" y="160"/><ellipse cx="485" cy="176" fill="#ADD1B2" rx="11" ry="11" style="stroke: #A80036; stroke-width: 1.0;"/><path d="M487.9688,181.6406 Q487.3906,181.9375 486.75,182.0781 Q486.1094,182.2344 485.4063,182.2344 Q482.9063,182.2344 481.5781,180.5938 Q480.2656,178.9375 480.2656,175.8125 Q480.2656,172.6875 481.5781,171.0313 Q482.9063,169.375 485.4063,169.375 Q486.1094,169.375 486.75,169.5313 Q487.4063,169.6875 487.9688,169.9844 L487.9688,172.7031 Q487.3438,172.125 486.75,171.8594 Q486.1563,171.5781 485.5313,171.5781 Q484.1875,171.5781 483.5,172.6563 Q482.8125,173.7188 482.8125,175.8125 Q482.8125,177.9063 483.5,178.9844 Q484.1875,180.0469 485.5313,180.0469 Q486.1563,180.0469 486.75,179.7813 Q487.3438,179.5 487.9688,178.9219 L487.9688,181.6406 Z "/><text fill="#000000" font-family="sans-serif" font-size="12" lengthAdjust="spacingAndGlyphs" textLength="49" x="499" y="180.1543">Vector2</text><line style="stroke: #A80036; stroke-width: 1.5;" x1="471" x2="550" y1="192" y2="192"/><line style="stroke: #A80036; stroke-width: 1.5;" x1="471" x2="550" y1="200" y2="200"/><!--MD5=[612f80f850c2efecc4c99e56455027ca]
link Vertex to Vector3--><path d="M249.05,100.13 C245.97,118.39 247.48,138.91 253.59,154.96 " fill="none" id="Vertex-&gt;Vector3" style="stroke: #A80036; stroke-width: 1.0;"/><polygon fill="#A80036" points="255.63,159.79,255.824,149.9431,253.6897,155.1818,248.4509,153.0475,255.63,159.79" style="stroke: #A80036; stroke-width: 1.0;"/><text fill="#000000" font-family="sans-serif" font-size="13" lengthAdjust="spacingAndGlyphs" textLength="90" x="148.0851" y="149.5393">vertexPosition</text><!--MD5=[612f80f850c2efecc4c99e56455027ca]
link Vertex to Vector3--><path d="M274.26,100.13 C273.26,118.23 273.74,138.55 275.69,154.54 " fill="none" id="Vertex-&gt;Vector3-1" style="stroke: #A80036; stroke-width: 1.0;"/><polygon fill="#A80036" points="276.41,159.79,279.1622,150.3335,275.737,154.8355,271.235,151.4103,276.41,159.79" style="stroke: #A80036; stroke-width: 1.0;"/><text fill="#000000" font-family="sans-serif" font-size="13" lengthAdjust="spacingAndGlyphs" textLength="45" x="279.5901" y="148.7482">normal</text><!--MD5=[612f80f850c2efecc4c99e56455027ca]
link Vertex to Vector3--><path d="M299.46,100.13 C300.52,118.23 300.01,138.55 297.95,154.54 " fill="none" id="Vertex-&gt;Vector3-2" style="stroke: #A80036; stroke-width: 1.0;"/><polygon fill="#A80036" points="297.19,159.79,302.4327,151.4525,297.9031,154.8411,294.5145,150.3115,297.19,159.79" style="stroke: #A80036; stroke-width: 1.0;"/><text fill="#000000" font-family="sans-serif" font-size="13" lengthAdjust="spacingAndGlyphs" textLength="50" x="306.3356" y="148.7482">tangent</text><!--MD5=[612f80f850c2efecc4c99e56455027ca]
link Vertex to Vector3--><path d="M324.67,100.13 C327.81,118.39 326.27,138.91 320.04,154.96 " fill="none" id="Vertex-&gt;Vector3-3" style="stroke: #A80036; stroke-width: 1.0;"/><polygon fill="#A80036" points="317.96,159.79,325.1994,153.1123,319.9416,155.1995,317.8545,149.9417,317.96,159.79" style="stroke: #A80036; stroke-width: 1.0;"/><text fill="#000000" font-family="sans-serif" font-size="13" lengthAdjust="spacingAndGlyphs" textLength="63" x="321.3295" y="148.8289">biTangent</text><!--MD5=[b5743ee0fd8f56cbf2b25a6f7d09f5f1]
link Vertex to Colour--><path d="M325.99,100.13 C342.24,118.71 360.54,139.62 374.69,155.78 " fill="none" id="Vertex-&gt;Colour" style="stroke: #A80036; stroke-width: 1.0;"/><polygon fill="#A80036" points="378.19,159.79,375.2561,150.3883,374.8904,156.0333,369.2454,155.6676,378.19,159.79" style="stroke: #A80036; stroke-width: 1.0;"/><text fill="#000000" font-family="sans-serif" font-size="13" lengthAdjust="spacingAndGlyphs" textLength="81" x="383.3637" y="148.7482">vertexColour</text><!--MD5=[4a6fe3c690bfa36a750f43788e0f6654]
link Vertex to Vector2--><path d="M365.47,100.13 C399.07,119.33 437.02,141.01 465.67,157.38 " fill="none" id="Vertex-&gt;Vector2" style="stroke: #A80036; stroke-width: 1.0;"/><polygon fill="#A80036" points="470.19,159.97,464.3773,152.0194,465.8541,157.4801,460.3934,158.9569,470.19,159.97" style="stroke: #A80036; stroke-width: 1.0;"/><text fill="#000000" font-family="sans-serif" font-size="13" lengthAdjust="spacingAndGlyphs" textLength="19" x="442.9402" y="169.3101">UV</text><!--MD5=[2e4c3043bdc26a44785c52d4140fe77f]
@startuml
class Vertex <<struct>> {
    + Vertex(_pos:Vector3)
    + Vertex(_pos:Vector3, _col:Colour)
    + Vertex(_pos:Vector3, _col:Colour, _uv:Vector2, _normal:Vector3, _tan:Vector3, _biTan:Vector3)
}
Vertex - -> "vertexPosition" Vector3
Vertex - -> "vertexColour" Colour
Vertex - -> "UV" Vector2
Vertex - -> "normal" Vector3
Vertex - -> "tangent" Vector3
Vertex - -> "biTangent" Vector3
@enduml

PlantUML version 1.2020.02(Sun Mar 01 10:22:07 GMT 2020)
(GPL source distribution)
Java Runtime: OpenJDK Runtime Environment
JVM: OpenJDK 64-Bit Server VM
Java Version: 11.0.9+11-Ubuntu-0ubuntu1
Operating System: Linux
Default Encoding: ANSI_X3.4-1968
Language: en
Country: US
--></g></svg>