<?xml version="1.0" encoding="UTF-8" standalone="no"?><svg xmlns="http://www.w3.org/2000/svg" xmlns:xlink="http://www.w3.org/1999/xlink" contentScriptType="application/ecmascript" contentStyleType="text/css" height="175px" preserveAspectRatio="none" style="width:167px;height:175px;" version="1.1" viewBox="0 0 167 175" width="167px" zoomAndPan="magnify"><defs><filter height="300%" id="f121c6q4ws4hrd" width="300%" x="-1" y="-1"><feGaussianBlur result="blurOut" stdDeviation="2.0"/><feColorMatrix in="blurOut" result="blurOut2" type="matrix" values="0 0 0 0 0 0 0 0 0 0 0 0 0 0 0 0 0 0 .4 0"/><feOffset dx="4.0" dy="4.0" in="blurOut2" result="blurOut3"/><feBlend in="SourceGraphic" in2="blurOut3" mode="normal"/></filter></defs><g><!--MD5=[7251968e1e6a9031432c24122b3a4c2a]
class LoadedSphereTest--><rect fill="#FEFECE" filter="url(#f121c6q4ws4hrd)" height="48" id="LoadedSphereTest" style="stroke: #A80036; stroke-width: 1.5;" width="150" x="6" y="116"/><ellipse cx="21" cy="132" fill="#ADD1B2" rx="11" ry="11" style="stroke: #A80036; stroke-width: 1.0;"/><path d="M23.9688,137.6406 Q23.3906,137.9375 22.75,138.0781 Q22.1094,138.2344 21.4063,138.2344 Q18.9063,138.2344 17.5781,136.5938 Q16.2656,134.9375 16.2656,131.8125 Q16.2656,128.6875 17.5781,127.0313 Q18.9063,125.375 21.4063,125.375 Q22.1094,125.375 22.75,125.5313 Q23.4063,125.6875 23.9688,125.9844 L23.9688,128.7031 Q23.3438,128.125 22.75,127.8594 Q22.1563,127.5781 21.5313,127.5781 Q20.1875,127.5781 19.5,128.6563 Q18.8125,129.7188 18.8125,131.8125 Q18.8125,133.9063 19.5,134.9844 Q20.1875,136.0469 21.5313,136.0469 Q22.1563,136.0469 22.75,135.7813 Q23.3438,135.5 23.9688,134.9219 L23.9688,137.6406 Z "/><text fill="#000000" font-family="sans-serif" font-size="12" lengthAdjust="spacingAndGlyphs" textLength="118" x="35" y="136.1543">LoadedSphereTest</text><line style="stroke: #A80036; stroke-width: 1.5;" x1="7" x2="155" y1="148" y2="148"/><line style="stroke: #A80036; stroke-width: 1.5;" x1="7" x2="155" y1="156" y2="156"/><!--MD5=[b6dcce5e5ef3c84b0b048d11301373dd]
class Game--><rect fill="#FEFECE" filter="url(#f121c6q4ws4hrd)" height="48" id="Game" style="stroke: #A80036; stroke-width: 1.5;" width="68" x="47" y="8"/><ellipse cx="62" cy="24" fill="#ADD1B2" rx="11" ry="11" style="stroke: #A80036; stroke-width: 1.0;"/><path d="M64.9688,29.6406 Q64.3906,29.9375 63.75,30.0781 Q63.1094,30.2344 62.4063,30.2344 Q59.9063,30.2344 58.5781,28.5938 Q57.2656,26.9375 57.2656,23.8125 Q57.2656,20.6875 58.5781,19.0313 Q59.9063,17.375 62.4063,17.375 Q63.1094,17.375 63.75,17.5313 Q64.4063,17.6875 64.9688,17.9844 L64.9688,20.7031 Q64.3438,20.125 63.75,19.8594 Q63.1563,19.5781 62.5313,19.5781 Q61.1875,19.5781 60.5,20.6563 Q59.8125,21.7188 59.8125,23.8125 Q59.8125,25.9063 60.5,26.9844 Q61.1875,28.0469 62.5313,28.0469 Q63.1563,28.0469 63.75,27.7813 Q64.3438,27.5 64.9688,26.9219 L64.9688,29.6406 Z "/><text fill="#000000" font-family="sans-serif" font-size="12" lengthAdjust="spacingAndGlyphs" textLength="36" x="76" y="28.1543">Game</text><line style="stroke: #A80036; stroke-width: 1.5;" x1="48" x2="114" y1="40" y2="40"/><line style="stroke: #A80036; stroke-width: 1.5;" x1="48" x2="114" y1="48" y2="48"/><!--MD5=[9b51dc9c8718feaa87080589c2183cee]
reverse link Game to LoadedSphereTest--><path d="M81,76.02 C81,89.58 81,104.04 81,115.68 " fill="none" id="Game&lt;-LoadedSphereTest" style="stroke: #A80036; stroke-width: 1.0;"/><polygon fill="none" points="74,76,81,56,88,76,74,76" style="stroke: #A80036; stroke-width: 1.0;"/><!--MD5=[ad43a7a4c5e4f5f4876fb020a03cc3a2]
@startuml
class LoadedSphereTest {
}
Game <|- - LoadedSphereTest
@enduml

PlantUML version 1.2020.02(Sun Mar 01 10:22:07 GMT 2020)
(GPL source distribution)
Java Runtime: OpenJDK Runtime Environment
JVM: OpenJDK 64-Bit Server VM
Java Version: 11.0.9+11-Ubuntu-0ubuntu1
Operating System: Linux
Default Encoding: ANSI_X3.4-1968
Language: en
Country: US
--></g></svg>