<?xml version="1.0" encoding="UTF-8" standalone="no"?><svg xmlns="http://www.w3.org/2000/svg" xmlns:xlink="http://www.w3.org/1999/xlink" contentScriptType="application/ecmascript" contentStyleType="text/css" height="175px" preserveAspectRatio="none" style="width:162px;height:175px;" version="1.1" viewBox="0 0 162 175" width="162px" zoomAndPan="magnify"><defs><filter height="300%" id="fwtat52x2o9pl" width="300%" x="-1" y="-1"><feGaussianBlur result="blurOut" stdDeviation="2.0"/><feColorMatrix in="blurOut" result="blurOut2" type="matrix" values="0 0 0 0 0 0 0 0 0 0 0 0 0 0 0 0 0 0 .4 0"/><feOffset dx="4.0" dy="4.0" in="blurOut2" result="blurOut3"/><feBlend in="SourceGraphic" in2="blurOut3" mode="normal"/></filter></defs><g><!--MD5=[1607346cdf800cf25736c2a1decc9e66]
class LoadedObjectTest--><rect fill="#FEFECE" filter="url(#fwtat52x2o9pl)" height="48" id="LoadedObjectTest" style="stroke: #A80036; stroke-width: 1.5;" width="145" x="6" y="116"/><ellipse cx="21" cy="132" fill="#ADD1B2" rx="11" ry="11" style="stroke: #A80036; stroke-width: 1.0;"/><path d="M23.9688,137.6406 Q23.3906,137.9375 22.75,138.0781 Q22.1094,138.2344 21.4063,138.2344 Q18.9063,138.2344 17.5781,136.5938 Q16.2656,134.9375 16.2656,131.8125 Q16.2656,128.6875 17.5781,127.0313 Q18.9063,125.375 21.4063,125.375 Q22.1094,125.375 22.75,125.5313 Q23.4063,125.6875 23.9688,125.9844 L23.9688,128.7031 Q23.3438,128.125 22.75,127.8594 Q22.1563,127.5781 21.5313,127.5781 Q20.1875,127.5781 19.5,128.6563 Q18.8125,129.7188 18.8125,131.8125 Q18.8125,133.9063 19.5,134.9844 Q20.1875,136.0469 21.5313,136.0469 Q22.1563,136.0469 22.75,135.7813 Q23.3438,135.5 23.9688,134.9219 L23.9688,137.6406 Z "/><text fill="#000000" font-family="sans-serif" font-size="12" lengthAdjust="spacingAndGlyphs" textLength="113" x="35" y="136.1543">LoadedObjectTest</text><line style="stroke: #A80036; stroke-width: 1.5;" x1="7" x2="150" y1="148" y2="148"/><line style="stroke: #A80036; stroke-width: 1.5;" x1="7" x2="150" y1="156" y2="156"/><!--MD5=[b6dcce5e5ef3c84b0b048d11301373dd]
class Game--><rect fill="#FEFECE" filter="url(#fwtat52x2o9pl)" height="48" id="Game" style="stroke: #A80036; stroke-width: 1.5;" width="68" x="44.5" y="8"/><ellipse cx="59.5" cy="24" fill="#ADD1B2" rx="11" ry="11" style="stroke: #A80036; stroke-width: 1.0;"/><path d="M62.4688,29.6406 Q61.8906,29.9375 61.25,30.0781 Q60.6094,30.2344 59.9063,30.2344 Q57.4063,30.2344 56.0781,28.5938 Q54.7656,26.9375 54.7656,23.8125 Q54.7656,20.6875 56.0781,19.0313 Q57.4063,17.375 59.9063,17.375 Q60.6094,17.375 61.25,17.5313 Q61.9063,17.6875 62.4688,17.9844 L62.4688,20.7031 Q61.8438,20.125 61.25,19.8594 Q60.6563,19.5781 60.0313,19.5781 Q58.6875,19.5781 58,20.6563 Q57.3125,21.7188 57.3125,23.8125 Q57.3125,25.9063 58,26.9844 Q58.6875,28.0469 60.0313,28.0469 Q60.6563,28.0469 61.25,27.7813 Q61.8438,27.5 62.4688,26.9219 L62.4688,29.6406 Z "/><text fill="#000000" font-family="sans-serif" font-size="12" lengthAdjust="spacingAndGlyphs" textLength="36" x="73.5" y="28.1543">Game</text><line style="stroke: #A80036; stroke-width: 1.5;" x1="45.5" x2="111.5" y1="40" y2="40"/><line style="stroke: #A80036; stroke-width: 1.5;" x1="45.5" x2="111.5" y1="48" y2="48"/><!--MD5=[d8c04d72b63693ca1d509d517b71e204]
reverse link Game to LoadedObjectTest--><path d="M78.5,76.02 C78.5,89.58 78.5,104.04 78.5,115.68 " fill="none" id="Game&lt;-LoadedObjectTest" style="stroke: #A80036; stroke-width: 1.0;"/><polygon fill="none" points="71.5,76,78.5,56,85.5,76,71.5,76" style="stroke: #A80036; stroke-width: 1.0;"/><!--MD5=[c9f11ca9475ad9502378ee5a57441ed2]
@startuml
class LoadedObjectTest {
}
Game <|- - LoadedObjectTest
@enduml

PlantUML version 1.2020.02(Sun Mar 01 10:22:07 GMT 2020)
(GPL source distribution)
Java Runtime: OpenJDK Runtime Environment
JVM: OpenJDK 64-Bit Server VM
Java Version: 11.0.9+11-Ubuntu-0ubuntu1
Operating System: Linux
Default Encoding: ANSI_X3.4-1968
Language: en
Country: US
--></g></svg>