<?xml version="1.0" encoding="UTF-8" standalone="no"?><svg xmlns="http://www.w3.org/2000/svg" xmlns:xlink="http://www.w3.org/1999/xlink" contentScriptType="application/ecmascript" contentStyleType="text/css" height="347px" preserveAspectRatio="none" style="width:329px;height:347px;" version="1.1" viewBox="0 0 329 347" width="329px" zoomAndPan="magnify"><defs><filter height="300%" id="fqmsgq5n41y9o" width="300%" x="-1" y="-1"><feGaussianBlur result="blurOut" stdDeviation="2.0"/><feColorMatrix in="blurOut" result="blurOut2" type="matrix" values="0 0 0 0 0 0 0 0 0 0 0 0 0 0 0 0 0 0 .4 0"/><feOffset dx="4.0" dy="4.0" in="blurOut2" result="blurOut3"/><feBlend in="SourceGraphic" in2="blurOut3" mode="normal"/></filter></defs><g><!--MD5=[2e9cf256d69c85c1e30141c3f07c154e]
class LitMaterial--><rect fill="#FEFECE" filter="url(#fqmsgq5n41y9o)" height="112.0234" id="LitMaterial" style="stroke: #A80036; stroke-width: 1.5;" width="234" x="84.9" y="116"/><ellipse cx="165.65" cy="132" fill="#ADD1B2" rx="11" ry="11" style="stroke: #A80036; stroke-width: 1.0;"/><path d="M168.6188,137.6406 Q168.0406,137.9375 167.4,138.0781 Q166.7594,138.2344 166.0563,138.2344 Q163.5563,138.2344 162.2281,136.5938 Q160.9156,134.9375 160.9156,131.8125 Q160.9156,128.6875 162.2281,127.0313 Q163.5563,125.375 166.0563,125.375 Q166.7594,125.375 167.4,125.5313 Q168.0563,125.6875 168.6188,125.9844 L168.6188,128.7031 Q167.9938,128.125 167.4,127.8594 Q166.8063,127.5781 166.1813,127.5781 Q164.8375,127.5781 164.15,128.6563 Q163.4625,129.7188 163.4625,131.8125 Q163.4625,133.9063 164.15,134.9844 Q164.8375,136.0469 166.1813,136.0469 Q166.8063,136.0469 167.4,135.7813 Q167.9938,135.5 168.6188,134.9219 L168.6188,137.6406 Z "/><text fill="#000000" font-family="sans-serif" font-size="12" lengthAdjust="spacingAndGlyphs" textLength="64" x="186.15" y="136.1543">LitMaterial</text><line style="stroke: #A80036; stroke-width: 1.5;" x1="85.9" x2="317.9" y1="148" y2="148"/><ellipse cx="95.9" cy="159" fill="none" rx="3" ry="3" style="stroke: #038048; stroke-width: 1.0;"/><text fill="#000000" font-family="sans-serif" font-size="11" lengthAdjust="spacingAndGlyphs" textLength="204" x="104.9" y="162.2104">AmbientStrength : float «get» «set»</text><ellipse cx="95.9" cy="171.8047" fill="none" rx="3" ry="3" style="stroke: #038048; stroke-width: 1.0;"/><text fill="#000000" font-family="sans-serif" font-size="11" lengthAdjust="spacingAndGlyphs" textLength="208" x="104.9" y="175.0151">SpecularStrength : float «get» «set»</text><ellipse cx="95.9" cy="184.6094" fill="none" rx="3" ry="3" style="stroke: #038048; stroke-width: 1.0;"/><text fill="#000000" font-family="sans-serif" font-size="11" lengthAdjust="spacingAndGlyphs" textLength="165" x="104.9" y="187.8198">Shininess : float «get» «set»</text><line style="stroke: #A80036; stroke-width: 1.5;" x1="85.9" x2="317.9" y1="194.4141" y2="194.4141"/><ellipse cx="95.9" cy="205.4141" fill="#84BE84" rx="3" ry="3" style="stroke: #038048; stroke-width: 1.0;"/><text fill="#000000" font-family="sans-serif" font-size="11" lengthAdjust="spacingAndGlyphs" textLength="66" x="104.9" y="208.6245">LitMaterial()</text><ellipse cx="95.9" cy="218.2188" fill="#84BE84" rx="3" ry="3" style="stroke: #038048; stroke-width: 1.0;"/><text fill="#000000" font-family="sans-serif" font-size="11" lengthAdjust="spacingAndGlyphs" textLength="153" x="104.9" y="221.4292">«override» Initialize() : void</text><!--MD5=[90d32ccc189f11441a6ce7cbb63ad387]
class Material--><rect fill="#FEFECE" filter="url(#fqmsgq5n41y9o)" height="48" id="Material" style="stroke: #A80036; stroke-width: 1.5;" width="82" x="160.9" y="8"/><ellipse cx="175.9" cy="24" fill="#ADD1B2" rx="11" ry="11" style="stroke: #A80036; stroke-width: 1.0;"/><path d="M178.8688,29.6406 Q178.2906,29.9375 177.65,30.0781 Q177.0094,30.2344 176.3063,30.2344 Q173.8063,30.2344 172.4781,28.5938 Q171.1656,26.9375 171.1656,23.8125 Q171.1656,20.6875 172.4781,19.0313 Q173.8063,17.375 176.3063,17.375 Q177.0094,17.375 177.65,17.5313 Q178.3063,17.6875 178.8688,17.9844 L178.8688,20.7031 Q178.2438,20.125 177.65,19.8594 Q177.0563,19.5781 176.4313,19.5781 Q175.0875,19.5781 174.4,20.6563 Q173.7125,21.7188 173.7125,23.8125 Q173.7125,25.9063 174.4,26.9844 Q175.0875,28.0469 176.4313,28.0469 Q177.0563,28.0469 177.65,27.7813 Q178.2438,27.5 178.8688,26.9219 L178.8688,29.6406 Z "/><text fill="#000000" font-family="sans-serif" font-size="12" lengthAdjust="spacingAndGlyphs" textLength="50" x="189.9" y="28.1543">Material</text><line style="stroke: #A80036; stroke-width: 1.5;" x1="161.9" x2="241.9" y1="40" y2="40"/><line style="stroke: #A80036; stroke-width: 1.5;" x1="161.9" x2="241.9" y1="48" y2="48"/><!--MD5=[4d4eb26d042d74c9fb837d4bd92f5625]
class Colour--><rect fill="#FEFECE" filter="url(#fqmsgq5n41y9o)" height="48" id="Colour" style="stroke: #A80036; stroke-width: 1.5;" width="72" x="46.9" y="288"/><ellipse cx="61.9" cy="304" fill="#ADD1B2" rx="11" ry="11" style="stroke: #A80036; stroke-width: 1.0;"/><path d="M64.8688,309.6406 Q64.2906,309.9375 63.65,310.0781 Q63.0094,310.2344 62.3063,310.2344 Q59.8063,310.2344 58.4781,308.5938 Q57.1656,306.9375 57.1656,303.8125 Q57.1656,300.6875 58.4781,299.0313 Q59.8063,297.375 62.3063,297.375 Q63.0094,297.375 63.65,297.5313 Q64.3063,297.6875 64.8688,297.9844 L64.8688,300.7031 Q64.2438,300.125 63.65,299.8594 Q63.0563,299.5781 62.4313,299.5781 Q61.0875,299.5781 60.4,300.6563 Q59.7125,301.7188 59.7125,303.8125 Q59.7125,305.9063 60.4,306.9844 Q61.0875,308.0469 62.4313,308.0469 Q63.0563,308.0469 63.65,307.7813 Q64.2438,307.5 64.8688,306.9219 L64.8688,309.6406 Z "/><text fill="#000000" font-family="sans-serif" font-size="12" lengthAdjust="spacingAndGlyphs" textLength="40" x="75.9" y="308.1543">Colour</text><line style="stroke: #A80036; stroke-width: 1.5;" x1="47.9" x2="117.9" y1="320" y2="320"/><line style="stroke: #A80036; stroke-width: 1.5;" x1="47.9" x2="117.9" y1="328" y2="328"/><!--MD5=[6104b1394854ac3fa1f1868fad6021ae]
class Texture2D--><rect fill="#FEFECE" filter="url(#fqmsgq5n41y9o)" height="48" id="Texture2D" style="stroke: #A80036; stroke-width: 1.5;" width="96" x="153.9" y="288"/><ellipse cx="168.9" cy="304" fill="#ADD1B2" rx="11" ry="11" style="stroke: #A80036; stroke-width: 1.0;"/><path d="M171.8688,309.6406 Q171.2906,309.9375 170.65,310.0781 Q170.0094,310.2344 169.3063,310.2344 Q166.8063,310.2344 165.4781,308.5938 Q164.1656,306.9375 164.1656,303.8125 Q164.1656,300.6875 165.4781,299.0313 Q166.8063,297.375 169.3063,297.375 Q170.0094,297.375 170.65,297.5313 Q171.3063,297.6875 171.8688,297.9844 L171.8688,300.7031 Q171.2438,300.125 170.65,299.8594 Q170.0563,299.5781 169.4313,299.5781 Q168.0875,299.5781 167.4,300.6563 Q166.7125,301.7188 166.7125,303.8125 Q166.7125,305.9063 167.4,306.9844 Q168.0875,308.0469 169.4313,308.0469 Q170.0563,308.0469 170.65,307.7813 Q171.2438,307.5 171.8688,306.9219 L171.8688,309.6406 Z "/><text fill="#000000" font-family="sans-serif" font-size="12" lengthAdjust="spacingAndGlyphs" textLength="64" x="182.9" y="308.1543">Texture2D</text><line style="stroke: #A80036; stroke-width: 1.5;" x1="154.9" x2="248.9" y1="320" y2="320"/><line style="stroke: #A80036; stroke-width: 1.5;" x1="154.9" x2="248.9" y1="328" y2="328"/><!--MD5=[6d55214a5b1387e2079473f4511c5f62]
reverse link Material to LitMaterial--><path d="M201.9,76.25 C201.9,88.82 201.9,102.73 201.9,115.93 " fill="none" id="Material&lt;-LitMaterial" style="stroke: #A80036; stroke-width: 1.0;"/><polygon fill="none" points="194.9,76.1,201.9,56.1,208.9,76.1,194.9,76.1" style="stroke: #A80036; stroke-width: 1.0;"/><!--MD5=[ab98a8f401a99e77f9afd0caafca573e]
link LitMaterial to Colour--><path d="M154.19,228.33 C137.73,247.41 120.03,267.95 106.38,283.77 " fill="none" id="LitMaterial-&gt;Colour" style="stroke: #A80036; stroke-width: 1.0;"/><polygon fill="#A80036" points="103,287.69,111.9111,283.4957,106.2692,283.9068,105.8581,278.265,103,287.69" style="stroke: #A80036; stroke-width: 1.0;"/><text fill="#000000" font-family="sans-serif" font-size="13" lengthAdjust="spacingAndGlyphs" textLength="82" x="15.9056" y="277.0194">ObjectColour</text><!--MD5=[859ca79c8a604c19fa83681ffc9a3dc6]
link LitMaterial to Texture2D--><path d="M189.38,228.33 C188.76,246.93 189.42,266.9 191.36,282.56 " fill="none" id="LitMaterial-&gt;Texture2D" style="stroke: #A80036; stroke-width: 1.0;"/><polygon fill="#A80036" points="192.06,287.69,194.7853,278.2257,191.3729,282.7374,186.8612,279.325,192.06,287.69" style="stroke: #A80036; stroke-width: 1.0;"/><text fill="#000000" font-family="sans-serif" font-size="13" lengthAdjust="spacingAndGlyphs" textLength="71" x="120.8859" y="276.9792">DiffuseMap</text><!--MD5=[859ca79c8a604c19fa83681ffc9a3dc6]
link LitMaterial to Texture2D--><path d="M215.16,228.33 C215.82,246.93 215.12,266.9 213.07,282.56 " fill="none" id="LitMaterial-&gt;Texture2D-1" style="stroke: #A80036; stroke-width: 1.0;"/><polygon fill="#A80036" points="212.32,287.69,217.5897,279.3695,213.0491,282.7434,209.6752,278.2029,212.32,287.69" style="stroke: #A80036; stroke-width: 1.0;"/><text fill="#000000" font-family="sans-serif" font-size="13" lengthAdjust="spacingAndGlyphs" textLength="83" x="224.9755" y="277.0194">SpecularMap</text><!--MD5=[c16e8dd35dd4b69aff7d5121a8aa68e8]
@startuml
class LitMaterial {
    + LitMaterial()
    + <<override>> Initialize() : void
    + AmbientStrength : float <<get>> <<set>>
    + SpecularStrength : float <<get>> <<set>>
    + Shininess : float <<get>> <<set>>
}
Material <|- - LitMaterial
LitMaterial - -> "ObjectColour" Colour
LitMaterial - -> "DiffuseMap" Texture2D
LitMaterial - -> "SpecularMap" Texture2D
@enduml

PlantUML version 1.2020.02(Sun Mar 01 10:22:07 GMT 2020)
(GPL source distribution)
Java Runtime: OpenJDK Runtime Environment
JVM: OpenJDK 64-Bit Server VM
Java Version: 11.0.9+11-Ubuntu-0ubuntu1
Operating System: Linux
Default Encoding: ANSI_X3.4-1968
Language: en
Country: US
--></g></svg>