<?xml version="1.0" encoding="UTF-8" standalone="no"?><svg xmlns="http://www.w3.org/2000/svg" xmlns:xlink="http://www.w3.org/1999/xlink" contentScriptType="application/ecmascript" contentStyleType="text/css" height="309px" preserveAspectRatio="none" style="width:269px;height:309px;" version="1.1" viewBox="0 0 269 309" width="269px" zoomAndPan="magnify"><defs><filter height="300%" id="fxtvwylzz9xj7" width="300%" x="-1" y="-1"><feGaussianBlur result="blurOut" stdDeviation="2.0"/><feColorMatrix in="blurOut" result="blurOut2" type="matrix" values="0 0 0 0 0 0 0 0 0 0 0 0 0 0 0 0 0 0 .4 0"/><feOffset dx="4.0" dy="4.0" in="blurOut2" result="blurOut3"/><feBlend in="SourceGraphic" in2="blurOut3" mode="normal"/></filter></defs><g><!--MD5=[866022b5c7460177a070155f2f4beddc]
class UnlitMaterial--><rect fill="#FEFECE" filter="url(#fxtvwylzz9xj7)" height="73.6094" id="UnlitMaterial" style="stroke: #A80036; stroke-width: 1.5;" width="179" x="61.02" y="116"/><ellipse cx="107.27" cy="132" fill="#ADD1B2" rx="11" ry="11" style="stroke: #A80036; stroke-width: 1.0;"/><path d="M110.2388,137.6406 Q109.6606,137.9375 109.02,138.0781 Q108.3794,138.2344 107.6763,138.2344 Q105.1763,138.2344 103.8481,136.5938 Q102.5356,134.9375 102.5356,131.8125 Q102.5356,128.6875 103.8481,127.0313 Q105.1763,125.375 107.6763,125.375 Q108.3794,125.375 109.02,125.5313 Q109.6763,125.6875 110.2388,125.9844 L110.2388,128.7031 Q109.6138,128.125 109.02,127.8594 Q108.4263,127.5781 107.8013,127.5781 Q106.4575,127.5781 105.77,128.6563 Q105.0825,129.7188 105.0825,131.8125 Q105.0825,133.9063 105.77,134.9844 Q106.4575,136.0469 107.8013,136.0469 Q108.4263,136.0469 109.02,135.7813 Q109.6138,135.5 110.2388,134.9219 L110.2388,137.6406 Z "/><text fill="#000000" font-family="sans-serif" font-size="12" lengthAdjust="spacingAndGlyphs" textLength="78" x="127.77" y="136.1543">UnlitMaterial</text><line style="stroke: #A80036; stroke-width: 1.5;" x1="62.02" x2="239.02" y1="148" y2="148"/><line style="stroke: #A80036; stroke-width: 1.5;" x1="62.02" x2="239.02" y1="156" y2="156"/><ellipse cx="72.02" cy="167" fill="#84BE84" rx="3" ry="3" style="stroke: #038048; stroke-width: 1.0;"/><text fill="#000000" font-family="sans-serif" font-size="11" lengthAdjust="spacingAndGlyphs" textLength="78" x="81.02" y="170.2104">UnlitMaterial()</text><ellipse cx="72.02" cy="179.8047" fill="#84BE84" rx="3" ry="3" style="stroke: #038048; stroke-width: 1.0;"/><text fill="#000000" font-family="sans-serif" font-size="11" lengthAdjust="spacingAndGlyphs" textLength="153" x="81.02" y="183.0151">«override» Initialize() : void</text><!--MD5=[90d32ccc189f11441a6ce7cbb63ad387]
class Material--><rect fill="#FEFECE" filter="url(#fxtvwylzz9xj7)" height="48" id="Material" style="stroke: #A80036; stroke-width: 1.5;" width="82" x="109.52" y="8"/><ellipse cx="124.52" cy="24" fill="#ADD1B2" rx="11" ry="11" style="stroke: #A80036; stroke-width: 1.0;"/><path d="M127.4888,29.6406 Q126.9106,29.9375 126.27,30.0781 Q125.6294,30.2344 124.9263,30.2344 Q122.4263,30.2344 121.0981,28.5938 Q119.7856,26.9375 119.7856,23.8125 Q119.7856,20.6875 121.0981,19.0313 Q122.4263,17.375 124.9263,17.375 Q125.6294,17.375 126.27,17.5313 Q126.9263,17.6875 127.4888,17.9844 L127.4888,20.7031 Q126.8638,20.125 126.27,19.8594 Q125.6763,19.5781 125.0513,19.5781 Q123.7075,19.5781 123.02,20.6563 Q122.3325,21.7188 122.3325,23.8125 Q122.3325,25.9063 123.02,26.9844 Q123.7075,28.0469 125.0513,28.0469 Q125.6763,28.0469 126.27,27.7813 Q126.8638,27.5 127.4888,26.9219 L127.4888,29.6406 Z "/><text fill="#000000" font-family="sans-serif" font-size="12" lengthAdjust="spacingAndGlyphs" textLength="50" x="138.52" y="28.1543">Material</text><line style="stroke: #A80036; stroke-width: 1.5;" x1="110.52" x2="190.52" y1="40" y2="40"/><line style="stroke: #A80036; stroke-width: 1.5;" x1="110.52" x2="190.52" y1="48" y2="48"/><!--MD5=[4d4eb26d042d74c9fb837d4bd92f5625]
class Colour--><rect fill="#FEFECE" filter="url(#fxtvwylzz9xj7)" height="48" id="Colour" style="stroke: #A80036; stroke-width: 1.5;" width="72" x="55.52" y="250"/><ellipse cx="70.52" cy="266" fill="#ADD1B2" rx="11" ry="11" style="stroke: #A80036; stroke-width: 1.0;"/><path d="M73.4888,271.6406 Q72.9106,271.9375 72.27,272.0781 Q71.6294,272.2344 70.9263,272.2344 Q68.4263,272.2344 67.0981,270.5938 Q65.7856,268.9375 65.7856,265.8125 Q65.7856,262.6875 67.0981,261.0313 Q68.4263,259.375 70.9263,259.375 Q71.6294,259.375 72.27,259.5313 Q72.9263,259.6875 73.4888,259.9844 L73.4888,262.7031 Q72.8638,262.125 72.27,261.8594 Q71.6763,261.5781 71.0513,261.5781 Q69.7075,261.5781 69.02,262.6563 Q68.3325,263.7188 68.3325,265.8125 Q68.3325,267.9063 69.02,268.9844 Q69.7075,270.0469 71.0513,270.0469 Q71.6763,270.0469 72.27,269.7813 Q72.8638,269.5 73.4888,268.9219 L73.4888,271.6406 Z "/><text fill="#000000" font-family="sans-serif" font-size="12" lengthAdjust="spacingAndGlyphs" textLength="40" x="84.52" y="270.1543">Colour</text><line style="stroke: #A80036; stroke-width: 1.5;" x1="56.52" x2="126.52" y1="282" y2="282"/><line style="stroke: #A80036; stroke-width: 1.5;" x1="56.52" x2="126.52" y1="290" y2="290"/><!--MD5=[6104b1394854ac3fa1f1868fad6021ae]
class Texture2D--><rect fill="#FEFECE" filter="url(#fxtvwylzz9xj7)" height="48" id="Texture2D" style="stroke: #A80036; stroke-width: 1.5;" width="96" x="162.52" y="250"/><ellipse cx="177.52" cy="266" fill="#ADD1B2" rx="11" ry="11" style="stroke: #A80036; stroke-width: 1.0;"/><path d="M180.4888,271.6406 Q179.9106,271.9375 179.27,272.0781 Q178.6294,272.2344 177.9263,272.2344 Q175.4263,272.2344 174.0981,270.5938 Q172.7856,268.9375 172.7856,265.8125 Q172.7856,262.6875 174.0981,261.0313 Q175.4263,259.375 177.9263,259.375 Q178.6294,259.375 179.27,259.5313 Q179.9263,259.6875 180.4888,259.9844 L180.4888,262.7031 Q179.8638,262.125 179.27,261.8594 Q178.6763,261.5781 178.0513,261.5781 Q176.7075,261.5781 176.02,262.6563 Q175.3325,263.7188 175.3325,265.8125 Q175.3325,267.9063 176.02,268.9844 Q176.7075,270.0469 178.0513,270.0469 Q178.6763,270.0469 179.27,269.7813 Q179.8638,269.5 180.4888,268.9219 L180.4888,271.6406 Z "/><text fill="#000000" font-family="sans-serif" font-size="12" lengthAdjust="spacingAndGlyphs" textLength="64" x="191.52" y="270.1543">Texture2D</text><line style="stroke: #A80036; stroke-width: 1.5;" x1="163.52" x2="257.52" y1="282" y2="282"/><line style="stroke: #A80036; stroke-width: 1.5;" x1="163.52" x2="257.52" y1="290" y2="290"/><!--MD5=[7659a774119e6755524237e0ab3610eb]
reverse link Material to UnlitMaterial--><path d="M150.52,76.43 C150.52,89.33 150.52,103.32 150.52,115.71 " fill="none" id="Material&lt;-UnlitMaterial" style="stroke: #A80036; stroke-width: 1.0;"/><polygon fill="none" points="143.52,76.23,150.52,56.23,157.52,76.23,143.52,76.23" style="stroke: #A80036; stroke-width: 1.0;"/><!--MD5=[d99d532010897ca1b640f9f4e449cb81]
link UnlitMaterial to Colour--><path d="M132.66,190.03 C123.86,207.79 113.4,228.87 105.24,245.33 " fill="none" id="UnlitMaterial-&gt;Colour" style="stroke: #A80036; stroke-width: 1.0;"/><polygon fill="#A80036" points="103,249.85,110.5866,243.5696,105.2247,245.3722,103.4221,240.0102,103,249.85" style="stroke: #A80036; stroke-width: 1.0;"/><text fill="#000000" font-family="sans-serif" font-size="13" lengthAdjust="spacingAndGlyphs" textLength="82" x="13.4355" y="238.8236">ObjectColour</text><!--MD5=[f87f9619a4fcb8dcfa09d66b9388f27a]
link UnlitMaterial to Texture2D--><path d="M168.69,190.03 C177.64,207.79 188.27,228.87 196.57,245.33 " fill="none" id="UnlitMaterial-&gt;Texture2D" style="stroke: #A80036; stroke-width: 1.0;"/><polygon fill="#A80036" points="198.85,249.85,198.3776,240.0125,196.6025,245.3836,191.2314,243.6085,198.85,249.85" style="stroke: #A80036; stroke-width: 1.0;"/><text fill="#000000" font-family="sans-serif" font-size="13" lengthAdjust="spacingAndGlyphs" textLength="71" x="130.6694" y="238.9732">DiffuseMap</text><!--MD5=[43112da1b252eb686d1de2023fbf4219]
@startuml
class UnlitMaterial {
    + UnlitMaterial()
    + <<override>> Initialize() : void
}
Material <|- - UnlitMaterial
UnlitMaterial - -> "ObjectColour" Colour
UnlitMaterial - -> "DiffuseMap" Texture2D
@enduml

PlantUML version 1.2020.02(Sun Mar 01 10:22:07 GMT 2020)
(GPL source distribution)
Java Runtime: OpenJDK Runtime Environment
JVM: OpenJDK 64-Bit Server VM
Java Version: 11.0.9+11-Ubuntu-0ubuntu1
Operating System: Linux
Default Encoding: ANSI_X3.4-1968
Language: en
Country: US
--></g></svg>