<?xml version="1.0" encoding="UTF-8" standalone="no"?><svg xmlns="http://www.w3.org/2000/svg" xmlns:xlink="http://www.w3.org/1999/xlink" contentScriptType="application/ecmascript" contentStyleType="text/css" height="321px" preserveAspectRatio="none" style="width:629px;height:321px;" version="1.1" viewBox="0 0 629 321" width="629px" zoomAndPan="magnify"><defs><filter height="300%" id="fpkv4e83re3m6" width="300%" x="-1" y="-1"><feGaussianBlur result="blurOut" stdDeviation="2.0"/><feColorMatrix in="blurOut" result="blurOut2" type="matrix" values="0 0 0 0 0 0 0 0 0 0 0 0 0 0 0 0 0 0 .4 0"/><feOffset dx="4.0" dy="4.0" in="blurOut2" result="blurOut3"/><feBlend in="SourceGraphic" in2="blurOut3" mode="normal"/></filter></defs><g><!--MD5=[4d4eb26d042d74c9fb837d4bd92f5625]
class Colour--><rect fill="#FEFECE" filter="url(#fpkv4e83re3m6)" height="194.7891" id="Colour" style="stroke: #A80036; stroke-width: 1.5;" width="261" x="6" y="116"/><ellipse cx="109.25" cy="134.9688" fill="#ADD1B2" rx="11" ry="11" style="stroke: #A80036; stroke-width: 1.0;"/><path d="M112.2188,140.6094 Q111.6406,140.9063 111,141.0469 Q110.3594,141.2031 109.6563,141.2031 Q107.1563,141.2031 105.8281,139.5625 Q104.5156,137.9063 104.5156,134.7813 Q104.5156,131.6563 105.8281,130 Q107.1563,128.3438 109.6563,128.3438 Q110.3594,128.3438 111,128.5 Q111.6563,128.6563 112.2188,128.9531 L112.2188,131.6719 Q111.5938,131.0938 111,130.8281 Q110.4063,130.5469 109.7813,130.5469 Q108.4375,130.5469 107.75,131.625 Q107.0625,132.6875 107.0625,134.7813 Q107.0625,136.875 107.75,137.9531 Q108.4375,139.0156 109.7813,139.0156 Q110.4063,139.0156 111,138.75 Q111.5938,138.4688 112.2188,137.8906 L112.2188,140.6094 Z "/><text fill="#000000" font-family="sans-serif" font-size="12" font-style="italic" lengthAdjust="spacingAndGlyphs" textLength="50" x="127.75" y="132.1387">«struct»</text><text fill="#000000" font-family="sans-serif" font-size="12" lengthAdjust="spacingAndGlyphs" textLength="40" x="132.75" y="146.1074">Colour</text><line style="stroke: #A80036; stroke-width: 1.5;" x1="7" x2="266" y1="153.9375" y2="153.9375"/><ellipse cx="17" cy="164.9375" fill="none" rx="3" ry="3" style="stroke: #038048; stroke-width: 1.0;"/><text fill="#000000" font-family="sans-serif" font-size="11" lengthAdjust="spacingAndGlyphs" textLength="44" x="26" y="168.1479">R : float</text><ellipse cx="17" cy="177.7422" fill="none" rx="3" ry="3" style="stroke: #038048; stroke-width: 1.0;"/><text fill="#000000" font-family="sans-serif" font-size="11" lengthAdjust="spacingAndGlyphs" textLength="46" x="26" y="180.9526">G : float</text><ellipse cx="17" cy="190.5469" fill="none" rx="3" ry="3" style="stroke: #038048; stroke-width: 1.0;"/><text fill="#000000" font-family="sans-serif" font-size="11" lengthAdjust="spacingAndGlyphs" textLength="45" x="26" y="193.7573">B : float</text><ellipse cx="17" cy="203.3516" fill="none" rx="3" ry="3" style="stroke: #038048; stroke-width: 1.0;"/><text fill="#000000" font-family="sans-serif" font-size="11" lengthAdjust="spacingAndGlyphs" textLength="44" x="26" y="206.562">A : float</text><line style="stroke: #A80036; stroke-width: 1.5;" x1="7" x2="266" y1="213.1563" y2="213.1563"/><ellipse cx="17" cy="224.1563" fill="#84BE84" rx="3" ry="3" style="stroke: #038048; stroke-width: 1.0;"/><text fill="#000000" font-family="sans-serif" font-size="11" lengthAdjust="spacingAndGlyphs" textLength="45" x="26" y="227.3667">Colour()</text><ellipse cx="17" cy="236.9609" fill="#84BE84" rx="3" ry="3" style="stroke: #038048; stroke-width: 1.0;"/><text fill="#000000" font-family="sans-serif" font-size="11" lengthAdjust="spacingAndGlyphs" textLength="185" x="26" y="240.1714">Colour(_r:float, _g:float, _b:float)</text><ellipse cx="17" cy="249.7656" fill="#84BE84" rx="3" ry="3" style="stroke: #038048; stroke-width: 1.0;"/><text fill="#000000" font-family="sans-serif" font-size="11" lengthAdjust="spacingAndGlyphs" textLength="235" x="26" y="252.9761">Colour(_r:float, _g:float, _b:float, _a:float)</text><ellipse cx="17" cy="262.5703" fill="#84BE84" rx="3" ry="3" style="stroke: #038048; stroke-width: 1.0;"/><text fill="#000000" font-family="sans-serif" font-size="11" lengthAdjust="spacingAndGlyphs" textLength="177" x="26" y="265.7808">«override» GetHashCode() : int</text><ellipse cx="17" cy="275.375" fill="#84BE84" rx="3" ry="3" style="stroke: #038048; stroke-width: 1.0;"/><text fill="#000000" font-family="sans-serif" font-size="11" lengthAdjust="spacingAndGlyphs" textLength="221" x="26" y="278.5854">«override» Equals(_other:object) : bool</text><ellipse cx="17" cy="288.1797" fill="#84BE84" rx="3" ry="3" style="stroke: #038048; stroke-width: 1.0;"/><text fill="#000000" font-family="sans-serif" font-size="11" lengthAdjust="spacingAndGlyphs" textLength="159" x="26" y="291.3901">Equals(_other:Colour) : bool</text><ellipse cx="17" cy="300.9844" fill="#84BE84" rx="3" ry="3" style="stroke: #038048; stroke-width: 1.0;"/><text fill="#000000" font-family="sans-serif" font-size="11" lengthAdjust="spacingAndGlyphs" textLength="166" x="26" y="304.1948">«override» ToString() : string</text><!--MD5=[360575ecdc123693e9e157d6e9effc89]
class IEquatable`1--><rect fill="#FEFECE" filter="url(#fpkv4e83re3m6)" height="48" id="IEquatable`1" style="stroke: #A80036; stroke-width: 1.5;" width="124" x="74.5" y="8"/><ellipse cx="89.5" cy="24" fill="#ADD1B2" rx="11" ry="11" style="stroke: #A80036; stroke-width: 1.0;"/><path d="M92.4688,29.6406 Q91.8906,29.9375 91.25,30.0781 Q90.6094,30.2344 89.9063,30.2344 Q87.4063,30.2344 86.0781,28.5938 Q84.7656,26.9375 84.7656,23.8125 Q84.7656,20.6875 86.0781,19.0313 Q87.4063,17.375 89.9063,17.375 Q90.6094,17.375 91.25,17.5313 Q91.9063,17.6875 92.4688,17.9844 L92.4688,20.7031 Q91.8438,20.125 91.25,19.8594 Q90.6563,19.5781 90.0313,19.5781 Q88.6875,19.5781 88,20.6563 Q87.3125,21.7188 87.3125,23.8125 Q87.3125,25.9063 88,26.9844 Q88.6875,28.0469 90.0313,28.0469 Q90.6563,28.0469 91.25,27.7813 Q91.8438,27.5 92.4688,26.9219 L92.4688,29.6406 Z "/><text fill="#000000" font-family="sans-serif" font-size="12" lengthAdjust="spacingAndGlyphs" textLength="81" x="103.5" y="28.1543">IEquatable`1</text><rect fill="#FFFFFF" height="15.9688" style="stroke: #000000; stroke-width: 1.0; stroke-dasharray: 2.0,2.0;" width="9" x="192.5" y="5"/><text fill="#000000" font-family="sans-serif" font-size="12" font-style="italic" lengthAdjust="spacingAndGlyphs" textLength="7" x="193.5" y="17.1387">T</text><line style="stroke: #A80036; stroke-width: 1.5;" x1="75.5" x2="197.5" y1="40" y2="40"/><line style="stroke: #A80036; stroke-width: 1.5;" x1="75.5" x2="197.5" y1="48" y2="48"/><!--MD5=[144c51d0e9a1216b4a333fb0af5145e4]
reverse link IEquatable`1 to Colour--><path d="M136.5,76.44 C136.5,88.49 136.5,102.08 136.5,115.89 " fill="none" id="IEquatable`1&lt;-Colour" style="stroke: #A80036; stroke-width: 1.0;"/><polygon fill="none" points="129.5,76.1,136.5,56.1,143.5,76.1,129.5,76.1" style="stroke: #A80036; stroke-width: 1.0;"/><text fill="#000000" font-family="sans-serif" font-size="13" lengthAdjust="spacingAndGlyphs" textLength="63" x="65.8219" y="75.8856">&lt;Colour&gt;</text><!--MD5=[37379afd986e307b5552d98bcbbcf9be]
link Colour to Colour--><path d="M267.27,210.4 C287.9,210.86 302,211.89 302,213.5 C302,214.97 290.22,215.96 272.44,216.47 " fill="none" id="Colour-&gt;Colour" style="stroke: #A80036; stroke-width: 1.0;"/><polygon fill="#A80036" points="267.27,216.6,276.3591,220.3933,272.2687,216.4857,276.1762,212.3954,267.27,216.6" style="stroke: #A80036; stroke-width: 1.0;"/><text fill="#000000" font-family="sans-serif" font-size="13" lengthAdjust="spacingAndGlyphs" textLength="21" x="274.9957" y="213.4357">red</text><!--MD5=[37379afd986e307b5552d98bcbbcf9be]
link Colour to Colour--><path d="M267.15,206.76 C306.39,206.95 337,209.19 337,213.5 C337,217.62 308.97,219.86 272.16,220.2 " fill="none" id="Colour-&gt;Colour-1" style="stroke: #A80036; stroke-width: 1.0;"/><polygon fill="#A80036" points="267.15,220.24,276.1727,224.1885,272.1499,220.2114,276.127,216.1886,267.15,220.24" style="stroke: #A80036; stroke-width: 1.0;"/><text fill="#000000" font-family="sans-serif" font-size="13" lengthAdjust="spacingAndGlyphs" textLength="37" x="274.8405" y="233.05">green</text><!--MD5=[37379afd986e307b5552d98bcbbcf9be]
link Colour to Colour--><path d="M267.28,203.5 C323.69,202.68 372,206.01 372,213.5 C372,220.75 326.67,224.11 272.54,223.57 " fill="none" id="Colour-&gt;Colour-2" style="stroke: #A80036; stroke-width: 1.0;"/><polygon fill="#A80036" points="267.28,223.5,276.2219,227.6282,272.2795,223.5714,276.3362,219.629,267.28,223.5" style="stroke: #A80036; stroke-width: 1.0;"/><text fill="#000000" font-family="sans-serif" font-size="13" lengthAdjust="spacingAndGlyphs" textLength="27" x="275.1703" y="236.5333">blue</text><!--MD5=[37379afd986e307b5552d98bcbbcf9be]
link Colour to Colour--><path d="M267.32,200.65 C340.04,198.25 407,202.53 407,213.5 C407,224.21 343.14,228.55 272.42,226.51 " fill="none" id="Colour-&gt;Colour-3" style="stroke: #A80036; stroke-width: 1.0;"/><polygon fill="#A80036" points="267.32,226.35,276.1899,230.6307,272.3175,226.5071,276.4412,222.6347,267.32,226.35" style="stroke: #A80036; stroke-width: 1.0;"/><text fill="#000000" font-family="sans-serif" font-size="13" lengthAdjust="spacingAndGlyphs" textLength="33" x="275.0465" y="225.3841">white</text><!--MD5=[37379afd986e307b5552d98bcbbcf9be]
link Colour to Colour--><path d="M267.19,198.17 C355.59,193.73 442,198.84 442,213.5 C442,227.87 358.93,233.06 272.37,229.08 " fill="none" id="Colour-&gt;Colour-4" style="stroke: #A80036; stroke-width: 1.0;"/><polygon fill="#A80036" points="267.19,228.83,275.9853,233.2619,272.1841,229.0726,276.3735,225.2713,267.19,228.83" style="stroke: #A80036; stroke-width: 1.0;"/><text fill="#000000" font-family="sans-serif" font-size="13" lengthAdjust="spacingAndGlyphs" textLength="33" x="274.8702" y="249.0913">black</text><!--MD5=[37379afd986e307b5552d98bcbbcf9be]
link Colour to Colour--><path d="M267.1,196.01 C370.62,189.19 477,195.02 477,213.5 C477,231.68 374.12,237.62 272.25,231.32 " fill="none" id="Colour-&gt;Colour-5" style="stroke: #A80036; stroke-width: 1.0;"/><polygon fill="#A80036" points="267.1,230.99,275.8183,235.5715,272.0892,231.3179,276.3429,227.5888,267.1,230.99" style="stroke: #A80036; stroke-width: 1.0;"/><text fill="#000000" font-family="sans-serif" font-size="13" lengthAdjust="spacingAndGlyphs" textLength="38" x="274.8138" y="244.3543">yellow</text><!--MD5=[37379afd986e307b5552d98bcbbcf9be]
link Colour to Colour--><path d="M267.35,194.08 C385.47,184.63 512,191.11 512,213.5 C512,235.57 389.15,242.17 272.55,233.33 " fill="none" id="Colour-&gt;Colour-6" style="stroke: #A80036; stroke-width: 1.0;"/><polygon fill="#A80036" points="267.35,232.92,276.0147,237.6023,272.3351,233.3057,276.6317,229.6261,267.35,232.92" style="stroke: #A80036; stroke-width: 1.0;"/><text fill="#000000" font-family="sans-serif" font-size="13" lengthAdjust="spacingAndGlyphs" textLength="30" x="274.8704" y="246.3838">cyan</text><!--MD5=[37379afd986e307b5552d98bcbbcf9be]
link Colour to Colour--><path d="M267.07,192.41 C399.61,180.05 547,187.08 547,213.5 C547,239.58 403.32,246.77 272.13,235.05 " fill="none" id="Colour-&gt;Colour-7" style="stroke: #A80036; stroke-width: 1.0;"/><polygon fill="#A80036" points="267.07,234.59,275.6672,239.3951,272.0491,235.0465,276.3976,231.4285,267.07,234.59" style="stroke: #A80036; stroke-width: 1.0;"/><text fill="#000000" font-family="sans-serif" font-size="13" lengthAdjust="spacingAndGlyphs" textLength="58" x="274.7992" y="248.05">magenta</text><!--MD5=[37379afd986e307b5552d98bcbbcf9be]
link Colour to Colour--><path d="M267.05,190.9 C413.63,175.47 582,183.01 582,213.5 C582,243.64 417.55,251.35 272.21,236.64 " fill="none" id="Colour-&gt;Colour-8" style="stroke: #A80036; stroke-width: 1.0;"/><polygon fill="#A80036" points="267.05,236.1,275.5921,241.0024,272.0236,236.613,276.4129,233.0446,267.05,236.1" style="stroke: #A80036; stroke-width: 1.0;"/><text fill="#000000" font-family="sans-serif" font-size="13" lengthAdjust="spacingAndGlyphs" textLength="28" x="274.7434" y="237.8439">grey</text><!--MD5=[37379afd986e307b5552d98bcbbcf9be]
link Colour to Colour--><path d="M267.19,189.52 C427.55,170.9 617,178.89 617,213.5 C617,247.74 431.59,255.92 272.36,238.07 " fill="none" id="Colour-&gt;Colour-9" style="stroke: #A80036; stroke-width: 1.0;"/><polygon fill="#A80036" points="267.19,237.48,275.6869,242.4602,272.1587,238.0384,276.5804,234.5102,267.19,237.48" style="stroke: #A80036; stroke-width: 1.0;"/><text fill="#000000" font-family="sans-serif" font-size="13" lengthAdjust="spacingAndGlyphs" textLength="38" x="275.2621" y="262.6033">brown</text><!--MD5=[8a48fe44c6ee792d37ec553d35cb97f0]
@startuml
class Colour <<struct>> {
    + R : float
    + G : float
    + B : float
    + A : float
    + Colour()
    + Colour(_r:float, _g:float, _b:float)
    + Colour(_r:float, _g:float, _b:float, _a:float)
    + <<override>> GetHashCode() : int
    + <<override>> Equals(_other:object) : bool
    + Equals(_other:Colour) : bool
    + <<override>> ToString() : string
}
class "IEquatable`1"<T> {
}
"IEquatable`1" "<Colour>" <|- - Colour
Colour - -> "red" Colour
Colour - -> "green" Colour
Colour - -> "blue" Colour
Colour - -> "white" Colour
Colour - -> "black" Colour
Colour - -> "yellow" Colour
Colour - -> "cyan" Colour
Colour - -> "magenta" Colour
Colour - -> "grey" Colour
Colour - -> "brown" Colour
@enduml

PlantUML version 1.2020.02(Sun Mar 01 10:22:07 GMT 2020)
(GPL source distribution)
Java Runtime: OpenJDK Runtime Environment
JVM: OpenJDK 64-Bit Server VM
Java Version: 11.0.9+11-Ubuntu-0ubuntu1
Operating System: Linux
Default Encoding: ANSI_X3.4-1968
Language: en
Country: US
--></g></svg>