<?xml version="1.0" encoding="UTF-8" standalone="no"?><svg xmlns="http://www.w3.org/2000/svg" xmlns:xlink="http://www.w3.org/1999/xlink" contentScriptType="application/ecmascript" contentStyleType="text/css" height="226px" preserveAspectRatio="none" style="width:279px;height:226px;" version="1.1" viewBox="0 0 279 226" width="279px" zoomAndPan="magnify"><defs><filter height="300%" id="fkawqxadccn7n" width="300%" x="-1" y="-1"><feGaussianBlur result="blurOut" stdDeviation="2.0"/><feColorMatrix in="blurOut" result="blurOut2" type="matrix" values="0 0 0 0 0 0 0 0 0 0 0 0 0 0 0 0 0 0 .4 0"/><feOffset dx="4.0" dy="4.0" in="blurOut2" result="blurOut3"/><feBlend in="SourceGraphic" in2="blurOut3" mode="normal"/></filter></defs><g><!--MD5=[4e13963c9dc916a21a8436ef39422b32]
class Component--><rect fill="#FEFECE" filter="url(#fkawqxadccn7n)" height="99.2188" id="Component" style="stroke: #A80036; stroke-width: 1.5;" width="262" x="6" y="8"/><ellipse cx="96.75" cy="24" fill="#A9DCDF" rx="11" ry="11" style="stroke: #A80036; stroke-width: 1.0;"/><path d="M96.8594,19.3438 L95.7031,24.4219 L98.0313,24.4219 L96.8594,19.3438 Z M95.375,17.1094 L98.3594,17.1094 L101.7188,29.5 L99.2656,29.5 L98.5,26.4375 L95.2188,26.4375 L94.4688,29.5 L92.0313,29.5 L95.375,17.1094 Z "/><text fill="#000000" font-family="sans-serif" font-size="12" font-style="italic" lengthAdjust="spacingAndGlyphs" textLength="72" x="117.25" y="28.1543">Component</text><line style="stroke: #A80036; stroke-width: 1.5;" x1="7" x2="267" y1="40" y2="40"/><line style="stroke: #A80036; stroke-width: 1.5;" x1="7" x2="267" y1="48" y2="48"/><ellipse cx="17" cy="59" fill="#84BE84" rx="3" ry="3" style="stroke: #038048; stroke-width: 1.0;"/><text fill="#000000" font-family="sans-serif" font-size="11" lengthAdjust="spacingAndGlyphs" textLength="236" x="26" y="62.2104">Initialize(_gameObject:GameObject) : void</text><ellipse cx="17" cy="71.8047" fill="#84BE84" rx="3" ry="3" style="stroke: #038048; stroke-width: 1.0;"/><text fill="#000000" font-family="sans-serif" font-size="11" lengthAdjust="spacingAndGlyphs" textLength="124" x="26" y="75.0151">«virtual» Start() : void</text><ellipse cx="17" cy="84.6094" fill="#84BE84" rx="3" ry="3" style="stroke: #038048; stroke-width: 1.0;"/><text fill="#000000" font-family="sans-serif" font-size="11" lengthAdjust="spacingAndGlyphs" textLength="182" x="26" y="87.8198">«virtual» Update(_dt:float) : void</text><ellipse cx="17" cy="97.4141" fill="#84BE84" rx="3" ry="3" style="stroke: #038048; stroke-width: 1.0;"/><text fill="#000000" font-family="sans-serif" font-size="11" lengthAdjust="spacingAndGlyphs" textLength="116" x="26" y="100.6245">«virtual» Exit() : void</text><!--MD5=[064f7a74fee85463ec1a30143664ee17]
class GameObject--><rect fill="#FEFECE" filter="url(#fkawqxadccn7n)" height="48" id="GameObject" style="stroke: #A80036; stroke-width: 1.5;" width="108" x="83" y="167"/><ellipse cx="98" cy="183" fill="#ADD1B2" rx="11" ry="11" style="stroke: #A80036; stroke-width: 1.0;"/><path d="M100.9688,188.6406 Q100.3906,188.9375 99.75,189.0781 Q99.1094,189.2344 98.4063,189.2344 Q95.9063,189.2344 94.5781,187.5938 Q93.2656,185.9375 93.2656,182.8125 Q93.2656,179.6875 94.5781,178.0313 Q95.9063,176.375 98.4063,176.375 Q99.1094,176.375 99.75,176.5313 Q100.4063,176.6875 100.9688,176.9844 L100.9688,179.7031 Q100.3438,179.125 99.75,178.8594 Q99.1563,178.5781 98.5313,178.5781 Q97.1875,178.5781 96.5,179.6563 Q95.8125,180.7188 95.8125,182.8125 Q95.8125,184.9063 96.5,185.9844 Q97.1875,187.0469 98.5313,187.0469 Q99.1563,187.0469 99.75,186.7813 Q100.3438,186.5 100.9688,185.9219 L100.9688,188.6406 Z "/><text fill="#000000" font-family="sans-serif" font-size="12" lengthAdjust="spacingAndGlyphs" textLength="76" x="112" y="187.1543">GameObject</text><line style="stroke: #A80036; stroke-width: 1.5;" x1="84" x2="190" y1="199" y2="199"/><line style="stroke: #A80036; stroke-width: 1.5;" x1="84" x2="190" y1="207" y2="207"/><!--MD5=[f4f26392cb5c253b644626bb7d6f6293]
link Component to GameObject--><path d="M137,107.09 C137,125.5 137,145.83 137,161.75 " fill="none" id="Component-&gt;GameObject" style="stroke: #A80036; stroke-width: 1.0;"/><polygon fill="#A80036" points="137,166.98,141,157.98,137,161.98,133,157.98,137,166.98" style="stroke: #A80036; stroke-width: 1.0;"/><text fill="#000000" font-family="sans-serif" font-size="13" lengthAdjust="spacingAndGlyphs" textLength="78" x="49.0063" y="155.9869">gameObject</text><!--MD5=[ff21bc5f7d7b9705f27261a7f788af3d]
@startuml
abstract class Component {
    + Initialize(_gameObject:GameObject) : void
    + <<virtual>> Start() : void
    + <<virtual>> Update(_dt:float) : void
    + <<virtual>> Exit() : void
}
Component - -> "gameObject" GameObject
@enduml

PlantUML version 1.2020.02(Sun Mar 01 10:22:07 GMT 2020)
(GPL source distribution)
Java Runtime: OpenJDK Runtime Environment
JVM: OpenJDK 64-Bit Server VM
Java Version: 11.0.9+11-Ubuntu-0ubuntu1
Operating System: Linux
Default Encoding: ANSI_X3.4-1968
Language: en
Country: US
--></g></svg>