<?xml version="1.0" encoding="UTF-8" standalone="no"?><svg xmlns="http://www.w3.org/2000/svg" xmlns:xlink="http://www.w3.org/1999/xlink" contentScriptType="application/ecmascript" contentStyleType="text/css" height="118px" preserveAspectRatio="none" style="width:271px;height:118px;" version="1.1" viewBox="0 0 271 118" width="271px" zoomAndPan="magnify"><defs><filter height="300%" id="f18veqyvohybfv" width="300%" x="-1" y="-1"><feGaussianBlur result="blurOut" stdDeviation="2.0"/><feColorMatrix in="blurOut" result="blurOut2" type="matrix" values="0 0 0 0 0 0 0 0 0 0 0 0 0 0 0 0 0 0 .4 0"/><feOffset dx="4.0" dy="4.0" in="blurOut2" result="blurOut3"/><feBlend in="SourceGraphic" in2="blurOut3" mode="normal"/></filter></defs><g><!--MD5=[9fe2f50fc0fb90afd955d2b2b6bed996]
class RenderOrder--><rect fill="#FEFECE" filter="url(#f18veqyvohybfv)" height="86.4141" id="RenderOrder" style="stroke: #A80036; stroke-width: 1.5;" width="112" x="6" y="14.5"/><ellipse cx="21" cy="30.5" fill="#EB937F" rx="11" ry="11" style="stroke: #A80036; stroke-width: 1.0;"/><path d="M25.1094,36.5 L17.3906,36.5 L17.3906,24.1094 L25.1094,24.1094 L25.1094,26.2656 L19.8438,26.2656 L19.8438,28.9375 L24.6094,28.9375 L24.6094,31.0938 L19.8438,31.0938 L19.8438,34.3438 L25.1094,34.3438 L25.1094,36.5 Z "/><text fill="#000000" font-family="sans-serif" font-size="12" lengthAdjust="spacingAndGlyphs" textLength="80" x="35" y="34.6543">RenderOrder</text><line style="stroke: #A80036; stroke-width: 1.5;" x1="7" x2="117" y1="46.5" y2="46.5"/><text fill="#000000" font-family="sans-serif" font-size="11" lengthAdjust="spacingAndGlyphs" textLength="52" x="12" y="60.7104">Early= 0,</text><text fill="#000000" font-family="sans-serif" font-size="11" lengthAdjust="spacingAndGlyphs" textLength="65" x="12" y="73.5151">Normal= 1,</text><text fill="#000000" font-family="sans-serif" font-size="11" lengthAdjust="spacingAndGlyphs" textLength="48" x="12" y="86.3198">Late= 2,</text><line style="stroke: #A80036; stroke-width: 1.5;" x1="7" x2="117" y1="92.9141" y2="92.9141"/><!--MD5=[cb2a130b24abc416b480ee9ce956d39d]
class RenderFace--><rect fill="#FEFECE" filter="url(#f18veqyvohybfv)" height="99.2188" id="RenderFace" style="stroke: #A80036; stroke-width: 1.5;" width="107" x="153.5" y="8"/><ellipse cx="168.5" cy="24" fill="#EB937F" rx="11" ry="11" style="stroke: #A80036; stroke-width: 1.0;"/><path d="M172.6094,30 L164.8906,30 L164.8906,17.6094 L172.6094,17.6094 L172.6094,19.7656 L167.3438,19.7656 L167.3438,22.4375 L172.1094,22.4375 L172.1094,24.5938 L167.3438,24.5938 L167.3438,27.8438 L172.6094,27.8438 L172.6094,30 Z "/><text fill="#000000" font-family="sans-serif" font-size="12" lengthAdjust="spacingAndGlyphs" textLength="75" x="182.5" y="28.1543">RenderFace</text><line style="stroke: #A80036; stroke-width: 1.5;" x1="154.5" x2="259.5" y1="40" y2="40"/><text fill="#000000" font-family="sans-serif" font-size="11" lengthAdjust="spacingAndGlyphs" textLength="37" x="159.5" y="54.2104">All= 0,</text><text fill="#000000" font-family="sans-serif" font-size="11" lengthAdjust="spacingAndGlyphs" textLength="53" x="159.5" y="67.0151">Front= 1,</text><text fill="#000000" font-family="sans-serif" font-size="11" lengthAdjust="spacingAndGlyphs" textLength="51" x="159.5" y="79.8198">Back= 2,</text><text fill="#000000" font-family="sans-serif" font-size="11" lengthAdjust="spacingAndGlyphs" textLength="53" x="159.5" y="92.6245">None= 3,</text><line style="stroke: #A80036; stroke-width: 1.5;" x1="154.5" x2="259.5" y1="99.2188" y2="99.2188"/><!--MD5=[afe899a30c3d1a364a67c12f86296ae3]
@startuml
enum RenderOrder {
    Early= 0,
    Normal= 1,
    Late= 2,
}
enum RenderFace {
    All= 0,
    Front= 1,
    Back= 2,
    None= 3,
}
@enduml

PlantUML version 1.2020.02(Sun Mar 01 10:22:07 GMT 2020)
(GPL source distribution)
Java Runtime: OpenJDK Runtime Environment
JVM: OpenJDK 64-Bit Server VM
Java Version: 11.0.9+11-Ubuntu-0ubuntu1
Operating System: Linux
Default Encoding: ANSI_X3.4-1968
Language: en
Country: US
--></g></svg>