<?xml version="1.0" encoding="UTF-8" standalone="no"?><svg xmlns="http://www.w3.org/2000/svg" xmlns:xlink="http://www.w3.org/1999/xlink" contentScriptType="application/ecmascript" contentStyleType="text/css" height="84px" preserveAspectRatio="none" style="width:559px;height:84px;" version="1.1" viewBox="0 0 559 84" width="559px" zoomAndPan="magnify"><defs><filter height="300%" id="f1gwu208k6a08e" width="300%" x="-1" y="-1"><feGaussianBlur result="blurOut" stdDeviation="2.0"/><feColorMatrix in="blurOut" result="blurOut2" type="matrix" values="0 0 0 0 0 0 0 0 0 0 0 0 0 0 0 0 0 0 .4 0"/><feOffset dx="4.0" dy="4.0" in="blurOut2" result="blurOut3"/><feBlend in="SourceGraphic" in2="blurOut3" mode="normal"/></filter></defs><g><!--MD5=[4c0795721f0f61bf33819daf44457931]
class ExtensionMethods--><rect fill="#FEFECE" filter="url(#f1gwu208k6a08e)" height="66.7422" id="ExtensionMethods" style="stroke: #A80036; stroke-width: 1.5;" width="541" x="7" y="7"/><ellipse cx="215.75" cy="25.9688" fill="#ADD1B2" rx="11" ry="11" style="stroke: #A80036; stroke-width: 1.0;"/><path d="M218.7188,31.6094 Q218.1406,31.9063 217.5,32.0469 Q216.8594,32.2031 216.1563,32.2031 Q213.6563,32.2031 212.3281,30.5625 Q211.0156,28.9063 211.0156,25.7813 Q211.0156,22.6563 212.3281,21 Q213.6563,19.3438 216.1563,19.3438 Q216.8594,19.3438 217.5,19.5 Q218.1563,19.6563 218.7188,19.9531 L218.7188,22.6719 Q218.0938,22.0938 217.5,21.8281 Q216.9063,21.5469 216.2813,21.5469 Q214.9375,21.5469 214.25,22.625 Q213.5625,23.6875 213.5625,25.7813 Q213.5625,27.875 214.25,28.9531 Q214.9375,30.0156 216.2813,30.0156 Q216.9063,30.0156 217.5,29.75 Q218.0938,29.4688 218.7188,28.8906 L218.7188,31.6094 Z "/><text fill="#000000" font-family="sans-serif" font-size="12" font-style="italic" lengthAdjust="spacingAndGlyphs" textLength="48" x="269.75" y="23.1387">«static»</text><text fill="#000000" font-family="sans-serif" font-size="12" lengthAdjust="spacingAndGlyphs" textLength="115" x="236.25" y="37.1074">ExtensionMethods</text><line style="stroke: #A80036; stroke-width: 1.5;" x1="8" x2="547" y1="44.9375" y2="44.9375"/><line style="stroke: #A80036; stroke-width: 1.5;" x1="8" x2="547" y1="52.9375" y2="52.9375"/><ellipse cx="18" cy="63.9375" fill="#84BE84" rx="3" ry="3" style="stroke: #038048; stroke-width: 1.0;"/><text fill="#000000" font-family="sans-serif" font-size="11" lengthAdjust="spacingAndGlyphs" text-decoration="underline" textLength="515" x="27" y="67.1479">Map(_value:float, _inputMin:float, _inputMax:float, _outputMin:float, _outputMax:float) : float</text><!--MD5=[40a7abdf560c5f2fa6ee131ab4f2dbe9]
@startuml
class ExtensionMethods <<static>> {
    + {static} Map(_value:float, _inputMin:float, _inputMax:float, _outputMin:float, _outputMax:float) : float
}
@enduml

PlantUML version 1.2020.02(Sun Mar 01 10:22:07 GMT 2020)
(GPL source distribution)
Java Runtime: OpenJDK Runtime Environment
JVM: OpenJDK 64-Bit Server VM
Java Version: 11.0.9+11-Ubuntu-0ubuntu1
Operating System: Linux
Default Encoding: ANSI_X3.4-1968
Language: en
Country: US
--></g></svg>