<?xml version="1.0" encoding="UTF-8" standalone="no"?><svg xmlns="http://www.w3.org/2000/svg" xmlns:xlink="http://www.w3.org/1999/xlink" contentScriptType="application/ecmascript" contentStyleType="text/css" height="84px" preserveAspectRatio="none" style="width:283px;height:84px;" version="1.1" viewBox="0 0 283 84" width="283px" zoomAndPan="magnify"><defs><filter height="300%" id="f18nbo4u1mxtjn" width="300%" x="-1" y="-1"><feGaussianBlur result="blurOut" stdDeviation="2.0"/><feColorMatrix in="blurOut" result="blurOut2" type="matrix" values="0 0 0 0 0 0 0 0 0 0 0 0 0 0 0 0 0 0 .4 0"/><feOffset dx="4.0" dy="4.0" in="blurOut2" result="blurOut3"/><feBlend in="SourceGraphic" in2="blurOut3" mode="normal"/></filter></defs><g><!--MD5=[a568183ee4ee9bf267962d4b60161a9a]
class FileLoader--><rect fill="#FEFECE" filter="url(#f18nbo4u1mxtjn)" height="66.7422" id="FileLoader" style="stroke: #A80036; stroke-width: 1.5;" width="265" x="7" y="7"/><ellipse cx="103.25" cy="25.9688" fill="#ADD1B2" rx="11" ry="11" style="stroke: #A80036; stroke-width: 1.0;"/><path d="M106.2188,31.6094 Q105.6406,31.9063 105,32.0469 Q104.3594,32.2031 103.6563,32.2031 Q101.1563,32.2031 99.8281,30.5625 Q98.5156,28.9063 98.5156,25.7813 Q98.5156,22.6563 99.8281,21 Q101.1563,19.3438 103.6563,19.3438 Q104.3594,19.3438 105,19.5 Q105.6563,19.6563 106.2188,19.9531 L106.2188,22.6719 Q105.5938,22.0938 105,21.8281 Q104.4063,21.5469 103.7813,21.5469 Q102.4375,21.5469 101.75,22.625 Q101.0625,23.6875 101.0625,25.7813 Q101.0625,27.875 101.75,28.9531 Q102.4375,30.0156 103.7813,30.0156 Q104.4063,30.0156 105,29.75 Q105.5938,29.4688 106.2188,28.8906 L106.2188,31.6094 Z "/><text fill="#000000" font-family="sans-serif" font-size="12" font-style="italic" lengthAdjust="spacingAndGlyphs" textLength="48" x="131.75" y="23.1387">«static»</text><text fill="#000000" font-family="sans-serif" font-size="12" lengthAdjust="spacingAndGlyphs" textLength="64" x="123.75" y="37.1074">FileLoader</text><line style="stroke: #A80036; stroke-width: 1.5;" x1="8" x2="271" y1="44.9375" y2="44.9375"/><line style="stroke: #A80036; stroke-width: 1.5;" x1="8" x2="271" y1="52.9375" y2="52.9375"/><ellipse cx="18" cy="63.9375" fill="#84BE84" rx="3" ry="3" style="stroke: #038048; stroke-width: 1.0;"/><text fill="#000000" font-family="sans-serif" font-size="11" lengthAdjust="spacingAndGlyphs" text-decoration="underline" textLength="239" x="27" y="67.1479">LoadModel(_path:string) : (Mesh, Material)</text><!--MD5=[01101b2fabb568342add03765ee1a710]
@startuml
class FileLoader <<static>> {
    + {static} LoadModel(_path:string) : (Mesh, Material)
}
@enduml

PlantUML version 1.2020.02(Sun Mar 01 10:22:07 GMT 2020)
(GPL source distribution)
Java Runtime: OpenJDK Runtime Environment
JVM: OpenJDK 64-Bit Server VM
Java Version: 11.0.9+11-Ubuntu-0ubuntu1
Operating System: Linux
Default Encoding: ANSI_X3.4-1968
Language: en
Country: US
--></g></svg>