<?xml version="1.0" encoding="UTF-8" standalone="no"?><svg xmlns="http://www.w3.org/2000/svg" xmlns:xlink="http://www.w3.org/1999/xlink" contentScriptType="application/ecmascript" contentStyleType="text/css" height="156px" preserveAspectRatio="none" style="width:482px;height:156px;" version="1.1" viewBox="0 0 482 156" width="482px" zoomAndPan="magnify"><defs><filter height="300%" id="ftfsywwuycdec" width="300%" x="-1" y="-1"><feGaussianBlur result="blurOut" stdDeviation="2.0"/><feColorMatrix in="blurOut" result="blurOut2" type="matrix" values="0 0 0 0 0 0 0 0 0 0 0 0 0 0 0 0 0 0 .4 0"/><feOffset dx="4.0" dy="4.0" in="blurOut2" result="blurOut3"/><feBlend in="SourceGraphic" in2="blurOut3" mode="normal"/></filter></defs><g><!--MD5=[064f7a74fee85463ec1a30143664ee17]
class GameObject--><rect fill="#FEFECE" filter="url(#ftfsywwuycdec)" height="137.6328" id="GameObject" style="stroke: #A80036; stroke-width: 1.5;" width="335" x="6" y="8"/><ellipse cx="131.25" cy="24" fill="#ADD1B2" rx="11" ry="11" style="stroke: #A80036; stroke-width: 1.0;"/><path d="M134.2188,29.6406 Q133.6406,29.9375 133,30.0781 Q132.3594,30.2344 131.6563,30.2344 Q129.1563,30.2344 127.8281,28.5938 Q126.5156,26.9375 126.5156,23.8125 Q126.5156,20.6875 127.8281,19.0313 Q129.1563,17.375 131.6563,17.375 Q132.3594,17.375 133,17.5313 Q133.6563,17.6875 134.2188,17.9844 L134.2188,20.7031 Q133.5938,20.125 133,19.8594 Q132.4063,19.5781 131.7813,19.5781 Q130.4375,19.5781 129.75,20.6563 Q129.0625,21.7188 129.0625,23.8125 Q129.0625,25.9063 129.75,26.9844 Q130.4375,28.0469 131.7813,28.0469 Q132.4063,28.0469 133,27.7813 Q133.5938,27.5 134.2188,26.9219 L134.2188,29.6406 Z "/><text fill="#000000" font-family="sans-serif" font-size="12" lengthAdjust="spacingAndGlyphs" textLength="76" x="151.75" y="28.1543">GameObject</text><line style="stroke: #A80036; stroke-width: 1.5;" x1="7" x2="340" y1="40" y2="40"/><line style="stroke: #A80036; stroke-width: 1.5;" x1="7" x2="340" y1="48" y2="48"/><ellipse cx="17" cy="59" fill="#84BE84" rx="3" ry="3" style="stroke: #038048; stroke-width: 1.0;"/><text fill="#000000" font-family="sans-serif" font-size="11" lengthAdjust="spacingAndGlyphs" textLength="78" x="26" y="62.2104">GameObject()</text><ellipse cx="17" cy="71.8047" fill="#84BE84" rx="3" ry="3" style="stroke: #038048; stroke-width: 1.0;"/><text fill="#000000" font-family="sans-serif" font-size="11" lengthAdjust="spacingAndGlyphs" textLength="231" x="26" y="75.0151">GameObject(_components:Component[])</text><ellipse cx="17" cy="84.6094" fill="#84BE84" rx="3" ry="3" style="stroke: #038048; stroke-width: 1.0;"/><text fill="#000000" font-family="sans-serif" font-size="11" lengthAdjust="spacingAndGlyphs" textLength="309" x="26" y="87.8198">AddComponent(_component:Component) : Component</text><ellipse cx="17" cy="97.4141" fill="#84BE84" rx="3" ry="3" style="stroke: #038048; stroke-width: 1.0;"/><text fill="#000000" font-family="sans-serif" font-size="11" lengthAdjust="spacingAndGlyphs" textLength="193" x="26" y="100.6245">RemoveComponentOfType() : void</text><ellipse cx="17" cy="110.2188" fill="#84BE84" rx="3" ry="3" style="stroke: #038048; stroke-width: 1.0;"/><text fill="#000000" font-family="sans-serif" font-size="11" lengthAdjust="spacingAndGlyphs" textLength="213" x="26" y="113.4292">RemoveAllComponentsOfType() : void</text><ellipse cx="17" cy="123.0234" fill="#84BE84" rx="3" ry="3" style="stroke: #038048; stroke-width: 1.0;"/><text fill="#000000" font-family="sans-serif" font-size="11" lengthAdjust="spacingAndGlyphs" textLength="112" x="26" y="126.2339">GetComponent() : T</text><ellipse cx="17" cy="135.8281" fill="#84BE84" rx="3" ry="3" style="stroke: #038048; stroke-width: 1.0;"/><text fill="#000000" font-family="sans-serif" font-size="11" lengthAdjust="spacingAndGlyphs" textLength="215" x="26" y="139.0386">GetComponents() : List&lt;Component&gt;</text><!--MD5=[004b1d6c4ca8aad4ba8b586a335ed4f3]
class Transform--><rect fill="#FEFECE" filter="url(#ftfsywwuycdec)" height="48" id="Transform" style="stroke: #A80036; stroke-width: 1.5;" width="95" x="376" y="53"/><ellipse cx="391" cy="69" fill="#ADD1B2" rx="11" ry="11" style="stroke: #A80036; stroke-width: 1.0;"/><path d="M393.9688,74.6406 Q393.3906,74.9375 392.75,75.0781 Q392.1094,75.2344 391.4063,75.2344 Q388.9063,75.2344 387.5781,73.5938 Q386.2656,71.9375 386.2656,68.8125 Q386.2656,65.6875 387.5781,64.0313 Q388.9063,62.375 391.4063,62.375 Q392.1094,62.375 392.75,62.5313 Q393.4063,62.6875 393.9688,62.9844 L393.9688,65.7031 Q393.3438,65.125 392.75,64.8594 Q392.1563,64.5781 391.5313,64.5781 Q390.1875,64.5781 389.5,65.6563 Q388.8125,66.7188 388.8125,68.8125 Q388.8125,70.9063 389.5,71.9844 Q390.1875,73.0469 391.5313,73.0469 Q392.1563,73.0469 392.75,72.7813 Q393.3438,72.5 393.9688,71.9219 L393.9688,74.6406 Z "/><text fill="#000000" font-family="sans-serif" font-size="12" lengthAdjust="spacingAndGlyphs" textLength="63" x="405" y="73.1543">Transform</text><line style="stroke: #A80036; stroke-width: 1.5;" x1="377" x2="470" y1="85" y2="85"/><line style="stroke: #A80036; stroke-width: 1.5;" x1="377" x2="470" y1="93" y2="93"/><!--MD5=[bd8531ab92c62d8b9f03e97f1f866647]
link GameObject to Transform--><path d="M353.47,77 C353.47,77 359.88,77 362.53,77 " fill="none" id="GameObject-Transform" style="stroke: #A80036; stroke-width: 1.0;"/><polygon fill="#A80036" points="375.76,77,366.76,73,370.76,77,366.76,81,375.76,77" style="stroke: #A80036; stroke-width: 1.0;"/><line style="stroke: #A80036; stroke-width: 1.0;" x1="370.76" x2="362.76" y1="77" y2="77"/><polygon fill="#FFFFFF" points="341.47,77,347.47,81,353.47,77,347.47,73,341.47,77" style="stroke: #A80036; stroke-width: 1.0;"/><text fill="#000000" font-family="sans-serif" font-size="13" lengthAdjust="spacingAndGlyphs" textLength="63" x="305.059" y="63.8659">transform</text><!--MD5=[d7011b86f157a742606b3e6bb31ddf21]
@startuml
class GameObject {
    + GameObject()
    + GameObject(_components:Component[])
    + AddComponent(_component:Component) : Component
    + RemoveComponentOfType() : void
    + RemoveAllComponentsOfType() : void
    + GetComponent() : T
    + GetComponents() : List<Component>
}
GameObject o-> "transform" Transform
@enduml

PlantUML version 1.2020.02(Sun Mar 01 10:22:07 GMT 2020)
(GPL source distribution)
Java Runtime: OpenJDK Runtime Environment
JVM: OpenJDK 64-Bit Server VM
Java Version: 11.0.9+11-Ubuntu-0ubuntu1
Operating System: Linux
Default Encoding: ANSI_X3.4-1968
Language: en
Country: US
--></g></svg>