<?xml version="1.0" encoding="UTF-8" standalone="no"?><svg xmlns="http://www.w3.org/2000/svg" xmlns:xlink="http://www.w3.org/1999/xlink" contentScriptType="application/ecmascript" contentStyleType="text/css" height="188px" preserveAspectRatio="none" style="width:386px;height:188px;" version="1.1" viewBox="0 0 386 188" width="386px" zoomAndPan="magnify"><defs><filter height="300%" id="fj0e2tmki9bpa" width="300%" x="-1" y="-1"><feGaussianBlur result="blurOut" stdDeviation="2.0"/><feColorMatrix in="blurOut" result="blurOut2" type="matrix" values="0 0 0 0 0 0 0 0 0 0 0 0 0 0 0 0 0 0 .4 0"/><feOffset dx="4.0" dy="4.0" in="blurOut2" result="blurOut3"/><feBlend in="SourceGraphic" in2="blurOut3" mode="normal"/></filter></defs><g><!--MD5=[b6dcce5e5ef3c84b0b048d11301373dd]
class Game--><rect fill="#FEFECE" filter="url(#fj0e2tmki9bpa)" height="60.8047" id="Game" style="stroke: #A80036; stroke-width: 1.5;" width="147" x="161.82" y="8"/><ellipse cx="213.07" cy="24" fill="#ADD1B2" rx="11" ry="11" style="stroke: #A80036; stroke-width: 1.0;"/><path d="M216.0388,29.6406 Q215.4606,29.9375 214.82,30.0781 Q214.1794,30.2344 213.4763,30.2344 Q210.9763,30.2344 209.6481,28.5938 Q208.3356,26.9375 208.3356,23.8125 Q208.3356,20.6875 209.6481,19.0313 Q210.9763,17.375 213.4763,17.375 Q214.1794,17.375 214.82,17.5313 Q215.4763,17.6875 216.0388,17.9844 L216.0388,20.7031 Q215.4138,20.125 214.82,19.8594 Q214.2263,19.5781 213.6013,19.5781 Q212.2575,19.5781 211.57,20.6563 Q210.8825,21.7188 210.8825,23.8125 Q210.8825,25.9063 211.57,26.9844 Q212.2575,28.0469 213.6013,28.0469 Q214.2263,28.0469 214.82,27.7813 Q215.4138,27.5 216.0388,26.9219 L216.0388,29.6406 Z "/><text fill="#000000" font-family="sans-serif" font-size="12" lengthAdjust="spacingAndGlyphs" textLength="36" x="233.57" y="28.1543">Game</text><line style="stroke: #A80036; stroke-width: 1.5;" x1="162.82" x2="307.82" y1="40" y2="40"/><line style="stroke: #A80036; stroke-width: 1.5;" x1="162.82" x2="307.82" y1="48" y2="48"/><ellipse cx="172.82" cy="59" fill="#84BE84" rx="3" ry="3" style="stroke: #038048; stroke-width: 1.0;"/><text fill="#000000" font-family="sans-serif" font-size="11" lengthAdjust="spacingAndGlyphs" textLength="121" x="181.82" y="62.2104">«unsafe» Run() : void</text><!--MD5=[a11544de820a927b3dbade298cf8c341]
class Action`1--><rect fill="#FEFECE" filter="url(#fj0e2tmki9bpa)" height="48" id="Action`1" style="stroke: #A80036; stroke-width: 1.5;" width="96" x="68.32" y="129"/><ellipse cx="83.32" cy="145" fill="#ADD1B2" rx="11" ry="11" style="stroke: #A80036; stroke-width: 1.0;"/><path d="M86.2888,150.6406 Q85.7106,150.9375 85.07,151.0781 Q84.4294,151.2344 83.7263,151.2344 Q81.2263,151.2344 79.8981,149.5938 Q78.5856,147.9375 78.5856,144.8125 Q78.5856,141.6875 79.8981,140.0313 Q81.2263,138.375 83.7263,138.375 Q84.4294,138.375 85.07,138.5313 Q85.7263,138.6875 86.2888,138.9844 L86.2888,141.7031 Q85.6638,141.125 85.07,140.8594 Q84.4763,140.5781 83.8513,140.5781 Q82.5075,140.5781 81.82,141.6563 Q81.1325,142.7188 81.1325,144.8125 Q81.1325,146.9063 81.82,147.9844 Q82.5075,149.0469 83.8513,149.0469 Q84.4763,149.0469 85.07,148.7813 Q85.6638,148.5 86.2888,147.9219 L86.2888,150.6406 Z "/><text fill="#000000" font-family="sans-serif" font-size="12" lengthAdjust="spacingAndGlyphs" textLength="53" x="97.32" y="149.1543">Action`1</text><rect fill="#FFFFFF" height="15.9688" style="stroke: #000000; stroke-width: 1.0; stroke-dasharray: 2.0,2.0;" width="9" x="158.32" y="126"/><text fill="#000000" font-family="sans-serif" font-size="12" font-style="italic" lengthAdjust="spacingAndGlyphs" textLength="7" x="159.32" y="138.1387">T</text><line style="stroke: #A80036; stroke-width: 1.5;" x1="69.32" x2="163.32" y1="161" y2="161"/><line style="stroke: #A80036; stroke-width: 1.5;" x1="69.32" x2="163.32" y1="169" y2="169"/><!--MD5=[f8e7078f77c005d15b486c0c98deb1e6]
class Action--><rect fill="#FEFECE" filter="url(#fj0e2tmki9bpa)" height="48" id="Action" style="stroke: #A80036; stroke-width: 1.5;" width="71" x="199.82" y="129"/><ellipse cx="214.82" cy="145" fill="#ADD1B2" rx="11" ry="11" style="stroke: #A80036; stroke-width: 1.0;"/><path d="M217.7888,150.6406 Q217.2106,150.9375 216.57,151.0781 Q215.9294,151.2344 215.2263,151.2344 Q212.7263,151.2344 211.3981,149.5938 Q210.0856,147.9375 210.0856,144.8125 Q210.0856,141.6875 211.3981,140.0313 Q212.7263,138.375 215.2263,138.375 Q215.9294,138.375 216.57,138.5313 Q217.2263,138.6875 217.7888,138.9844 L217.7888,141.7031 Q217.1638,141.125 216.57,140.8594 Q215.9763,140.5781 215.3513,140.5781 Q214.0075,140.5781 213.32,141.6563 Q212.6325,142.7188 212.6325,144.8125 Q212.6325,146.9063 213.32,147.9844 Q214.0075,149.0469 215.3513,149.0469 Q215.9763,149.0469 216.57,148.7813 Q217.1638,148.5 217.7888,147.9219 L217.7888,150.6406 Z "/><text fill="#000000" font-family="sans-serif" font-size="12" lengthAdjust="spacingAndGlyphs" textLength="39" x="228.82" y="149.1543">Action</text><line style="stroke: #A80036; stroke-width: 1.5;" x1="200.82" x2="269.82" y1="161" y2="161"/><line style="stroke: #A80036; stroke-width: 1.5;" x1="200.82" x2="269.82" y1="169" y2="169"/><!--MD5=[8f1fa7de71afc6be9ee722cd391c2695]
link Game to Action--><path d="M177.1,69.06 C163.59,92.81 169.56,124.84 195.02,141.28 " fill="none" id="Game-&gt;Action" style="stroke: #A80036; stroke-width: 1.0;"/><polygon fill="#A80036" points="199.64,143.97,193.8782,135.9824,195.3201,141.4524,189.8501,142.8943,199.64,143.97" style="stroke: #A80036; stroke-width: 1.0;"/><text fill="#000000" font-family="sans-serif" font-size="13" lengthAdjust="spacingAndGlyphs" textLength="42" x="149.3322" y="126.3341">InitCall</text><!--MD5=[8f1fa7de71afc6be9ee722cd391c2695]
link Game to Action--><path d="M200.52,69.06 C194.78,85.93 194.92,106.98 200.94,123.65 " fill="none" id="Game-&gt;Action-1" style="stroke: #A80036; stroke-width: 1.0;"/><polygon fill="#A80036" points="203,128.67,203.3087,118.826,201.1135,124.0395,195.9,121.8444,203,128.67" style="stroke: #A80036; stroke-width: 1.0;"/><text fill="#000000" font-family="sans-serif" font-size="13" lengthAdjust="spacingAndGlyphs" textLength="98" x="207.0658" y="117.9945">LateUpdateCall</text><!--MD5=[8f1fa7de71afc6be9ee722cd391c2695]
link Game to Action--><path d="M223.94,69.06 C222.07,85.93 222.11,106.98 224.08,123.65 " fill="none" id="Game-&gt;Action-2" style="stroke: #A80036; stroke-width: 1.0;"/><polygon fill="#A80036" points="224.75,128.67,227.529,119.2213,224.0911,123.7136,219.5988,120.2757,224.75,128.67" style="stroke: #A80036; stroke-width: 1.0;"/><text fill="#000000" font-family="sans-serif" font-size="13" lengthAdjust="spacingAndGlyphs" textLength="99" x="140.0428" y="117.9328">EarlyRenderCall</text><!--MD5=[8f1fa7de71afc6be9ee722cd391c2695]
link Game to Action--><path d="M247.37,69.06 C249.35,85.93 249.3,106.98 247.22,123.65 " fill="none" id="Game-&gt;Action-3" style="stroke: #A80036; stroke-width: 1.0;"/><polygon fill="#A80036" points="246.51,128.67,251.7325,120.3198,247.2111,123.7194,243.8115,119.198,246.51,128.67" style="stroke: #A80036; stroke-width: 1.0;"/><text fill="#000000" font-family="sans-serif" font-size="13" lengthAdjust="spacingAndGlyphs" textLength="68" x="278.7079" y="128.7928">RenderCall</text><!--MD5=[8f1fa7de71afc6be9ee722cd391c2695]
link Game to Action--><path d="M270.79,69.06 C276.64,85.93 276.49,106.98 270.36,123.65 " fill="none" id="Game-&gt;Action-4" style="stroke: #A80036; stroke-width: 1.0;"/><polygon fill="#A80036" points="268.27,128.67,275.4313,121.9086,270.1981,124.0567,268.05,118.8236,268.27,128.67" style="stroke: #A80036; stroke-width: 1.0;"/><text fill="#000000" font-family="sans-serif" font-size="13" lengthAdjust="spacingAndGlyphs" textLength="96" x="278.6417" y="121.6672">LateRenderCall</text><!--MD5=[8f1fa7de71afc6be9ee722cd391c2695]
link Game to Action--><path d="M294.21,69.06 C308.01,93.03 301.72,125.43 275.35,141.73 " fill="none" id="Game-&gt;Action-5" style="stroke: #A80036; stroke-width: 1.0;"/><polygon fill="#A80036" points="270.95,144.21,280.7542,143.2733,275.3052,141.7539,276.8245,136.3049,270.95,144.21" style="stroke: #A80036; stroke-width: 1.0;"/><text fill="#000000" font-family="sans-serif" font-size="13" lengthAdjust="spacingAndGlyphs" textLength="46" x="278.8284" y="156.1125">ExitCall</text><!--MD5=[70eaa0fa3b88764739f2755aa8864423]
link Game to Action`1--><path d="M204.05,69.06 C185.74,86.37 162.79,108.07 144.95,124.93 " fill="none" id="Game-&gt;Action`1" style="stroke: #A80036; stroke-width: 1.0;"/><polygon fill="#A80036" points="141,128.67,150.2885,125.3952,144.6339,125.2356,144.7935,119.581,141,128.67" style="stroke: #A80036; stroke-width: 1.0;"/><text fill="#000000" font-family="sans-serif" font-size="13" lengthAdjust="spacingAndGlyphs" textLength="120" x="12.3908" y="117.9945">UpdateCall&lt;float&gt;</text><!--MD5=[23746cc72404843243c65f7c2aee2bc7]
@startuml
class Game {
    + <<unsafe>> Run() : void
}
class "Action`1"<T> {
}
Game - -> "InitCall" Action
Game - -> "UpdateCall<float>" "Action`1"
Game - -> "LateUpdateCall" Action
Game - -> "EarlyRenderCall" Action
Game - -> "RenderCall" Action
Game - -> "LateRenderCall" Action
Game - -> "ExitCall" Action
@enduml

PlantUML version 1.2020.02(Sun Mar 01 10:22:07 GMT 2020)
(GPL source distribution)
Java Runtime: OpenJDK Runtime Environment
JVM: OpenJDK 64-Bit Server VM
Java Version: 11.0.9+11-Ubuntu-0ubuntu1
Operating System: Linux
Default Encoding: ANSI_X3.4-1968
Language: en
Country: US
--></g></svg>