<?xml version="1.0" encoding="UTF-8" standalone="no"?><svg xmlns="http://www.w3.org/2000/svg" xmlns:xlink="http://www.w3.org/1999/xlink" contentScriptType="application/ecmascript" contentStyleType="text/css" height="201px" preserveAspectRatio="none" style="width:388px;height:201px;" version="1.1" viewBox="0 0 388 201" width="388px" zoomAndPan="magnify"><defs><filter height="300%" id="f11yev26gjlm3k" width="300%" x="-1" y="-1"><feGaussianBlur result="blurOut" stdDeviation="2.0"/><feColorMatrix in="blurOut" result="blurOut2" type="matrix" values="0 0 0 0 0 0 0 0 0 0 0 0 0 0 0 0 0 0 .4 0"/><feOffset dx="4.0" dy="4.0" in="blurOut2" result="blurOut3"/><feBlend in="SourceGraphic" in2="blurOut3" mode="normal"/></filter></defs><g><!--MD5=[b6dcce5e5ef3c84b0b048d11301373dd]
class Game--><rect fill="#FEFECE" filter="url(#f11yev26gjlm3k)" height="73.6094" id="Game" style="stroke: #A80036; stroke-width: 1.5;" width="169" x="152.35" y="8"/><ellipse cx="214.6" cy="24" fill="#ADD1B2" rx="11" ry="11" style="stroke: #A80036; stroke-width: 1.0;"/><path d="M217.5688,29.6406 Q216.9906,29.9375 216.35,30.0781 Q215.7094,30.2344 215.0063,30.2344 Q212.5063,30.2344 211.1781,28.5938 Q209.8656,26.9375 209.8656,23.8125 Q209.8656,20.6875 211.1781,19.0313 Q212.5063,17.375 215.0063,17.375 Q215.7094,17.375 216.35,17.5313 Q217.0063,17.6875 217.5688,17.9844 L217.5688,20.7031 Q216.9438,20.125 216.35,19.8594 Q215.7563,19.5781 215.1313,19.5781 Q213.7875,19.5781 213.1,20.6563 Q212.4125,21.7188 212.4125,23.8125 Q212.4125,25.9063 213.1,26.9844 Q213.7875,28.0469 215.1313,28.0469 Q215.7563,28.0469 216.35,27.7813 Q216.9438,27.5 217.5688,26.9219 L217.5688,29.6406 Z "/><text fill="#000000" font-family="sans-serif" font-size="12" lengthAdjust="spacingAndGlyphs" textLength="36" x="235.1" y="28.1543">Game</text><line style="stroke: #A80036; stroke-width: 1.5;" x1="153.35" x2="320.35" y1="40" y2="40"/><ellipse cx="163.35" cy="51" fill="none" rx="3" ry="3" style="stroke: #038048; stroke-width: 1.0;"/><text fill="#000000" font-family="sans-serif" font-size="11" lengthAdjust="spacingAndGlyphs" text-decoration="underline" textLength="143" x="172.35" y="54.2104">isInitialized : bool = false</text><line style="stroke: #A80036; stroke-width: 1.5;" x1="153.35" x2="320.35" y1="60.8047" y2="60.8047"/><ellipse cx="163.35" cy="71.8047" fill="#84BE84" rx="3" ry="3" style="stroke: #038048; stroke-width: 1.0;"/><text fill="#000000" font-family="sans-serif" font-size="11" lengthAdjust="spacingAndGlyphs" textLength="121" x="172.35" y="75.0151">«unsafe» Run() : void</text><!--MD5=[a11544de820a927b3dbade298cf8c341]
class Action`1--><rect fill="#FEFECE" filter="url(#f11yev26gjlm3k)" height="48" id="Action`1" style="stroke: #A80036; stroke-width: 1.5;" width="96" x="69.85" y="142"/><ellipse cx="84.85" cy="158" fill="#ADD1B2" rx="11" ry="11" style="stroke: #A80036; stroke-width: 1.0;"/><path d="M87.8188,163.6406 Q87.2406,163.9375 86.6,164.0781 Q85.9594,164.2344 85.2563,164.2344 Q82.7563,164.2344 81.4281,162.5938 Q80.1156,160.9375 80.1156,157.8125 Q80.1156,154.6875 81.4281,153.0313 Q82.7563,151.375 85.2563,151.375 Q85.9594,151.375 86.6,151.5313 Q87.2563,151.6875 87.8188,151.9844 L87.8188,154.7031 Q87.1938,154.125 86.6,153.8594 Q86.0063,153.5781 85.3813,153.5781 Q84.0375,153.5781 83.35,154.6563 Q82.6625,155.7188 82.6625,157.8125 Q82.6625,159.9063 83.35,160.9844 Q84.0375,162.0469 85.3813,162.0469 Q86.0063,162.0469 86.6,161.7813 Q87.1938,161.5 87.8188,160.9219 L87.8188,163.6406 Z "/><text fill="#000000" font-family="sans-serif" font-size="12" lengthAdjust="spacingAndGlyphs" textLength="53" x="98.85" y="162.1543">Action`1</text><rect fill="#FFFFFF" height="15.9688" style="stroke: #000000; stroke-width: 1.0; stroke-dasharray: 2.0,2.0;" width="9" x="159.85" y="139"/><text fill="#000000" font-family="sans-serif" font-size="12" font-style="italic" lengthAdjust="spacingAndGlyphs" textLength="7" x="160.85" y="151.1387">T</text><line style="stroke: #A80036; stroke-width: 1.5;" x1="70.85" x2="164.85" y1="174" y2="174"/><line style="stroke: #A80036; stroke-width: 1.5;" x1="70.85" x2="164.85" y1="182" y2="182"/><!--MD5=[f8e7078f77c005d15b486c0c98deb1e6]
class Action--><rect fill="#FEFECE" filter="url(#f11yev26gjlm3k)" height="48" id="Action" style="stroke: #A80036; stroke-width: 1.5;" width="71" x="201.35" y="142"/><ellipse cx="216.35" cy="158" fill="#ADD1B2" rx="11" ry="11" style="stroke: #A80036; stroke-width: 1.0;"/><path d="M219.3188,163.6406 Q218.7406,163.9375 218.1,164.0781 Q217.4594,164.2344 216.7563,164.2344 Q214.2563,164.2344 212.9281,162.5938 Q211.6156,160.9375 211.6156,157.8125 Q211.6156,154.6875 212.9281,153.0313 Q214.2563,151.375 216.7563,151.375 Q217.4594,151.375 218.1,151.5313 Q218.7563,151.6875 219.3188,151.9844 L219.3188,154.7031 Q218.6938,154.125 218.1,153.8594 Q217.5063,153.5781 216.8813,153.5781 Q215.5375,153.5781 214.85,154.6563 Q214.1625,155.7188 214.1625,157.8125 Q214.1625,159.9063 214.85,160.9844 Q215.5375,162.0469 216.8813,162.0469 Q217.5063,162.0469 218.1,161.7813 Q218.6938,161.5 219.3188,160.9219 L219.3188,163.6406 Z "/><text fill="#000000" font-family="sans-serif" font-size="12" lengthAdjust="spacingAndGlyphs" textLength="39" x="230.35" y="162.1543">Action</text><line style="stroke: #A80036; stroke-width: 1.5;" x1="202.35" x2="271.35" y1="174" y2="174"/><line style="stroke: #A80036; stroke-width: 1.5;" x1="202.35" x2="271.35" y1="182" y2="182"/><!--MD5=[8f1fa7de71afc6be9ee722cd391c2695]
link Game to Action--><path d="M176.34,82.03 C165.9,106.6 172.71,137.54 196.78,153.81 " fill="none" id="Game-&gt;Action" style="stroke: #A80036; stroke-width: 1.0;"/><polygon fill="#A80036" points="201.13,156.48,195.5417,148.37,196.8654,153.8699,191.3655,155.1935,201.13,156.48" style="stroke: #A80036; stroke-width: 1.0;"/><text fill="#000000" font-family="sans-serif" font-size="13" lengthAdjust="spacingAndGlyphs" textLength="42" x="151.8444" y="138.9284">InitCall</text><!--MD5=[8f1fa7de71afc6be9ee722cd391c2695]
link Game to Action--><path d="M200.68,82.03 C196.21,99.63 197.03,120.51 203.15,136.91 " fill="none" id="Game-&gt;Action-1" style="stroke: #A80036; stroke-width: 1.0;"/><polygon fill="#A80036" points="205.22,141.85,205.44,132.0036,203.2919,137.2367,198.0587,135.0886,205.22,141.85" style="stroke: #A80036; stroke-width: 1.0;"/><text fill="#000000" font-family="sans-serif" font-size="13" lengthAdjust="spacingAndGlyphs" textLength="98" x="209.6711" y="130.8236">LateUpdateCall</text><!--MD5=[8f1fa7de71afc6be9ee722cd391c2695]
link Game to Action--><path d="M225.03,82.03 C223.58,99.48 223.83,120.15 225.78,136.49 " fill="none" id="Game-&gt;Action-2" style="stroke: #A80036; stroke-width: 1.0;"/><polygon fill="#A80036" points="226.51,141.85,229.2658,132.3946,225.8389,136.8952,221.3382,133.4683,226.51,141.85" style="stroke: #A80036; stroke-width: 1.0;"/><text fill="#000000" font-family="sans-serif" font-size="13" lengthAdjust="spacingAndGlyphs" textLength="99" x="142.6698" y="130.8236">EarlyRenderCall</text><!--MD5=[8f1fa7de71afc6be9ee722cd391c2695]
link Game to Action--><path d="M249.37,82.03 C250.9,99.48 250.64,120.15 248.57,136.49 " fill="none" id="Game-&gt;Action-3" style="stroke: #A80036; stroke-width: 1.0;"/><polygon fill="#A80036" points="247.8,141.85,253.0461,133.5146,248.5151,136.9014,245.1283,132.3704,247.8,141.85" style="stroke: #A80036; stroke-width: 1.0;"/><text fill="#000000" font-family="sans-serif" font-size="13" lengthAdjust="spacingAndGlyphs" textLength="68" x="279.8269" y="142.1011">RenderCall</text><!--MD5=[8f1fa7de71afc6be9ee722cd391c2695]
link Game to Action--><path d="M273.71,82.03 C278.27,99.63 277.43,120.51 271.2,136.91 " fill="none" id="Game-&gt;Action-4" style="stroke: #A80036; stroke-width: 1.0;"/><polygon fill="#A80036" points="269.09,141.85,276.3119,135.1534,271.0596,137.2543,268.9587,132.002,269.09,141.85" style="stroke: #A80036; stroke-width: 1.0;"/><text fill="#000000" font-family="sans-serif" font-size="13" lengthAdjust="spacingAndGlyphs" textLength="96" x="280.3738" y="134.4755">LateRenderCall</text><!--MD5=[8f1fa7de71afc6be9ee722cd391c2695]
link Game to Action--><path d="M298.06,82.03 C308.67,106.73 301.66,137.86 277,154.06 " fill="none" id="Game-&gt;Action-5" style="stroke: #A80036; stroke-width: 1.0;"/><polygon fill="#A80036" points="272.54,156.72,282.3183,155.5435,276.8338,154.1581,278.2192,148.6735,272.54,156.72" style="stroke: #A80036; stroke-width: 1.0;"/><text fill="#000000" font-family="sans-serif" font-size="13" lengthAdjust="spacingAndGlyphs" textLength="46" x="280.4265" y="168.5566">ExitCall</text><!--MD5=[70eaa0fa3b88764739f2755aa8864423]
link Game to Action`1--><path d="M200.82,82.03 C182.76,100.09 161.26,121.59 144.68,138.17 " fill="none" id="Game-&gt;Action`1" style="stroke: #A80036; stroke-width: 1.0;"/><polygon fill="#A80036" points="141,141.85,150.1924,138.3145,144.5355,138.3145,144.5355,132.6576,141,141.85" style="stroke: #A80036; stroke-width: 1.0;"/><text fill="#000000" font-family="sans-serif" font-size="13" lengthAdjust="spacingAndGlyphs" textLength="120" x="11.5572" y="130.8236">UpdateCall&lt;float&gt;</text><!--MD5=[5cbccf499746d8c1bbd2eaeb0fe7620e]
@startuml
class Game {
    + {static} isInitialized : bool = false
    + <<unsafe>> Run() : void
}
class "Action`1"<T> {
}
Game - -> "InitCall" Action
Game - -> "UpdateCall<float>" "Action`1"
Game - -> "LateUpdateCall" Action
Game - -> "EarlyRenderCall" Action
Game - -> "RenderCall" Action
Game - -> "LateRenderCall" Action
Game - -> "ExitCall" Action
@enduml

PlantUML version 1.2020.02(Sun Mar 01 10:22:07 GMT 2020)
(GPL source distribution)
Java Runtime: OpenJDK Runtime Environment
JVM: OpenJDK 64-Bit Server VM
Java Version: 11.0.9+11-Ubuntu-0ubuntu1
Operating System: Linux
Default Encoding: ANSI_X3.4-1968
Language: en
Country: US
--></g></svg>