<?xml version="1.0" encoding="UTF-8" standalone="no"?><svg xmlns="http://www.w3.org/2000/svg" xmlns:xlink="http://www.w3.org/1999/xlink" contentScriptType="application/ecmascript" contentStyleType="text/css" height="373px" preserveAspectRatio="none" style="width:519px;height:373px;" version="1.1" viewBox="0 0 519 373" width="519px" zoomAndPan="magnify"><defs><filter height="300%" id="f1gm0hvt94e2ob" width="300%" x="-1" y="-1"><feGaussianBlur result="blurOut" stdDeviation="2.0"/><feColorMatrix in="blurOut" result="blurOut2" type="matrix" values="0 0 0 0 0 0 0 0 0 0 0 0 0 0 0 0 0 0 .4 0"/><feOffset dx="4.0" dy="4.0" in="blurOut2" result="blurOut3"/><feBlend in="SourceGraphic" in2="blurOut3" mode="normal"/></filter></defs><g><!--MD5=[fa22f29c53ed6d2510bea2e0aa245b7f]
class Window--><rect fill="#FEFECE" filter="url(#f1gm0hvt94e2ob)" height="137.6328" id="Window" style="stroke: #A80036; stroke-width: 1.5;" width="194" x="87.48" y="116"/><ellipse cx="156.73" cy="132" fill="#ADD1B2" rx="11" ry="11" style="stroke: #A80036; stroke-width: 1.0;"/><path d="M159.6988,137.6406 Q159.1206,137.9375 158.48,138.0781 Q157.8394,138.2344 157.1363,138.2344 Q154.6363,138.2344 153.3081,136.5938 Q151.9956,134.9375 151.9956,131.8125 Q151.9956,128.6875 153.3081,127.0313 Q154.6363,125.375 157.1363,125.375 Q157.8394,125.375 158.48,125.5313 Q159.1363,125.6875 159.6988,125.9844 L159.6988,128.7031 Q159.0738,128.125 158.48,127.8594 Q157.8863,127.5781 157.2613,127.5781 Q155.9175,127.5781 155.23,128.6563 Q154.5425,129.7188 154.5425,131.8125 Q154.5425,133.9063 155.23,134.9844 Q155.9175,136.0469 157.2613,136.0469 Q157.8863,136.0469 158.48,135.7813 Q159.0738,135.5 159.6988,134.9219 L159.6988,137.6406 Z "/><text fill="#000000" font-family="sans-serif" font-size="12" lengthAdjust="spacingAndGlyphs" textLength="47" x="177.23" y="136.1543">Window</text><line style="stroke: #A80036; stroke-width: 1.5;" x1="88.48" x2="280.48" y1="148" y2="148"/><ellipse cx="98.48" cy="159" fill="none" rx="3" ry="3" style="stroke: #038048; stroke-width: 1.0;"/><text fill="#000000" font-family="sans-serif" font-size="11" lengthAdjust="spacingAndGlyphs" text-decoration="underline" textLength="168" x="107.48" y="162.2104">«readonly» width : int = 1400</text><ellipse cx="98.48" cy="171.8047" fill="none" rx="3" ry="3" style="stroke: #038048; stroke-width: 1.0;"/><text fill="#000000" font-family="sans-serif" font-size="11" lengthAdjust="spacingAndGlyphs" text-decoration="underline" textLength="166" x="107.48" y="175.0151">«readonly» height : int = 800</text><line style="stroke: #A80036; stroke-width: 1.5;" x1="88.48" x2="280.48" y1="181.6094" y2="181.6094"/><ellipse cx="98.48" cy="192.6094" fill="#84BE84" rx="3" ry="3" style="stroke: #038048; stroke-width: 1.0;"/><text fill="#000000" font-family="sans-serif" font-size="11" lengthAdjust="spacingAndGlyphs" textLength="114" x="107.48" y="195.8198">Window(_title:string)</text><ellipse cx="98.48" cy="205.4141" fill="#84BE84" rx="3" ry="3" style="stroke: #038048; stroke-width: 1.0;"/><text fill="#000000" font-family="sans-serif" font-size="11" lengthAdjust="spacingAndGlyphs" textLength="88" x="107.48" y="208.6245">Initialize() : void</text><ellipse cx="98.48" cy="218.2188" fill="#84BE84" rx="3" ry="3" style="stroke: #038048; stroke-width: 1.0;"/><text fill="#000000" font-family="sans-serif" font-size="11" lengthAdjust="spacingAndGlyphs" textLength="83" x="107.48" y="221.4292">Render() : void</text><ellipse cx="98.48" cy="231.0234" fill="#84BE84" rx="3" ry="3" style="stroke: #038048; stroke-width: 1.0;"/><text fill="#000000" font-family="sans-serif" font-size="11" lengthAdjust="spacingAndGlyphs" textLength="129" x="107.48" y="234.2339">Update(_dt:float) : void</text><ellipse cx="98.48" cy="243.8281" fill="#84BE84" rx="3" ry="3" style="stroke: #038048; stroke-width: 1.0;"/><text fill="#000000" font-family="sans-serif" font-size="11" lengthAdjust="spacingAndGlyphs" textLength="63" x="107.48" y="247.0386">Exit() : void</text><!--MD5=[a3114d125c7456cc8458f9a55e60e7ba]
class Action`2--><rect fill="#FEFECE" filter="url(#f1gm0hvt94e2ob)" height="48" id="Action`2" style="stroke: #A80036; stroke-width: 1.5;" width="123" x="122.98" y="314"/><ellipse cx="137.98" cy="330" fill="#ADD1B2" rx="11" ry="11" style="stroke: #A80036; stroke-width: 1.0;"/><path d="M140.9488,335.6406 Q140.3706,335.9375 139.73,336.0781 Q139.0894,336.2344 138.3863,336.2344 Q135.8863,336.2344 134.5581,334.5938 Q133.2456,332.9375 133.2456,329.8125 Q133.2456,326.6875 134.5581,325.0313 Q135.8863,323.375 138.3863,323.375 Q139.0894,323.375 139.73,323.5313 Q140.3863,323.6875 140.9488,323.9844 L140.9488,326.7031 Q140.3238,326.125 139.73,325.8594 Q139.1363,325.5781 138.5113,325.5781 Q137.1675,325.5781 136.48,326.6563 Q135.7925,327.7188 135.7925,329.8125 Q135.7925,331.9063 136.48,332.9844 Q137.1675,334.0469 138.5113,334.0469 Q139.1363,334.0469 139.73,333.7813 Q140.3238,333.5 140.9488,332.9219 L140.9488,335.6406 Z "/><text fill="#000000" font-family="sans-serif" font-size="12" lengthAdjust="spacingAndGlyphs" textLength="53" x="151.98" y="334.1543">Action`2</text><rect fill="#FFFFFF" height="15.9688" style="stroke: #000000; stroke-width: 1.0; stroke-dasharray: 2.0,2.0;" width="36" x="212.98" y="311"/><text fill="#000000" font-family="sans-serif" font-size="12" font-style="italic" lengthAdjust="spacingAndGlyphs" textLength="34" x="213.98" y="323.1387">T1,T2</text><line style="stroke: #A80036; stroke-width: 1.5;" x1="123.98" x2="244.98" y1="346" y2="346"/><line style="stroke: #A80036; stroke-width: 1.5;" x1="123.98" x2="244.98" y1="354" y2="354"/><!--MD5=[d0074d293e9645ff4ed5f25f47c5773b]
class GameWindow--><rect fill="#FEFECE" filter="url(#f1gm0hvt94e2ob)" height="48" id="GameWindow" style="stroke: #A80036; stroke-width: 1.5;" width="115" x="126.98" y="8"/><ellipse cx="141.98" cy="24" fill="#ADD1B2" rx="11" ry="11" style="stroke: #A80036; stroke-width: 1.0;"/><path d="M144.9488,29.6406 Q144.3706,29.9375 143.73,30.0781 Q143.0894,30.2344 142.3863,30.2344 Q139.8863,30.2344 138.5581,28.5938 Q137.2456,26.9375 137.2456,23.8125 Q137.2456,20.6875 138.5581,19.0313 Q139.8863,17.375 142.3863,17.375 Q143.0894,17.375 143.73,17.5313 Q144.3863,17.6875 144.9488,17.9844 L144.9488,20.7031 Q144.3238,20.125 143.73,19.8594 Q143.1363,19.5781 142.5113,19.5781 Q141.1675,19.5781 140.48,20.6563 Q139.7925,21.7188 139.7925,23.8125 Q139.7925,25.9063 140.48,26.9844 Q141.1675,28.0469 142.5113,28.0469 Q143.1363,28.0469 143.73,27.7813 Q144.3238,27.5 144.9488,26.9219 L144.9488,29.6406 Z "/><text fill="#000000" font-family="sans-serif" font-size="12" lengthAdjust="spacingAndGlyphs" textLength="83" x="155.98" y="28.1543">GameWindow</text><line style="stroke: #A80036; stroke-width: 1.5;" x1="127.98" x2="240.98" y1="40" y2="40"/><line style="stroke: #A80036; stroke-width: 1.5;" x1="127.98" x2="240.98" y1="48" y2="48"/><!--MD5=[fce5613a7465c756fc55f0827a73496c]
reverse link GameWindow to Window--><path d="M184.48,76.56 C184.48,88.87 184.48,102.57 184.48,115.96 " fill="none" id="GameWindow&lt;-Window" style="stroke: #A80036; stroke-width: 1.0;"/><polygon fill="none" points="177.48,76.26,184.48,56.26,191.48,76.26,177.48,76.26" style="stroke: #A80036; stroke-width: 1.0;"/><!--MD5=[d9070fba45772d8b5878ff836cf4d873]
link Window to Action`2--><path d="M171.78,254.43 C171.51,273.64 172.35,293.47 174.3,308.87 " fill="none" id="Window-&gt;Action`2" style="stroke: #A80036; stroke-width: 1.0;"/><polygon fill="#A80036" points="175,313.92,177.7253,304.4557,174.3129,308.9674,169.8012,305.555,175,313.92" style="stroke: #A80036; stroke-width: 1.0;"/><text fill="#000000" font-family="sans-serif" font-size="13" lengthAdjust="spacingAndGlyphs" textLength="154" x="-1.1605" y="302.9115">WindowResized&lt;int,int&gt;</text><!--MD5=[d9070fba45772d8b5878ff836cf4d873]
link Window to Action`2--><path d="M197.93,254.43 C198.22,273.64 197.33,293.47 195.27,308.87 " fill="none" id="Window-&gt;Action`2-1" style="stroke: #A80036; stroke-width: 1.0;"/><polygon fill="#A80036" points="194.53,313.92,199.7962,305.5973,195.2571,308.9731,191.8812,304.434,194.53,313.92" style="stroke: #A80036; stroke-width: 1.0;"/><text fill="#000000" font-family="sans-serif" font-size="13" lengthAdjust="spacingAndGlyphs" textLength="275" x="232.3397" y="302.9115">HandleInput&lt;KeyboardState,MouseState&gt;</text><!--MD5=[3175447787d817b769c3024a89205473]
@startuml
class Window {
    + {static} <<readonly>> width : int = 1400
    + {static} <<readonly>> height : int = 800
    + Window(_title:string)
    + Initialize() : void
    + Render() : void
    + Update(_dt:float) : void
    + Exit() : void
}
class "Action`2"<T1,T2> {
}
GameWindow <|- - Window
Window - -> "WindowResized<int,int>" "Action`2"
Window - -> "HandleInput<KeyboardState,MouseState>" "Action`2"
@enduml

PlantUML version 1.2020.02(Sun Mar 01 10:22:07 GMT 2020)
(GPL source distribution)
Java Runtime: OpenJDK Runtime Environment
JVM: OpenJDK 64-Bit Server VM
Java Version: 11.0.9+11-Ubuntu-0ubuntu1
Operating System: Linux
Default Encoding: ANSI_X3.4-1968
Language: en
Country: US
--></g></svg>