<?xml version="1.0" encoding="UTF-8" standalone="no"?><svg xmlns="http://www.w3.org/2000/svg" xmlns:xlink="http://www.w3.org/1999/xlink" contentScriptType="application/ecmascript" contentStyleType="text/css" height="226px" preserveAspectRatio="none" style="width:237px;height:226px;" version="1.1" viewBox="0 0 237 226" width="237px" zoomAndPan="magnify"><defs><filter height="300%" id="fybb5b2ohrkgg" width="300%" x="-1" y="-1"><feGaussianBlur result="blurOut" stdDeviation="2.0"/><feColorMatrix in="blurOut" result="blurOut2" type="matrix" values="0 0 0 0 0 0 0 0 0 0 0 0 0 0 0 0 0 0 .4 0"/><feOffset dx="4.0" dy="4.0" in="blurOut2" result="blurOut3"/><feBlend in="SourceGraphic" in2="blurOut3" mode="normal"/></filter></defs><g><!--MD5=[ee4319386a2911cf17b83cbc00b60755]
class CameraController--><rect fill="#FEFECE" filter="url(#fybb5b2ohrkgg)" height="99.2188" id="CameraController" style="stroke: #A80036; stroke-width: 1.5;" width="220" x="6" y="116"/><ellipse cx="57.25" cy="132" fill="#ADD1B2" rx="11" ry="11" style="stroke: #A80036; stroke-width: 1.0;"/><path d="M60.2188,137.6406 Q59.6406,137.9375 59,138.0781 Q58.3594,138.2344 57.6563,138.2344 Q55.1563,138.2344 53.8281,136.5938 Q52.5156,134.9375 52.5156,131.8125 Q52.5156,128.6875 53.8281,127.0313 Q55.1563,125.375 57.6563,125.375 Q58.3594,125.375 59,125.5313 Q59.6563,125.6875 60.2188,125.9844 L60.2188,128.7031 Q59.5938,128.125 59,127.8594 Q58.4063,127.5781 57.7813,127.5781 Q56.4375,127.5781 55.75,128.6563 Q55.0625,129.7188 55.0625,131.8125 Q55.0625,133.9063 55.75,134.9844 Q56.4375,136.0469 57.7813,136.0469 Q58.4063,136.0469 59,135.7813 Q59.5938,135.5 60.2188,134.9219 L60.2188,137.6406 Z "/><text fill="#000000" font-family="sans-serif" font-size="12" lengthAdjust="spacingAndGlyphs" textLength="109" x="77.75" y="136.1543">CameraController</text><line style="stroke: #A80036; stroke-width: 1.5;" x1="7" x2="225" y1="148" y2="148"/><ellipse cx="17" cy="159" fill="none" rx="3" ry="3" style="stroke: #038048; stroke-width: 1.0;"/><text fill="#000000" font-family="sans-serif" font-size="11" lengthAdjust="spacingAndGlyphs" textLength="153" x="26" y="162.2104">rotateSpeed : float = 30.0f</text><ellipse cx="17" cy="171.8047" fill="none" rx="3" ry="3" style="stroke: #038048; stroke-width: 1.0;"/><text fill="#000000" font-family="sans-serif" font-size="11" lengthAdjust="spacingAndGlyphs" textLength="143" x="26" y="175.0151">moveSpeed : float = 7.0f</text><line style="stroke: #A80036; stroke-width: 1.5;" x1="7" x2="225" y1="181.6094" y2="181.6094"/><ellipse cx="17" cy="192.6094" fill="#84BE84" rx="3" ry="3" style="stroke: #038048; stroke-width: 1.0;"/><text fill="#000000" font-family="sans-serif" font-size="11" lengthAdjust="spacingAndGlyphs" textLength="136" x="26" y="195.8198">«override» Start() : void</text><ellipse cx="17" cy="205.4141" fill="#84BE84" rx="3" ry="3" style="stroke: #038048; stroke-width: 1.0;"/><text fill="#000000" font-family="sans-serif" font-size="11" lengthAdjust="spacingAndGlyphs" textLength="194" x="26" y="208.6245">«override» Update(_dt:float) : void</text><!--MD5=[4e13963c9dc916a21a8436ef39422b32]
class Component--><rect fill="#FEFECE" filter="url(#fybb5b2ohrkgg)" height="48" id="Component" style="stroke: #A80036; stroke-width: 1.5;" width="104" x="64" y="8"/><ellipse cx="79" cy="24" fill="#ADD1B2" rx="11" ry="11" style="stroke: #A80036; stroke-width: 1.0;"/><path d="M81.9688,29.6406 Q81.3906,29.9375 80.75,30.0781 Q80.1094,30.2344 79.4063,30.2344 Q76.9063,30.2344 75.5781,28.5938 Q74.2656,26.9375 74.2656,23.8125 Q74.2656,20.6875 75.5781,19.0313 Q76.9063,17.375 79.4063,17.375 Q80.1094,17.375 80.75,17.5313 Q81.4063,17.6875 81.9688,17.9844 L81.9688,20.7031 Q81.3438,20.125 80.75,19.8594 Q80.1563,19.5781 79.5313,19.5781 Q78.1875,19.5781 77.5,20.6563 Q76.8125,21.7188 76.8125,23.8125 Q76.8125,25.9063 77.5,26.9844 Q78.1875,28.0469 79.5313,28.0469 Q80.1563,28.0469 80.75,27.7813 Q81.3438,27.5 81.9688,26.9219 L81.9688,29.6406 Z "/><text fill="#000000" font-family="sans-serif" font-size="12" lengthAdjust="spacingAndGlyphs" textLength="72" x="93" y="28.1543">Component</text><line style="stroke: #A80036; stroke-width: 1.5;" x1="65" x2="167" y1="40" y2="40"/><line style="stroke: #A80036; stroke-width: 1.5;" x1="65" x2="167" y1="48" y2="48"/><!--MD5=[c1d3d7d32a53305ea22540acf5c0d28f]
reverse link Component to CameraController--><path d="M116,76.51 C116,89.14 116,103.01 116,115.93 " fill="none" id="Component&lt;-CameraController" style="stroke: #A80036; stroke-width: 1.0;"/><polygon fill="none" points="109,76.21,116,56.21,123,76.21,109,76.21" style="stroke: #A80036; stroke-width: 1.0;"/><!--MD5=[fdf8b03fcb3b2c150d96cf0be4726cb5]
@startuml
class CameraController {
    + rotateSpeed : float = 30.0f
    + moveSpeed : float = 7.0f
    + <<override>> Start() : void
    + <<override>> Update(_dt:float) : void
}
Component <|- - CameraController
@enduml

PlantUML version 1.2020.02(Sun Mar 01 10:22:07 GMT 2020)
(GPL source distribution)
Java Runtime: OpenJDK Runtime Environment
JVM: OpenJDK 64-Bit Server VM
Java Version: 11.0.9+11-Ubuntu-0ubuntu1
Operating System: Linux
Default Encoding: ANSI_X3.4-1968
Language: en
Country: US
--></g></svg>