<?xml version="1.0" encoding="UTF-8" standalone="no"?><svg xmlns="http://www.w3.org/2000/svg" xmlns:xlink="http://www.w3.org/1999/xlink" contentScriptType="application/ecmascript" contentStyleType="text/css" height="334px" preserveAspectRatio="none" style="width:579px;height:334px;" version="1.1" viewBox="0 0 579 334" width="579px" zoomAndPan="magnify"><defs><filter height="300%" id="f1hpr49v44ap8n" width="300%" x="-1" y="-1"><feGaussianBlur result="blurOut" stdDeviation="2.0"/><feColorMatrix in="blurOut" result="blurOut2" type="matrix" values="0 0 0 0 0 0 0 0 0 0 0 0 0 0 0 0 0 0 .4 0"/><feOffset dx="4.0" dy="4.0" in="blurOut2" result="blurOut3"/><feBlend in="SourceGraphic" in2="blurOut3" mode="normal"/></filter></defs><g><!--MD5=[004b1d6c4ca8aad4ba8b586a335ed4f3]
class Transform--><rect fill="#FEFECE" filter="url(#f1hpr49v44ap8n)" height="99.2188" id="Transform" style="stroke: #A80036; stroke-width: 1.5;" width="309" x="6" y="116"/><ellipse cx="124.75" cy="132" fill="#ADD1B2" rx="11" ry="11" style="stroke: #A80036; stroke-width: 1.0;"/><path d="M127.7188,137.6406 Q127.1406,137.9375 126.5,138.0781 Q125.8594,138.2344 125.1563,138.2344 Q122.6563,138.2344 121.3281,136.5938 Q120.0156,134.9375 120.0156,131.8125 Q120.0156,128.6875 121.3281,127.0313 Q122.6563,125.375 125.1563,125.375 Q125.8594,125.375 126.5,125.5313 Q127.1563,125.6875 127.7188,125.9844 L127.7188,128.7031 Q127.0938,128.125 126.5,127.8594 Q125.9063,127.5781 125.2813,127.5781 Q123.9375,127.5781 123.25,128.6563 Q122.5625,129.7188 122.5625,131.8125 Q122.5625,133.9063 123.25,134.9844 Q123.9375,136.0469 125.2813,136.0469 Q125.9063,136.0469 126.5,135.7813 Q127.0938,135.5 127.7188,134.9219 L127.7188,137.6406 Z "/><text fill="#000000" font-family="sans-serif" font-size="12" lengthAdjust="spacingAndGlyphs" textLength="63" x="145.25" y="136.1543">Transform</text><line style="stroke: #A80036; stroke-width: 1.5;" x1="7" x2="314" y1="148" y2="148"/><line style="stroke: #A80036; stroke-width: 1.5;" x1="7" x2="314" y1="156" y2="156"/><ellipse cx="17" cy="167" fill="#84BE84" rx="3" ry="3" style="stroke: #038048; stroke-width: 1.0;"/><text fill="#000000" font-family="sans-serif" font-size="11" lengthAdjust="spacingAndGlyphs" textLength="283" x="26" y="170.2104">Rotate(_xDeg:float, _yDeg:float, _zDeg:float) : void</text><ellipse cx="17" cy="179.8047" fill="#84BE84" rx="3" ry="3" style="stroke: #038048; stroke-width: 1.0;"/><text fill="#000000" font-family="sans-serif" font-size="11" lengthAdjust="spacingAndGlyphs" textLength="221" x="26" y="183.0151">Rotate(_eulerAnglesDeg:Vector3) : void</text><ellipse cx="17" cy="192.6094" fill="#84BE84" rx="3" ry="3" style="stroke: #038048; stroke-width: 1.0;"/><text fill="#000000" font-family="sans-serif" font-size="11" lengthAdjust="spacingAndGlyphs" textLength="159" x="26" y="195.8198">Rotate(_q:Quaternion) : void</text><ellipse cx="17" cy="205.4141" fill="#84BE84" rx="3" ry="3" style="stroke: #038048; stroke-width: 1.0;"/><text fill="#000000" font-family="sans-serif" font-size="11" lengthAdjust="spacingAndGlyphs" textLength="259" x="26" y="208.6245">RotateAround(_axis:Vector3, _deg:float) : void</text><!--MD5=[4e13963c9dc916a21a8436ef39422b32]
class Component--><rect fill="#FEFECE" filter="url(#f1hpr49v44ap8n)" height="48" id="Component" style="stroke: #A80036; stroke-width: 1.5;" width="104" x="108.5" y="8"/><ellipse cx="123.5" cy="24" fill="#ADD1B2" rx="11" ry="11" style="stroke: #A80036; stroke-width: 1.0;"/><path d="M126.4688,29.6406 Q125.8906,29.9375 125.25,30.0781 Q124.6094,30.2344 123.9063,30.2344 Q121.4063,30.2344 120.0781,28.5938 Q118.7656,26.9375 118.7656,23.8125 Q118.7656,20.6875 120.0781,19.0313 Q121.4063,17.375 123.9063,17.375 Q124.6094,17.375 125.25,17.5313 Q125.9063,17.6875 126.4688,17.9844 L126.4688,20.7031 Q125.8438,20.125 125.25,19.8594 Q124.6563,19.5781 124.0313,19.5781 Q122.6875,19.5781 122,20.6563 Q121.3125,21.7188 121.3125,23.8125 Q121.3125,25.9063 122,26.9844 Q122.6875,28.0469 124.0313,28.0469 Q124.6563,28.0469 125.25,27.7813 Q125.8438,27.5 126.4688,26.9219 L126.4688,29.6406 Z "/><text fill="#000000" font-family="sans-serif" font-size="12" lengthAdjust="spacingAndGlyphs" textLength="72" x="137.5" y="28.1543">Component</text><line style="stroke: #A80036; stroke-width: 1.5;" x1="109.5" x2="211.5" y1="40" y2="40"/><line style="stroke: #A80036; stroke-width: 1.5;" x1="109.5" x2="211.5" y1="48" y2="48"/><!--MD5=[65d619c042c23702cef2ca07d67b1cf6]
class Vector3--><rect fill="#FEFECE" filter="url(#f1hpr49v44ap8n)" height="48" id="Vector3" style="stroke: #A80036; stroke-width: 1.5;" width="81" x="487" y="141.5"/><ellipse cx="502" cy="157.5" fill="#ADD1B2" rx="11" ry="11" style="stroke: #A80036; stroke-width: 1.0;"/><path d="M504.9688,163.1406 Q504.3906,163.4375 503.75,163.5781 Q503.1094,163.7344 502.4063,163.7344 Q499.9063,163.7344 498.5781,162.0938 Q497.2656,160.4375 497.2656,157.3125 Q497.2656,154.1875 498.5781,152.5313 Q499.9063,150.875 502.4063,150.875 Q503.1094,150.875 503.75,151.0313 Q504.4063,151.1875 504.9688,151.4844 L504.9688,154.2031 Q504.3438,153.625 503.75,153.3594 Q503.1563,153.0781 502.5313,153.0781 Q501.1875,153.0781 500.5,154.1563 Q499.8125,155.2188 499.8125,157.3125 Q499.8125,159.4063 500.5,160.4844 Q501.1875,161.5469 502.5313,161.5469 Q503.1563,161.5469 503.75,161.2813 Q504.3438,161 504.9688,160.4219 L504.9688,163.1406 Z "/><text fill="#000000" font-family="sans-serif" font-size="12" lengthAdjust="spacingAndGlyphs" textLength="49" x="516" y="161.6543">Vector3</text><line style="stroke: #A80036; stroke-width: 1.5;" x1="488" x2="567" y1="173.5" y2="173.5"/><line style="stroke: #A80036; stroke-width: 1.5;" x1="488" x2="567" y1="181.5" y2="181.5"/><!--MD5=[4c7b140fed10e9877852f4b8dc88c33d]
class Quaternion--><rect fill="#FEFECE" filter="url(#f1hpr49v44ap8n)" height="48" id="Quaternion" style="stroke: #A80036; stroke-width: 1.5;" width="102" x="349.5" y="141.5"/><ellipse cx="364.5" cy="157.5" fill="#ADD1B2" rx="11" ry="11" style="stroke: #A80036; stroke-width: 1.0;"/><path d="M367.4688,163.1406 Q366.8906,163.4375 366.25,163.5781 Q365.6094,163.7344 364.9063,163.7344 Q362.4063,163.7344 361.0781,162.0938 Q359.7656,160.4375 359.7656,157.3125 Q359.7656,154.1875 361.0781,152.5313 Q362.4063,150.875 364.9063,150.875 Q365.6094,150.875 366.25,151.0313 Q366.9063,151.1875 367.4688,151.4844 L367.4688,154.2031 Q366.8438,153.625 366.25,153.3594 Q365.6563,153.0781 365.0313,153.0781 Q363.6875,153.0781 363,154.1563 Q362.3125,155.2188 362.3125,157.3125 Q362.3125,159.4063 363,160.4844 Q363.6875,161.5469 365.0313,161.5469 Q365.6563,161.5469 366.25,161.2813 Q366.8438,161 367.4688,160.4219 L367.4688,163.1406 Z "/><text fill="#000000" font-family="sans-serif" font-size="12" lengthAdjust="spacingAndGlyphs" textLength="70" x="378.5" y="161.6543">Quaternion</text><line style="stroke: #A80036; stroke-width: 1.5;" x1="350.5" x2="450.5" y1="173.5" y2="173.5"/><line style="stroke: #A80036; stroke-width: 1.5;" x1="350.5" x2="450.5" y1="181.5" y2="181.5"/><!--MD5=[95c6488d7c6702441d244c7706a4cd5e]
class Matrix4x4--><rect fill="#FEFECE" filter="url(#f1hpr49v44ap8n)" height="48" id="Matrix4x4" style="stroke: #A80036; stroke-width: 1.5;" width="91" x="115" y="275"/><ellipse cx="130" cy="291" fill="#ADD1B2" rx="11" ry="11" style="stroke: #A80036; stroke-width: 1.0;"/><path d="M132.9688,296.6406 Q132.3906,296.9375 131.75,297.0781 Q131.1094,297.2344 130.4063,297.2344 Q127.9063,297.2344 126.5781,295.5938 Q125.2656,293.9375 125.2656,290.8125 Q125.2656,287.6875 126.5781,286.0313 Q127.9063,284.375 130.4063,284.375 Q131.1094,284.375 131.75,284.5313 Q132.4063,284.6875 132.9688,284.9844 L132.9688,287.7031 Q132.3438,287.125 131.75,286.8594 Q131.1563,286.5781 130.5313,286.5781 Q129.1875,286.5781 128.5,287.6563 Q127.8125,288.7188 127.8125,290.8125 Q127.8125,292.9063 128.5,293.9844 Q129.1875,295.0469 130.5313,295.0469 Q131.1563,295.0469 131.75,294.7813 Q132.3438,294.5 132.9688,293.9219 L132.9688,296.6406 Z "/><text fill="#000000" font-family="sans-serif" font-size="12" lengthAdjust="spacingAndGlyphs" textLength="59" x="144" y="295.1543">Matrix4x4</text><line style="stroke: #A80036; stroke-width: 1.5;" x1="116" x2="205" y1="307" y2="307"/><line style="stroke: #A80036; stroke-width: 1.5;" x1="116" x2="205" y1="315" y2="315"/><!--MD5=[ebeab8a0ef55b6e482935f16b68cd3dd]
reverse link Component to Transform--><path d="M160.5,76.51 C160.5,89.14 160.5,103.01 160.5,115.93 " fill="none" id="Component&lt;-Transform" style="stroke: #A80036; stroke-width: 1.0;"/><polygon fill="none" points="153.5,76.21,160.5,56.21,167.5,76.21,153.5,76.21" style="stroke: #A80036; stroke-width: 1.0;"/><!--MD5=[920816311cc007f023228bd7f1cc98a4]
link Transform to Vector3--><path d="M304.9473,112.9235 C304.9473,112.9235 327.71,107.73 338.33,106 C365.82,101.52 437.75,95.8 463.67,106 C477.45,111.43 490.01,121.39 500.28,131.62 " fill="none" id="Transform-Vector3" style="stroke: #A80036; stroke-width: 1.0;"/><polygon fill="#A80036" points="509.38,141.39,506.1683,132.0795,505.9704,137.7329,500.317,137.5349,509.38,141.39" style="stroke: #A80036; stroke-width: 1.0;"/><line style="stroke: #A80036; stroke-width: 1.0;" x1="505.9704" x2="500.515" y1="137.7329" y2="131.88"/><polygon fill="#FFFFFF" points="293.33,115.93,300.1408,118.2992,304.9473,112.9235,298.1365,110.5543,293.33,115.93" style="stroke: #A80036; stroke-width: 1.0;"/><text fill="#000000" font-family="sans-serif" font-size="13" lengthAdjust="spacingAndGlyphs" textLength="50" x="448.3305" y="130.3738">position</text><!--MD5=[920816311cc007f023228bd7f1cc98a4]
link Transform to Vector3--><path d="M283.6708,111.9964 C283.6708,111.9964 324.54,99.59 344.17,96 C369.01,91.46 434.49,86.35 457.83,96 C475.45,103.28 490.94,117.42 502.81,131.05 " fill="none" id="Transform-Vector3-1" style="stroke: #A80036; stroke-width: 1.0;"/><polygon fill="#A80036" points="511.17,141.25,508.5667,131.7514,508.0038,137.3802,502.375,136.8173,511.17,141.25" style="stroke: #A80036; stroke-width: 1.0;"/><line style="stroke: #A80036; stroke-width: 1.0;" x1="508.0038" x2="502.93" y1="137.3802" y2="131.19"/><polygon fill="#FFFFFF" points="272.32,115.89,279.2932,117.7268,283.6708,111.9964,276.6975,110.1596,272.32,115.89" style="stroke: #A80036; stroke-width: 1.0;"/><text fill="#000000" font-family="sans-serif" font-size="13" lengthAdjust="spacingAndGlyphs" textLength="33" x="511.2114" y="130.594">scale</text><!--MD5=[920816311cc007f023228bd7f1cc98a4]
link Transform to Vector3--><path d="M257.96,115.94 C286.85,103.65 319.05,92.23 350,86 C372.22,81.53 431.17,77.06 452,86 C476.23,96.4 496.34,118.83 509.7,137.21 " fill="none" id="Transform-&gt;Vector3" style="stroke: #A80036; stroke-width: 1.0;"/><polygon fill="#A80036" points="512.61,141.31,510.6466,131.6588,509.7092,137.2375,504.1306,136.3001,512.61,141.31" style="stroke: #A80036; stroke-width: 1.0;"/><text fill="#000000" font-family="sans-serif" font-size="13" lengthAdjust="spacingAndGlyphs" textLength="29" x="458.4128" y="130.3701">right</text><!--MD5=[920816311cc007f023228bd7f1cc98a4]
link Transform to Vector3--><path d="M247.64,115.87 C280.48,99.81 318.84,84.07 355.83,76 C395.06,67.44 409.45,59.75 446.17,76 C474.13,88.37 496.6,115.64 510.78,136.84 " fill="none" id="Transform-&gt;Vector3-1" style="stroke: #A80036; stroke-width: 1.0;"/><polygon fill="#A80036" points="513.68,141.27,512.0928,131.5499,510.9395,137.0879,505.4015,135.9346,513.68,141.27" style="stroke: #A80036; stroke-width: 1.0;"/><text fill="#000000" font-family="sans-serif" font-size="13" lengthAdjust="spacingAndGlyphs" textLength="47" x="516.0395" y="130.6189">forward</text><!--MD5=[920816311cc007f023228bd7f1cc98a4]
link Transform to Vector3--><path d="M239.51,115.9 C275.36,96.22 319.17,75.93 361.67,66 C395.71,58.04 408.49,51.56 440.33,66 C472.23,80.46 497.06,113.01 511.92,136.95 " fill="none" id="Transform-&gt;Vector3-2" style="stroke: #A80036; stroke-width: 1.0;"/><polygon fill="#A80036" points="514.58,141.32,513.3173,131.5524,511.9803,137.049,506.4837,135.712,514.58,141.32" style="stroke: #A80036; stroke-width: 1.0;"/><text fill="#000000" font-family="sans-serif" font-size="13" lengthAdjust="spacingAndGlyphs" textLength="16" x="507.815" y="130.5432">up</text><!--MD5=[c907897da69e14033fb73bba69ebe2dc]
link Transform to Quaternion--><path d="M327.19,165.5 C327.19,165.5 333.44,165.5 336.07,165.5 " fill="none" id="Transform-Quaternion" style="stroke: #A80036; stroke-width: 1.0;"/><polygon fill="#A80036" points="349.18,165.5,340.18,161.5,344.18,165.5,340.18,169.5,349.18,165.5" style="stroke: #A80036; stroke-width: 1.0;"/><line style="stroke: #A80036; stroke-width: 1.0;" x1="344.18" x2="336.18" y1="165.5" y2="165.5"/><polygon fill="#FFFFFF" points="315.19,165.5,321.19,169.5,327.19,165.5,321.19,161.5,315.19,165.5" style="stroke: #A80036; stroke-width: 1.0;"/><text fill="#000000" font-family="sans-serif" font-size="13" lengthAdjust="spacingAndGlyphs" textLength="50" x="291.1993" y="156.2274">rotation</text><!--MD5=[20a000f860f17f6c08bc219ce21dc795]
link Transform to Matrix4x4--><path d="M160.5,215.09 C160.5,233.5 160.5,253.83 160.5,269.75 " fill="none" id="Transform-&gt;Matrix4x4" style="stroke: #A80036; stroke-width: 1.0;"/><polygon fill="#A80036" points="160.5,274.98,164.5,265.98,160.5,269.98,156.5,265.98,160.5,274.98" style="stroke: #A80036; stroke-width: 1.0;"/><text fill="#000000" font-family="sans-serif" font-size="13" lengthAdjust="spacingAndGlyphs" textLength="78" x="72.5063" y="263.9869">objectMatrix</text><!--MD5=[954ba4a4b629850cbc216388ead8d188]
@startuml
class Transform {
    + Rotate(_xDeg:float, _yDeg:float, _zDeg:float) : void
    + Rotate(_eulerAnglesDeg:Vector3) : void
    + Rotate(_q:Quaternion) : void
    + RotateAround(_axis:Vector3, _deg:float) : void
}
Component <|- - Transform
Transform o-> "position" Vector3
Transform o-> "rotation" Quaternion
Transform o-> "scale" Vector3
Transform - -> "objectMatrix" Matrix4x4
Transform - -> "right" Vector3
Transform - -> "forward" Vector3
Transform - -> "up" Vector3
@enduml

PlantUML version 1.2020.02(Sun Mar 01 10:22:07 GMT 2020)
(GPL source distribution)
Java Runtime: OpenJDK Runtime Environment
JVM: OpenJDK 64-Bit Server VM
Java Version: 11.0.9+11-Ubuntu-0ubuntu1
Operating System: Linux
Default Encoding: ANSI_X3.4-1968
Language: en
Country: US
--></g></svg>