<?xml version="1.0" encoding="UTF-8" standalone="no"?><svg xmlns="http://www.w3.org/2000/svg" xmlns:xlink="http://www.w3.org/1999/xlink" contentScriptType="application/ecmascript" contentStyleType="text/css" height="175px" preserveAspectRatio="none" style="width:110px;height:175px;" version="1.1" viewBox="0 0 110 175" width="110px" zoomAndPan="magnify"><defs><filter height="300%" id="f601nsph9nx7b" width="300%" x="-1" y="-1"><feGaussianBlur result="blurOut" stdDeviation="2.0"/><feColorMatrix in="blurOut" result="blurOut2" type="matrix" values="0 0 0 0 0 0 0 0 0 0 0 0 0 0 0 0 0 0 .4 0"/><feOffset dx="4.0" dy="4.0" in="blurOut2" result="blurOut3"/><feBlend in="SourceGraphic" in2="blurOut3" mode="normal"/></filter></defs><g><!--MD5=[b95bace02b6cad134359ed97acbe2d13]
class Primitives--><rect fill="#FEFECE" filter="url(#f601nsph9nx7b)" height="48" id="Primitives" style="stroke: #A80036; stroke-width: 1.5;" width="91" x="8.5" y="8"/><ellipse cx="23.5" cy="24" fill="#ADD1B2" rx="11" ry="11" style="stroke: #A80036; stroke-width: 1.0;"/><path d="M26.4688,29.6406 Q25.8906,29.9375 25.25,30.0781 Q24.6094,30.2344 23.9063,30.2344 Q21.4063,30.2344 20.0781,28.5938 Q18.7656,26.9375 18.7656,23.8125 Q18.7656,20.6875 20.0781,19.0313 Q21.4063,17.375 23.9063,17.375 Q24.6094,17.375 25.25,17.5313 Q25.9063,17.6875 26.4688,17.9844 L26.4688,20.7031 Q25.8438,20.125 25.25,19.8594 Q24.6563,19.5781 24.0313,19.5781 Q22.6875,19.5781 22,20.6563 Q21.3125,21.7188 21.3125,23.8125 Q21.3125,25.9063 22,26.9844 Q22.6875,28.0469 24.0313,28.0469 Q24.6563,28.0469 25.25,27.7813 Q25.8438,27.5 26.4688,26.9219 L26.4688,29.6406 Z "/><text fill="#000000" font-family="sans-serif" font-size="12" lengthAdjust="spacingAndGlyphs" textLength="59" x="37.5" y="28.1543">Primitives</text><line style="stroke: #A80036; stroke-width: 1.5;" x1="9.5" x2="98.5" y1="40" y2="40"/><line style="stroke: #A80036; stroke-width: 1.5;" x1="9.5" x2="98.5" y1="48" y2="48"/><!--MD5=[49b4333bed3a745cc53311fcf54bbfcc]
class Mesh--><rect fill="#FEFECE" filter="url(#f601nsph9nx7b)" height="48" id="Mesh" style="stroke: #A80036; stroke-width: 1.5;" width="65" x="21.5" y="116"/><ellipse cx="36.5" cy="132" fill="#ADD1B2" rx="11" ry="11" style="stroke: #A80036; stroke-width: 1.0;"/><path d="M39.4688,137.6406 Q38.8906,137.9375 38.25,138.0781 Q37.6094,138.2344 36.9063,138.2344 Q34.4063,138.2344 33.0781,136.5938 Q31.7656,134.9375 31.7656,131.8125 Q31.7656,128.6875 33.0781,127.0313 Q34.4063,125.375 36.9063,125.375 Q37.6094,125.375 38.25,125.5313 Q38.9063,125.6875 39.4688,125.9844 L39.4688,128.7031 Q38.8438,128.125 38.25,127.8594 Q37.6563,127.5781 37.0313,127.5781 Q35.6875,127.5781 35,128.6563 Q34.3125,129.7188 34.3125,131.8125 Q34.3125,133.9063 35,134.9844 Q35.6875,136.0469 37.0313,136.0469 Q37.6563,136.0469 38.25,135.7813 Q38.8438,135.5 39.4688,134.9219 L39.4688,137.6406 Z "/><text fill="#000000" font-family="sans-serif" font-size="12" lengthAdjust="spacingAndGlyphs" textLength="33" x="50.5" y="136.1543">Mesh</text><line style="stroke: #A80036; stroke-width: 1.5;" x1="22.5" x2="85.5" y1="148" y2="148"/><line style="stroke: #A80036; stroke-width: 1.5;" x1="22.5" x2="85.5" y1="156" y2="156"/><!--MD5=[a0057b116d7545f66d900599dee17f93]
link Primitives to Mesh--><path d="M54,56 C54,72 54,93.45 54,110.53 " fill="none" id="Primitives-&gt;Mesh" style="stroke: #A80036; stroke-width: 1.0;"/><polygon fill="#A80036" points="54,115.68,58,106.68,54,110.68,50,106.68,54,115.68" style="stroke: #A80036; stroke-width: 1.0;"/><text fill="#000000" font-family="sans-serif" font-size="13" lengthAdjust="spacingAndGlyphs" textLength="33" x="16.9781" y="105.007">Cube</text><!--MD5=[b1e510ec30d93e5c73fc95dc36cde7a2]
@startuml
class Primitives {
}
Primitives - -> "Cube" Mesh
@enduml

PlantUML version 1.2020.02(Sun Mar 01 10:22:07 GMT 2020)
(GPL source distribution)
Java Runtime: OpenJDK Runtime Environment
JVM: OpenJDK 64-Bit Server VM
Java Version: 11.0.9+11-Ubuntu-0ubuntu1
Operating System: Linux
Default Encoding: ANSI_X3.4-1968
Language: en
Country: US
--></g></svg>