<?xml version="1.0" encoding="UTF-8" standalone="no"?><svg xmlns="http://www.w3.org/2000/svg" xmlns:xlink="http://www.w3.org/1999/xlink" contentScriptType="application/ecmascript" contentStyleType="text/css" height="187px" preserveAspectRatio="none" style="width:191px;height:187px;" version="1.1" viewBox="0 0 191 187" width="191px" zoomAndPan="magnify"><defs><filter height="300%" id="f1v8m1btxqclj8" width="300%" x="-1" y="-1"><feGaussianBlur result="blurOut" stdDeviation="2.0"/><feColorMatrix in="blurOut" result="blurOut2" type="matrix" values="0 0 0 0 0 0 0 0 0 0 0 0 0 0 0 0 0 0 .4 0"/><feOffset dx="4.0" dy="4.0" in="blurOut2" result="blurOut3"/><feBlend in="SourceGraphic" in2="blurOut3" mode="normal"/></filter></defs><g><!--MD5=[190d16169b62566ba687f2c43e01bc86]
class DirectionalLight--><rect fill="#FEFECE" filter="url(#f1v8m1btxqclj8)" height="60.8047" id="DirectionalLight" style="stroke: #A80036; stroke-width: 1.5;" width="174" x="6" y="116"/><ellipse cx="41.25" cy="132" fill="#ADD1B2" rx="11" ry="11" style="stroke: #A80036; stroke-width: 1.0;"/><path d="M44.2188,137.6406 Q43.6406,137.9375 43,138.0781 Q42.3594,138.2344 41.6563,138.2344 Q39.1563,138.2344 37.8281,136.5938 Q36.5156,134.9375 36.5156,131.8125 Q36.5156,128.6875 37.8281,127.0313 Q39.1563,125.375 41.6563,125.375 Q42.3594,125.375 43,125.5313 Q43.6563,125.6875 44.2188,125.9844 L44.2188,128.7031 Q43.5938,128.125 43,127.8594 Q42.4063,127.5781 41.7813,127.5781 Q40.4375,127.5781 39.75,128.6563 Q39.0625,129.7188 39.0625,131.8125 Q39.0625,133.9063 39.75,134.9844 Q40.4375,136.0469 41.7813,136.0469 Q42.4063,136.0469 43,135.7813 Q43.5938,135.5 44.2188,134.9219 L44.2188,137.6406 Z "/><text fill="#000000" font-family="sans-serif" font-size="12" lengthAdjust="spacingAndGlyphs" textLength="97" x="59.75" y="136.1543">DirectionalLight</text><line style="stroke: #A80036; stroke-width: 1.5;" x1="7" x2="179" y1="148" y2="148"/><line style="stroke: #A80036; stroke-width: 1.5;" x1="7" x2="179" y1="156" y2="156"/><ellipse cx="17" cy="167" fill="#84BE84" rx="3" ry="3" style="stroke: #038048; stroke-width: 1.0;"/><text fill="#000000" font-family="sans-serif" font-size="11" lengthAdjust="spacingAndGlyphs" textLength="148" x="26" y="170.2104">DirectionalLight(_c:Colour)</text><!--MD5=[7c1a0278dec21c72584b17e1785fd623]
class Light--><rect fill="#FEFECE" filter="url(#f1v8m1btxqclj8)" height="48" id="Light" style="stroke: #A80036; stroke-width: 1.5;" width="62" x="62" y="8"/><ellipse cx="77" cy="24" fill="#ADD1B2" rx="11" ry="11" style="stroke: #A80036; stroke-width: 1.0;"/><path d="M79.9688,29.6406 Q79.3906,29.9375 78.75,30.0781 Q78.1094,30.2344 77.4063,30.2344 Q74.9063,30.2344 73.5781,28.5938 Q72.2656,26.9375 72.2656,23.8125 Q72.2656,20.6875 73.5781,19.0313 Q74.9063,17.375 77.4063,17.375 Q78.1094,17.375 78.75,17.5313 Q79.4063,17.6875 79.9688,17.9844 L79.9688,20.7031 Q79.3438,20.125 78.75,19.8594 Q78.1563,19.5781 77.5313,19.5781 Q76.1875,19.5781 75.5,20.6563 Q74.8125,21.7188 74.8125,23.8125 Q74.8125,25.9063 75.5,26.9844 Q76.1875,28.0469 77.5313,28.0469 Q78.1563,28.0469 78.75,27.7813 Q79.3438,27.5 79.9688,26.9219 L79.9688,29.6406 Z "/><text fill="#000000" font-family="sans-serif" font-size="12" lengthAdjust="spacingAndGlyphs" textLength="30" x="91" y="28.1543">Light</text><line style="stroke: #A80036; stroke-width: 1.5;" x1="63" x2="123" y1="40" y2="40"/><line style="stroke: #A80036; stroke-width: 1.5;" x1="63" x2="123" y1="48" y2="48"/><!--MD5=[a53e265fd7ce23b7dab2feb432c50e99]
reverse link Light to DirectionalLight--><path d="M93,76.11 C93,89.31 93,103.54 93,115.65 " fill="none" id="Light&lt;-DirectionalLight" style="stroke: #A80036; stroke-width: 1.0;"/><polygon fill="none" points="86,76.04,93,56.04,100,76.04,86,76.04" style="stroke: #A80036; stroke-width: 1.0;"/><!--MD5=[368845d3a43d7b68290c15385d18a03c]
@startuml
class DirectionalLight {
    + DirectionalLight(_c:Colour)
}
Light <|- - DirectionalLight
@enduml

PlantUML version 1.2020.02(Sun Mar 01 10:22:07 GMT 2020)
(GPL source distribution)
Java Runtime: OpenJDK Runtime Environment
JVM: OpenJDK 64-Bit Server VM
Java Version: 11.0.9+11-Ubuntu-0ubuntu1
Operating System: Linux
Default Encoding: ANSI_X3.4-1968
Language: en
Country: US
--></g></svg>