<?xml version="1.0" encoding="UTF-8" standalone="no"?><svg xmlns="http://www.w3.org/2000/svg" xmlns:xlink="http://www.w3.org/1999/xlink" contentScriptType="application/ecmascript" contentStyleType="text/css" height="296px" preserveAspectRatio="none" style="width:131px;height:296px;" version="1.1" viewBox="0 0 131 296" width="131px" zoomAndPan="magnify"><defs><filter height="300%" id="f997b1smxyjq4" width="300%" x="-1" y="-1"><feGaussianBlur result="blurOut" stdDeviation="2.0"/><feColorMatrix in="blurOut" result="blurOut2" type="matrix" values="0 0 0 0 0 0 0 0 0 0 0 0 0 0 0 0 0 0 .4 0"/><feOffset dx="4.0" dy="4.0" in="blurOut2" result="blurOut3"/><feBlend in="SourceGraphic" in2="blurOut3" mode="normal"/></filter></defs><g><!--MD5=[7c1a0278dec21c72584b17e1785fd623]
class Light--><rect fill="#FEFECE" filter="url(#f997b1smxyjq4)" height="60.8047" id="Light" style="stroke: #A80036; stroke-width: 1.5;" width="114" x="6" y="116"/><ellipse cx="44.4" cy="132" fill="#ADD1B2" rx="11" ry="11" style="stroke: #A80036; stroke-width: 1.0;"/><path d="M47.3688,137.6406 Q46.7906,137.9375 46.15,138.0781 Q45.5094,138.2344 44.8063,138.2344 Q42.3063,138.2344 40.9781,136.5938 Q39.6656,134.9375 39.6656,131.8125 Q39.6656,128.6875 40.9781,127.0313 Q42.3063,125.375 44.8063,125.375 Q45.5094,125.375 46.15,125.5313 Q46.8063,125.6875 47.3688,125.9844 L47.3688,128.7031 Q46.7438,128.125 46.15,127.8594 Q45.5563,127.5781 44.9313,127.5781 Q43.5875,127.5781 42.9,128.6563 Q42.2125,129.7188 42.2125,131.8125 Q42.2125,133.9063 42.9,134.9844 Q43.5875,136.0469 44.9313,136.0469 Q45.5563,136.0469 46.15,135.7813 Q46.7438,135.5 47.3688,134.9219 L47.3688,137.6406 Z "/><text fill="#000000" font-family="sans-serif" font-size="12" lengthAdjust="spacingAndGlyphs" textLength="30" x="63.6" y="136.1543">Light</text><line style="stroke: #A80036; stroke-width: 1.5;" x1="7" x2="119" y1="148" y2="148"/><line style="stroke: #A80036; stroke-width: 1.5;" x1="7" x2="119" y1="156" y2="156"/><ellipse cx="17" cy="167" fill="#84BE84" rx="3" ry="3" style="stroke: #038048; stroke-width: 1.0;"/><text fill="#000000" font-family="sans-serif" font-size="11" lengthAdjust="spacingAndGlyphs" textLength="88" x="26" y="170.2104">Light(_c:Colour)</text><!--MD5=[064f7a74fee85463ec1a30143664ee17]
class GameObject--><rect fill="#FEFECE" filter="url(#f997b1smxyjq4)" height="48" id="GameObject" style="stroke: #A80036; stroke-width: 1.5;" width="108" x="9" y="8"/><ellipse cx="24" cy="24" fill="#ADD1B2" rx="11" ry="11" style="stroke: #A80036; stroke-width: 1.0;"/><path d="M26.9688,29.6406 Q26.3906,29.9375 25.75,30.0781 Q25.1094,30.2344 24.4063,30.2344 Q21.9063,30.2344 20.5781,28.5938 Q19.2656,26.9375 19.2656,23.8125 Q19.2656,20.6875 20.5781,19.0313 Q21.9063,17.375 24.4063,17.375 Q25.1094,17.375 25.75,17.5313 Q26.4063,17.6875 26.9688,17.9844 L26.9688,20.7031 Q26.3438,20.125 25.75,19.8594 Q25.1563,19.5781 24.5313,19.5781 Q23.1875,19.5781 22.5,20.6563 Q21.8125,21.7188 21.8125,23.8125 Q21.8125,25.9063 22.5,26.9844 Q23.1875,28.0469 24.5313,28.0469 Q25.1563,28.0469 25.75,27.7813 Q26.3438,27.5 26.9688,26.9219 L26.9688,29.6406 Z "/><text fill="#000000" font-family="sans-serif" font-size="12" lengthAdjust="spacingAndGlyphs" textLength="76" x="38" y="28.1543">GameObject</text><line style="stroke: #A80036; stroke-width: 1.5;" x1="10" x2="116" y1="40" y2="40"/><line style="stroke: #A80036; stroke-width: 1.5;" x1="10" x2="116" y1="48" y2="48"/><!--MD5=[4d4eb26d042d74c9fb837d4bd92f5625]
class Colour--><rect fill="#FEFECE" filter="url(#f997b1smxyjq4)" height="48" id="Colour" style="stroke: #A80036; stroke-width: 1.5;" width="72" x="27" y="237"/><ellipse cx="42" cy="253" fill="#ADD1B2" rx="11" ry="11" style="stroke: #A80036; stroke-width: 1.0;"/><path d="M44.9688,258.6406 Q44.3906,258.9375 43.75,259.0781 Q43.1094,259.2344 42.4063,259.2344 Q39.9063,259.2344 38.5781,257.5938 Q37.2656,255.9375 37.2656,252.8125 Q37.2656,249.6875 38.5781,248.0313 Q39.9063,246.375 42.4063,246.375 Q43.1094,246.375 43.75,246.5313 Q44.4063,246.6875 44.9688,246.9844 L44.9688,249.7031 Q44.3438,249.125 43.75,248.8594 Q43.1563,248.5781 42.5313,248.5781 Q41.1875,248.5781 40.5,249.6563 Q39.8125,250.7188 39.8125,252.8125 Q39.8125,254.9063 40.5,255.9844 Q41.1875,257.0469 42.5313,257.0469 Q43.1563,257.0469 43.75,256.7813 Q44.3438,256.5 44.9688,255.9219 L44.9688,258.6406 Z "/><text fill="#000000" font-family="sans-serif" font-size="12" lengthAdjust="spacingAndGlyphs" textLength="40" x="56" y="257.1543">Colour</text><line style="stroke: #A80036; stroke-width: 1.5;" x1="28" x2="98" y1="269" y2="269"/><line style="stroke: #A80036; stroke-width: 1.5;" x1="28" x2="98" y1="277" y2="277"/><!--MD5=[826b464d3f75687506480f039e5d9b6b]
reverse link GameObject to Light--><path d="M63,76.11 C63,89.31 63,103.54 63,115.65 " fill="none" id="GameObject&lt;-Light" style="stroke: #A80036; stroke-width: 1.0;"/><polygon fill="none" points="56,76.04,63,56.04,70,76.04,56,76.04" style="stroke: #A80036; stroke-width: 1.0;"/><!--MD5=[9971f71e28d2ee93b9df424a3fc66dbf]
link Light to Colour--><path d="M63,177.06 C63,193.93 63,214.98 63,231.65 " fill="none" id="Light-&gt;Colour" style="stroke: #A80036; stroke-width: 1.0;"/><polygon fill="#A80036" points="63,236.67,67,227.67,63,231.67,59,227.67,63,236.67" style="stroke: #A80036; stroke-width: 1.0;"/><text fill="#000000" font-family="sans-serif" font-size="13" lengthAdjust="spacingAndGlyphs" textLength="39" x="19.2469" y="225.9945">colour</text><!--MD5=[3c17a68194c20cb20d6338bb5c6f4acf]
@startuml
class Light {
    + Light(_c:Colour)
}
GameObject <|- - Light
Light - -> "colour" Colour
@enduml

PlantUML version 1.2020.02(Sun Mar 01 10:22:07 GMT 2020)
(GPL source distribution)
Java Runtime: OpenJDK Runtime Environment
JVM: OpenJDK 64-Bit Server VM
Java Version: 11.0.9+11-Ubuntu-0ubuntu1
Operating System: Linux
Default Encoding: ANSI_X3.4-1968
Language: en
Country: US
--></g></svg>