<?xml version="1.0" encoding="UTF-8" standalone="no"?><svg xmlns="http://www.w3.org/2000/svg" xmlns:xlink="http://www.w3.org/1999/xlink" contentScriptType="application/ecmascript" contentStyleType="text/css" height="97px" preserveAspectRatio="none" style="width:350px;height:97px;" version="1.1" viewBox="0 0 350 97" width="350px" zoomAndPan="magnify"><defs><filter height="300%" id="fqng2frgurv0c" width="300%" x="-1" y="-1"><feGaussianBlur result="blurOut" stdDeviation="2.0"/><feColorMatrix in="blurOut" result="blurOut2" type="matrix" values="0 0 0 0 0 0 0 0 0 0 0 0 0 0 0 0 0 0 .4 0"/><feOffset dx="4.0" dy="4.0" in="blurOut2" result="blurOut3"/><feBlend in="SourceGraphic" in2="blurOut3" mode="normal"/></filter></defs><g><!--MD5=[2e12b2b3b8eab67686082571a3f73aac]
class LightUtility--><rect fill="#FEFECE" filter="url(#fqng2frgurv0c)" height="53.9375" id="LightUtility" style="stroke: #A80036; stroke-width: 1.5;" width="96" x="6" y="13.33"/><ellipse cx="21" cy="32.2988" fill="#ADD1B2" rx="11" ry="11" style="stroke: #A80036; stroke-width: 1.0;"/><path d="M23.9688,37.9394 Q23.3906,38.2363 22.75,38.3769 Q22.1094,38.5331 21.4063,38.5331 Q18.9063,38.5331 17.5781,36.8925 Q16.2656,35.2363 16.2656,32.1113 Q16.2656,28.9863 17.5781,27.33 Q18.9063,25.6738 21.4063,25.6738 Q22.1094,25.6738 22.75,25.83 Q23.4063,25.9863 23.9688,26.2831 L23.9688,29.0019 Q23.3438,28.4238 22.75,28.1581 Q22.1563,27.8769 21.5313,27.8769 Q20.1875,27.8769 19.5,28.955 Q18.8125,30.0175 18.8125,32.1113 Q18.8125,34.205 19.5,35.2831 Q20.1875,36.3456 21.5313,36.3456 Q22.1563,36.3456 22.75,36.08 Q23.3438,35.7988 23.9688,35.2206 L23.9688,37.9394 Z "/><text fill="#000000" font-family="sans-serif" font-size="12" font-style="italic" lengthAdjust="spacingAndGlyphs" textLength="48" x="43" y="29.4687">«static»</text><text fill="#000000" font-family="sans-serif" font-size="12" lengthAdjust="spacingAndGlyphs" textLength="64" x="35" y="43.4374">LightUtility</text><line style="stroke: #A80036; stroke-width: 1.5;" x1="7" x2="101" y1="51.2675" y2="51.2675"/><line style="stroke: #A80036; stroke-width: 1.5;" x1="7" x2="101" y1="59.2675" y2="59.2675"/><!--MD5=[e644022de7dea015dd09463c37421447]
class List`1--><rect fill="#FEFECE" filter="url(#fqng2frgurv0c)" height="48" id="List`1" style="stroke: #A80036; stroke-width: 1.5;" width="78" x="137" y="16.33"/><ellipse cx="152" cy="32.33" fill="#ADD1B2" rx="11" ry="11" style="stroke: #A80036; stroke-width: 1.0;"/><path d="M154.9688,37.9706 Q154.3906,38.2675 153.75,38.4081 Q153.1094,38.5644 152.4063,38.5644 Q149.9063,38.5644 148.5781,36.9238 Q147.2656,35.2675 147.2656,32.1425 Q147.2656,29.0175 148.5781,27.3613 Q149.9063,25.705 152.4063,25.705 Q153.1094,25.705 153.75,25.8613 Q154.4063,26.0175 154.9688,26.3144 L154.9688,29.0331 Q154.3438,28.455 153.75,28.1894 Q153.1563,27.9081 152.5313,27.9081 Q151.1875,27.9081 150.5,28.9863 Q149.8125,30.0488 149.8125,32.1425 Q149.8125,34.2363 150.5,35.3144 Q151.1875,36.3769 152.5313,36.3769 Q153.1563,36.3769 153.75,36.1113 Q154.3438,35.83 154.9688,35.2519 L154.9688,37.9706 Z "/><text fill="#000000" font-family="sans-serif" font-size="12" lengthAdjust="spacingAndGlyphs" textLength="35" x="166" y="36.4843">List`1</text><rect fill="#FFFFFF" height="15.9688" style="stroke: #000000; stroke-width: 1.0; stroke-dasharray: 2.0,2.0;" width="9" x="209" y="13.33"/><text fill="#000000" font-family="sans-serif" font-size="12" font-style="italic" lengthAdjust="spacingAndGlyphs" textLength="7" x="210" y="25.4687">T</text><line style="stroke: #A80036; stroke-width: 1.5;" x1="138" x2="214" y1="48.33" y2="48.33"/><line style="stroke: #A80036; stroke-width: 1.5;" x1="138" x2="214" y1="56.33" y2="56.33"/><!--MD5=[be680e6c894af7407077e7ca3b273444]
link LightUtility to List`1--><path d="M114.1012,60.5115 C114.1012,60.5115 120.98,60.43 123.91,60.14 " fill="none" id="LightUtility-List`1" style="stroke: #A80036; stroke-width: 1.0;"/><polygon fill="#A80036" points="136.76,58,127.2266,55.5271,131.8274,58.8184,128.5361,63.4192,136.76,58" style="stroke: #A80036; stroke-width: 1.0;"/><line style="stroke: #A80036; stroke-width: 1.0;" x1="131.8274" x2="123.935" y1="58.8184" y2="60.14"/><polygon fill="#FFFFFF" points="102.13,59.68,107.8384,64.0861,114.1012,60.5115,108.3927,56.1054,102.13,59.68" style="stroke: #A80036; stroke-width: 1.0;"/><text fill="#000000" font-family="sans-serif" font-size="13" lengthAdjust="spacingAndGlyphs" textLength="175" x="163.9063" y="84.2624">dirLights&lt;DirectionalLight&gt;</text><!--MD5=[be680e6c894af7407077e7ca3b273444]
link LightUtility to List`1--><path d="M114.1012,20.1494 C114.1012,20.1494 120.98,20.22 123.91,20.51 " fill="none" id="LightUtility-List`1-1" style="stroke: #A80036; stroke-width: 1.0;"/><polygon fill="#A80036" points="136.76,22.65,128.5361,17.2308,131.8274,21.8316,127.2266,25.1229,136.76,22.65" style="stroke: #A80036; stroke-width: 1.0;"/><line style="stroke: #A80036; stroke-width: 1.0;" x1="131.8274" x2="123.935" y1="21.8316" y2="20.51"/><polygon fill="#FFFFFF" points="102.13,20.98,108.3925,24.5551,114.1012,20.1494,107.8387,16.5743,102.13,20.98" style="stroke: #A80036; stroke-width: 1.0;"/><text fill="#000000" font-family="sans-serif" font-size="13" lengthAdjust="spacingAndGlyphs" textLength="155" x="159.2378" y="4.9627">pointLights&lt;PointLight&gt;</text><!--MD5=[e7d00f350af7a972a8db207f4c8d4611]
@startuml
class LightUtility <<static>> {
}
class "List`1"<T> {
}
LightUtility o-> "dirLights<DirectionalLight>" "List`1"
LightUtility o-> "pointLights<PointLight>" "List`1"
@enduml

PlantUML version 1.2020.02(Sun Mar 01 10:22:07 GMT 2020)
(GPL source distribution)
Java Runtime: OpenJDK Runtime Environment
JVM: OpenJDK 64-Bit Server VM
Java Version: 11.0.9+11-Ubuntu-0ubuntu1
Operating System: Linux
Default Encoding: ANSI_X3.4-1968
Language: en
Country: US
--></g></svg>