<?xml version="1.0" encoding="UTF-8" standalone="no"?><svg xmlns="http://www.w3.org/2000/svg" xmlns:xlink="http://www.w3.org/1999/xlink" contentScriptType="application/ecmascript" contentStyleType="text/css" height="239px" preserveAspectRatio="none" style="width:235px;height:239px;" version="1.1" viewBox="0 0 235 239" width="235px" zoomAndPan="magnify"><defs><filter height="300%" id="f1h8qlyyxhhysq" width="300%" x="-1" y="-1"><feGaussianBlur result="blurOut" stdDeviation="2.0"/><feColorMatrix in="blurOut" result="blurOut2" type="matrix" values="0 0 0 0 0 0 0 0 0 0 0 0 0 0 0 0 0 0 .4 0"/><feOffset dx="4.0" dy="4.0" in="blurOut2" result="blurOut3"/><feBlend in="SourceGraphic" in2="blurOut3" mode="normal"/></filter></defs><g><!--MD5=[9ddddfdf7e7c285a25b0b054c421c25d]
class PointLight--><rect fill="#FEFECE" filter="url(#f1h8qlyyxhhysq)" height="112.0234" id="PointLight" style="stroke: #A80036; stroke-width: 1.5;" width="218" x="6" y="116"/><ellipse cx="79.75" cy="132" fill="#ADD1B2" rx="11" ry="11" style="stroke: #A80036; stroke-width: 1.0;"/><path d="M82.7188,137.6406 Q82.1406,137.9375 81.5,138.0781 Q80.8594,138.2344 80.1563,138.2344 Q77.6563,138.2344 76.3281,136.5938 Q75.0156,134.9375 75.0156,131.8125 Q75.0156,128.6875 76.3281,127.0313 Q77.6563,125.375 80.1563,125.375 Q80.8594,125.375 81.5,125.5313 Q82.1563,125.6875 82.7188,125.9844 L82.7188,128.7031 Q82.0938,128.125 81.5,127.8594 Q80.9063,127.5781 80.2813,127.5781 Q78.9375,127.5781 78.25,128.6563 Q77.5625,129.7188 77.5625,131.8125 Q77.5625,133.9063 78.25,134.9844 Q78.9375,136.0469 80.2813,136.0469 Q80.9063,136.0469 81.5,135.7813 Q82.0938,135.5 82.7188,134.9219 L82.7188,137.6406 Z "/><text fill="#000000" font-family="sans-serif" font-size="12" lengthAdjust="spacingAndGlyphs" textLength="62" x="100.25" y="136.1543">PointLight</text><line style="stroke: #A80036; stroke-width: 1.5;" x1="7" x2="223" y1="148" y2="148"/><ellipse cx="17" cy="159" fill="none" rx="3" ry="3" style="stroke: #038048; stroke-width: 1.0;"/><text fill="#000000" font-family="sans-serif" font-size="11" lengthAdjust="spacingAndGlyphs" textLength="142" x="26" y="162.2104">range : float «get» «set»</text><ellipse cx="17" cy="171.8047" fill="none" rx="3" ry="3" style="stroke: #038048; stroke-width: 1.0;"/><text fill="#000000" font-family="sans-serif" font-size="11" lengthAdjust="spacingAndGlyphs" textLength="150" x="26" y="175.0151">constantAttenuation : float</text><ellipse cx="17" cy="184.6094" fill="none" rx="3" ry="3" style="stroke: #038048; stroke-width: 1.0;"/><text fill="#000000" font-family="sans-serif" font-size="11" lengthAdjust="spacingAndGlyphs" textLength="133" x="26" y="187.8198">linearAttenuation : float</text><ellipse cx="17" cy="197.4141" fill="none" rx="3" ry="3" style="stroke: #038048; stroke-width: 1.0;"/><text fill="#000000" font-family="sans-serif" font-size="11" lengthAdjust="spacingAndGlyphs" textLength="154" x="26" y="200.6245">quadraticAttenuation : float</text><line style="stroke: #A80036; stroke-width: 1.5;" x1="7" x2="223" y1="207.2188" y2="207.2188"/><ellipse cx="17" cy="218.2188" fill="#84BE84" rx="3" ry="3" style="stroke: #038048; stroke-width: 1.0;"/><text fill="#000000" font-family="sans-serif" font-size="11" lengthAdjust="spacingAndGlyphs" textLength="192" x="26" y="221.4292">PointLight(_c:Colour, _range:float)</text><!--MD5=[7c1a0278dec21c72584b17e1785fd623]
class Light--><rect fill="#FEFECE" filter="url(#f1h8qlyyxhhysq)" height="48" id="Light" style="stroke: #A80036; stroke-width: 1.5;" width="62" x="84" y="8"/><ellipse cx="99" cy="24" fill="#ADD1B2" rx="11" ry="11" style="stroke: #A80036; stroke-width: 1.0;"/><path d="M101.9688,29.6406 Q101.3906,29.9375 100.75,30.0781 Q100.1094,30.2344 99.4063,30.2344 Q96.9063,30.2344 95.5781,28.5938 Q94.2656,26.9375 94.2656,23.8125 Q94.2656,20.6875 95.5781,19.0313 Q96.9063,17.375 99.4063,17.375 Q100.1094,17.375 100.75,17.5313 Q101.4063,17.6875 101.9688,17.9844 L101.9688,20.7031 Q101.3438,20.125 100.75,19.8594 Q100.1563,19.5781 99.5313,19.5781 Q98.1875,19.5781 97.5,20.6563 Q96.8125,21.7188 96.8125,23.8125 Q96.8125,25.9063 97.5,26.9844 Q98.1875,28.0469 99.5313,28.0469 Q100.1563,28.0469 100.75,27.7813 Q101.3438,27.5 101.9688,26.9219 L101.9688,29.6406 Z "/><text fill="#000000" font-family="sans-serif" font-size="12" lengthAdjust="spacingAndGlyphs" textLength="30" x="113" y="28.1543">Light</text><line style="stroke: #A80036; stroke-width: 1.5;" x1="85" x2="145" y1="40" y2="40"/><line style="stroke: #A80036; stroke-width: 1.5;" x1="85" x2="145" y1="48" y2="48"/><!--MD5=[0ba801dc2877fdafe18a26dfba0c65ee]
reverse link Light to PointLight--><path d="M115,76.25 C115,88.82 115,102.73 115,115.93 " fill="none" id="Light&lt;-PointLight" style="stroke: #A80036; stroke-width: 1.0;"/><polygon fill="none" points="108,76.1,115,56.1,122,76.1,108,76.1" style="stroke: #A80036; stroke-width: 1.0;"/><!--MD5=[410a0484f41ffe37b34f973651e78a2e]
@startuml
class PointLight {
    + range : float <<get>> <<set>>
    + constantAttenuation : float
    + linearAttenuation : float
    + quadraticAttenuation : float
    + PointLight(_c:Colour, _range:float)
}
Light <|- - PointLight
@enduml

PlantUML version 1.2020.02(Sun Mar 01 10:22:07 GMT 2020)
(GPL source distribution)
Java Runtime: OpenJDK Runtime Environment
JVM: OpenJDK 64-Bit Server VM
Java Version: 11.0.9+11-Ubuntu-0ubuntu1
Operating System: Linux
Default Encoding: ANSI_X3.4-1968
Language: en
Country: US
--></g></svg>