<?xml version="1.0" encoding="UTF-8" standalone="no"?><svg xmlns="http://www.w3.org/2000/svg" xmlns:xlink="http://www.w3.org/1999/xlink" contentScriptType="application/ecmascript" contentStyleType="text/css" height="239px" preserveAspectRatio="none" style="width:264px;height:239px;" version="1.1" viewBox="0 0 264 239" width="264px" zoomAndPan="magnify"><defs><filter height="300%" id="f111jjilq1falt" width="300%" x="-1" y="-1"><feGaussianBlur result="blurOut" stdDeviation="2.0"/><feColorMatrix in="blurOut" result="blurOut2" type="matrix" values="0 0 0 0 0 0 0 0 0 0 0 0 0 0 0 0 0 0 .4 0"/><feOffset dx="4.0" dy="4.0" in="blurOut2" result="blurOut3"/><feBlend in="SourceGraphic" in2="blurOut3" mode="normal"/></filter></defs><g><!--MD5=[9ddddfdf7e7c285a25b0b054c421c25d]
class PointLight--><rect fill="#FEFECE" filter="url(#f111jjilq1falt)" height="112.0234" id="PointLight" style="stroke: #A80036; stroke-width: 1.5;" width="247" x="6" y="116"/><ellipse cx="94.25" cy="132" fill="#ADD1B2" rx="11" ry="11" style="stroke: #A80036; stroke-width: 1.0;"/><path d="M97.2188,137.6406 Q96.6406,137.9375 96,138.0781 Q95.3594,138.2344 94.6563,138.2344 Q92.1563,138.2344 90.8281,136.5938 Q89.5156,134.9375 89.5156,131.8125 Q89.5156,128.6875 90.8281,127.0313 Q92.1563,125.375 94.6563,125.375 Q95.3594,125.375 96,125.5313 Q96.6563,125.6875 97.2188,125.9844 L97.2188,128.7031 Q96.5938,128.125 96,127.8594 Q95.4063,127.5781 94.7813,127.5781 Q93.4375,127.5781 92.75,128.6563 Q92.0625,129.7188 92.0625,131.8125 Q92.0625,133.9063 92.75,134.9844 Q93.4375,136.0469 94.7813,136.0469 Q95.4063,136.0469 96,135.7813 Q96.5938,135.5 97.2188,134.9219 L97.2188,137.6406 Z "/><text fill="#000000" font-family="sans-serif" font-size="12" lengthAdjust="spacingAndGlyphs" textLength="62" x="114.75" y="136.1543">PointLight</text><line style="stroke: #A80036; stroke-width: 1.5;" x1="7" x2="252" y1="148" y2="148"/><ellipse cx="17" cy="159" fill="none" rx="3" ry="3" style="stroke: #038048; stroke-width: 1.0;"/><text fill="#000000" font-family="sans-serif" font-size="11" lengthAdjust="spacingAndGlyphs" textLength="142" x="26" y="162.2104">range : float «get» «set»</text><ellipse cx="17" cy="171.8047" fill="none" rx="3" ry="3" style="stroke: #038048; stroke-width: 1.0;"/><text fill="#000000" font-family="sans-serif" font-size="11" lengthAdjust="spacingAndGlyphs" textLength="150" x="26" y="175.0151">constantAttenuation : float</text><ellipse cx="17" cy="184.6094" fill="none" rx="3" ry="3" style="stroke: #038048; stroke-width: 1.0;"/><text fill="#000000" font-family="sans-serif" font-size="11" lengthAdjust="spacingAndGlyphs" textLength="133" x="26" y="187.8198">linearAttenuation : float</text><ellipse cx="17" cy="197.4141" fill="none" rx="3" ry="3" style="stroke: #038048; stroke-width: 1.0;"/><text fill="#000000" font-family="sans-serif" font-size="11" lengthAdjust="spacingAndGlyphs" textLength="154" x="26" y="200.6245">quadraticAttenuation : float</text><line style="stroke: #A80036; stroke-width: 1.5;" x1="7" x2="252" y1="207.2188" y2="207.2188"/><ellipse cx="17" cy="218.2188" fill="#84BE84" rx="3" ry="3" style="stroke: #038048; stroke-width: 1.0;"/><text fill="#000000" font-family="sans-serif" font-size="11" lengthAdjust="spacingAndGlyphs" textLength="221" x="26" y="221.4292">PointLight(_colour:Colour, _range:float)</text><!--MD5=[7c1a0278dec21c72584b17e1785fd623]
class Light--><rect fill="#FEFECE" filter="url(#f111jjilq1falt)" height="48" id="Light" style="stroke: #A80036; stroke-width: 1.5;" width="62" x="98.5" y="8"/><ellipse cx="113.5" cy="24" fill="#ADD1B2" rx="11" ry="11" style="stroke: #A80036; stroke-width: 1.0;"/><path d="M116.4688,29.6406 Q115.8906,29.9375 115.25,30.0781 Q114.6094,30.2344 113.9063,30.2344 Q111.4063,30.2344 110.0781,28.5938 Q108.7656,26.9375 108.7656,23.8125 Q108.7656,20.6875 110.0781,19.0313 Q111.4063,17.375 113.9063,17.375 Q114.6094,17.375 115.25,17.5313 Q115.9063,17.6875 116.4688,17.9844 L116.4688,20.7031 Q115.8438,20.125 115.25,19.8594 Q114.6563,19.5781 114.0313,19.5781 Q112.6875,19.5781 112,20.6563 Q111.3125,21.7188 111.3125,23.8125 Q111.3125,25.9063 112,26.9844 Q112.6875,28.0469 114.0313,28.0469 Q114.6563,28.0469 115.25,27.7813 Q115.8438,27.5 116.4688,26.9219 L116.4688,29.6406 Z "/><text fill="#000000" font-family="sans-serif" font-size="12" lengthAdjust="spacingAndGlyphs" textLength="30" x="127.5" y="28.1543">Light</text><line style="stroke: #A80036; stroke-width: 1.5;" x1="99.5" x2="159.5" y1="40" y2="40"/><line style="stroke: #A80036; stroke-width: 1.5;" x1="99.5" x2="159.5" y1="48" y2="48"/><!--MD5=[0ba801dc2877fdafe18a26dfba0c65ee]
reverse link Light to PointLight--><path d="M129.5,76.25 C129.5,88.82 129.5,102.73 129.5,115.93 " fill="none" id="Light&lt;-PointLight" style="stroke: #A80036; stroke-width: 1.0;"/><polygon fill="none" points="122.5,76.1,129.5,56.1,136.5,76.1,122.5,76.1" style="stroke: #A80036; stroke-width: 1.0;"/><!--MD5=[d91f75836a88ebcf115ef4f7f7b152c3]
@startuml
class PointLight {
    + range : float <<get>> <<set>>
    + constantAttenuation : float
    + linearAttenuation : float
    + quadraticAttenuation : float
    + PointLight(_colour:Colour, _range:float)
}
Light <|- - PointLight
@enduml

PlantUML version 1.2020.02(Sun Mar 01 10:22:07 GMT 2020)
(GPL source distribution)
Java Runtime: OpenJDK Runtime Environment
JVM: OpenJDK 64-Bit Server VM
Java Version: 11.0.9+11-Ubuntu-0ubuntu1
Operating System: Linux
Default Encoding: ANSI_X3.4-1968
Language: en
Country: US
--></g></svg>