<?xml version="1.0" encoding="UTF-8" standalone="no"?><svg xmlns="http://www.w3.org/2000/svg" xmlns:xlink="http://www.w3.org/1999/xlink" contentScriptType="application/ecmascript" contentStyleType="text/css" height="174px" preserveAspectRatio="none" style="width:321px;height:174px;" version="1.1" viewBox="0 0 321 174" width="321px" zoomAndPan="magnify"><defs><filter height="300%" id="fdll89v9byh0f" width="300%" x="-1" y="-1"><feGaussianBlur result="blurOut" stdDeviation="2.0"/><feColorMatrix in="blurOut" result="blurOut2" type="matrix" values="0 0 0 0 0 0 0 0 0 0 0 0 0 0 0 0 0 0 .4 0"/><feOffset dx="4.0" dy="4.0" in="blurOut2" result="blurOut3"/><feBlend in="SourceGraphic" in2="blurOut3" mode="normal"/></filter></defs><g><!--MD5=[cd4556f80f324df0babf50840a487f61]
class Math--><rect fill="#FEFECE" filter="url(#fdll89v9byh0f)" height="156.375" id="Math" style="stroke: #A80036; stroke-width: 1.5;" width="303" x="7" y="7"/><ellipse cx="132.25" cy="25.9688" fill="#ADD1B2" rx="11" ry="11" style="stroke: #A80036; stroke-width: 1.0;"/><path d="M135.2188,31.6094 Q134.6406,31.9063 134,32.0469 Q133.3594,32.2031 132.6563,32.2031 Q130.1563,32.2031 128.8281,30.5625 Q127.5156,28.9063 127.5156,25.7813 Q127.5156,22.6563 128.8281,21 Q130.1563,19.3438 132.6563,19.3438 Q133.3594,19.3438 134,19.5 Q134.6563,19.6563 135.2188,19.9531 L135.2188,22.6719 Q134.5938,22.0938 134,21.8281 Q133.4063,21.5469 132.7813,21.5469 Q131.4375,21.5469 130.75,22.625 Q130.0625,23.6875 130.0625,25.7813 Q130.0625,27.875 130.75,28.9531 Q131.4375,30.0156 132.7813,30.0156 Q133.4063,30.0156 134,29.75 Q134.5938,29.4688 135.2188,28.8906 L135.2188,31.6094 Z "/><text fill="#000000" font-family="sans-serif" font-size="12" font-style="italic" lengthAdjust="spacingAndGlyphs" textLength="48" x="150.75" y="23.1387">«static»</text><text fill="#000000" font-family="sans-serif" font-size="12" lengthAdjust="spacingAndGlyphs" textLength="31" x="159.25" y="37.1074">Math</text><line style="stroke: #A80036; stroke-width: 1.5;" x1="8" x2="309" y1="44.9375" y2="44.9375"/><ellipse cx="18" cy="55.9375" fill="none" rx="3" ry="3" style="stroke: #038048; stroke-width: 1.0;"/><text fill="#000000" font-family="sans-serif" font-size="11" lengthAdjust="spacingAndGlyphs" textLength="127" x="27" y="59.1479">«const» epsilon : float</text><ellipse cx="18" cy="68.7422" fill="none" rx="3" ry="3" style="stroke: #038048; stroke-width: 1.0;"/><text fill="#000000" font-family="sans-serif" font-size="11" lengthAdjust="spacingAndGlyphs" text-decoration="underline" textLength="123" x="27" y="71.9526">Deg2Rad : float «get»</text><ellipse cx="18" cy="81.5469" fill="none" rx="3" ry="3" style="stroke: #038048; stroke-width: 1.0;"/><text fill="#000000" font-family="sans-serif" font-size="11" lengthAdjust="spacingAndGlyphs" text-decoration="underline" textLength="123" x="27" y="84.7573">Rad2Deg : float «get»</text><line style="stroke: #A80036; stroke-width: 1.5;" x1="8" x2="309" y1="91.3516" y2="91.3516"/><ellipse cx="18" cy="102.3516" fill="#84BE84" rx="3" ry="3" style="stroke: #038048; stroke-width: 1.0;"/><text fill="#000000" font-family="sans-serif" font-size="11" lengthAdjust="spacingAndGlyphs" text-decoration="underline" textLength="277" x="27" y="105.562">Clamp(_value:float, _min:float, _max:float) : float</text><ellipse cx="18" cy="115.1563" fill="#84BE84" rx="3" ry="3" style="stroke: #038048; stroke-width: 1.0;"/><text fill="#000000" font-family="sans-serif" font-size="11" lengthAdjust="spacingAndGlyphs" text-decoration="underline" textLength="233" x="27" y="118.3667">Clamp(_value:int, _min:int, _max:int) : int</text><ellipse cx="18" cy="127.9609" fill="#84BE84" rx="3" ry="3" style="stroke: #038048; stroke-width: 1.0;"/><text fill="#000000" font-family="sans-serif" font-size="11" lengthAdjust="spacingAndGlyphs" text-decoration="underline" textLength="160" x="27" y="131.1714">Clamp01(_value:float) : float</text><ellipse cx="18" cy="140.7656" fill="#84BE84" rx="3" ry="3" style="stroke: #038048; stroke-width: 1.0;"/><text fill="#000000" font-family="sans-serif" font-size="11" lengthAdjust="spacingAndGlyphs" text-decoration="underline" textLength="209" x="27" y="143.9761">Lerp(_a:float, _b:float, _t:float) : float</text><ellipse cx="18" cy="153.5703" fill="#84BE84" rx="3" ry="3" style="stroke: #038048; stroke-width: 1.0;"/><text fill="#000000" font-family="sans-serif" font-size="11" lengthAdjust="spacingAndGlyphs" text-decoration="underline" textLength="272" x="27" y="156.7808">LerpUnclamped(_a:float, _b:float, _t:float) : float</text><!--MD5=[0d363c4fc54e4b2daed5e095aeb7bf10]
@startuml
class Math <<static>> {
    + <<const>> epsilon : float
    + {static} Deg2Rad : float <<get>>
    + {static} Rad2Deg : float <<get>>
    + {static} Clamp(_value:float, _min:float, _max:float) : float
    + {static} Clamp(_value:int, _min:int, _max:int) : int
    + {static} Clamp01(_value:float) : float
    + {static} Lerp(_a:float, _b:float, _t:float) : float
    + {static} LerpUnclamped(_a:float, _b:float, _t:float) : float
}
@enduml

PlantUML version 1.2020.02(Sun Mar 01 10:22:07 GMT 2020)
(GPL source distribution)
Java Runtime: OpenJDK Runtime Environment
JVM: OpenJDK 64-Bit Server VM
Java Version: 11.0.9+11-Ubuntu-0ubuntu1
Operating System: Linux
Default Encoding: ANSI_X3.4-1968
Language: en
Country: US
--></g></svg>