<?xml version="1.0" encoding="UTF-8" standalone="no"?><svg xmlns="http://www.w3.org/2000/svg" xmlns:xlink="http://www.w3.org/1999/xlink" contentScriptType="application/ecmascript" contentStyleType="text/css" height="590px" preserveAspectRatio="none" style="width:1361px;height:590px;" version="1.1" viewBox="0 0 1361 590" width="1361px" zoomAndPan="magnify"><defs><filter height="300%" id="f1nmq86zen74j0" width="300%" x="-1" y="-1"><feGaussianBlur result="blurOut" stdDeviation="2.0"/><feColorMatrix in="blurOut" result="blurOut2" type="matrix" values="0 0 0 0 0 0 0 0 0 0 0 0 0 0 0 0 0 0 .4 0"/><feOffset dx="4.0" dy="4.0" in="blurOut2" result="blurOut3"/><feBlend in="SourceGraphic" in2="blurOut3" mode="normal"/></filter></defs><g><!--MD5=[95c6488d7c6702441d244c7706a4cd5e]
class Matrix4x4--><rect fill="#FEFECE" filter="url(#f1nmq86zen74j0)" height="463.6875" id="Matrix4x4" style="stroke: #A80036; stroke-width: 1.5;" width="1168" x="6" y="116"/><ellipse cx="556.25" cy="134.9688" fill="#ADD1B2" rx="11" ry="11" style="stroke: #A80036; stroke-width: 1.0;"/><path d="M559.2188,140.6094 Q558.6406,140.9063 558,141.0469 Q557.3594,141.2031 556.6563,141.2031 Q554.1563,141.2031 552.8281,139.5625 Q551.5156,137.9063 551.5156,134.7813 Q551.5156,131.6563 552.8281,130 Q554.1563,128.3438 556.6563,128.3438 Q557.3594,128.3438 558,128.5 Q558.6563,128.6563 559.2188,128.9531 L559.2188,131.6719 Q558.5938,131.0938 558,130.8281 Q557.4063,130.5469 556.7813,130.5469 Q555.4375,130.5469 554.75,131.625 Q554.0625,132.6875 554.0625,134.7813 Q554.0625,136.875 554.75,137.9531 Q555.4375,139.0156 556.7813,139.0156 Q557.4063,139.0156 558,138.75 Q558.5938,138.4688 559.2188,137.8906 L559.2188,140.6094 Z "/><text fill="#000000" font-family="sans-serif" font-size="12" font-style="italic" lengthAdjust="spacingAndGlyphs" textLength="50" x="581.25" y="132.1387">«struct»</text><text fill="#000000" font-family="sans-serif" font-size="12" lengthAdjust="spacingAndGlyphs" textLength="59" x="576.75" y="146.1074">Matrix4x4</text><line style="stroke: #A80036; stroke-width: 1.5;" x1="7" x2="1173" y1="153.9375" y2="153.9375"/><ellipse cx="17" cy="164.9375" fill="none" rx="3" ry="3" style="stroke: #038048; stroke-width: 1.0;"/><text fill="#000000" font-family="sans-serif" font-size="11" lengthAdjust="spacingAndGlyphs" textLength="62" x="26" y="168.1479">m00 : float</text><ellipse cx="17" cy="177.7422" fill="none" rx="3" ry="3" style="stroke: #038048; stroke-width: 1.0;"/><text fill="#000000" font-family="sans-serif" font-size="11" lengthAdjust="spacingAndGlyphs" textLength="62" x="26" y="180.9526">m01 : float</text><ellipse cx="17" cy="190.5469" fill="none" rx="3" ry="3" style="stroke: #038048; stroke-width: 1.0;"/><text fill="#000000" font-family="sans-serif" font-size="11" lengthAdjust="spacingAndGlyphs" textLength="62" x="26" y="193.7573">m02 : float</text><ellipse cx="17" cy="203.3516" fill="none" rx="3" ry="3" style="stroke: #038048; stroke-width: 1.0;"/><text fill="#000000" font-family="sans-serif" font-size="11" lengthAdjust="spacingAndGlyphs" textLength="62" x="26" y="206.562">m03 : float</text><ellipse cx="17" cy="216.1563" fill="none" rx="3" ry="3" style="stroke: #038048; stroke-width: 1.0;"/><text fill="#000000" font-family="sans-serif" font-size="11" lengthAdjust="spacingAndGlyphs" textLength="62" x="26" y="219.3667">m10 : float</text><ellipse cx="17" cy="228.9609" fill="none" rx="3" ry="3" style="stroke: #038048; stroke-width: 1.0;"/><text fill="#000000" font-family="sans-serif" font-size="11" lengthAdjust="spacingAndGlyphs" textLength="62" x="26" y="232.1714">m11 : float</text><ellipse cx="17" cy="241.7656" fill="none" rx="3" ry="3" style="stroke: #038048; stroke-width: 1.0;"/><text fill="#000000" font-family="sans-serif" font-size="11" lengthAdjust="spacingAndGlyphs" textLength="62" x="26" y="244.9761">m12 : float</text><ellipse cx="17" cy="254.5703" fill="none" rx="3" ry="3" style="stroke: #038048; stroke-width: 1.0;"/><text fill="#000000" font-family="sans-serif" font-size="11" lengthAdjust="spacingAndGlyphs" textLength="62" x="26" y="257.7808">m13 : float</text><ellipse cx="17" cy="267.375" fill="none" rx="3" ry="3" style="stroke: #038048; stroke-width: 1.0;"/><text fill="#000000" font-family="sans-serif" font-size="11" lengthAdjust="spacingAndGlyphs" textLength="62" x="26" y="270.5854">m20 : float</text><ellipse cx="17" cy="280.1797" fill="none" rx="3" ry="3" style="stroke: #038048; stroke-width: 1.0;"/><text fill="#000000" font-family="sans-serif" font-size="11" lengthAdjust="spacingAndGlyphs" textLength="62" x="26" y="283.3901">m21 : float</text><ellipse cx="17" cy="292.9844" fill="none" rx="3" ry="3" style="stroke: #038048; stroke-width: 1.0;"/><text fill="#000000" font-family="sans-serif" font-size="11" lengthAdjust="spacingAndGlyphs" textLength="62" x="26" y="296.1948">m22 : float</text><ellipse cx="17" cy="305.7891" fill="none" rx="3" ry="3" style="stroke: #038048; stroke-width: 1.0;"/><text fill="#000000" font-family="sans-serif" font-size="11" lengthAdjust="spacingAndGlyphs" textLength="62" x="26" y="308.9995">m23 : float</text><ellipse cx="17" cy="318.5938" fill="none" rx="3" ry="3" style="stroke: #038048; stroke-width: 1.0;"/><text fill="#000000" font-family="sans-serif" font-size="11" lengthAdjust="spacingAndGlyphs" textLength="62" x="26" y="321.8042">m30 : float</text><ellipse cx="17" cy="331.3984" fill="none" rx="3" ry="3" style="stroke: #038048; stroke-width: 1.0;"/><text fill="#000000" font-family="sans-serif" font-size="11" lengthAdjust="spacingAndGlyphs" textLength="62" x="26" y="334.6089">m31 : float</text><ellipse cx="17" cy="344.2031" fill="none" rx="3" ry="3" style="stroke: #038048; stroke-width: 1.0;"/><text fill="#000000" font-family="sans-serif" font-size="11" lengthAdjust="spacingAndGlyphs" textLength="62" x="26" y="347.4136">m32 : float</text><ellipse cx="17" cy="357.0078" fill="none" rx="3" ry="3" style="stroke: #038048; stroke-width: 1.0;"/><text fill="#000000" font-family="sans-serif" font-size="11" lengthAdjust="spacingAndGlyphs" textLength="62" x="26" y="360.2183">m33 : float</text><ellipse cx="17" cy="369.8125" fill="none" rx="3" ry="3" style="stroke: #038048; stroke-width: 1.0;"/><text fill="#000000" font-family="sans-serif" font-size="11" lengthAdjust="spacingAndGlyphs" textLength="142" x="26" y="373.0229">determinant : float «get»</text><line style="stroke: #A80036; stroke-width: 1.5;" x1="7" x2="1173" y1="379.6172" y2="379.6172"/><ellipse cx="17" cy="390.6172" fill="#84BE84" rx="3" ry="3" style="stroke: #038048; stroke-width: 1.0;"/><text fill="#000000" font-family="sans-serif" font-size="11" lengthAdjust="spacingAndGlyphs" textLength="62" x="26" y="393.8276">Matrix4x4()</text><ellipse cx="17" cy="403.4219" fill="#84BE84" rx="3" ry="3" style="stroke: #038048; stroke-width: 1.0;"/><text fill="#000000" font-family="sans-serif" font-size="11" lengthAdjust="spacingAndGlyphs" textLength="145" x="26" y="406.6323">Matrix4x4(_matrix:float[,])</text><ellipse cx="17" cy="416.2266" fill="#84BE84" rx="3" ry="3" style="stroke: #038048; stroke-width: 1.0;"/><text fill="#000000" font-family="sans-serif" font-size="11" lengthAdjust="spacingAndGlyphs" textLength="1142" x="26" y="419.437">Matrix4x4(_m00:float, _m01:float, _m02:float, _m03:float, _m10:float, _m11:float, _m12:float, _m13:float, _m20:float, _m21:float, _m22:float, _m23:float, _m30:float, _m31:float, _m32:float, _m33:float)</text><ellipse cx="17" cy="429.0313" fill="#84BE84" rx="3" ry="3" style="stroke: #038048; stroke-width: 1.0;"/><text fill="#000000" font-family="sans-serif" font-size="11" lengthAdjust="spacingAndGlyphs" textLength="410" x="26" y="432.2417">Matrix4x4(_row0:Vector4, _row1:Vector4, _row2:Vector4, _row3:Vector4)</text><ellipse cx="17" cy="441.8359" fill="#84BE84" rx="3" ry="3" style="stroke: #038048; stroke-width: 1.0;"/><text fill="#000000" font-family="sans-serif" font-size="11" lengthAdjust="spacingAndGlyphs" textLength="160" x="26" y="445.0464">GetRow(_index:int) : Vector4</text><ellipse cx="17" cy="454.6406" fill="#84BE84" rx="3" ry="3" style="stroke: #038048; stroke-width: 1.0;"/><text fill="#000000" font-family="sans-serif" font-size="11" lengthAdjust="spacingAndGlyphs" textLength="180" x="26" y="457.8511">GetColumn(_index:int) : Vector4</text><ellipse cx="17" cy="467.4453" fill="#84BE84" rx="3" ry="3" style="stroke: #038048; stroke-width: 1.0;"/><text fill="#000000" font-family="sans-serif" font-size="11" lengthAdjust="spacingAndGlyphs" textLength="75" x="26" y="470.6558">Invert() : void</text><ellipse cx="17" cy="480.25" fill="#84BE84" rx="3" ry="3" style="stroke: #038048; stroke-width: 1.0;"/><text fill="#000000" font-family="sans-serif" font-size="11" lengthAdjust="spacingAndGlyphs" textLength="104" x="26" y="483.4604">Transpose() : void</text><ellipse cx="17" cy="493.0547" fill="#84BE84" rx="3" ry="3" style="stroke: #038048; stroke-width: 1.0;"/><text fill="#000000" font-family="sans-serif" font-size="11" lengthAdjust="spacingAndGlyphs" text-decoration="underline" textLength="198" x="26" y="496.2651">ScaleMatrix(_v:Vector3) : Matrix4x4</text><ellipse cx="17" cy="505.8594" fill="#84BE84" rx="3" ry="3" style="stroke: #038048; stroke-width: 1.0;"/><text fill="#000000" font-family="sans-serif" font-size="11" lengthAdjust="spacingAndGlyphs" text-decoration="underline" textLength="221" x="26" y="509.0698">TranslateMatrix(_v:Vector3) : Matrix4x4</text><ellipse cx="17" cy="518.6641" fill="#84BE84" rx="3" ry="3" style="stroke: #038048; stroke-width: 1.0;"/><text fill="#000000" font-family="sans-serif" font-size="11" lengthAdjust="spacingAndGlyphs" text-decoration="underline" textLength="224" x="26" y="521.8745">RotateMatrix(_q:Quaternion) : Matrix4x4</text><ellipse cx="17" cy="531.4688" fill="#84BE84" rx="3" ry="3" style="stroke: #038048; stroke-width: 1.0;"/><text fill="#000000" font-family="sans-serif" font-size="11" lengthAdjust="spacingAndGlyphs" textLength="177" x="26" y="534.6792">«override» GetHashCode() : int</text><ellipse cx="17" cy="544.2734" fill="#84BE84" rx="3" ry="3" style="stroke: #038048; stroke-width: 1.0;"/><text fill="#000000" font-family="sans-serif" font-size="11" lengthAdjust="spacingAndGlyphs" textLength="221" x="26" y="547.4839">«override» Equals(_other:object) : bool</text><ellipse cx="17" cy="557.0781" fill="#84BE84" rx="3" ry="3" style="stroke: #038048; stroke-width: 1.0;"/><text fill="#000000" font-family="sans-serif" font-size="11" lengthAdjust="spacingAndGlyphs" textLength="176" x="26" y="560.2886">Equals(_other:Matrix4x4) : bool</text><ellipse cx="17" cy="569.8828" fill="#84BE84" rx="3" ry="3" style="stroke: #038048; stroke-width: 1.0;"/><text fill="#000000" font-family="sans-serif" font-size="11" lengthAdjust="spacingAndGlyphs" textLength="166" x="26" y="573.0933">«override» ToString() : string</text><!--MD5=[360575ecdc123693e9e157d6e9effc89]
class IEquatable`1--><rect fill="#FEFECE" filter="url(#f1nmq86zen74j0)" height="48" id="IEquatable`1" style="stroke: #A80036; stroke-width: 1.5;" width="124" x="528" y="8"/><ellipse cx="543" cy="24" fill="#ADD1B2" rx="11" ry="11" style="stroke: #A80036; stroke-width: 1.0;"/><path d="M545.9688,29.6406 Q545.3906,29.9375 544.75,30.0781 Q544.1094,30.2344 543.4063,30.2344 Q540.9063,30.2344 539.5781,28.5938 Q538.2656,26.9375 538.2656,23.8125 Q538.2656,20.6875 539.5781,19.0313 Q540.9063,17.375 543.4063,17.375 Q544.1094,17.375 544.75,17.5313 Q545.4063,17.6875 545.9688,17.9844 L545.9688,20.7031 Q545.3438,20.125 544.75,19.8594 Q544.1563,19.5781 543.5313,19.5781 Q542.1875,19.5781 541.5,20.6563 Q540.8125,21.7188 540.8125,23.8125 Q540.8125,25.9063 541.5,26.9844 Q542.1875,28.0469 543.5313,28.0469 Q544.1563,28.0469 544.75,27.7813 Q545.3438,27.5 545.9688,26.9219 L545.9688,29.6406 Z "/><text fill="#000000" font-family="sans-serif" font-size="12" lengthAdjust="spacingAndGlyphs" textLength="81" x="557" y="28.1543">IEquatable`1</text><rect fill="#FFFFFF" height="15.9688" style="stroke: #000000; stroke-width: 1.0; stroke-dasharray: 2.0,2.0;" width="9" x="646" y="5"/><text fill="#000000" font-family="sans-serif" font-size="12" font-style="italic" lengthAdjust="spacingAndGlyphs" textLength="7" x="647" y="17.1387">T</text><line style="stroke: #A80036; stroke-width: 1.5;" x1="529" x2="651" y1="40" y2="40"/><line style="stroke: #A80036; stroke-width: 1.5;" x1="529" x2="651" y1="48" y2="48"/><!--MD5=[10ed4263808eb5c55cd4ac3392247225]
reverse link IEquatable`1 to Matrix4x4--><path d="M590,76.14 C590,87.83 590,101.34 590,115.97 " fill="none" id="IEquatable`1&lt;-Matrix4x4" style="stroke: #A80036; stroke-width: 1.0;"/><polygon fill="none" points="583,76.09,590,56.09,597,76.09,583,76.09" style="stroke: #A80036; stroke-width: 1.0;"/><text fill="#000000" font-family="sans-serif" font-size="13" lengthAdjust="spacingAndGlyphs" textLength="84" x="495.7625" y="75.8731">&lt;Matrix4x4&gt;</text><!--MD5=[8ef293bb2c95514ec82c81ee3443512e]
link Matrix4x4 to Matrix4x4--><path d="M1174.11,341.13 C1196.25,342.93 1209,345.22 1209,348 C1209,350.56 1198.16,352.71 1179.12,354.44 " fill="none" id="Matrix4x4-&gt;Matrix4x4" style="stroke: #A80036; stroke-width: 1.0;"/><polygon fill="#A80036" points="1174.11,354.87,1183.4203,358.0822,1179.0915,354.4406,1182.7332,350.1118,1174.11,354.87" style="stroke: #A80036; stroke-width: 1.0;"/><text fill="#000000" font-family="sans-serif" font-size="13" lengthAdjust="spacingAndGlyphs" textLength="46" x="1182.6475" y="351.9312">inverse</text><!--MD5=[8ef293bb2c95514ec82c81ee3443512e]
link Matrix4x4 to Matrix4x4--><path d="M1174.02,330.36 C1217.38,334.31 1244,340.19 1244,348 C1244,355.5 1219.42,361.22 1179.02,365.16 " fill="none" id="Matrix4x4-&gt;Matrix4x4-1" style="stroke: #A80036; stroke-width: 1.0;"/><polygon fill="#A80036" points="1174.02,365.64,1183.3566,368.775,1178.9978,365.1693,1182.6035,360.8105,1174.02,365.64" style="stroke: #A80036; stroke-width: 1.0;"/><text fill="#000000" font-family="sans-serif" font-size="13" lengthAdjust="spacingAndGlyphs" textLength="72" x="1182.739" y="378.0636">transposed</text><!--MD5=[8ef293bb2c95514ec82c81ee3443512e]
link Matrix4x4 to Matrix4x4--><path d="M1174.02,318.18 C1237.85,323.87 1279,333.81 1279,348 C1279,361.8 1240.07,371.58 1179.21,377.35 " fill="none" id="Matrix4x4-&gt;Matrix4x4-2" style="stroke: #A80036; stroke-width: 1.0;"/><polygon fill="#A80036" points="1174.02,377.82,1183.3476,380.9815,1178.9991,377.3635,1182.6172,373.0149,1174.02,377.82" style="stroke: #A80036; stroke-width: 1.0;"/><text fill="#000000" font-family="sans-serif" font-size="13" lengthAdjust="spacingAndGlyphs" textLength="28" x="1182.4297" y="390.4148">zero</text><!--MD5=[8ef293bb2c95514ec82c81ee3443512e]
link Matrix4x4 to Matrix4x4--><path d="M1174.11,305.37 C1257.77,312.22 1314,326.43 1314,348 C1314,369.11 1260.16,383.17 1179.46,390.17 " fill="none" id="Matrix4x4-&gt;Matrix4x4-3" style="stroke: #A80036; stroke-width: 1.0;"/><polygon fill="#A80036" points="1174.11,390.63,1183.4195,393.8445,1179.0916,390.2018,1182.7344,385.8739,1174.11,390.63" style="stroke: #A80036; stroke-width: 1.0;"/><text fill="#000000" font-family="sans-serif" font-size="13" lengthAdjust="spacingAndGlyphs" textLength="24" x="1182.4928" y="403.405">one</text><!--MD5=[8ef293bb2c95514ec82c81ee3443512e]
link Matrix4x4 to Matrix4x4--><path d="M1174.36,292.37 C1277.29,299.71 1349,318.26 1349,348 C1349,377.25 1279.65,395.67 1179.46,403.26 " fill="none" id="Matrix4x4-&gt;Matrix4x4-4" style="stroke: #A80036; stroke-width: 1.0;"/><polygon fill="#A80036" points="1174.36,403.63,1183.6323,406.9503,1179.3462,403.2585,1183.038,398.9724,1174.36,403.63" style="stroke: #A80036; stroke-width: 1.0;"/><text fill="#000000" font-family="sans-serif" font-size="13" lengthAdjust="spacingAndGlyphs" textLength="47" x="1182.908" y="416.5878">identity</text><!--MD5=[8f35054331457913f41a392923eab932]
@startuml
class Matrix4x4 <<struct>> {
    + m00 : float
    + m01 : float
    + m02 : float
    + m03 : float
    + m10 : float
    + m11 : float
    + m12 : float
    + m13 : float
    + m20 : float
    + m21 : float
    + m22 : float
    + m23 : float
    + m30 : float
    + m31 : float
    + m32 : float
    + m33 : float
    + Matrix4x4()
    + Matrix4x4(_matrix:float[,])
    + Matrix4x4(_m00:float, _m01:float, _m02:float, _m03:float, _m10:float, _m11:float, _m12:float, _m13:float, _m20:float, _m21:float, _m22:float, _m23:float, _m30:float, _m31:float, _m32:float, _m33:float)
    + Matrix4x4(_row0:Vector4, _row1:Vector4, _row2:Vector4, _row3:Vector4)
    + GetRow(_index:int) : Vector4
    + GetColumn(_index:int) : Vector4
    + Invert() : void
    + Transpose() : void
    + determinant : float <<get>>
    + {static} ScaleMatrix(_v:Vector3) : Matrix4x4
    + {static} TranslateMatrix(_v:Vector3) : Matrix4x4
    + {static} RotateMatrix(_q:Quaternion) : Matrix4x4
    + <<override>> GetHashCode() : int
    + <<override>> Equals(_other:object) : bool
    + Equals(_other:Matrix4x4) : bool
    + <<override>> ToString() : string
}
class "IEquatable`1"<T> {
}
"IEquatable`1" "<Matrix4x4>" <|- - Matrix4x4
Matrix4x4 - -> "inverse" Matrix4x4
Matrix4x4 - -> "transposed" Matrix4x4
Matrix4x4 - -> "zero" Matrix4x4
Matrix4x4 - -> "one" Matrix4x4
Matrix4x4 - -> "identity" Matrix4x4
@enduml

PlantUML version 1.2020.02(Sun Mar 01 10:22:07 GMT 2020)
(GPL source distribution)
Java Runtime: OpenJDK Runtime Environment
JVM: OpenJDK 64-Bit Server VM
Java Version: 11.0.9+11-Ubuntu-0ubuntu1
Operating System: Linux
Default Encoding: ANSI_X3.4-1968
Language: en
Country: US
--></g></svg>