<?xml version="1.0" encoding="UTF-8" standalone="no"?><svg xmlns="http://www.w3.org/2000/svg" xmlns:xlink="http://www.w3.org/1999/xlink" contentScriptType="application/ecmascript" contentStyleType="text/css" height="462px" preserveAspectRatio="none" style="width:885px;height:462px;" version="1.1" viewBox="0 0 885 462" width="885px" zoomAndPan="magnify"><defs><filter height="300%" id="f1fa09p1004gg1" width="300%" x="-1" y="-1"><feGaussianBlur result="blurOut" stdDeviation="2.0"/><feColorMatrix in="blurOut" result="blurOut2" type="matrix" values="0 0 0 0 0 0 0 0 0 0 0 0 0 0 0 0 0 0 .4 0"/><feOffset dx="4.0" dy="4.0" in="blurOut2" result="blurOut3"/><feBlend in="SourceGraphic" in2="blurOut3" mode="normal"/></filter></defs><g><!--MD5=[426b284956ea763461a18dc193d69822]
class Matrix3x3--><rect fill="#FEFECE" filter="url(#f1fa09p1004gg1)" height="335.6406" id="Matrix3x3" style="stroke: #A80036; stroke-width: 1.5;" width="692" x="6" y="116"/><ellipse cx="318.25" cy="134.9688" fill="#ADD1B2" rx="11" ry="11" style="stroke: #A80036; stroke-width: 1.0;"/><path d="M321.2188,140.6094 Q320.6406,140.9063 320,141.0469 Q319.3594,141.2031 318.6563,141.2031 Q316.1563,141.2031 314.8281,139.5625 Q313.5156,137.9063 313.5156,134.7813 Q313.5156,131.6563 314.8281,130 Q316.1563,128.3438 318.6563,128.3438 Q319.3594,128.3438 320,128.5 Q320.6563,128.6563 321.2188,128.9531 L321.2188,131.6719 Q320.5938,131.0938 320,130.8281 Q319.4063,130.5469 318.7813,130.5469 Q317.4375,130.5469 316.75,131.625 Q316.0625,132.6875 316.0625,134.7813 Q316.0625,136.875 316.75,137.9531 Q317.4375,139.0156 318.7813,139.0156 Q319.4063,139.0156 320,138.75 Q320.5938,138.4688 321.2188,137.8906 L321.2188,140.6094 Z "/><text fill="#000000" font-family="sans-serif" font-size="12" font-style="italic" lengthAdjust="spacingAndGlyphs" textLength="50" x="343.25" y="132.1387">«struct»</text><text fill="#000000" font-family="sans-serif" font-size="12" lengthAdjust="spacingAndGlyphs" textLength="59" x="338.75" y="146.1074">Matrix3x3</text><line style="stroke: #A80036; stroke-width: 1.5;" x1="7" x2="697" y1="153.9375" y2="153.9375"/><ellipse cx="17" cy="164.9375" fill="none" rx="3" ry="3" style="stroke: #038048; stroke-width: 1.0;"/><text fill="#000000" font-family="sans-serif" font-size="11" lengthAdjust="spacingAndGlyphs" textLength="62" x="26" y="168.1479">m00 : float</text><ellipse cx="17" cy="177.7422" fill="none" rx="3" ry="3" style="stroke: #038048; stroke-width: 1.0;"/><text fill="#000000" font-family="sans-serif" font-size="11" lengthAdjust="spacingAndGlyphs" textLength="62" x="26" y="180.9526">m01 : float</text><ellipse cx="17" cy="190.5469" fill="none" rx="3" ry="3" style="stroke: #038048; stroke-width: 1.0;"/><text fill="#000000" font-family="sans-serif" font-size="11" lengthAdjust="spacingAndGlyphs" textLength="62" x="26" y="193.7573">m02 : float</text><ellipse cx="17" cy="203.3516" fill="none" rx="3" ry="3" style="stroke: #038048; stroke-width: 1.0;"/><text fill="#000000" font-family="sans-serif" font-size="11" lengthAdjust="spacingAndGlyphs" textLength="62" x="26" y="206.562">m10 : float</text><ellipse cx="17" cy="216.1563" fill="none" rx="3" ry="3" style="stroke: #038048; stroke-width: 1.0;"/><text fill="#000000" font-family="sans-serif" font-size="11" lengthAdjust="spacingAndGlyphs" textLength="62" x="26" y="219.3667">m11 : float</text><ellipse cx="17" cy="228.9609" fill="none" rx="3" ry="3" style="stroke: #038048; stroke-width: 1.0;"/><text fill="#000000" font-family="sans-serif" font-size="11" lengthAdjust="spacingAndGlyphs" textLength="62" x="26" y="232.1714">m12 : float</text><ellipse cx="17" cy="241.7656" fill="none" rx="3" ry="3" style="stroke: #038048; stroke-width: 1.0;"/><text fill="#000000" font-family="sans-serif" font-size="11" lengthAdjust="spacingAndGlyphs" textLength="62" x="26" y="244.9761">m20 : float</text><ellipse cx="17" cy="254.5703" fill="none" rx="3" ry="3" style="stroke: #038048; stroke-width: 1.0;"/><text fill="#000000" font-family="sans-serif" font-size="11" lengthAdjust="spacingAndGlyphs" textLength="62" x="26" y="257.7808">m21 : float</text><ellipse cx="17" cy="267.375" fill="none" rx="3" ry="3" style="stroke: #038048; stroke-width: 1.0;"/><text fill="#000000" font-family="sans-serif" font-size="11" lengthAdjust="spacingAndGlyphs" textLength="62" x="26" y="270.5854">m22 : float</text><ellipse cx="17" cy="280.1797" fill="none" rx="3" ry="3" style="stroke: #038048; stroke-width: 1.0;"/><text fill="#000000" font-family="sans-serif" font-size="11" lengthAdjust="spacingAndGlyphs" textLength="142" x="26" y="283.3901">determinant : float «get»</text><line style="stroke: #A80036; stroke-width: 1.5;" x1="7" x2="697" y1="289.9844" y2="289.9844"/><ellipse cx="17" cy="300.9844" fill="#84BE84" rx="3" ry="3" style="stroke: #038048; stroke-width: 1.0;"/><text fill="#000000" font-family="sans-serif" font-size="11" lengthAdjust="spacingAndGlyphs" textLength="62" x="26" y="304.1948">Matrix3x3()</text><ellipse cx="17" cy="313.7891" fill="#84BE84" rx="3" ry="3" style="stroke: #038048; stroke-width: 1.0;"/><text fill="#000000" font-family="sans-serif" font-size="11" lengthAdjust="spacingAndGlyphs" textLength="145" x="26" y="316.9995">Matrix3x3(_matrix:float[,])</text><ellipse cx="17" cy="326.5938" fill="#84BE84" rx="3" ry="3" style="stroke: #038048; stroke-width: 1.0;"/><text fill="#000000" font-family="sans-serif" font-size="11" lengthAdjust="spacingAndGlyphs" textLength="666" x="26" y="329.8042">Matrix3x3(_m00:float, _m01:float, _m02:float, _m10:float, _m11:float, _m12:float, _m20:float, _m21:float, _m22:float)</text><ellipse cx="17" cy="339.3984" fill="#84BE84" rx="3" ry="3" style="stroke: #038048; stroke-width: 1.0;"/><text fill="#000000" font-family="sans-serif" font-size="11" lengthAdjust="spacingAndGlyphs" textLength="321" x="26" y="342.6089">Matrix3x3(_row0:Vector3, _row1:Vector3, _row2:Vector3)</text><ellipse cx="17" cy="352.2031" fill="#84BE84" rx="3" ry="3" style="stroke: #038048; stroke-width: 1.0;"/><text fill="#000000" font-family="sans-serif" font-size="11" lengthAdjust="spacingAndGlyphs" textLength="160" x="26" y="355.4136">GetRow(_index:int) : Vector3</text><ellipse cx="17" cy="365.0078" fill="#84BE84" rx="3" ry="3" style="stroke: #038048; stroke-width: 1.0;"/><text fill="#000000" font-family="sans-serif" font-size="11" lengthAdjust="spacingAndGlyphs" textLength="180" x="26" y="368.2183">GetColumn(_index:int) : Vector3</text><ellipse cx="17" cy="377.8125" fill="#84BE84" rx="3" ry="3" style="stroke: #038048; stroke-width: 1.0;"/><text fill="#000000" font-family="sans-serif" font-size="11" lengthAdjust="spacingAndGlyphs" textLength="75" x="26" y="381.0229">Invert() : void</text><ellipse cx="17" cy="390.6172" fill="#84BE84" rx="3" ry="3" style="stroke: #038048; stroke-width: 1.0;"/><text fill="#000000" font-family="sans-serif" font-size="11" lengthAdjust="spacingAndGlyphs" textLength="104" x="26" y="393.8276">Transpose() : void</text><ellipse cx="17" cy="403.4219" fill="#84BE84" rx="3" ry="3" style="stroke: #038048; stroke-width: 1.0;"/><text fill="#000000" font-family="sans-serif" font-size="11" lengthAdjust="spacingAndGlyphs" textLength="177" x="26" y="406.6323">«override» GetHashCode() : int</text><ellipse cx="17" cy="416.2266" fill="#84BE84" rx="3" ry="3" style="stroke: #038048; stroke-width: 1.0;"/><text fill="#000000" font-family="sans-serif" font-size="11" lengthAdjust="spacingAndGlyphs" textLength="221" x="26" y="419.437">«override» Equals(_other:object) : bool</text><ellipse cx="17" cy="429.0313" fill="#84BE84" rx="3" ry="3" style="stroke: #038048; stroke-width: 1.0;"/><text fill="#000000" font-family="sans-serif" font-size="11" lengthAdjust="spacingAndGlyphs" textLength="176" x="26" y="432.2417">Equals(_other:Matrix3x3) : bool</text><ellipse cx="17" cy="441.8359" fill="#84BE84" rx="3" ry="3" style="stroke: #038048; stroke-width: 1.0;"/><text fill="#000000" font-family="sans-serif" font-size="11" lengthAdjust="spacingAndGlyphs" textLength="166" x="26" y="445.0464">«override» ToString() : string</text><!--MD5=[360575ecdc123693e9e157d6e9effc89]
class IEquatable`1--><rect fill="#FEFECE" filter="url(#f1fa09p1004gg1)" height="48" id="IEquatable`1" style="stroke: #A80036; stroke-width: 1.5;" width="124" x="290" y="8"/><ellipse cx="305" cy="24" fill="#ADD1B2" rx="11" ry="11" style="stroke: #A80036; stroke-width: 1.0;"/><path d="M307.9688,29.6406 Q307.3906,29.9375 306.75,30.0781 Q306.1094,30.2344 305.4063,30.2344 Q302.9063,30.2344 301.5781,28.5938 Q300.2656,26.9375 300.2656,23.8125 Q300.2656,20.6875 301.5781,19.0313 Q302.9063,17.375 305.4063,17.375 Q306.1094,17.375 306.75,17.5313 Q307.4063,17.6875 307.9688,17.9844 L307.9688,20.7031 Q307.3438,20.125 306.75,19.8594 Q306.1563,19.5781 305.5313,19.5781 Q304.1875,19.5781 303.5,20.6563 Q302.8125,21.7188 302.8125,23.8125 Q302.8125,25.9063 303.5,26.9844 Q304.1875,28.0469 305.5313,28.0469 Q306.1563,28.0469 306.75,27.7813 Q307.3438,27.5 307.9688,26.9219 L307.9688,29.6406 Z "/><text fill="#000000" font-family="sans-serif" font-size="12" lengthAdjust="spacingAndGlyphs" textLength="81" x="319" y="28.1543">IEquatable`1</text><rect fill="#FFFFFF" height="15.9688" style="stroke: #000000; stroke-width: 1.0; stroke-dasharray: 2.0,2.0;" width="9" x="408" y="5"/><text fill="#000000" font-family="sans-serif" font-size="12" font-style="italic" lengthAdjust="spacingAndGlyphs" textLength="7" x="409" y="17.1387">T</text><line style="stroke: #A80036; stroke-width: 1.5;" x1="291" x2="413" y1="40" y2="40"/><line style="stroke: #A80036; stroke-width: 1.5;" x1="291" x2="413" y1="48" y2="48"/><!--MD5=[543ac1e98d6763fe6eab9a60659309dd]
reverse link IEquatable`1 to Matrix3x3--><path d="M352,76.36 C352,88.13 352,101.62 352,115.94 " fill="none" id="IEquatable`1&lt;-Matrix3x3" style="stroke: #A80036; stroke-width: 1.0;"/><polygon fill="none" points="345,76.07,352,56.07,359,76.07,345,76.07" style="stroke: #A80036; stroke-width: 1.0;"/><text fill="#000000" font-family="sans-serif" font-size="13" lengthAdjust="spacingAndGlyphs" textLength="84" x="257.2375" y="76.2437">&lt;Matrix3x3&gt;</text><!--MD5=[aa3ca35a17e76c8c30da0a0abe42bc20]
link Matrix3x3 to Matrix3x3--><path d="M698.04,277.41 C719.85,278.96 733,281.16 733,284 C733,286.6 722.01,288.66 703.47,290.18 " fill="none" id="Matrix3x3-&gt;Matrix3x3" style="stroke: #A80036; stroke-width: 1.0;"/><polygon fill="#A80036" points="698.04,290.59,707.3217,293.8839,703.0251,290.2043,706.7047,285.9077,698.04,290.59" style="stroke: #A80036; stroke-width: 1.0;"/><text fill="#000000" font-family="sans-serif" font-size="13" lengthAdjust="spacingAndGlyphs" textLength="46" x="705.5361" y="287.6434">inverse</text><!--MD5=[aa3ca35a17e76c8c30da0a0abe42bc20]
link Matrix3x3 to Matrix3x3--><path d="M698.28,267.8 C740.41,270.72 768,276.11 768,284 C768,291.55 742.73,296.82 703.62,299.81 " fill="none" id="Matrix3x3-&gt;Matrix3x3-1" style="stroke: #A80036; stroke-width: 1.0;"/><polygon fill="#A80036" points="698.28,300.2,707.5428,303.5467,703.2672,299.8427,706.9712,295.5672,698.28,300.2" style="stroke: #A80036; stroke-width: 1.0;"/><text fill="#000000" font-family="sans-serif" font-size="13" lengthAdjust="spacingAndGlyphs" textLength="72" x="706.0451" y="312.7533">transposed</text><!--MD5=[aa3ca35a17e76c8c30da0a0abe42bc20]
link Matrix3x3 to Matrix3x3--><path d="M698.03,257.52 C759.83,260.97 803,269.79 803,284 C803,297.82 762.16,306.55 703.06,310.18 " fill="none" id="Matrix3x3-&gt;Matrix3x3-2" style="stroke: #A80036; stroke-width: 1.0;"/><polygon fill="#A80036" points="698.03,310.48,707.254,313.9322,703.021,310.1797,706.7735,305.9467,698.03,310.48" style="stroke: #A80036; stroke-width: 1.0;"/><text fill="#000000" font-family="sans-serif" font-size="13" lengthAdjust="spacingAndGlyphs" textLength="28" x="706.4682" y="323.3491">zero</text><!--MD5=[aa3ca35a17e76c8c30da0a0abe42bc20]
link Matrix3x3 to Matrix3x3--><path d="M698.2,247.28 C778.72,250.37 838,262.61 838,284 C838,304.93 781.24,317.1 703.36,320.5 " fill="none" id="Matrix3x3-&gt;Matrix3x3-3" style="stroke: #A80036; stroke-width: 1.0;"/><polygon fill="#A80036" points="698.2,320.72,707.363,324.331,703.1954,320.5059,707.0205,316.3383,698.2,320.72" style="stroke: #A80036; stroke-width: 1.0;"/><text fill="#000000" font-family="sans-serif" font-size="13" lengthAdjust="spacingAndGlyphs" textLength="24" x="705.4759" y="333.6901">one</text><!--MD5=[aa3ca35a17e76c8c30da0a0abe42bc20]
link Matrix3x3 to Matrix3x3--><path d="M698.02,237.31 C796.84,239.17 873,254.73 873,284 C873,312.75 799.49,328.28 703.21,330.58 " fill="none" id="Matrix3x3-&gt;Matrix3x3-4" style="stroke: #A80036; stroke-width: 1.0;"/><polygon fill="#A80036" points="698.02,330.69,707.0982,334.5092,703.019,330.59,706.9382,326.5108,698.02,330.69" style="stroke: #A80036; stroke-width: 1.0;"/><text fill="#000000" font-family="sans-serif" font-size="13" lengthAdjust="spacingAndGlyphs" textLength="47" x="705.5259" y="343.8626">identity</text><!--MD5=[b627e41623725643785c44d2adb646b7]
@startuml
class Matrix3x3 <<struct>> {
    + m00 : float
    + m01 : float
    + m02 : float
    + m10 : float
    + m11 : float
    + m12 : float
    + m20 : float
    + m21 : float
    + m22 : float
    + Matrix3x3()
    + Matrix3x3(_matrix:float[,])
    + Matrix3x3(_m00:float, _m01:float, _m02:float, _m10:float, _m11:float, _m12:float, _m20:float, _m21:float, _m22:float)
    + Matrix3x3(_row0:Vector3, _row1:Vector3, _row2:Vector3)
    + GetRow(_index:int) : Vector3
    + GetColumn(_index:int) : Vector3
    + Invert() : void
    + Transpose() : void
    + determinant : float <<get>>
    + <<override>> GetHashCode() : int
    + <<override>> Equals(_other:object) : bool
    + Equals(_other:Matrix3x3) : bool
    + <<override>> ToString() : string
}
class "IEquatable`1"<T> {
}
"IEquatable`1" "<Matrix3x3>" <|- - Matrix3x3
Matrix3x3 - -> "inverse" Matrix3x3
Matrix3x3 - -> "transposed" Matrix3x3
Matrix3x3 - -> "zero" Matrix3x3
Matrix3x3 - -> "one" Matrix3x3
Matrix3x3 - -> "identity" Matrix3x3
@enduml

PlantUML version 1.2020.02(Sun Mar 01 10:22:07 GMT 2020)
(GPL source distribution)
Java Runtime: OpenJDK Runtime Environment
JVM: OpenJDK 64-Bit Server VM
Java Version: 11.0.9+11-Ubuntu-0ubuntu1
Operating System: Linux
Default Encoding: ANSI_X3.4-1968
Language: en
Country: US
--></g></svg>