<?xml version="1.0" encoding="UTF-8" standalone="no"?><svg xmlns="http://www.w3.org/2000/svg" xmlns:xlink="http://www.w3.org/1999/xlink" contentScriptType="application/ecmascript" contentStyleType="text/css" height="424px" preserveAspectRatio="none" style="width:468px;height:424px;" version="1.1" viewBox="0 0 468 424" width="468px" zoomAndPan="magnify"><defs><filter height="300%" id="f119132i3x632u" width="300%" x="-1" y="-1"><feGaussianBlur result="blurOut" stdDeviation="2.0"/><feColorMatrix in="blurOut" result="blurOut2" type="matrix" values="0 0 0 0 0 0 0 0 0 0 0 0 0 0 0 0 0 0 .4 0"/><feOffset dx="4.0" dy="4.0" in="blurOut2" result="blurOut3"/><feBlend in="SourceGraphic" in2="blurOut3" mode="normal"/></filter></defs><g><!--MD5=[4c7b140fed10e9877852f4b8dc88c33d]
class Quaternion--><rect fill="#FEFECE" filter="url(#f119132i3x632u)" height="297.2266" id="Quaternion" style="stroke: #A80036; stroke-width: 1.5;" width="371" x="6" y="116"/><ellipse cx="152.25" cy="134.9688" fill="#ADD1B2" rx="11" ry="11" style="stroke: #A80036; stroke-width: 1.0;"/><path d="M155.2188,140.6094 Q154.6406,140.9063 154,141.0469 Q153.3594,141.2031 152.6563,141.2031 Q150.1563,141.2031 148.8281,139.5625 Q147.5156,137.9063 147.5156,134.7813 Q147.5156,131.6563 148.8281,130 Q150.1563,128.3438 152.6563,128.3438 Q153.3594,128.3438 154,128.5 Q154.6563,128.6563 155.2188,128.9531 L155.2188,131.6719 Q154.5938,131.0938 154,130.8281 Q153.4063,130.5469 152.7813,130.5469 Q151.4375,130.5469 150.75,131.625 Q150.0625,132.6875 150.0625,134.7813 Q150.0625,136.875 150.75,137.9531 Q151.4375,139.0156 152.7813,139.0156 Q153.4063,139.0156 154,138.75 Q154.5938,138.4688 155.2188,137.8906 L155.2188,140.6094 Z "/><text fill="#000000" font-family="sans-serif" font-size="12" font-style="italic" lengthAdjust="spacingAndGlyphs" textLength="50" x="182.75" y="132.1387">«struct»</text><text fill="#000000" font-family="sans-serif" font-size="12" lengthAdjust="spacingAndGlyphs" textLength="70" x="172.75" y="146.1074">Quaternion</text><line style="stroke: #A80036; stroke-width: 1.5;" x1="7" x2="376" y1="153.9375" y2="153.9375"/><ellipse cx="17" cy="164.9375" fill="none" rx="3" ry="3" style="stroke: #038048; stroke-width: 1.0;"/><text fill="#000000" font-family="sans-serif" font-size="11" lengthAdjust="spacingAndGlyphs" textLength="43" x="26" y="168.1479">x : float</text><ellipse cx="17" cy="177.7422" fill="none" rx="3" ry="3" style="stroke: #038048; stroke-width: 1.0;"/><text fill="#000000" font-family="sans-serif" font-size="11" lengthAdjust="spacingAndGlyphs" textLength="43" x="26" y="180.9526">y : float</text><ellipse cx="17" cy="190.5469" fill="none" rx="3" ry="3" style="stroke: #038048; stroke-width: 1.0;"/><text fill="#000000" font-family="sans-serif" font-size="11" lengthAdjust="spacingAndGlyphs" textLength="42" x="26" y="193.7573">z : float</text><ellipse cx="17" cy="203.3516" fill="none" rx="3" ry="3" style="stroke: #038048; stroke-width: 1.0;"/><text fill="#000000" font-family="sans-serif" font-size="11" lengthAdjust="spacingAndGlyphs" textLength="46" x="26" y="206.562">w : float</text><ellipse cx="17" cy="216.1563" fill="none" rx="3" ry="3" style="stroke: #038048; stroke-width: 1.0;"/><text fill="#000000" font-family="sans-serif" font-size="11" lengthAdjust="spacingAndGlyphs" textLength="133" x="26" y="219.3667">magnitude : float «get»</text><line style="stroke: #A80036; stroke-width: 1.5;" x1="7" x2="376" y1="225.9609" y2="225.9609"/><ellipse cx="17" cy="236.9609" fill="#84BE84" rx="3" ry="3" style="stroke: #038048; stroke-width: 1.0;"/><text fill="#000000" font-family="sans-serif" font-size="11" lengthAdjust="spacingAndGlyphs" textLength="261" x="26" y="240.1714">Quaternion(_x:float, _y:float, _z:float, _w:float)</text><ellipse cx="17" cy="249.7656" fill="#84BE84" rx="3" ry="3" style="stroke: #038048; stroke-width: 1.0;"/><text fill="#000000" font-family="sans-serif" font-size="11" lengthAdjust="spacingAndGlyphs" text-decoration="underline" textLength="219" x="26" y="252.9761">Normalize(_q:Quaternion) : Quaternion</text><ellipse cx="17" cy="262.5703" fill="#84BE84" rx="3" ry="3" style="stroke: #038048; stroke-width: 1.0;"/><text fill="#000000" font-family="sans-serif" font-size="11" lengthAdjust="spacingAndGlyphs" textLength="99" x="26" y="265.7808">Normalize() : void</text><ellipse cx="17" cy="275.375" fill="#84BE84" rx="3" ry="3" style="stroke: #038048; stroke-width: 1.0;"/><text fill="#000000" font-family="sans-serif" font-size="11" lengthAdjust="spacingAndGlyphs" text-decoration="underline" textLength="254" x="26" y="278.5854">Dot(_lhs:Quaternion, _rhs:Quaternion) : float</text><ellipse cx="17" cy="288.1797" fill="#84BE84" rx="3" ry="3" style="stroke: #038048; stroke-width: 1.0;"/><text fill="#000000" font-family="sans-serif" font-size="11" lengthAdjust="spacingAndGlyphs" text-decoration="underline" textLength="337" x="26" y="291.3901">FromAxisAngle(_axis:Vector3, _angleRad:float) : Quaternion</text><ellipse cx="17" cy="300.9844" fill="#84BE84" rx="3" ry="3" style="stroke: #038048; stroke-width: 1.0;"/><text fill="#000000" font-family="sans-serif" font-size="11" lengthAdjust="spacingAndGlyphs" text-decoration="underline" textLength="345" x="26" y="304.1948">FromEuler(_xDeg:float, _yDeg:float, _zDeg:float) : Quaternion</text><ellipse cx="17" cy="313.7891" fill="#84BE84" rx="3" ry="3" style="stroke: #038048; stroke-width: 1.0;"/><text fill="#000000" font-family="sans-serif" font-size="11" lengthAdjust="spacingAndGlyphs" text-decoration="underline" textLength="245" x="26" y="316.9995">FromEuler(_eulerDeg:Vector3) : Quaternion</text><ellipse cx="17" cy="326.5938" fill="#84BE84" rx="3" ry="3" style="stroke: #038048; stroke-width: 1.0;"/><text fill="#000000" font-family="sans-serif" font-size="11" lengthAdjust="spacingAndGlyphs" textLength="106" x="26" y="329.8042">ToEuler() : Vector3</text><ellipse cx="17" cy="339.3984" fill="#84BE84" rx="3" ry="3" style="stroke: #038048; stroke-width: 1.0;"/><text fill="#000000" font-family="sans-serif" font-size="11" lengthAdjust="spacingAndGlyphs" text-decoration="underline" textLength="186" x="26" y="342.6089">ToEuler(_q:Quaternion) : Vector3</text><ellipse cx="17" cy="352.2031" fill="#84BE84" rx="3" ry="3" style="stroke: #038048; stroke-width: 1.0;"/><text fill="#000000" font-family="sans-serif" font-size="11" lengthAdjust="spacingAndGlyphs" text-decoration="underline" textLength="315" x="26" y="355.4136">AngleBetween(_lhs:Quaternion, _rhs:Quaternion) : float</text><ellipse cx="17" cy="365.0078" fill="#84BE84" rx="3" ry="3" style="stroke: #038048; stroke-width: 1.0;"/><text fill="#000000" font-family="sans-serif" font-size="11" lengthAdjust="spacingAndGlyphs" textLength="177" x="26" y="368.2183">«override» GetHashCode() : int</text><ellipse cx="17" cy="377.8125" fill="#84BE84" rx="3" ry="3" style="stroke: #038048; stroke-width: 1.0;"/><text fill="#000000" font-family="sans-serif" font-size="11" lengthAdjust="spacingAndGlyphs" textLength="221" x="26" y="381.0229">«override» Equals(_other:object) : bool</text><ellipse cx="17" cy="390.6172" fill="#84BE84" rx="3" ry="3" style="stroke: #038048; stroke-width: 1.0;"/><text fill="#000000" font-family="sans-serif" font-size="11" lengthAdjust="spacingAndGlyphs" textLength="185" x="26" y="393.8276">Equals(_other:Quaternion) : bool</text><ellipse cx="17" cy="403.4219" fill="#84BE84" rx="3" ry="3" style="stroke: #038048; stroke-width: 1.0;"/><text fill="#000000" font-family="sans-serif" font-size="11" lengthAdjust="spacingAndGlyphs" textLength="166" x="26" y="406.6323">«override» ToString() : string</text><!--MD5=[360575ecdc123693e9e157d6e9effc89]
class IEquatable`1--><rect fill="#FEFECE" filter="url(#f119132i3x632u)" height="48" id="IEquatable`1" style="stroke: #A80036; stroke-width: 1.5;" width="124" x="129.5" y="8"/><ellipse cx="144.5" cy="24" fill="#ADD1B2" rx="11" ry="11" style="stroke: #A80036; stroke-width: 1.0;"/><path d="M147.4688,29.6406 Q146.8906,29.9375 146.25,30.0781 Q145.6094,30.2344 144.9063,30.2344 Q142.4063,30.2344 141.0781,28.5938 Q139.7656,26.9375 139.7656,23.8125 Q139.7656,20.6875 141.0781,19.0313 Q142.4063,17.375 144.9063,17.375 Q145.6094,17.375 146.25,17.5313 Q146.9063,17.6875 147.4688,17.9844 L147.4688,20.7031 Q146.8438,20.125 146.25,19.8594 Q145.6563,19.5781 145.0313,19.5781 Q143.6875,19.5781 143,20.6563 Q142.3125,21.7188 142.3125,23.8125 Q142.3125,25.9063 143,26.9844 Q143.6875,28.0469 145.0313,28.0469 Q145.6563,28.0469 146.25,27.7813 Q146.8438,27.5 147.4688,26.9219 L147.4688,29.6406 Z "/><text fill="#000000" font-family="sans-serif" font-size="12" lengthAdjust="spacingAndGlyphs" textLength="81" x="158.5" y="28.1543">IEquatable`1</text><rect fill="#FFFFFF" height="15.9688" style="stroke: #000000; stroke-width: 1.0; stroke-dasharray: 2.0,2.0;" width="9" x="247.5" y="5"/><text fill="#000000" font-family="sans-serif" font-size="12" font-style="italic" lengthAdjust="spacingAndGlyphs" textLength="7" x="248.5" y="17.1387">T</text><line style="stroke: #A80036; stroke-width: 1.5;" x1="130.5" x2="252.5" y1="40" y2="40"/><line style="stroke: #A80036; stroke-width: 1.5;" x1="130.5" x2="252.5" y1="48" y2="48"/><!--MD5=[15a6f53c65a06314f23e2314abd133bb]
reverse link IEquatable`1 to Quaternion--><path d="M191.5,76.65 C191.5,88.38 191.5,101.74 191.5,115.8 " fill="none" id="IEquatable`1&lt;-Quaternion" style="stroke: #A80036; stroke-width: 1.0;"/><polygon fill="none" points="184.5,76.37,191.5,56.37,198.5,76.37,184.5,76.37" style="stroke: #A80036; stroke-width: 1.0;"/><text fill="#000000" font-family="sans-serif" font-size="13" lengthAdjust="spacingAndGlyphs" textLength="93" x="87.1656" y="76.2214">&lt;Quaternion&gt;</text><!--MD5=[695d182dd199136c456c693826d6181d]
link Quaternion to Quaternion--><path d="M377.3,246.07 C398.35,249.52 412,255.66 412,264.5 C412,272.58 400.6,278.4 382.56,281.98 " fill="none" id="Quaternion-&gt;Quaternion" style="stroke: #A80036; stroke-width: 1.0;"/><polygon fill="#A80036" points="377.3,282.93,386.8656,285.275,382.2212,282.0456,385.4506,277.4012,377.3,282.93" style="stroke: #A80036; stroke-width: 1.0;"/><text fill="#000000" font-family="sans-serif" font-size="13" lengthAdjust="spacingAndGlyphs" textLength="71" x="385.253" y="280.388">normalized</text><!--MD5=[695d182dd199136c456c693826d6181d]
link Quaternion to Quaternion--><path d="M377.24,222.26 C417.66,226.35 447,240.43 447,264.5 C447,287.54 420.13,301.43 382.39,306.16 " fill="none" id="Quaternion-&gt;Quaternion-1" style="stroke: #A80036; stroke-width: 1.0;"/><polygon fill="#A80036" points="377.24,306.74,386.6379,309.6861,382.2073,306.169,385.7244,301.7384,377.24,306.74" style="stroke: #A80036; stroke-width: 1.0;"/><text fill="#000000" font-family="sans-serif" font-size="13" lengthAdjust="spacingAndGlyphs" textLength="47" x="384.7596" y="305.0537">identity</text><!--MD5=[e43d99c39654e5954a10f09a39411a27]
@startuml
class Quaternion <<struct>> {
    + x : float
    + y : float
    + z : float
    + w : float
    + Quaternion(_x:float, _y:float, _z:float, _w:float)
    + magnitude : float <<get>>
    + {static} Normalize(_q:Quaternion) : Quaternion
    + Normalize() : void
    + {static} Dot(_lhs:Quaternion, _rhs:Quaternion) : float
    + {static} FromAxisAngle(_axis:Vector3, _angleRad:float) : Quaternion
    + {static} FromEuler(_xDeg:float, _yDeg:float, _zDeg:float) : Quaternion
    + {static} FromEuler(_eulerDeg:Vector3) : Quaternion
    + ToEuler() : Vector3
    + {static} ToEuler(_q:Quaternion) : Vector3
    + {static} AngleBetween(_lhs:Quaternion, _rhs:Quaternion) : float
    + <<override>> GetHashCode() : int
    + <<override>> Equals(_other:object) : bool
    + Equals(_other:Quaternion) : bool
    + <<override>> ToString() : string
}
class "IEquatable`1"<T> {
}
"IEquatable`1" "<Quaternion>" <|- - Quaternion
Quaternion - -> "normalized" Quaternion
Quaternion - -> "identity" Quaternion
@enduml

PlantUML version 1.2020.02(Sun Mar 01 10:22:07 GMT 2020)
(GPL source distribution)
Java Runtime: OpenJDK Runtime Environment
JVM: OpenJDK 64-Bit Server VM
Java Version: 11.0.9+11-Ubuntu-0ubuntu1
Operating System: Linux
Default Encoding: ANSI_X3.4-1968
Language: en
Country: US
--></g></svg>