<?xml version="1.0" encoding="UTF-8" standalone="no"?><svg xmlns="http://www.w3.org/2000/svg" xmlns:xlink="http://www.w3.org/1999/xlink" contentScriptType="application/ecmascript" contentStyleType="text/css" height="97px" preserveAspectRatio="none" style="width:348px;height:97px;" version="1.1" viewBox="0 0 348 97" width="348px" zoomAndPan="magnify"><defs><filter height="300%" id="f5j476xq9qdke" width="300%" x="-1" y="-1"><feGaussianBlur result="blurOut" stdDeviation="2.0"/><feColorMatrix in="blurOut" result="blurOut2" type="matrix" values="0 0 0 0 0 0 0 0 0 0 0 0 0 0 0 0 0 0 .4 0"/><feOffset dx="4.0" dy="4.0" in="blurOut2" result="blurOut3"/><feBlend in="SourceGraphic" in2="blurOut3" mode="normal"/></filter></defs><g><!--MD5=[7106e3dd2a1ebea13110e48d38bd8276]
class Random--><rect fill="#FEFECE" filter="url(#f5j476xq9qdke)" height="79.5469" id="Random" style="stroke: #A80036; stroke-width: 1.5;" width="330" x="7" y="7"/><ellipse cx="142.25" cy="25.9688" fill="#ADD1B2" rx="11" ry="11" style="stroke: #A80036; stroke-width: 1.0;"/><path d="M145.2188,31.6094 Q144.6406,31.9063 144,32.0469 Q143.3594,32.2031 142.6563,32.2031 Q140.1563,32.2031 138.8281,30.5625 Q137.5156,28.9063 137.5156,25.7813 Q137.5156,22.6563 138.8281,21 Q140.1563,19.3438 142.6563,19.3438 Q143.3594,19.3438 144,19.5 Q144.6563,19.6563 145.2188,19.9531 L145.2188,22.6719 Q144.5938,22.0938 144,21.8281 Q143.4063,21.5469 142.7813,21.5469 Q141.4375,21.5469 140.75,22.625 Q140.0625,23.6875 140.0625,25.7813 Q140.0625,27.875 140.75,28.9531 Q141.4375,30.0156 142.7813,30.0156 Q143.4063,30.0156 144,29.75 Q144.5938,29.4688 145.2188,28.8906 L145.2188,31.6094 Z "/><text fill="#000000" font-family="sans-serif" font-size="12" font-style="italic" lengthAdjust="spacingAndGlyphs" textLength="48" x="164.25" y="23.1387">«static»</text><text fill="#000000" font-family="sans-serif" font-size="12" lengthAdjust="spacingAndGlyphs" textLength="51" x="162.75" y="37.1074">Random</text><line style="stroke: #A80036; stroke-width: 1.5;" x1="8" x2="336" y1="44.9375" y2="44.9375"/><line style="stroke: #A80036; stroke-width: 1.5;" x1="8" x2="336" y1="52.9375" y2="52.9375"/><ellipse cx="18" cy="63.9375" fill="#84BE84" rx="3" ry="3" style="stroke: #038048; stroke-width: 1.0;"/><text fill="#000000" font-family="sans-serif" font-size="11" lengthAdjust="spacingAndGlyphs" text-decoration="underline" textLength="304" x="27" y="67.1479">Range(_minInclusive:float, _maxExclusive:float) : float</text><ellipse cx="18" cy="76.7422" fill="#84BE84" rx="3" ry="3" style="stroke: #038048; stroke-width: 1.0;"/><text fill="#000000" font-family="sans-serif" font-size="11" lengthAdjust="spacingAndGlyphs" text-decoration="underline" textLength="268" x="27" y="79.9526">Range(_minInclusive:int, _maxInclusive:int) : int</text><!--MD5=[60b3d792a1a52d568df89d2b148f9cd1]
@startuml
class Random <<static>> {
    + {static} Range(_minInclusive:float, _maxExclusive:float) : float
    + {static} Range(_minInclusive:int, _maxInclusive:int) : int
}
@enduml

PlantUML version 1.2020.02(Sun Mar 01 10:22:07 GMT 2020)
(GPL source distribution)
Java Runtime: OpenJDK Runtime Environment
JVM: OpenJDK 64-Bit Server VM
Java Version: 11.0.9+11-Ubuntu-0ubuntu1
Operating System: Linux
Default Encoding: ANSI_X3.4-1968
Language: en
Country: US
--></g></svg>