<?xml version="1.0" encoding="UTF-8" standalone="no"?><svg xmlns="http://www.w3.org/2000/svg" xmlns:xlink="http://www.w3.org/1999/xlink" contentScriptType="application/ecmascript" contentStyleType="text/css" height="411px" preserveAspectRatio="none" style="width:717px;height:411px;" version="1.1" viewBox="0 0 717 411" width="717px" zoomAndPan="magnify"><defs><filter height="300%" id="fp10r16n6f2zk" width="300%" x="-1" y="-1"><feGaussianBlur result="blurOut" stdDeviation="2.0"/><feColorMatrix in="blurOut" result="blurOut2" type="matrix" values="0 0 0 0 0 0 0 0 0 0 0 0 0 0 0 0 0 0 .4 0"/><feOffset dx="4.0" dy="4.0" in="blurOut2" result="blurOut3"/><feBlend in="SourceGraphic" in2="blurOut3" mode="normal"/></filter></defs><g><!--MD5=[b82851eba8b96963309b8de495357535]
class Vector3Int--><rect fill="#FEFECE" filter="url(#fp10r16n6f2zk)" height="284.4219" id="Vector3Int" style="stroke: #A80036; stroke-width: 1.5;" width="384" x="6" y="116"/><ellipse cx="161.25" cy="134.9688" fill="#ADD1B2" rx="11" ry="11" style="stroke: #A80036; stroke-width: 1.0;"/><path d="M164.2188,140.6094 Q163.6406,140.9063 163,141.0469 Q162.3594,141.2031 161.6563,141.2031 Q159.1563,141.2031 157.8281,139.5625 Q156.5156,137.9063 156.5156,134.7813 Q156.5156,131.6563 157.8281,130 Q159.1563,128.3438 161.6563,128.3438 Q162.3594,128.3438 163,128.5 Q163.6563,128.6563 164.2188,128.9531 L164.2188,131.6719 Q163.5938,131.0938 163,130.8281 Q162.4063,130.5469 161.7813,130.5469 Q160.4375,130.5469 159.75,131.625 Q159.0625,132.6875 159.0625,134.7813 Q159.0625,136.875 159.75,137.9531 Q160.4375,139.0156 161.7813,139.0156 Q162.4063,139.0156 163,138.75 Q163.5938,138.4688 164.2188,137.8906 L164.2188,140.6094 Z "/><text fill="#000000" font-family="sans-serif" font-size="12" font-style="italic" lengthAdjust="spacingAndGlyphs" textLength="50" x="189.25" y="132.1387">«struct»</text><text fill="#000000" font-family="sans-serif" font-size="12" lengthAdjust="spacingAndGlyphs" textLength="65" x="181.75" y="146.1074">Vector3Int</text><line style="stroke: #A80036; stroke-width: 1.5;" x1="7" x2="389" y1="153.9375" y2="153.9375"/><ellipse cx="17" cy="164.9375" fill="none" rx="3" ry="3" style="stroke: #038048; stroke-width: 1.0;"/><text fill="#000000" font-family="sans-serif" font-size="11" lengthAdjust="spacingAndGlyphs" textLength="32" x="26" y="168.1479">x : int</text><ellipse cx="17" cy="177.7422" fill="none" rx="3" ry="3" style="stroke: #038048; stroke-width: 1.0;"/><text fill="#000000" font-family="sans-serif" font-size="11" lengthAdjust="spacingAndGlyphs" textLength="32" x="26" y="180.9526">y : int</text><ellipse cx="17" cy="190.5469" fill="none" rx="3" ry="3" style="stroke: #038048; stroke-width: 1.0;"/><text fill="#000000" font-family="sans-serif" font-size="11" lengthAdjust="spacingAndGlyphs" textLength="31" x="26" y="193.7573">z : int</text><ellipse cx="17" cy="203.3516" fill="none" rx="3" ry="3" style="stroke: #038048; stroke-width: 1.0;"/><text fill="#000000" font-family="sans-serif" font-size="11" lengthAdjust="spacingAndGlyphs" textLength="133" x="26" y="206.562">magnitude : float «get»</text><line style="stroke: #A80036; stroke-width: 1.5;" x1="7" x2="389" y1="213.1563" y2="213.1563"/><ellipse cx="17" cy="224.1563" fill="#84BE84" rx="3" ry="3" style="stroke: #038048; stroke-width: 1.0;"/><text fill="#000000" font-family="sans-serif" font-size="11" lengthAdjust="spacingAndGlyphs" textLength="155" x="26" y="227.3667">Vector3Int(_x:float, _y:float)</text><ellipse cx="17" cy="236.9609" fill="#84BE84" rx="3" ry="3" style="stroke: #038048; stroke-width: 1.0;"/><text fill="#000000" font-family="sans-serif" font-size="11" lengthAdjust="spacingAndGlyphs" textLength="203" x="26" y="240.1714">Vector3Int(_x:float, _y:float, _z:float)</text><ellipse cx="17" cy="249.7656" fill="#84BE84" rx="3" ry="3" style="stroke: #038048; stroke-width: 1.0;"/><text fill="#000000" font-family="sans-serif" font-size="11" lengthAdjust="spacingAndGlyphs" textLength="133" x="26" y="252.9761">Vector3Int(_x:int, _y:int)</text><ellipse cx="17" cy="262.5703" fill="#84BE84" rx="3" ry="3" style="stroke: #038048; stroke-width: 1.0;"/><text fill="#000000" font-family="sans-serif" font-size="11" lengthAdjust="spacingAndGlyphs" textLength="170" x="26" y="265.7808">Vector3Int(_x:int, _y:int, _z:int)</text><ellipse cx="17" cy="275.375" fill="#84BE84" rx="3" ry="3" style="stroke: #038048; stroke-width: 1.0;"/><text fill="#000000" font-family="sans-serif" font-size="11" lengthAdjust="spacingAndGlyphs" textLength="99" x="26" y="278.5854">Normalize() : void</text><ellipse cx="17" cy="288.1797" fill="#84BE84" rx="3" ry="3" style="stroke: #038048; stroke-width: 1.0;"/><text fill="#000000" font-family="sans-serif" font-size="11" lengthAdjust="spacingAndGlyphs" text-decoration="underline" textLength="272" x="26" y="291.3901">Distance(_lhs:Vector3Int, _rhs:Vector3Int) : float</text><ellipse cx="17" cy="300.9844" fill="#84BE84" rx="3" ry="3" style="stroke: #038048; stroke-width: 1.0;"/><text fill="#000000" font-family="sans-serif" font-size="11" lengthAdjust="spacingAndGlyphs" text-decoration="underline" textLength="242" x="26" y="304.1948">Dot(_lhs:Vector3Int, _rhs:Vector3Int) : float</text><ellipse cx="17" cy="313.7891" fill="#84BE84" rx="3" ry="3" style="stroke: #038048; stroke-width: 1.0;"/><text fill="#000000" font-family="sans-serif" font-size="11" lengthAdjust="spacingAndGlyphs" text-decoration="underline" textLength="289" x="26" y="316.9995">Cross(_lhs:Vector3Int, _rhs:Vector3Int) : Vector3Int</text><ellipse cx="17" cy="326.5938" fill="#84BE84" rx="3" ry="3" style="stroke: #038048; stroke-width: 1.0;"/><text fill="#000000" font-family="sans-serif" font-size="11" lengthAdjust="spacingAndGlyphs" text-decoration="underline" textLength="256" x="26" y="329.8042">Angle(_from:Vector3Int, _to:Vector3Int) : float</text><ellipse cx="17" cy="339.3984" fill="#84BE84" rx="3" ry="3" style="stroke: #038048; stroke-width: 1.0;"/><text fill="#000000" font-family="sans-serif" font-size="11" lengthAdjust="spacingAndGlyphs" textLength="177" x="26" y="342.6089">«override» GetHashCode() : int</text><ellipse cx="17" cy="352.2031" fill="#84BE84" rx="3" ry="3" style="stroke: #038048; stroke-width: 1.0;"/><text fill="#000000" font-family="sans-serif" font-size="11" lengthAdjust="spacingAndGlyphs" textLength="221" x="26" y="355.4136">«override» Equals(_other:object) : bool</text><ellipse cx="17" cy="365.0078" fill="#84BE84" rx="3" ry="3" style="stroke: #038048; stroke-width: 1.0;"/><text fill="#000000" font-family="sans-serif" font-size="11" lengthAdjust="spacingAndGlyphs" textLength="179" x="26" y="368.2183">Equals(_other:Vector3Int) : bool</text><ellipse cx="17" cy="377.8125" fill="#84BE84" rx="3" ry="3" style="stroke: #038048; stroke-width: 1.0;"/><text fill="#000000" font-family="sans-serif" font-size="11" lengthAdjust="spacingAndGlyphs" textLength="166" x="26" y="381.0229">«override» ToString() : string</text><ellipse cx="17" cy="390.6172" fill="#84BE84" rx="3" ry="3" style="stroke: #038048; stroke-width: 1.0;"/><text fill="#000000" font-family="sans-serif" font-size="11" lengthAdjust="spacingAndGlyphs" text-decoration="underline" textLength="358" x="26" y="393.8276">RandomVector(_minInclusive:int, _maxInclusive:int) : Vector3Int</text><!--MD5=[360575ecdc123693e9e157d6e9effc89]
class IEquatable`1--><rect fill="#FEFECE" filter="url(#fp10r16n6f2zk)" height="48" id="IEquatable`1" style="stroke: #A80036; stroke-width: 1.5;" width="124" x="136" y="8"/><ellipse cx="151" cy="24" fill="#ADD1B2" rx="11" ry="11" style="stroke: #A80036; stroke-width: 1.0;"/><path d="M153.9688,29.6406 Q153.3906,29.9375 152.75,30.0781 Q152.1094,30.2344 151.4063,30.2344 Q148.9063,30.2344 147.5781,28.5938 Q146.2656,26.9375 146.2656,23.8125 Q146.2656,20.6875 147.5781,19.0313 Q148.9063,17.375 151.4063,17.375 Q152.1094,17.375 152.75,17.5313 Q153.4063,17.6875 153.9688,17.9844 L153.9688,20.7031 Q153.3438,20.125 152.75,19.8594 Q152.1563,19.5781 151.5313,19.5781 Q150.1875,19.5781 149.5,20.6563 Q148.8125,21.7188 148.8125,23.8125 Q148.8125,25.9063 149.5,26.9844 Q150.1875,28.0469 151.5313,28.0469 Q152.1563,28.0469 152.75,27.7813 Q153.3438,27.5 153.9688,26.9219 L153.9688,29.6406 Z "/><text fill="#000000" font-family="sans-serif" font-size="12" lengthAdjust="spacingAndGlyphs" textLength="81" x="165" y="28.1543">IEquatable`1</text><rect fill="#FFFFFF" height="15.9688" style="stroke: #000000; stroke-width: 1.0; stroke-dasharray: 2.0,2.0;" width="9" x="254" y="5"/><text fill="#000000" font-family="sans-serif" font-size="12" font-style="italic" lengthAdjust="spacingAndGlyphs" textLength="7" x="255" y="17.1387">T</text><line style="stroke: #A80036; stroke-width: 1.5;" x1="137" x2="259" y1="40" y2="40"/><line style="stroke: #A80036; stroke-width: 1.5;" x1="137" x2="259" y1="48" y2="48"/><!--MD5=[2cda217ae2b55f15709a601d27b84279]
reverse link IEquatable`1 to Vector3Int--><path d="M198,76.56 C198,88.38 198,101.84 198,115.97 " fill="none" id="IEquatable`1&lt;-Vector3Int" style="stroke: #A80036; stroke-width: 1.0;"/><polygon fill="none" points="191,76.13,198,56.13,205,76.13,191,76.13" style="stroke: #A80036; stroke-width: 1.0;"/><text fill="#000000" font-family="sans-serif" font-size="13" lengthAdjust="spacingAndGlyphs" textLength="88" x="99.275" y="75.9229">&lt;Vector3Int&gt;</text><!--MD5=[f7910b3ebe0dcbef8ceef4dfd29586cf]
link Vector3Int to Vector3Int--><path d="M390.1,254.04 C411.31,254.79 425,256.11 425,258 C425,259.73 413.56,260.98 395.4,261.75 " fill="none" id="Vector3Int-&gt;Vector3Int" style="stroke: #A80036; stroke-width: 1.0;"/><polygon fill="#A80036" points="390.1,261.96,399.2531,265.596,395.096,261.7596,398.9324,257.6025,390.1,261.96" style="stroke: #A80036; stroke-width: 1.0;"/><text fill="#000000" font-family="sans-serif" font-size="13" lengthAdjust="spacingAndGlyphs" textLength="71" x="398.2794" y="258.8945">normalized</text><!--MD5=[f7910b3ebe0dcbef8ceef4dfd29586cf]
link Vector3Int to Vector3Int--><path d="M390.22,248.89 C430.76,249.83 460,252.86 460,258 C460,262.92 433.22,265.91 395.38,266.97 " fill="none" id="Vector3Int-&gt;Vector3Int-1" style="stroke: #A80036; stroke-width: 1.0;"/><polygon fill="#A80036" points="390.22,267.11,399.3198,270.8773,395.2183,266.9815,399.1142,262.88,390.22,267.11" style="stroke: #A80036; stroke-width: 1.0;"/><text fill="#000000" font-family="sans-serif" font-size="13" lengthAdjust="spacingAndGlyphs" textLength="28" x="398.2755" y="279.8201">zero</text><!--MD5=[f7910b3ebe0dcbef8ceef4dfd29586cf]
link Vector3Int to Vector3Int--><path d="M390.1,243.89 C448.92,244.21 495,248.91 495,258 C495,266.82 451.58,271.51 395.24,272.07 " fill="none" id="Vector3Int-&gt;Vector3Int-2" style="stroke: #A80036; stroke-width: 1.0;"/><polygon fill="#A80036" points="390.1,272.11,399.134,276.0327,395.0998,272.0671,399.0654,268.033,390.1,272.11" style="stroke: #A80036; stroke-width: 1.0;"/><text fill="#000000" font-family="sans-serif" font-size="13" lengthAdjust="spacingAndGlyphs" textLength="24" x="398.0727" y="269.4295">one</text><!--MD5=[f7910b3ebe0dcbef8ceef4dfd29586cf]
link Vector3Int to Vector3Int--><path d="M390.3,239.27 C466.38,238.29 530,244.54 530,258 C530,271.15 469.33,277.41 395.63,276.79 " fill="none" id="Vector3Int-&gt;Vector3Int-3" style="stroke: #A80036; stroke-width: 1.0;"/><polygon fill="#A80036" points="390.3,276.73,399.2537,280.8326,395.2997,276.7871,399.3451,272.8331,390.3,276.73" style="stroke: #A80036; stroke-width: 1.0;"/><text fill="#000000" font-family="sans-serif" font-size="13" lengthAdjust="spacingAndGlyphs" textLength="29" x="397.7319" y="289.7343">right</text><!--MD5=[f7910b3ebe0dcbef8ceef4dfd29586cf]
link Vector3Int to Vector3Int--><path d="M390.12,235.05 C482.95,232.17 565,239.82 565,258 C565,275.84 485.97,283.54 395.28,281.1 " fill="none" id="Vector3Int-&gt;Vector3Int-4" style="stroke: #A80036; stroke-width: 1.0;"/><polygon fill="#A80036" points="390.12,280.95,399.0021,285.2054,395.118,281.0928,399.2306,277.2087,390.12,280.95" style="stroke: #A80036; stroke-width: 1.0;"/><text fill="#000000" font-family="sans-serif" font-size="13" lengthAdjust="spacingAndGlyphs" textLength="20" x="398.0153" y="294.2007">left</text><!--MD5=[f7910b3ebe0dcbef8ceef4dfd29586cf]
link Vector3Int to Vector3Int--><path d="M390.07,231.21 C499.04,225.95 600,234.88 600,258 C600,280.76 502.17,289.77 395.17,285.02 " fill="none" id="Vector3Int-&gt;Vector3Int-5" style="stroke: #A80036; stroke-width: 1.0;"/><polygon fill="#A80036" points="390.07,284.79,398.8653,289.2219,395.0641,285.0326,399.2535,281.2313,390.07,284.79" style="stroke: #A80036; stroke-width: 1.0;"/><text fill="#000000" font-family="sans-serif" font-size="13" lengthAdjust="spacingAndGlyphs" textLength="16" x="397.654" y="284.3099">up</text><!--MD5=[f7910b3ebe0dcbef8ceef4dfd29586cf]
link Vector3Int to Vector3Int--><path d="M390.07,227.72 C514.71,219.67 635,229.76 635,258 C635,285.85 517.97,296.05 395.18,288.6 " fill="none" id="Vector3Int-&gt;Vector3Int-6" style="stroke: #A80036; stroke-width: 1.0;"/><polygon fill="#A80036" points="390.07,288.28,398.8013,292.8367,395.0602,288.5937,399.3032,284.8525,390.07,288.28" style="stroke: #A80036; stroke-width: 1.0;"/><text fill="#000000" font-family="sans-serif" font-size="13" lengthAdjust="spacingAndGlyphs" textLength="33" x="398.2173" y="301.817">down</text><!--MD5=[f7910b3ebe0dcbef8ceef4dfd29586cf]
link Vector3Int to Vector3Int--><path d="M390.09,224.53 C530.01,213.35 670,224.5 670,258 C670,291.07 533.54,302.37 395.42,291.88 " fill="none" id="Vector3Int-&gt;Vector3Int-7" style="stroke: #A80036; stroke-width: 1.0;"/><polygon fill="#A80036" points="390.09,291.47,398.7547,296.1523,395.0751,291.8557,399.3717,288.1761,390.09,291.47" style="stroke: #A80036; stroke-width: 1.0;"/><text fill="#000000" font-family="sans-serif" font-size="13" lengthAdjust="spacingAndGlyphs" textLength="47" x="397.8378" y="305.0041">forward</text><!--MD5=[f7910b3ebe0dcbef8ceef4dfd29586cf]
link Vector3Int to Vector3Int--><path d="M390.15,221.62 C545.02,207 705,219.13 705,258 C705,296.45 548.43,308.74 395.14,294.85 " fill="none" id="Vector3Int-&gt;Vector3Int-8" style="stroke: #A80036; stroke-width: 1.0;"/><polygon fill="#A80036" points="390.15,294.38,398.7335,299.2095,395.1278,294.8507,399.4866,291.245,390.15,294.38" style="stroke: #A80036; stroke-width: 1.0;"/><text fill="#000000" font-family="sans-serif" font-size="13" lengthAdjust="spacingAndGlyphs" textLength="30" x="398.9016" y="316.014">back</text><!--MD5=[fef694877720892b5b91bf7cfd3d01d2]
@startuml
class Vector3Int <<struct>> {
    + x : int
    + y : int
    + z : int
    + Vector3Int(_x:float, _y:float)
    + Vector3Int(_x:float, _y:float, _z:float)
    + Vector3Int(_x:int, _y:int)
    + Vector3Int(_x:int, _y:int, _z:int)
    + magnitude : float <<get>>
    + Normalize() : void
    + {static} Distance(_lhs:Vector3Int, _rhs:Vector3Int) : float
    + {static} Dot(_lhs:Vector3Int, _rhs:Vector3Int) : float
    + {static} Cross(_lhs:Vector3Int, _rhs:Vector3Int) : Vector3Int
    + {static} Angle(_from:Vector3Int, _to:Vector3Int) : float
    + <<override>> GetHashCode() : int
    + <<override>> Equals(_other:object) : bool
    + Equals(_other:Vector3Int) : bool
    + <<override>> ToString() : string
    + {static} RandomVector(_minInclusive:int, _maxInclusive:int) : Vector3Int
}
class "IEquatable`1"<T> {
}
"IEquatable`1" "<Vector3Int>" <|- - Vector3Int
Vector3Int - -> "normalized" Vector3Int
Vector3Int - -> "zero" Vector3Int
Vector3Int - -> "one" Vector3Int
Vector3Int - -> "right" Vector3Int
Vector3Int - -> "left" Vector3Int
Vector3Int - -> "up" Vector3Int
Vector3Int - -> "down" Vector3Int
Vector3Int - -> "forward" Vector3Int
Vector3Int - -> "back" Vector3Int
@enduml

PlantUML version 1.2020.02(Sun Mar 01 10:22:07 GMT 2020)
(GPL source distribution)
Java Runtime: OpenJDK Runtime Environment
JVM: OpenJDK 64-Bit Server VM
Java Version: 11.0.9+11-Ubuntu-0ubuntu1
Operating System: Linux
Default Encoding: ANSI_X3.4-1968
Language: en
Country: US
--></g></svg>