<?xml version="1.0" encoding="UTF-8" standalone="no"?><svg xmlns="http://www.w3.org/2000/svg" xmlns:xlink="http://www.w3.org/1999/xlink" contentScriptType="application/ecmascript" contentStyleType="text/css" height="385px" preserveAspectRatio="none" style="width:728px;height:385px;" version="1.1" viewBox="0 0 728 385" width="728px" zoomAndPan="magnify"><defs><filter height="300%" id="fmvdxq70dcgkr" width="300%" x="-1" y="-1"><feGaussianBlur result="blurOut" stdDeviation="2.0"/><feColorMatrix in="blurOut" result="blurOut2" type="matrix" values="0 0 0 0 0 0 0 0 0 0 0 0 0 0 0 0 0 0 .4 0"/><feOffset dx="4.0" dy="4.0" in="blurOut2" result="blurOut3"/><feBlend in="SourceGraphic" in2="blurOut3" mode="normal"/></filter></defs><g><!--MD5=[65d619c042c23702cef2ca07d67b1cf6]
class Vector3--><rect fill="#FEFECE" filter="url(#fmvdxq70dcgkr)" height="258.8125" id="Vector3" style="stroke: #A80036; stroke-width: 1.5;" width="395" x="6" y="116"/><ellipse cx="174.75" cy="134.9688" fill="#ADD1B2" rx="11" ry="11" style="stroke: #A80036; stroke-width: 1.0;"/><path d="M177.7188,140.6094 Q177.1406,140.9063 176.5,141.0469 Q175.8594,141.2031 175.1563,141.2031 Q172.6563,141.2031 171.3281,139.5625 Q170.0156,137.9063 170.0156,134.7813 Q170.0156,131.6563 171.3281,130 Q172.6563,128.3438 175.1563,128.3438 Q175.8594,128.3438 176.5,128.5 Q177.1563,128.6563 177.7188,128.9531 L177.7188,131.6719 Q177.0938,131.0938 176.5,130.8281 Q175.9063,130.5469 175.2813,130.5469 Q173.9375,130.5469 173.25,131.625 Q172.5625,132.6875 172.5625,134.7813 Q172.5625,136.875 173.25,137.9531 Q173.9375,139.0156 175.2813,139.0156 Q175.9063,139.0156 176.5,138.75 Q177.0938,138.4688 177.7188,137.8906 L177.7188,140.6094 Z "/><text fill="#000000" font-family="sans-serif" font-size="12" font-style="italic" lengthAdjust="spacingAndGlyphs" textLength="50" x="194.75" y="132.1387">«struct»</text><text fill="#000000" font-family="sans-serif" font-size="12" lengthAdjust="spacingAndGlyphs" textLength="49" x="195.25" y="146.1074">Vector3</text><line style="stroke: #A80036; stroke-width: 1.5;" x1="7" x2="400" y1="153.9375" y2="153.9375"/><ellipse cx="17" cy="164.9375" fill="none" rx="3" ry="3" style="stroke: #038048; stroke-width: 1.0;"/><text fill="#000000" font-family="sans-serif" font-size="11" lengthAdjust="spacingAndGlyphs" textLength="43" x="26" y="168.1479">x : float</text><ellipse cx="17" cy="177.7422" fill="none" rx="3" ry="3" style="stroke: #038048; stroke-width: 1.0;"/><text fill="#000000" font-family="sans-serif" font-size="11" lengthAdjust="spacingAndGlyphs" textLength="43" x="26" y="180.9526">y : float</text><ellipse cx="17" cy="190.5469" fill="none" rx="3" ry="3" style="stroke: #038048; stroke-width: 1.0;"/><text fill="#000000" font-family="sans-serif" font-size="11" lengthAdjust="spacingAndGlyphs" textLength="42" x="26" y="193.7573">z : float</text><ellipse cx="17" cy="203.3516" fill="none" rx="3" ry="3" style="stroke: #038048; stroke-width: 1.0;"/><text fill="#000000" font-family="sans-serif" font-size="11" lengthAdjust="spacingAndGlyphs" textLength="133" x="26" y="206.562">magnitude : float «get»</text><line style="stroke: #A80036; stroke-width: 1.5;" x1="7" x2="400" y1="213.1563" y2="213.1563"/><ellipse cx="17" cy="224.1563" fill="#84BE84" rx="3" ry="3" style="stroke: #038048; stroke-width: 1.0;"/><text fill="#000000" font-family="sans-serif" font-size="11" lengthAdjust="spacingAndGlyphs" textLength="141" x="26" y="227.3667">Vector3(_x:float, _y:float)</text><ellipse cx="17" cy="236.9609" fill="#84BE84" rx="3" ry="3" style="stroke: #038048; stroke-width: 1.0;"/><text fill="#000000" font-family="sans-serif" font-size="11" lengthAdjust="spacingAndGlyphs" textLength="189" x="26" y="240.1714">Vector3(_x:float, _y:float, _z:float)</text><ellipse cx="17" cy="249.7656" fill="#84BE84" rx="3" ry="3" style="stroke: #038048; stroke-width: 1.0;"/><text fill="#000000" font-family="sans-serif" font-size="11" lengthAdjust="spacingAndGlyphs" textLength="99" x="26" y="252.9761">Normalize() : void</text><ellipse cx="17" cy="262.5703" fill="#84BE84" rx="3" ry="3" style="stroke: #038048; stroke-width: 1.0;"/><text fill="#000000" font-family="sans-serif" font-size="11" lengthAdjust="spacingAndGlyphs" text-decoration="underline" textLength="244" x="26" y="265.7808">Distance(_lhs:Vector3, _rhs:Vector3) : float</text><ellipse cx="17" cy="275.375" fill="#84BE84" rx="3" ry="3" style="stroke: #038048; stroke-width: 1.0;"/><text fill="#000000" font-family="sans-serif" font-size="11" lengthAdjust="spacingAndGlyphs" text-decoration="underline" textLength="214" x="26" y="278.5854">Dot(_lhs:Vector3, _rhs:Vector3) : float</text><ellipse cx="17" cy="288.1797" fill="#84BE84" rx="3" ry="3" style="stroke: #038048; stroke-width: 1.0;"/><text fill="#000000" font-family="sans-serif" font-size="11" lengthAdjust="spacingAndGlyphs" text-decoration="underline" textLength="247" x="26" y="291.3901">Cross(_lhs:Vector3, _rhs:Vector3) : Vector3</text><ellipse cx="17" cy="300.9844" fill="#84BE84" rx="3" ry="3" style="stroke: #038048; stroke-width: 1.0;"/><text fill="#000000" font-family="sans-serif" font-size="11" lengthAdjust="spacingAndGlyphs" text-decoration="underline" textLength="228" x="26" y="304.1948">Angle(_from:Vector3, _to:Vector3) : float</text><ellipse cx="17" cy="313.7891" fill="#84BE84" rx="3" ry="3" style="stroke: #038048; stroke-width: 1.0;"/><text fill="#000000" font-family="sans-serif" font-size="11" lengthAdjust="spacingAndGlyphs" textLength="177" x="26" y="316.9995">«override» GetHashCode() : int</text><ellipse cx="17" cy="326.5938" fill="#84BE84" rx="3" ry="3" style="stroke: #038048; stroke-width: 1.0;"/><text fill="#000000" font-family="sans-serif" font-size="11" lengthAdjust="spacingAndGlyphs" textLength="221" x="26" y="329.8042">«override» Equals(_other:object) : bool</text><ellipse cx="17" cy="339.3984" fill="#84BE84" rx="3" ry="3" style="stroke: #038048; stroke-width: 1.0;"/><text fill="#000000" font-family="sans-serif" font-size="11" lengthAdjust="spacingAndGlyphs" textLength="165" x="26" y="342.6089">Equals(_other:Vector3) : bool</text><ellipse cx="17" cy="352.2031" fill="#84BE84" rx="3" ry="3" style="stroke: #038048; stroke-width: 1.0;"/><text fill="#000000" font-family="sans-serif" font-size="11" lengthAdjust="spacingAndGlyphs" textLength="166" x="26" y="355.4136">«override» ToString() : string</text><ellipse cx="17" cy="365.0078" fill="#84BE84" rx="3" ry="3" style="stroke: #038048; stroke-width: 1.0;"/><text fill="#000000" font-family="sans-serif" font-size="11" lengthAdjust="spacingAndGlyphs" text-decoration="underline" textLength="369" x="26" y="368.2183">RandomVector(_minInclusive:float, _maxExclusive:float) : Vector3</text><!--MD5=[360575ecdc123693e9e157d6e9effc89]
class IEquatable`1--><rect fill="#FEFECE" filter="url(#fmvdxq70dcgkr)" height="48" id="IEquatable`1" style="stroke: #A80036; stroke-width: 1.5;" width="124" x="141.5" y="8"/><ellipse cx="156.5" cy="24" fill="#ADD1B2" rx="11" ry="11" style="stroke: #A80036; stroke-width: 1.0;"/><path d="M159.4688,29.6406 Q158.8906,29.9375 158.25,30.0781 Q157.6094,30.2344 156.9063,30.2344 Q154.4063,30.2344 153.0781,28.5938 Q151.7656,26.9375 151.7656,23.8125 Q151.7656,20.6875 153.0781,19.0313 Q154.4063,17.375 156.9063,17.375 Q157.6094,17.375 158.25,17.5313 Q158.9063,17.6875 159.4688,17.9844 L159.4688,20.7031 Q158.8438,20.125 158.25,19.8594 Q157.6563,19.5781 157.0313,19.5781 Q155.6875,19.5781 155,20.6563 Q154.3125,21.7188 154.3125,23.8125 Q154.3125,25.9063 155,26.9844 Q155.6875,28.0469 157.0313,28.0469 Q157.6563,28.0469 158.25,27.7813 Q158.8438,27.5 159.4688,26.9219 L159.4688,29.6406 Z "/><text fill="#000000" font-family="sans-serif" font-size="12" lengthAdjust="spacingAndGlyphs" textLength="81" x="170.5" y="28.1543">IEquatable`1</text><rect fill="#FFFFFF" height="15.9688" style="stroke: #000000; stroke-width: 1.0; stroke-dasharray: 2.0,2.0;" width="9" x="259.5" y="5"/><text fill="#000000" font-family="sans-serif" font-size="12" font-style="italic" lengthAdjust="spacingAndGlyphs" textLength="7" x="260.5" y="17.1387">T</text><line style="stroke: #A80036; stroke-width: 1.5;" x1="142.5" x2="264.5" y1="40" y2="40"/><line style="stroke: #A80036; stroke-width: 1.5;" x1="142.5" x2="264.5" y1="48" y2="48"/><!--MD5=[6001a4e158effab1648cc51763a584e9]
reverse link IEquatable`1 to Vector3--><path d="M203.5,76.06 C203.5,88 203.5,101.6 203.5,115.79 " fill="none" id="IEquatable`1&lt;-Vector3" style="stroke: #A80036; stroke-width: 1.0;"/><polygon fill="none" points="196.5,76.04,203.5,56.04,210.5,76.04,196.5,76.04" style="stroke: #A80036; stroke-width: 1.0;"/><text fill="#000000" font-family="sans-serif" font-size="13" lengthAdjust="spacingAndGlyphs" textLength="72" x="122.275" y="76.206">&lt;Vector3&gt;</text><!--MD5=[b80509f3fa37265649a27f5fc1c530ef]
link Vector3 to Vector3--><path d="M401.1,241.81 C422.34,242.52 436,243.75 436,245.5 C436,247.1 424.59,248.26 406.4,248.99 " fill="none" id="Vector3-&gt;Vector3" style="stroke: #A80036; stroke-width: 1.0;"/><polygon fill="#A80036" points="401.1,249.19,410.2427,252.8522,406.0965,249.0039,409.9449,244.8578,401.1,249.19" style="stroke: #A80036; stroke-width: 1.0;"/><text fill="#000000" font-family="sans-serif" font-size="13" lengthAdjust="spacingAndGlyphs" textLength="71" x="408.7486" y="246.1371">normalized</text><!--MD5=[b80509f3fa37265649a27f5fc1c530ef]
link Vector3 to Vector3--><path d="M401.23,236.99 C441.85,237.9 471,240.74 471,245.5 C471,250.06 444.3,252.85 406.4,253.88 " fill="none" id="Vector3-&gt;Vector3-1" style="stroke: #A80036; stroke-width: 1.0;"/><polygon fill="#A80036" points="401.23,254.01,410.3298,257.7773,406.2283,253.8815,410.1242,249.78,401.23,254.01" style="stroke: #A80036; stroke-width: 1.0;"/><text fill="#000000" font-family="sans-serif" font-size="13" lengthAdjust="spacingAndGlyphs" textLength="28" x="408.839" y="266.658">zero</text><!--MD5=[b80509f3fa37265649a27f5fc1c530ef]
link Vector3 to Vector3--><path d="M401.34,232.28 C460.2,232.67 506,237.08 506,245.5 C506,253.67 462.84,258.06 406.48,258.68 " fill="none" id="Vector3-&gt;Vector3-2" style="stroke: #A80036; stroke-width: 1.0;"/><polygon fill="#A80036" points="401.34,258.72,410.374,262.6427,406.3398,258.6771,410.3054,254.643,401.34,258.72" style="stroke: #A80036; stroke-width: 1.0;"/><text fill="#000000" font-family="sans-serif" font-size="13" lengthAdjust="spacingAndGlyphs" textLength="24" x="408.8811" y="255.9982">one</text><!--MD5=[b80509f3fa37265649a27f5fc1c530ef]
link Vector3 to Vector3--><path d="M401.1,227.9 C477.5,227.12 541,232.99 541,245.5 C541,257.72 480.44,263.6 406.45,263.14 " fill="none" id="Vector3-&gt;Vector3-3" style="stroke: #A80036; stroke-width: 1.0;"/><polygon fill="#A80036" points="401.1,263.1,410.0654,267.177,406.0998,263.1429,410.134,259.1773,401.1,263.1" style="stroke: #A80036; stroke-width: 1.0;"/><text fill="#000000" font-family="sans-serif" font-size="13" lengthAdjust="spacingAndGlyphs" textLength="29" x="408.7223" y="276.0747">right</text><!--MD5=[b80509f3fa37265649a27f5fc1c530ef]
link Vector3 to Vector3--><path d="M401.36,223.89 C494.4,221.42 576,228.62 576,245.5 C576,262.07 497.4,269.31 406.52,267.24 " fill="none" id="Vector3-&gt;Vector3-4" style="stroke: #A80036; stroke-width: 1.0;"/><polygon fill="#A80036" points="401.36,267.11,410.2542,271.34,406.3583,267.2385,410.4598,263.3427,401.36,267.11" style="stroke: #A80036; stroke-width: 1.0;"/><text fill="#000000" font-family="sans-serif" font-size="13" lengthAdjust="spacingAndGlyphs" textLength="20" x="408.83" y="280.2288">left</text><!--MD5=[b80509f3fa37265649a27f5fc1c530ef]
link Vector3 to Vector3--><path d="M401.1,220.25 C510.44,215.59 611,224 611,245.5 C611,266.66 513.56,275.15 406.22,270.96 " fill="none" id="Vector3-&gt;Vector3-5" style="stroke: #A80036; stroke-width: 1.0;"/><polygon fill="#A80036" points="401.1,270.75,409.9329,275.1065,406.096,270.9498,410.2527,267.1129,401.1,270.75" style="stroke: #A80036; stroke-width: 1.0;"/><text fill="#000000" font-family="sans-serif" font-size="13" lengthAdjust="spacingAndGlyphs" textLength="16" x="409.3925" y="270.1116">up</text><!--MD5=[b80509f3fa37265649a27f5fc1c530ef]
link Vector3 to Vector3--><path d="M401.15,216.91 C526.22,209.7 646,219.23 646,245.5 C646,271.41 529.47,281.03 406.27,274.37 " fill="none" id="Vector3-&gt;Vector3-6" style="stroke: #A80036; stroke-width: 1.0;"/><polygon fill="#A80036" points="401.15,274.09,409.9064,278.5984,406.1418,274.3761,410.3641,270.6115,401.15,274.09" style="stroke: #A80036; stroke-width: 1.0;"/><text fill="#000000" font-family="sans-serif" font-size="13" lengthAdjust="spacingAndGlyphs" textLength="33" x="408.846" y="287.4596">down</text><!--MD5=[b80509f3fa37265649a27f5fc1c530ef]
link Vector3 to Vector3--><path d="M401.25,213.86 C541.65,203.78 681,214.33 681,245.5 C681,276.27 545.17,286.95 406.6,277.52 " fill="none" id="Vector3-&gt;Vector3-7" style="stroke: #A80036; stroke-width: 1.0;"/><polygon fill="#A80036" points="401.25,277.14,409.9553,281.7463,406.2383,277.4821,410.5026,273.7651,401.25,277.14" style="stroke: #A80036; stroke-width: 1.0;"/><text fill="#000000" font-family="sans-serif" font-size="13" lengthAdjust="spacingAndGlyphs" textLength="47" x="409.2012" y="290.6192">forward</text><!--MD5=[b80509f3fa37265649a27f5fc1c530ef]
link Vector3 to Vector3--><path d="M401.07,211.08 C556.57,197.82 716,209.3 716,245.5 C716,281.32 559.97,292.93 406.08,280.34 " fill="none" id="Vector3-&gt;Vector3-8" style="stroke: #A80036; stroke-width: 1.0;"/><polygon fill="#A80036" points="401.07,279.92,409.7079,284.6515,406.0528,280.334,410.3703,276.679,401.07,279.92" style="stroke: #A80036; stroke-width: 1.0;"/><text fill="#000000" font-family="sans-serif" font-size="13" lengthAdjust="spacingAndGlyphs" textLength="30" x="408.7251" y="300.6659">back</text><!--MD5=[ce30df70e2a2029004c8b2873108f5a8]
@startuml
class Vector3 <<struct>> {
    + x : float
    + y : float
    + z : float
    + Vector3(_x:float, _y:float)
    + Vector3(_x:float, _y:float, _z:float)
    + magnitude : float <<get>>
    + Normalize() : void
    + {static} Distance(_lhs:Vector3, _rhs:Vector3) : float
    + {static} Dot(_lhs:Vector3, _rhs:Vector3) : float
    + {static} Cross(_lhs:Vector3, _rhs:Vector3) : Vector3
    + {static} Angle(_from:Vector3, _to:Vector3) : float
    + <<override>> GetHashCode() : int
    + <<override>> Equals(_other:object) : bool
    + Equals(_other:Vector3) : bool
    + <<override>> ToString() : string
    + {static} RandomVector(_minInclusive:float, _maxExclusive:float) : Vector3
}
class "IEquatable`1"<T> {
}
"IEquatable`1" "<Vector3>" <|- - Vector3
Vector3 - -> "normalized" Vector3
Vector3 - -> "zero" Vector3
Vector3 - -> "one" Vector3
Vector3 - -> "right" Vector3
Vector3 - -> "left" Vector3
Vector3 - -> "up" Vector3
Vector3 - -> "down" Vector3
Vector3 - -> "forward" Vector3
Vector3 - -> "back" Vector3
@enduml

PlantUML version 1.2020.02(Sun Mar 01 10:22:07 GMT 2020)
(GPL source distribution)
Java Runtime: OpenJDK Runtime Environment
JVM: OpenJDK 64-Bit Server VM
Java Version: 11.0.9+11-Ubuntu-0ubuntu1
Operating System: Linux
Default Encoding: ANSI_X3.4-1968
Language: en
Country: US
--></g></svg>