<?xml version="1.0" encoding="UTF-8" standalone="no"?><svg xmlns="http://www.w3.org/2000/svg" xmlns:xlink="http://www.w3.org/1999/xlink" contentScriptType="application/ecmascript" contentStyleType="text/css" height="372px" preserveAspectRatio="none" style="width:749px;height:372px;" version="1.1" viewBox="0 0 749 372" width="749px" zoomAndPan="magnify"><defs><filter height="300%" id="f1sawmp5s9r6l2" width="300%" x="-1" y="-1"><feGaussianBlur result="blurOut" stdDeviation="2.0"/><feColorMatrix in="blurOut" result="blurOut2" type="matrix" values="0 0 0 0 0 0 0 0 0 0 0 0 0 0 0 0 0 0 .4 0"/><feOffset dx="4.0" dy="4.0" in="blurOut2" result="blurOut3"/><feBlend in="SourceGraphic" in2="blurOut3" mode="normal"/></filter></defs><g><!--MD5=[452be1aaf8b94e2bc4204d466ef769a4]
class Camera--><rect fill="#FEFECE" filter="url(#f1sawmp5s9r6l2)" height="112.0234" id="Camera" style="stroke: #A80036; stroke-width: 1.5;" width="163" x="56.5" y="116"/><ellipse cx="109.75" cy="132" fill="#ADD1B2" rx="11" ry="11" style="stroke: #A80036; stroke-width: 1.0;"/><path d="M112.7188,137.6406 Q112.1406,137.9375 111.5,138.0781 Q110.8594,138.2344 110.1563,138.2344 Q107.6563,138.2344 106.3281,136.5938 Q105.0156,134.9375 105.0156,131.8125 Q105.0156,128.6875 106.3281,127.0313 Q107.6563,125.375 110.1563,125.375 Q110.8594,125.375 111.5,125.5313 Q112.1563,125.6875 112.7188,125.9844 L112.7188,128.7031 Q112.0938,128.125 111.5,127.8594 Q110.9063,127.5781 110.2813,127.5781 Q108.9375,127.5781 108.25,128.6563 Q107.5625,129.7188 107.5625,131.8125 Q107.5625,133.9063 108.25,134.9844 Q108.9375,136.0469 110.2813,136.0469 Q110.9063,136.0469 111.5,135.7813 Q112.0938,135.5 112.7188,134.9219 L112.7188,137.6406 Z "/><text fill="#000000" font-family="sans-serif" font-size="12" lengthAdjust="spacingAndGlyphs" textLength="48" x="130.25" y="136.1543">Camera</text><line style="stroke: #A80036; stroke-width: 1.5;" x1="57.5" x2="218.5" y1="148" y2="148"/><ellipse cx="67.5" cy="159" fill="none" rx="3" ry="3" style="stroke: #038048; stroke-width: 1.0;"/><text fill="#000000" font-family="sans-serif" font-size="11" lengthAdjust="spacingAndGlyphs" textLength="107" x="76.5" y="162.2104">fovY : float = 45.0f</text><ellipse cx="67.5" cy="171.8047" fill="none" rx="3" ry="3" style="stroke: #038048; stroke-width: 1.0;"/><text fill="#000000" font-family="sans-serif" font-size="11" lengthAdjust="spacingAndGlyphs" textLength="123" x="76.5" y="175.0151">camSize : float = 0.0f</text><ellipse cx="67.5" cy="184.6094" fill="none" rx="3" ry="3" style="stroke: #038048; stroke-width: 1.0;"/><text fill="#000000" font-family="sans-serif" font-size="11" lengthAdjust="spacingAndGlyphs" textLength="133" x="76.5" y="187.8198">nearPlane : float = 0.1f</text><ellipse cx="67.5" cy="197.4141" fill="none" rx="3" ry="3" style="stroke: #038048; stroke-width: 1.0;"/><text fill="#000000" font-family="sans-serif" font-size="11" lengthAdjust="spacingAndGlyphs" textLength="137" x="76.5" y="200.6245">farPlane : float = 100.0f</text><line style="stroke: #A80036; stroke-width: 1.5;" x1="57.5" x2="218.5" y1="207.2188" y2="207.2188"/><ellipse cx="67.5" cy="218.2188" fill="#84BE84" rx="3" ry="3" style="stroke: #038048; stroke-width: 1.0;"/><text fill="#000000" font-family="sans-serif" font-size="11" lengthAdjust="spacingAndGlyphs" textLength="53" x="76.5" y="221.4292">Camera()</text><!--MD5=[abe0da5fbd130c81a6e599d6ca83d066]
class ProjectionType--><rect fill="#FEFECE" filter="url(#f1sawmp5s9r6l2)" height="73.6094" id="ProjectionType" style="stroke: #A80036; stroke-width: 1.5;" width="124" x="6" y="288"/><ellipse cx="21" cy="304" fill="#EB937F" rx="11" ry="11" style="stroke: #A80036; stroke-width: 1.0;"/><path d="M25.1094,310 L17.3906,310 L17.3906,297.6094 L25.1094,297.6094 L25.1094,299.7656 L19.8438,299.7656 L19.8438,302.4375 L24.6094,302.4375 L24.6094,304.5938 L19.8438,304.5938 L19.8438,307.8438 L25.1094,307.8438 L25.1094,310 Z "/><text fill="#000000" font-family="sans-serif" font-size="12" lengthAdjust="spacingAndGlyphs" textLength="92" x="35" y="308.1543">ProjectionType</text><line style="stroke: #A80036; stroke-width: 1.5;" x1="7" x2="129" y1="320" y2="320"/><text fill="#000000" font-family="sans-serif" font-size="11" lengthAdjust="spacingAndGlyphs" textLength="90" x="12" y="334.2104">Perspective= 0,</text><text fill="#000000" font-family="sans-serif" font-size="11" lengthAdjust="spacingAndGlyphs" textLength="98" x="12" y="347.0151">Orthographic= 1,</text><line style="stroke: #A80036; stroke-width: 1.5;" x1="7" x2="129" y1="353.6094" y2="353.6094"/><!--MD5=[cac37eab84bb0dd9edfd92f8a9a575d5]
class BackgroundType--><rect fill="#FEFECE" filter="url(#f1sawmp5s9r6l2)" height="73.6094" id="BackgroundType" style="stroke: #A80036; stroke-width: 1.5;" width="136" x="380" y="135"/><ellipse cx="395" cy="151" fill="#EB937F" rx="11" ry="11" style="stroke: #A80036; stroke-width: 1.0;"/><path d="M399.1094,157 L391.3906,157 L391.3906,144.6094 L399.1094,144.6094 L399.1094,146.7656 L393.8438,146.7656 L393.8438,149.4375 L398.6094,149.4375 L398.6094,151.5938 L393.8438,151.5938 L393.8438,154.8438 L399.1094,154.8438 L399.1094,157 Z "/><text fill="#000000" font-family="sans-serif" font-size="12" lengthAdjust="spacingAndGlyphs" textLength="104" x="409" y="155.1543">BackgroundType</text><line style="stroke: #A80036; stroke-width: 1.5;" x1="381" x2="515" y1="167" y2="167"/><text fill="#000000" font-family="sans-serif" font-size="11" lengthAdjust="spacingAndGlyphs" textLength="89" x="386" y="181.2104">SolidColour= 1,</text><text fill="#000000" font-family="sans-serif" font-size="11" lengthAdjust="spacingAndGlyphs" textLength="64" x="386" y="194.0151">Skybox= 2,</text><line style="stroke: #A80036; stroke-width: 1.5;" x1="381" x2="515" y1="200.6094" y2="200.6094"/><!--MD5=[064f7a74fee85463ec1a30143664ee17]
class GameObject--><rect fill="#FEFECE" filter="url(#f1sawmp5s9r6l2)" height="48" id="GameObject" style="stroke: #A80036; stroke-width: 1.5;" width="108" x="84" y="8"/><ellipse cx="99" cy="24" fill="#ADD1B2" rx="11" ry="11" style="stroke: #A80036; stroke-width: 1.0;"/><path d="M101.9688,29.6406 Q101.3906,29.9375 100.75,30.0781 Q100.1094,30.2344 99.4063,30.2344 Q96.9063,30.2344 95.5781,28.5938 Q94.2656,26.9375 94.2656,23.8125 Q94.2656,20.6875 95.5781,19.0313 Q96.9063,17.375 99.4063,17.375 Q100.1094,17.375 100.75,17.5313 Q101.4063,17.6875 101.9688,17.9844 L101.9688,20.7031 Q101.3438,20.125 100.75,19.8594 Q100.1563,19.5781 99.5313,19.5781 Q98.1875,19.5781 97.5,20.6563 Q96.8125,21.7188 96.8125,23.8125 Q96.8125,25.9063 97.5,26.9844 Q98.1875,28.0469 99.5313,28.0469 Q100.1563,28.0469 100.75,27.7813 Q101.3438,27.5 101.9688,26.9219 L101.9688,29.6406 Z "/><text fill="#000000" font-family="sans-serif" font-size="12" lengthAdjust="spacingAndGlyphs" textLength="76" x="113" y="28.1543">GameObject</text><line style="stroke: #A80036; stroke-width: 1.5;" x1="85" x2="191" y1="40" y2="40"/><line style="stroke: #A80036; stroke-width: 1.5;" x1="85" x2="191" y1="48" y2="48"/><!--MD5=[95c6488d7c6702441d244c7706a4cd5e]
class Matrix4x4--><rect fill="#FEFECE" filter="url(#f1sawmp5s9r6l2)" height="48" id="Matrix4x4" style="stroke: #A80036; stroke-width: 1.5;" width="91" x="551.5" y="148"/><ellipse cx="566.5" cy="164" fill="#ADD1B2" rx="11" ry="11" style="stroke: #A80036; stroke-width: 1.0;"/><path d="M569.4688,169.6406 Q568.8906,169.9375 568.25,170.0781 Q567.6094,170.2344 566.9063,170.2344 Q564.4063,170.2344 563.0781,168.5938 Q561.7656,166.9375 561.7656,163.8125 Q561.7656,160.6875 563.0781,159.0313 Q564.4063,157.375 566.9063,157.375 Q567.6094,157.375 568.25,157.5313 Q568.9063,157.6875 569.4688,157.9844 L569.4688,160.7031 Q568.8438,160.125 568.25,159.8594 Q567.6563,159.5781 567.0313,159.5781 Q565.6875,159.5781 565,160.6563 Q564.3125,161.7188 564.3125,163.8125 Q564.3125,165.9063 565,166.9844 Q565.6875,168.0469 567.0313,168.0469 Q567.6563,168.0469 568.25,167.7813 Q568.8438,167.5 569.4688,166.9219 L569.4688,169.6406 Z "/><text fill="#000000" font-family="sans-serif" font-size="12" lengthAdjust="spacingAndGlyphs" textLength="59" x="580.5" y="168.1543">Matrix4x4</text><line style="stroke: #A80036; stroke-width: 1.5;" x1="552.5" x2="641.5" y1="180" y2="180"/><line style="stroke: #A80036; stroke-width: 1.5;" x1="552.5" x2="641.5" y1="188" y2="188"/><!--MD5=[45bfc27dd99ef1706679d8648dbf1ea4]
class required--><rect fill="#FEFECE" filter="url(#f1sawmp5s9r6l2)" height="48" id="required" style="stroke: #A80036; stroke-width: 1.5;" width="85" x="165.5" y="301"/><ellipse cx="180.5" cy="317" fill="#ADD1B2" rx="11" ry="11" style="stroke: #A80036; stroke-width: 1.0;"/><path d="M183.4688,322.6406 Q182.8906,322.9375 182.25,323.0781 Q181.6094,323.2344 180.9063,323.2344 Q178.4063,323.2344 177.0781,321.5938 Q175.7656,319.9375 175.7656,316.8125 Q175.7656,313.6875 177.0781,312.0313 Q178.4063,310.375 180.9063,310.375 Q181.6094,310.375 182.25,310.5313 Q182.9063,310.6875 183.4688,310.9844 L183.4688,313.7031 Q182.8438,313.125 182.25,312.8594 Q181.6563,312.5781 181.0313,312.5781 Q179.6875,312.5781 179,313.6563 Q178.3125,314.7188 178.3125,316.8125 Q178.3125,318.9063 179,319.9844 Q179.6875,321.0469 181.0313,321.0469 Q181.6563,321.0469 182.25,320.7813 Q182.8438,320.5 183.4688,319.9219 L183.4688,322.6406 Z "/><text fill="#000000" font-family="sans-serif" font-size="12" lengthAdjust="spacingAndGlyphs" textLength="53" x="194.5" y="321.1543">required</text><line style="stroke: #A80036; stroke-width: 1.5;" x1="166.5" x2="249.5" y1="333" y2="333"/><line style="stroke: #A80036; stroke-width: 1.5;" x1="166.5" x2="249.5" y1="341" y2="341"/><!--MD5=[4d4eb26d042d74c9fb837d4bd92f5625]
class Colour--><rect fill="#FEFECE" filter="url(#f1sawmp5s9r6l2)" height="48" id="Colour" style="stroke: #A80036; stroke-width: 1.5;" width="72" x="273" y="148"/><ellipse cx="288" cy="164" fill="#ADD1B2" rx="11" ry="11" style="stroke: #A80036; stroke-width: 1.0;"/><path d="M290.9688,169.6406 Q290.3906,169.9375 289.75,170.0781 Q289.1094,170.2344 288.4063,170.2344 Q285.9063,170.2344 284.5781,168.5938 Q283.2656,166.9375 283.2656,163.8125 Q283.2656,160.6875 284.5781,159.0313 Q285.9063,157.375 288.4063,157.375 Q289.1094,157.375 289.75,157.5313 Q290.4063,157.6875 290.9688,157.9844 L290.9688,160.7031 Q290.3438,160.125 289.75,159.8594 Q289.1563,159.5781 288.5313,159.5781 Q287.1875,159.5781 286.5,160.6563 Q285.8125,161.7188 285.8125,163.8125 Q285.8125,165.9063 286.5,166.9844 Q287.1875,168.0469 288.5313,168.0469 Q289.1563,168.0469 289.75,167.7813 Q290.3438,167.5 290.9688,166.9219 L290.9688,169.6406 Z "/><text fill="#000000" font-family="sans-serif" font-size="12" lengthAdjust="spacingAndGlyphs" textLength="40" x="302" y="168.1543">Colour</text><line style="stroke: #A80036; stroke-width: 1.5;" x1="274" x2="344" y1="180" y2="180"/><line style="stroke: #A80036; stroke-width: 1.5;" x1="274" x2="344" y1="188" y2="188"/><!--MD5=[455b3878053673eb324d55db35f0311b]
reverse link GameObject to Camera--><path d="M138,76.25 C138,88.82 138,102.73 138,115.93 " fill="none" id="GameObject&lt;-Camera" style="stroke: #A80036; stroke-width: 1.0;"/><polygon fill="none" points="131,76.1,138,56.1,145,76.1,131,76.1" style="stroke: #A80036; stroke-width: 1.0;"/><!--MD5=[f173aa7962a2f23c6d9ce5a7c0debb1c]
link Camera to Camera--><path d="M219.66,146.16 C239.63,148.07 254.5,156.69 254.5,172 C254.5,186 242.08,194.4 224.69,197.2 " fill="none" id="Camera-&gt;Camera" style="stroke: #A80036; stroke-width: 1.0;"/><polygon fill="#A80036" points="219.66,197.84,229.0917,200.6761,224.6203,197.211,228.0853,192.7396,219.66,197.84" style="stroke: #A80036; stroke-width: 1.0;"/><text fill="#000000" font-family="sans-serif" font-size="13" lengthAdjust="spacingAndGlyphs" textLength="89" x="223.0522" y="216.0398">activeCamera</text><!--MD5=[c096e6caa077e0612dd39924b7533c9d]
link Camera to Matrix4x4--><path d="M219.14,115.82 C234.63,107.64 251.17,100.48 267.67,96 C322.28,81.17 470.14,74.11 522.33,96 C545.29,105.63 564.75,126.14 578.04,143.43 " fill="none" id="Camera-&gt;Matrix4x4" style="stroke: #A80036; stroke-width: 1.0;"/><polygon fill="#A80036" points="581.28,147.75,579.08,138.15,578.28,143.75,572.68,142.95,581.28,147.75" style="stroke: #A80036; stroke-width: 1.0;"/><text fill="#000000" font-family="sans-serif" font-size="13" lengthAdjust="spacingAndGlyphs" textLength="68" x="585.7357" y="137.094">ViewMatrix</text><!--MD5=[c096e6caa077e0612dd39924b7533c9d]
link Camera to Matrix4x4--><path d="M212.9623,109.1373 C212.9623,109.1373 256.49,83.03 279.33,76 C328.47,60.89 463.71,55.08 510.67,76 C538.56,88.43 561.22,114.82 576.31,136.79 " fill="none" id="Camera-Matrix4x4" style="stroke: #A80036; stroke-width: 1.0;"/><polygon fill="#A80036" points="583.5,147.78,581.9099,138.0603,580.7583,143.5987,575.2199,142.4471,583.5,147.78" style="stroke: #A80036; stroke-width: 1.0;"/><line style="stroke: #A80036; stroke-width: 1.0;" x1="580.7583" x2="576.385" y1="143.5987" y2="136.905"/><polygon fill="#FFFFFF" points="203.07,115.93,210.2804,115.8311,212.9623,109.1373,205.7519,109.2362,203.07,115.93" style="stroke: #A80036; stroke-width: 1.0;"/><text fill="#000000" font-family="sans-serif" font-size="13" lengthAdjust="spacingAndGlyphs" textLength="102" x="635.0625" y="136.9482">ProjectionMatrix</text><!--MD5=[078ebd1dc3dbee9771d4dc21cccc3360]
link Camera to required--><path d="M163.67,228.37 C174.39,251.49 186.37,277.33 195.17,296.32 " fill="none" id="Camera-&gt;required" style="stroke: #A80036; stroke-width: 1.0;"/><polygon fill="#A80036" points="197.33,300.99,197.1844,291.1422,195.232,296.4515,189.9228,294.499,197.33,300.99" style="stroke: #A80036; stroke-width: 1.0;"/><text fill="#000000" font-family="sans-serif" font-size="13" lengthAdjust="spacingAndGlyphs" textLength="93" x="206.5114" y="289.9995">ProjectionType</text><!--MD5=[eb17407a7616c4f3b6c3e30db0e3a4db]
link Camera to BackgroundType--><path d="M229.8678,110.4429 C229.8678,110.4429 255.3,99.36 267.67,96 C303.55,86.26 316.19,83.84 351.33,96 C369.86,102.41 387.53,114 402.57,126.22 " fill="none" id="Camera-BackgroundType" style="stroke: #A80036; stroke-width: 1.0;"/><polygon fill="#A80036" points="412.55,134.74,408.2965,125.857,408.7452,131.496,403.1062,131.9447,412.55,134.74" style="stroke: #A80036; stroke-width: 1.0;"/><line style="stroke: #A80036; stroke-width: 1.0;" x1="408.7452" x2="402.66" y1="131.496" y2="126.3"/><polygon fill="#FFFFFF" points="219.14,115.82,226.2963,116.7074,229.8678,110.4429,222.7116,109.5555,219.14,115.82" style="stroke: #A80036; stroke-width: 1.0;"/><text fill="#000000" font-family="sans-serif" font-size="13" lengthAdjust="spacingAndGlyphs" textLength="105" x="291.8839" y="123.8806">backgroundType</text><!--MD5=[7951f2cf589059147959a3a41070a903]
reverse link Camera to BackgroundType--><path d="M215.64,107.34 C235.27,94.47 257.12,82.83 279.33,76 C304.96,68.12 314.59,66.49 339.67,76 C370.68,87.76 398.52,112.92 418.2,134.53 " fill="none" id="Camera&lt;-BackgroundType" style="stroke: #A80036; stroke-width: 1.0;"/><ellipse cx="209.6708" cy="111.4101" fill="#FFFFFF" rx="8" ry="8" style="stroke: #A80036; stroke-width: 1.0;"/><line style="stroke: #A80036; stroke-width: 1.0;" x1="216.2716" x2="203.07" y1="106.8901" y2="115.93"/><line style="stroke: #A80036; stroke-width: 1.0;" x1="214.1907" x2="205.1508" y1="118.0108" y2="104.8093"/><!--MD5=[52cfa691c7380bb15d6909b33fed1604]
link Camera to Colour--><path d="M231.8235,213.5246 C231.8235,213.5246 256.37,208.59 268.12,202.56 " fill="none" id="Camera-Colour" style="stroke: #A80036; stroke-width: 1.0;"/><polygon fill="#A80036" points="279.39,196.05,269.5958,197.0863,275.06,198.5502,273.5961,204.0144,279.39,196.05" style="stroke: #A80036; stroke-width: 1.0;"/><line style="stroke: #A80036; stroke-width: 1.0;" x1="275.06" x2="268.135" y1="198.5502" y2="202.55"/><polygon fill="#FFFFFF" points="219.83,213.92,225.9585,217.7201,231.8235,213.5246,225.6949,209.7245,219.83,213.92" style="stroke: #A80036; stroke-width: 1.0;"/><text fill="#000000" font-family="sans-serif" font-size="13" lengthAdjust="spacingAndGlyphs" textLength="73" x="191.3305" y="213.0755">mainColour</text><!--MD5=[52cfa691c7380bb15d6909b33fed1604]
link Camera to Colour--><path d="M231.8235,130.4754 C231.8235,130.4754 256.37,135.41 268.12,141.44 " fill="none" id="Camera-Colour-1" style="stroke: #A80036; stroke-width: 1.0;"/><polygon fill="#A80036" points="279.39,147.95,273.5961,139.9856,275.06,145.4498,269.5958,146.9137,279.39,147.95" style="stroke: #A80036; stroke-width: 1.0;"/><line style="stroke: #A80036; stroke-width: 1.0;" x1="275.06" x2="268.135" y1="145.4498" y2="141.45"/><polygon fill="#FFFFFF" points="219.83,130.08,225.6949,134.2755,231.8235,130.4754,225.9585,126.2799,219.83,130.08" style="stroke: #A80036; stroke-width: 1.0;"/><text fill="#000000" font-family="sans-serif" font-size="13" lengthAdjust="spacingAndGlyphs" textLength="87" x="282.9493" y="136.9492">secondColour</text><!--MD5=[f4ae7dca2d2e412e06d496d9ea3b5679]
reverse link Camera to ProjectionType--><path d="M105.96,242.11 C98.63,257.93 91.11,274.14 84.73,287.91 " fill="none" id="Camera&lt;-ProjectionType" style="stroke: #A80036; stroke-width: 1.0;"/><ellipse cx="108.964" cy="235.6274" fill="#FFFFFF" rx="8" ry="8" style="stroke: #A80036; stroke-width: 1.0;"/><line style="stroke: #A80036; stroke-width: 1.0;" x1="105.598" x2="112.33" y1="242.8848" y2="228.37"/><line style="stroke: #A80036; stroke-width: 1.0;" x1="101.7066" x2="116.2214" y1="232.2614" y2="238.9934"/><!--MD5=[49081c46afd85788ce33807ef5b331eb]
@startuml
class Camera {
    + fovY : float = 45.0f
    + camSize : float = 0.0f
    + nearPlane : float = 0.1f
    + farPlane : float = 100.0f
    + Camera()
}
enum ProjectionType {
    Perspective= 0,
    Orthographic= 1,
}
enum BackgroundType {
    SolidColour= 1,
    Skybox= 2,
}
GameObject <|- - Camera
Camera - -> "activeCamera" Camera
Camera - -> "ViewMatrix" Matrix4x4
Camera o-> "ProjectionMatrix" Matrix4x4
Camera - -> "ProjectionType" required
Camera o-> "backgroundType" BackgroundType
Camera o-> "mainColour" Colour
Camera o-> "secondColour" Colour
Camera +- - ProjectionType
Camera +- - BackgroundType
@enduml

PlantUML version 1.2020.02(Sun Mar 01 10:22:07 GMT 2020)
(GPL source distribution)
Java Runtime: OpenJDK Runtime Environment
JVM: OpenJDK 64-Bit Server VM
Java Version: 11.0.9+11-Ubuntu-0ubuntu1
Operating System: Linux
Default Encoding: ANSI_X3.4-1968
Language: en
Country: US
--></g></svg>