<?xml version="1.0" encoding="UTF-8" standalone="no"?><svg xmlns="http://www.w3.org/2000/svg" xmlns:xlink="http://www.w3.org/1999/xlink" contentScriptType="application/ecmascript" contentStyleType="text/css" height="372px" preserveAspectRatio="none" style="width:752px;height:372px;" version="1.1" viewBox="0 0 752 372" width="752px" zoomAndPan="magnify"><defs><filter height="300%" id="ftkujjdvqune" width="300%" x="-1" y="-1"><feGaussianBlur result="blurOut" stdDeviation="2.0"/><feColorMatrix in="blurOut" result="blurOut2" type="matrix" values="0 0 0 0 0 0 0 0 0 0 0 0 0 0 0 0 0 0 .4 0"/><feOffset dx="4.0" dy="4.0" in="blurOut2" result="blurOut3"/><feBlend in="SourceGraphic" in2="blurOut3" mode="normal"/></filter></defs><g><!--MD5=[452be1aaf8b94e2bc4204d466ef769a4]
class Camera--><rect fill="#FEFECE" filter="url(#ftkujjdvqune)" height="112.0234" id="Camera" style="stroke: #A80036; stroke-width: 1.5;" width="170" x="53" y="116"/><ellipse cx="109.75" cy="132" fill="#ADD1B2" rx="11" ry="11" style="stroke: #A80036; stroke-width: 1.0;"/><path d="M112.7188,137.6406 Q112.1406,137.9375 111.5,138.0781 Q110.8594,138.2344 110.1563,138.2344 Q107.6563,138.2344 106.3281,136.5938 Q105.0156,134.9375 105.0156,131.8125 Q105.0156,128.6875 106.3281,127.0313 Q107.6563,125.375 110.1563,125.375 Q110.8594,125.375 111.5,125.5313 Q112.1563,125.6875 112.7188,125.9844 L112.7188,128.7031 Q112.0938,128.125 111.5,127.8594 Q110.9063,127.5781 110.2813,127.5781 Q108.9375,127.5781 108.25,128.6563 Q107.5625,129.7188 107.5625,131.8125 Q107.5625,133.9063 108.25,134.9844 Q108.9375,136.0469 110.2813,136.0469 Q110.9063,136.0469 111.5,135.7813 Q112.0938,135.5 112.7188,134.9219 L112.7188,137.6406 Z "/><text fill="#000000" font-family="sans-serif" font-size="12" lengthAdjust="spacingAndGlyphs" textLength="48" x="130.25" y="136.1543">Camera</text><line style="stroke: #A80036; stroke-width: 1.5;" x1="54" x2="222" y1="148" y2="148"/><ellipse cx="64" cy="159" fill="none" rx="3" ry="3" style="stroke: #038048; stroke-width: 1.0;"/><text fill="#000000" font-family="sans-serif" font-size="11" lengthAdjust="spacingAndGlyphs" textLength="107" x="73" y="162.2104">fovY : float = 45.0f</text><ellipse cx="64" cy="171.8047" fill="none" rx="3" ry="3" style="stroke: #038048; stroke-width: 1.0;"/><text fill="#000000" font-family="sans-serif" font-size="11" lengthAdjust="spacingAndGlyphs" textLength="123" x="73" y="175.0151">camSize : float = 0.0f</text><ellipse cx="64" cy="184.6094" fill="none" rx="3" ry="3" style="stroke: #038048; stroke-width: 1.0;"/><text fill="#000000" font-family="sans-serif" font-size="11" lengthAdjust="spacingAndGlyphs" textLength="133" x="73" y="187.8198">nearPlane : float = 0.1f</text><ellipse cx="64" cy="197.4141" fill="none" rx="3" ry="3" style="stroke: #038048; stroke-width: 1.0;"/><text fill="#000000" font-family="sans-serif" font-size="11" lengthAdjust="spacingAndGlyphs" textLength="144" x="73" y="200.6245">farPlane : float = 1000.0f</text><line style="stroke: #A80036; stroke-width: 1.5;" x1="54" x2="222" y1="207.2188" y2="207.2188"/><ellipse cx="64" cy="218.2188" fill="#84BE84" rx="3" ry="3" style="stroke: #038048; stroke-width: 1.0;"/><text fill="#000000" font-family="sans-serif" font-size="11" lengthAdjust="spacingAndGlyphs" textLength="53" x="73" y="221.4292">Camera()</text><!--MD5=[abe0da5fbd130c81a6e599d6ca83d066]
class ProjectionType--><rect fill="#FEFECE" filter="url(#ftkujjdvqune)" height="73.6094" id="ProjectionType" style="stroke: #A80036; stroke-width: 1.5;" width="124" x="6" y="288"/><ellipse cx="21" cy="304" fill="#EB937F" rx="11" ry="11" style="stroke: #A80036; stroke-width: 1.0;"/><path d="M25.1094,310 L17.3906,310 L17.3906,297.6094 L25.1094,297.6094 L25.1094,299.7656 L19.8438,299.7656 L19.8438,302.4375 L24.6094,302.4375 L24.6094,304.5938 L19.8438,304.5938 L19.8438,307.8438 L25.1094,307.8438 L25.1094,310 Z "/><text fill="#000000" font-family="sans-serif" font-size="12" lengthAdjust="spacingAndGlyphs" textLength="92" x="35" y="308.1543">ProjectionType</text><line style="stroke: #A80036; stroke-width: 1.5;" x1="7" x2="129" y1="320" y2="320"/><text fill="#000000" font-family="sans-serif" font-size="11" lengthAdjust="spacingAndGlyphs" textLength="90" x="12" y="334.2104">Perspective= 0,</text><text fill="#000000" font-family="sans-serif" font-size="11" lengthAdjust="spacingAndGlyphs" textLength="98" x="12" y="347.0151">Orthographic= 1,</text><line style="stroke: #A80036; stroke-width: 1.5;" x1="7" x2="129" y1="353.6094" y2="353.6094"/><!--MD5=[cac37eab84bb0dd9edfd92f8a9a575d5]
class BackgroundType--><rect fill="#FEFECE" filter="url(#ftkujjdvqune)" height="73.6094" id="BackgroundType" style="stroke: #A80036; stroke-width: 1.5;" width="136" x="383" y="135"/><ellipse cx="398" cy="151" fill="#EB937F" rx="11" ry="11" style="stroke: #A80036; stroke-width: 1.0;"/><path d="M402.1094,157 L394.3906,157 L394.3906,144.6094 L402.1094,144.6094 L402.1094,146.7656 L396.8438,146.7656 L396.8438,149.4375 L401.6094,149.4375 L401.6094,151.5938 L396.8438,151.5938 L396.8438,154.8438 L402.1094,154.8438 L402.1094,157 Z "/><text fill="#000000" font-family="sans-serif" font-size="12" lengthAdjust="spacingAndGlyphs" textLength="104" x="412" y="155.1543">BackgroundType</text><line style="stroke: #A80036; stroke-width: 1.5;" x1="384" x2="518" y1="167" y2="167"/><text fill="#000000" font-family="sans-serif" font-size="11" lengthAdjust="spacingAndGlyphs" textLength="89" x="389" y="181.2104">SolidColour= 1,</text><text fill="#000000" font-family="sans-serif" font-size="11" lengthAdjust="spacingAndGlyphs" textLength="64" x="389" y="194.0151">Skybox= 2,</text><line style="stroke: #A80036; stroke-width: 1.5;" x1="384" x2="518" y1="200.6094" y2="200.6094"/><!--MD5=[064f7a74fee85463ec1a30143664ee17]
class GameObject--><rect fill="#FEFECE" filter="url(#ftkujjdvqune)" height="48" id="GameObject" style="stroke: #A80036; stroke-width: 1.5;" width="108" x="84" y="8"/><ellipse cx="99" cy="24" fill="#ADD1B2" rx="11" ry="11" style="stroke: #A80036; stroke-width: 1.0;"/><path d="M101.9688,29.6406 Q101.3906,29.9375 100.75,30.0781 Q100.1094,30.2344 99.4063,30.2344 Q96.9063,30.2344 95.5781,28.5938 Q94.2656,26.9375 94.2656,23.8125 Q94.2656,20.6875 95.5781,19.0313 Q96.9063,17.375 99.4063,17.375 Q100.1094,17.375 100.75,17.5313 Q101.4063,17.6875 101.9688,17.9844 L101.9688,20.7031 Q101.3438,20.125 100.75,19.8594 Q100.1563,19.5781 99.5313,19.5781 Q98.1875,19.5781 97.5,20.6563 Q96.8125,21.7188 96.8125,23.8125 Q96.8125,25.9063 97.5,26.9844 Q98.1875,28.0469 99.5313,28.0469 Q100.1563,28.0469 100.75,27.7813 Q101.3438,27.5 101.9688,26.9219 L101.9688,29.6406 Z "/><text fill="#000000" font-family="sans-serif" font-size="12" lengthAdjust="spacingAndGlyphs" textLength="76" x="113" y="28.1543">GameObject</text><line style="stroke: #A80036; stroke-width: 1.5;" x1="85" x2="191" y1="40" y2="40"/><line style="stroke: #A80036; stroke-width: 1.5;" x1="85" x2="191" y1="48" y2="48"/><!--MD5=[95c6488d7c6702441d244c7706a4cd5e]
class Matrix4x4--><rect fill="#FEFECE" filter="url(#ftkujjdvqune)" height="48" id="Matrix4x4" style="stroke: #A80036; stroke-width: 1.5;" width="91" x="554.5" y="148"/><ellipse cx="569.5" cy="164" fill="#ADD1B2" rx="11" ry="11" style="stroke: #A80036; stroke-width: 1.0;"/><path d="M572.4688,169.6406 Q571.8906,169.9375 571.25,170.0781 Q570.6094,170.2344 569.9063,170.2344 Q567.4063,170.2344 566.0781,168.5938 Q564.7656,166.9375 564.7656,163.8125 Q564.7656,160.6875 566.0781,159.0313 Q567.4063,157.375 569.9063,157.375 Q570.6094,157.375 571.25,157.5313 Q571.9063,157.6875 572.4688,157.9844 L572.4688,160.7031 Q571.8438,160.125 571.25,159.8594 Q570.6563,159.5781 570.0313,159.5781 Q568.6875,159.5781 568,160.6563 Q567.3125,161.7188 567.3125,163.8125 Q567.3125,165.9063 568,166.9844 Q568.6875,168.0469 570.0313,168.0469 Q570.6563,168.0469 571.25,167.7813 Q571.8438,167.5 572.4688,166.9219 L572.4688,169.6406 Z "/><text fill="#000000" font-family="sans-serif" font-size="12" lengthAdjust="spacingAndGlyphs" textLength="59" x="583.5" y="168.1543">Matrix4x4</text><line style="stroke: #A80036; stroke-width: 1.5;" x1="555.5" x2="644.5" y1="180" y2="180"/><line style="stroke: #A80036; stroke-width: 1.5;" x1="555.5" x2="644.5" y1="188" y2="188"/><!--MD5=[45bfc27dd99ef1706679d8648dbf1ea4]
class required--><rect fill="#FEFECE" filter="url(#ftkujjdvqune)" height="48" id="required" style="stroke: #A80036; stroke-width: 1.5;" width="85" x="165.5" y="301"/><ellipse cx="180.5" cy="317" fill="#ADD1B2" rx="11" ry="11" style="stroke: #A80036; stroke-width: 1.0;"/><path d="M183.4688,322.6406 Q182.8906,322.9375 182.25,323.0781 Q181.6094,323.2344 180.9063,323.2344 Q178.4063,323.2344 177.0781,321.5938 Q175.7656,319.9375 175.7656,316.8125 Q175.7656,313.6875 177.0781,312.0313 Q178.4063,310.375 180.9063,310.375 Q181.6094,310.375 182.25,310.5313 Q182.9063,310.6875 183.4688,310.9844 L183.4688,313.7031 Q182.8438,313.125 182.25,312.8594 Q181.6563,312.5781 181.0313,312.5781 Q179.6875,312.5781 179,313.6563 Q178.3125,314.7188 178.3125,316.8125 Q178.3125,318.9063 179,319.9844 Q179.6875,321.0469 181.0313,321.0469 Q181.6563,321.0469 182.25,320.7813 Q182.8438,320.5 183.4688,319.9219 L183.4688,322.6406 Z "/><text fill="#000000" font-family="sans-serif" font-size="12" lengthAdjust="spacingAndGlyphs" textLength="53" x="194.5" y="321.1543">required</text><line style="stroke: #A80036; stroke-width: 1.5;" x1="166.5" x2="249.5" y1="333" y2="333"/><line style="stroke: #A80036; stroke-width: 1.5;" x1="166.5" x2="249.5" y1="341" y2="341"/><!--MD5=[4d4eb26d042d74c9fb837d4bd92f5625]
class Colour--><rect fill="#FEFECE" filter="url(#ftkujjdvqune)" height="48" id="Colour" style="stroke: #A80036; stroke-width: 1.5;" width="72" x="276" y="148"/><ellipse cx="291" cy="164" fill="#ADD1B2" rx="11" ry="11" style="stroke: #A80036; stroke-width: 1.0;"/><path d="M293.9688,169.6406 Q293.3906,169.9375 292.75,170.0781 Q292.1094,170.2344 291.4063,170.2344 Q288.9063,170.2344 287.5781,168.5938 Q286.2656,166.9375 286.2656,163.8125 Q286.2656,160.6875 287.5781,159.0313 Q288.9063,157.375 291.4063,157.375 Q292.1094,157.375 292.75,157.5313 Q293.4063,157.6875 293.9688,157.9844 L293.9688,160.7031 Q293.3438,160.125 292.75,159.8594 Q292.1563,159.5781 291.5313,159.5781 Q290.1875,159.5781 289.5,160.6563 Q288.8125,161.7188 288.8125,163.8125 Q288.8125,165.9063 289.5,166.9844 Q290.1875,168.0469 291.5313,168.0469 Q292.1563,168.0469 292.75,167.7813 Q293.3438,167.5 293.9688,166.9219 L293.9688,169.6406 Z "/><text fill="#000000" font-family="sans-serif" font-size="12" lengthAdjust="spacingAndGlyphs" textLength="40" x="305" y="168.1543">Colour</text><line style="stroke: #A80036; stroke-width: 1.5;" x1="277" x2="347" y1="180" y2="180"/><line style="stroke: #A80036; stroke-width: 1.5;" x1="277" x2="347" y1="188" y2="188"/><!--MD5=[455b3878053673eb324d55db35f0311b]
reverse link GameObject to Camera--><path d="M138,76.25 C138,88.82 138,102.73 138,115.93 " fill="none" id="GameObject&lt;-Camera" style="stroke: #A80036; stroke-width: 1.0;"/><polygon fill="none" points="131,76.1,138,56.1,145,76.1,131,76.1" style="stroke: #A80036; stroke-width: 1.0;"/><!--MD5=[f173aa7962a2f23c6d9ce5a7c0debb1c]
link Camera to Camera--><path d="M223.21,146.27 C243.23,148.38 258,156.96 258,172 C258,185.75 245.66,194.09 228.25,197.04 " fill="none" id="Camera-&gt;Camera" style="stroke: #A80036; stroke-width: 1.0;"/><polygon fill="#A80036" points="223.21,197.73,232.6654,200.4858,228.1648,197.0589,231.5917,192.5582,223.21,197.73" style="stroke: #A80036; stroke-width: 1.0;"/><text fill="#000000" font-family="sans-serif" font-size="13" lengthAdjust="spacingAndGlyphs" textLength="89" x="226.6797" y="216.1304">activeCamera</text><!--MD5=[c096e6caa077e0612dd39924b7533c9d]
link Camera to Matrix4x4--><path d="M220.78,116 C236.72,107.74 253.74,100.51 270.67,96 C325.36,81.44 473.14,74.11 525.33,96 C548.29,105.63 567.75,126.14 581.04,143.43 " fill="none" id="Camera-&gt;Matrix4x4" style="stroke: #A80036; stroke-width: 1.0;"/><polygon fill="#A80036" points="584.28,147.75,582.08,138.15,581.28,143.75,575.68,142.95,584.28,147.75" style="stroke: #A80036; stroke-width: 1.0;"/><text fill="#000000" font-family="sans-serif" font-size="13" lengthAdjust="spacingAndGlyphs" textLength="68" x="588.7357" y="137.094">ViewMatrix</text><!--MD5=[c096e6caa077e0612dd39924b7533c9d]
link Camera to Matrix4x4--><path d="M214.572,109.2149 C214.572,109.2149 259.01,83.05 282.33,76 C331.54,61.13 466.71,55.08 513.67,76 C541.56,88.43 564.22,114.82 579.31,136.79 " fill="none" id="Camera-Matrix4x4" style="stroke: #A80036; stroke-width: 1.0;"/><polygon fill="#A80036" points="586.5,147.78,584.9099,138.0603,583.7583,143.5987,578.2199,142.4471,586.5,147.78" style="stroke: #A80036; stroke-width: 1.0;"/><line style="stroke: #A80036; stroke-width: 1.0;" x1="583.7583" x2="579.385" y1="143.5987" y2="136.905"/><polygon fill="#FFFFFF" points="204.62,115.92,211.831,115.8848,214.572,109.2149,207.361,109.2501,204.62,115.92" style="stroke: #A80036; stroke-width: 1.0;"/><text fill="#000000" font-family="sans-serif" font-size="13" lengthAdjust="spacingAndGlyphs" textLength="102" x="638.0625" y="136.9482">ProjectionMatrix</text><!--MD5=[078ebd1dc3dbee9771d4dc21cccc3360]
link Camera to required--><path d="M163.67,228.37 C174.39,251.49 186.37,277.33 195.17,296.32 " fill="none" id="Camera-&gt;required" style="stroke: #A80036; stroke-width: 1.0;"/><polygon fill="#A80036" points="197.33,300.99,197.1844,291.1422,195.232,296.4515,189.9228,294.499,197.33,300.99" style="stroke: #A80036; stroke-width: 1.0;"/><text fill="#000000" font-family="sans-serif" font-size="13" lengthAdjust="spacingAndGlyphs" textLength="93" x="206.5114" y="289.9995">ProjectionType</text><!--MD5=[eb17407a7616c4f3b6c3e30db0e3a4db]
link Camera to BackgroundType--><path d="M231.5446,110.6969 C231.5446,110.6969 257.84,99.41 270.67,96 C306.6,86.44 319.19,83.84 354.33,96 C372.86,102.41 390.53,114 405.57,126.22 " fill="none" id="Camera-BackgroundType" style="stroke: #A80036; stroke-width: 1.0;"/><polygon fill="#A80036" points="415.55,134.74,411.2965,125.857,411.7452,131.496,406.1062,131.9447,415.55,134.74" style="stroke: #A80036; stroke-width: 1.0;"/><line style="stroke: #A80036; stroke-width: 1.0;" x1="411.7452" x2="405.66" y1="131.496" y2="126.3"/><polygon fill="#FFFFFF" points="220.78,116,227.93,116.9366,231.5446,110.6969,224.3946,109.7602,220.78,116" style="stroke: #A80036; stroke-width: 1.0;"/><text fill="#000000" font-family="sans-serif" font-size="13" lengthAdjust="spacingAndGlyphs" textLength="105" x="294.8839" y="123.8806">backgroundType</text><!--MD5=[7951f2cf589059147959a3a41070a903]
reverse link Camera to BackgroundType--><path d="M217.16,107.51 C237.28,94.57 259.66,82.85 282.33,76 C308,68.24 317.59,66.49 342.67,76 C373.68,87.76 401.52,112.92 421.2,134.53 " fill="none" id="Camera&lt;-BackgroundType" style="stroke: #A80036; stroke-width: 1.0;"/><ellipse cx="211.267" cy="111.4683" fill="#FFFFFF" rx="8" ry="8" style="stroke: #A80036; stroke-width: 1.0;"/><line style="stroke: #A80036; stroke-width: 1.0;" x1="217.914" x2="204.62" y1="107.0167" y2="115.92"/><line style="stroke: #A80036; stroke-width: 1.0;" x1="215.7187" x2="206.8153" y1="118.1153" y2="104.8213"/><!--MD5=[52cfa691c7380bb15d6909b33fed1604]
link Camera to Colour--><path d="M235.2819,213.3209 C235.2819,213.3209 259.21,208.22 270.53,202.5 " fill="none" id="Camera-Colour" style="stroke: #A80036; stroke-width: 1.0;"/><polygon fill="#A80036" points="281.86,196.06,272.0585,197.0242,277.5117,198.5283,276.0077,203.9815,281.86,196.06" style="stroke: #A80036; stroke-width: 1.0;"/><line style="stroke: #A80036; stroke-width: 1.0;" x1="277.5117" x2="270.555" y1="198.5283" y2="202.485"/><polygon fill="#FFFFFF" points="223.3,213.98,229.5106,217.6444,235.2819,213.3209,229.0713,209.6565,223.3,213.98" style="stroke: #A80036; stroke-width: 1.0;"/><text fill="#000000" font-family="sans-serif" font-size="13" lengthAdjust="spacingAndGlyphs" textLength="73" x="283.4898" y="216.2312">mainColour</text><!--MD5=[52cfa691c7380bb15d6909b33fed1604]
link Camera to Colour--><path d="M235.2819,130.6791 C235.2819,130.6791 259.21,135.78 270.53,141.5 " fill="none" id="Camera-Colour-1" style="stroke: #A80036; stroke-width: 1.0;"/><polygon fill="#A80036" points="281.86,147.94,276.0077,140.0185,277.5117,145.4717,272.0585,146.9758,281.86,147.94" style="stroke: #A80036; stroke-width: 1.0;"/><line style="stroke: #A80036; stroke-width: 1.0;" x1="277.5117" x2="270.555" y1="145.4717" y2="141.515"/><polygon fill="#FFFFFF" points="223.3,130.02,229.0713,134.3435,235.2819,130.6791,229.5106,126.3556,223.3,130.02" style="stroke: #A80036; stroke-width: 1.0;"/><text fill="#000000" font-family="sans-serif" font-size="13" lengthAdjust="spacingAndGlyphs" textLength="87" x="285.2835" y="136.9367">secondColour</text><!--MD5=[f4ae7dca2d2e412e06d496d9ea3b5679]
reverse link Camera to ProjectionType--><path d="M105.96,242.11 C98.63,257.93 91.11,274.14 84.73,287.91 " fill="none" id="Camera&lt;-ProjectionType" style="stroke: #A80036; stroke-width: 1.0;"/><ellipse cx="108.964" cy="235.6274" fill="#FFFFFF" rx="8" ry="8" style="stroke: #A80036; stroke-width: 1.0;"/><line style="stroke: #A80036; stroke-width: 1.0;" x1="105.598" x2="112.33" y1="242.8848" y2="228.37"/><line style="stroke: #A80036; stroke-width: 1.0;" x1="101.7066" x2="116.2214" y1="232.2614" y2="238.9934"/><!--MD5=[db082517a37ab7a474a0c1229b2899ba]
@startuml
class Camera {
    + fovY : float = 45.0f
    + camSize : float = 0.0f
    + nearPlane : float = 0.1f
    + farPlane : float = 1000.0f
    + Camera()
}
enum ProjectionType {
    Perspective= 0,
    Orthographic= 1,
}
enum BackgroundType {
    SolidColour= 1,
    Skybox= 2,
}
GameObject <|- - Camera
Camera - -> "activeCamera" Camera
Camera - -> "ViewMatrix" Matrix4x4
Camera o-> "ProjectionMatrix" Matrix4x4
Camera - -> "ProjectionType" required
Camera o-> "backgroundType" BackgroundType
Camera o-> "mainColour" Colour
Camera o-> "secondColour" Colour
Camera +- - ProjectionType
Camera +- - BackgroundType
@enduml

PlantUML version 1.2020.02(Sun Mar 01 10:22:07 GMT 2020)
(GPL source distribution)
Java Runtime: OpenJDK Runtime Environment
JVM: OpenJDK 64-Bit Server VM
Java Version: 11.0.9+11-Ubuntu-0ubuntu1
Operating System: Linux
Default Encoding: ANSI_X3.4-1968
Language: en
Country: US
--></g></svg>